<svg width="311" height="204" viewBox="0 0 311 204" fill="none" xmlns="http://www.w3.org/2000/svg">
<path d="M227.226 34.6103C210.009 31.9354 173.636 27.5418 153.474 27.4832C78.0877 27.264 16.9414 38.6129 16.726 112.678C16.5107 186.743 78.0878 202.781 153.474 203C228.861 203.219 289.51 187.537 289.725 113.472C289.86 67.0544 276.674 47.976 240.226 38.022C230.756 20.7889 225.074 21.0202 214.725 19.0176C223.214 22.7566 227.238 30.4318 227.226 34.6103Z" fill="#EC778F" stroke="#FFC6D1" stroke-opacity="0.38"/>
<path d="M107.804 48.216V49.32H113.436V48.216H107.804ZM100.876 55.288V56.248H107.388V55.288H100.876ZM103.916 48.664V50.968H104.988V48.664H103.916ZM103.916 53.416V55.752H104.988V53.416H103.916ZM113.18 48.216V48.424C112.412 51.816 110.14 54.264 107.564 55.256C107.804 55.48 108.124 55.944 108.252 56.232C111.052 54.984 113.42 52.44 114.332 48.44L113.596 48.168L113.388 48.216H113.18ZM109.356 49.4L108.332 49.704C109.372 52.936 111.34 55.432 114.14 56.648C114.316 56.344 114.636 55.928 114.892 55.704C112.22 54.664 110.284 52.328 109.356 49.4ZM101.356 50.488V51.4H106.108V52.968H101.356V53.88H107.18V50.488H101.356ZM100.876 48.168V55.896H101.996V49.128H107.244V48.168H100.876ZM100.236 60.76V61.816H114.764V60.76H100.236ZM101.916 57.784V58.808H113.084V57.784H101.916ZM106.844 56.616V61.432H108.076V56.616H106.844ZM122.108 49.64V50.744H130.092V49.64H122.108ZM121.468 55.656V56.776H130.748V55.656H121.468ZM121.276 52.776V53.88H130.86V52.776H121.276ZM125.516 47.64V53.352H126.652V47.64H125.516ZM127.628 53.64V60.824C127.628 61.048 127.564 61.112 127.308 61.128C127.068 61.144 126.236 61.144 125.34 61.112C125.484 61.448 125.644 61.928 125.692 62.264C126.892 62.264 127.676 62.264 128.14 62.072C128.62 61.896 128.78 61.56 128.78 60.84V53.64H127.628ZM122.652 57.752C123.356 58.616 124.124 59.816 124.412 60.6L125.42 59.976C125.084 59.208 124.284 58.056 123.58 57.208L122.652 57.752ZM115.932 56.072L116.252 57.24C117.612 56.792 119.404 56.216 121.084 55.656L120.924 54.552C119.084 55.144 117.196 55.72 115.932 56.072ZM116.156 50.792V51.912H121.036V50.792H116.156ZM118.22 47.576V60.84C118.22 61.064 118.14 61.128 117.948 61.128C117.756 61.144 117.148 61.144 116.444 61.112C116.604 61.448 116.748 61.944 116.796 62.232C117.804 62.248 118.428 62.2 118.796 62.024C119.196 61.832 119.356 61.496 119.356 60.84V47.576H118.22ZM136.62 49.336V50.456H146.892V49.336H136.62ZM138.204 53.032H145.196V55.432H138.204V53.032ZM137.1 52.008V56.456H146.364V52.008H137.1ZM138.092 56.776L137.1 57.112C138.796 60.04 142.076 61.704 146.316 62.312C146.476 61.976 146.78 61.496 147.036 61.24C142.876 60.776 139.596 59.288 138.092 56.776ZM141.068 47.624V54.696C141.068 57.4 140.796 60.136 136.044 61.336C136.284 61.592 136.62 62.072 136.764 62.344C141.724 60.872 142.252 57.8 142.252 54.712V47.624H141.068ZM135.932 47.528C135.004 49.96 133.436 52.344 131.82 53.864C132.044 54.152 132.38 54.776 132.492 55.048C134.268 53.272 135.98 50.584 137.068 47.88L135.932 47.528ZM134.252 51.72V62.36H135.404V50.6L135.388 50.584L134.252 51.72ZM150.62 48.696V49.848H160.972V48.696H150.62ZM150.62 52.424V53.56H160.956V52.424H150.62ZM150.54 56.248V57.384H160.988V56.248H150.54ZM149.948 48.696V54.488C149.948 56.744 149.772 59.592 148.012 61.576C148.268 61.736 148.748 62.136 148.94 62.376C150.844 60.248 151.132 56.936 151.132 54.504V48.696H149.948ZM160.492 48.696V60.648C160.492 60.952 160.38 61.048 160.076 61.064C159.772 61.064 158.684 61.08 157.548 61.032C157.724 61.352 157.916 61.88 157.964 62.2C159.484 62.216 160.412 62.2 160.956 62.008C161.484 61.8 161.676 61.432 161.676 60.648V48.696H160.492ZM154.972 49.128V62.136H156.188V49.128H154.972ZM167.5 50.856H175.532V51.992H167.5V50.856ZM167.5 48.936H175.532V50.04H167.5V48.936ZM166.332 48.072V52.84H176.716V48.072H166.332ZM164.428 53.736V54.728H178.524V53.736H164.428ZM171.532 55.736V56.712H177.228V55.736H171.532ZM166.508 55.832V56.728H170.46V55.832H166.508ZM166.508 57.848V58.744H170.46V57.848H166.508ZM173.212 56.632L172.236 56.92C173.292 59.544 175.356 61.448 178.172 62.28C178.332 61.992 178.652 61.56 178.908 61.336C176.188 60.664 174.14 58.92 173.212 56.632ZM176.86 55.736V55.928C175.98 58.616 173.516 60.488 170.956 61.256C171.18 61.48 171.484 61.912 171.612 62.2C174.396 61.24 176.972 59.24 178.028 55.992L177.292 55.688L177.084 55.736H176.86ZM164.284 60.296L164.396 61.368C166.044 61.176 168.268 60.904 170.428 60.648V59.656C168.172 59.912 165.852 60.168 164.284 60.296ZM169.82 54.056V62.28H170.972V54.056H169.82ZM165.804 54.072V60.584H166.924V54.072H165.804ZM186.652 48.392V49.512H193.676V48.392H186.652ZM186.108 54.008V55.16H194.908V54.008H186.108ZM189.884 51.88V60.76C189.884 61 189.804 61.08 189.532 61.096C189.244 61.112 188.348 61.112 187.34 61.08C187.5 61.4 187.708 61.928 187.772 62.248C189.052 62.264 189.884 62.232 190.412 62.04C190.908 61.848 191.084 61.496 191.084 60.776V51.88H189.884ZM193.244 48.392V48.664C192.604 49.704 191.276 51.208 190.124 52.072C190.332 52.232 190.668 52.552 190.844 52.776C192.124 51.816 193.612 50.264 194.572 48.904L193.788 48.328L193.532 48.392H193.244ZM180.188 50.872V51.992H185.452V50.872H180.188ZM182.604 47.576C182.06 50.616 181.1 54.904 180.396 57.352L181.404 57.88C182.124 55.224 183.132 50.904 183.74 47.704L182.604 47.576ZM180.988 56.84C182.78 57.88 184.844 59.512 185.804 60.712L186.524 59.736C185.564 58.552 183.452 57.016 181.66 56.008L180.988 56.84ZM185.052 50.872V51.112C184.652 56.552 182.988 59.944 180.316 61.352C180.572 61.592 180.908 62.024 181.068 62.312C184.012 60.552 185.756 57.16 186.188 50.968L185.468 50.824L185.244 50.872H185.052ZM197.596 50.136V51.208H201.34V59.512H197.596V60.6H202.46V50.136H197.596ZM196.876 50.136V61.88H197.996V50.136H196.876ZM197.516 54.584V55.656H201.932V54.584H197.516ZM199.324 47.528C199.196 48.36 198.892 49.576 198.62 50.344L199.58 50.584C199.9 49.864 200.3 48.76 200.62 47.768L199.324 47.528ZM204.732 50.088V51.208H209.644V50.088H204.732ZM209.228 50.088V50.344C209.004 57.4 208.748 60.056 208.22 60.632C208.044 60.84 207.852 60.888 207.532 60.888C207.164 60.888 206.204 60.872 205.164 60.792C205.388 61.112 205.532 61.608 205.564 61.96C206.46 62.008 207.404 62.04 207.948 61.976C208.508 61.928 208.876 61.784 209.228 61.32C209.868 60.536 210.092 58.056 210.348 50.712C210.348 50.536 210.348 50.088 210.348 50.088H209.228ZM205.068 47.496C204.556 49.72 203.676 51.928 202.588 53.336C202.876 53.496 203.372 53.832 203.58 54.024C204.684 52.504 205.628 50.152 206.22 47.768L205.068 47.496ZM204.332 54.248C205.212 55.416 206.284 57 206.764 57.976L207.788 57.336C207.276 56.392 206.172 54.84 205.26 53.704L204.332 54.248ZM57.484 76.68V77.608H66.684V76.68H57.484ZM57.788 81.832V82.648H66.476V81.832H57.788ZM58.06 83.48V84.28H66.188V83.48H58.06ZM57.292 85.176V86.072H66.78V85.176H57.292ZM61.404 75.56V77.144H62.62V75.56H61.404ZM59.74 80.952V85.576H60.828V80.952H59.74ZM63.244 80.952V85.576H64.332V80.952H63.244ZM61.292 85.4C60.412 86.296 58.636 86.984 57.036 87.416C57.228 87.592 57.532 88.008 57.644 88.216C59.292 87.672 61.196 86.808 62.204 85.688L61.292 85.4ZM62.876 85.56L61.964 85.768C62.684 87.96 64.172 89.592 66.332 90.312C66.476 90.04 66.78 89.656 67.02 89.448C64.972 88.888 63.516 87.416 62.876 85.56ZM65.884 86.328C65.292 86.744 64.252 87.352 63.532 87.688L64.108 88.28C64.844 87.96 65.82 87.48 66.54 86.952L65.884 86.328ZM59.02 79H60.716V80.232H59.02V79ZM58.108 78.248V80.968H61.676V78.248H58.108ZM63.452 79H65.196V80.232H63.452V79ZM62.524 78.248V80.968H66.156V78.248H62.524ZM52.764 80.408V81.368H56.876V80.408H52.764ZM52.86 76.136V77.096H56.828V76.136H52.86ZM52.764 82.552V83.512H56.876V82.552H52.764ZM52.108 78.232V79.224H57.276V78.232H52.108ZM53.324 84.712V85.704H55.852V88.376H53.324V89.368H56.86V84.712H53.324ZM52.732 84.712V90.12H53.724V84.712H52.732ZM57.98 89.192L58.284 90.168C59.692 89.912 61.5 89.592 63.26 89.256L63.196 88.36C61.276 88.68 59.324 89 57.98 89.192ZM59.468 86.968V89.368H60.508V86.568L60.044 86.392L59.468 86.968ZM68.476 76.456V77.56H75.372V76.456H68.476ZM76.508 81.016V82.168H82.94V81.016H76.508ZM79.98 81.768V90.296H81.164V81.768H79.98ZM76.044 77.144V81.416C76.044 83.864 75.82 87.08 73.596 89.448C73.884 89.592 74.316 89.992 74.492 90.248C76.892 87.672 77.228 84.008 77.228 81.416V77.752C77.452 77.72 77.532 77.656 77.548 77.544L76.044 77.144ZM69.068 79.224V83.544C69.068 85.384 68.956 87.848 67.836 89.576C68.092 89.72 68.588 90.088 68.78 90.312C70.012 88.424 70.204 85.592 70.204 83.544V79.224H69.068ZM81.564 75.752C80.364 76.44 78.204 77.128 76.3 77.576C76.46 77.848 76.652 78.28 76.716 78.552C78.716 78.088 81.036 77.432 82.62 76.664L81.564 75.752ZM69.724 79.224V80.328H73.804V83.128H69.724V84.216H74.972V79.224H69.724ZM84.508 77.64V78.776H98.524V77.64H84.508ZM88.412 83.352V84.392H95.932V83.352H88.412ZM87.564 80.632V90.28H88.748V81.704H95.74V80.632H87.564ZM95.468 80.632V88.776C95.468 89.016 95.372 89.096 95.1 89.112C94.812 89.112 93.836 89.128 92.764 89.08C92.94 89.416 93.116 89.912 93.164 90.248C94.54 90.248 95.436 90.248 95.948 90.056C96.492 89.864 96.636 89.496 96.636 88.792V80.632H95.468ZM89.74 75.56C88.876 78.776 86.988 82.168 84.124 84.136C84.364 84.376 84.732 84.792 84.892 85.064C87.948 82.92 89.868 79.368 90.956 75.848L89.74 75.56ZM88.412 86.056V87.096H95.932V86.056H88.412ZM106.668 76.056C106.556 78.184 106.556 85.88 100.028 89.208C100.396 89.48 100.796 89.848 101.004 90.152C107.628 86.552 107.868 78.568 107.996 76.056H106.668ZM107.948 76.376L106.796 76.488C106.908 77.96 107.356 86.904 114.14 90.152C114.332 89.816 114.7 89.416 115.052 89.144C108.46 86.12 107.996 77.624 107.948 76.376ZM116.908 77.432V78.488H122.508V77.432H116.908ZM118.604 88.248V89.272H123.084V88.248H118.604ZM118.588 85.592V86.552H123.1V85.592H118.588ZM116.188 80.408V81.48H124.46V80.408H116.188ZM119.388 75.704V81.096H120.508V75.704H119.388ZM123.628 76.12C122.044 79.832 119.308 82.744 115.836 84.472C116.06 84.712 116.444 85.192 116.588 85.448C120.108 83.512 122.956 80.44 124.716 76.44L123.628 76.12ZM118.972 83.032H118.54L117.868 83.736V90.216H118.972V84.04H123.052V83.032H118.972ZM122.572 83.032V89.992H123.74V83.032H122.572ZM125.132 76.488V90.28H126.332V77.608H129.916V76.488H125.132ZM129.612 76.488V76.856C129.1 78.152 128.204 80.328 127.34 81.992C129.036 83.384 129.548 84.6 129.548 85.608C129.548 86.2 129.436 86.664 129.052 86.872C128.86 86.984 128.588 87.048 128.3 87.064C127.948 87.096 127.468 87.08 126.956 87.032C127.148 87.352 127.292 87.88 127.308 88.2C127.804 88.232 128.38 88.232 128.812 88.184C129.228 88.136 129.596 88.024 129.884 87.832C130.476 87.448 130.716 86.712 130.7 85.72C130.7 84.568 130.268 83.304 128.588 81.816C129.372 80.344 130.236 78.488 130.908 76.984L130.044 76.424L129.852 76.488H129.612ZM134.812 75.56C134.428 76.728 133.676 78.408 133.068 79.432L134.092 79.736C134.732 78.728 135.484 77.176 136.06 75.848L134.812 75.56ZM132.124 78.952L132.236 80.12C133.98 80.024 136.46 79.896 138.844 79.752L138.86 78.68C136.348 78.792 133.804 78.904 132.124 78.952ZM133.1 81.272V90.264H134.22V82.296H138.172V81.272H133.1ZM137.628 81.272V88.888C137.628 89.096 137.564 89.144 137.356 89.144C137.132 89.16 136.444 89.176 135.692 89.144C135.852 89.448 136.028 89.928 136.092 90.248C137.1 90.248 137.804 90.232 138.252 90.04C138.684 89.848 138.812 89.512 138.812 88.904V81.272H137.628ZM133.628 83.656V84.6H138.252V83.656H133.628ZM133.628 86.056V87.016H138.252V86.056H133.628ZM140.316 75.592V80.904C140.316 82.232 140.716 82.6 142.252 82.6C142.572 82.6 144.668 82.6 145.004 82.6C146.3 82.6 146.652 82.072 146.796 80.12C146.444 80.04 145.964 79.864 145.708 79.656C145.644 81.24 145.532 81.512 144.908 81.512C144.444 81.512 142.7 81.512 142.364 81.512C141.628 81.512 141.5 81.4 141.5 80.888V75.592H140.316ZM145.212 76.776C144.124 77.336 142.3 78.04 140.716 78.536C140.86 78.776 141.02 79.128 141.084 79.384C142.732 78.92 144.652 78.296 146.012 77.656L145.212 76.776ZM140.316 83.032V88.456C140.316 89.784 140.732 90.152 142.284 90.152C142.62 90.152 144.78 90.152 145.132 90.152C146.476 90.152 146.828 89.576 146.988 87.416C146.652 87.352 146.172 87.16 145.9 86.968C145.82 88.776 145.724 89.08 145.036 89.08C144.556 89.08 142.748 89.08 142.412 89.08C141.644 89.08 141.5 88.984 141.5 88.44V83.032H140.316ZM145.404 83.912C144.316 84.616 142.38 85.352 140.716 85.832C140.844 86.072 141.02 86.456 141.084 86.696C142.812 86.232 144.86 85.576 146.204 84.808L145.404 83.912ZM136.812 77.08C137.66 78.216 138.524 79.752 138.86 80.728L139.916 80.264C139.548 79.272 138.652 77.8 137.804 76.68L136.812 77.08ZM149.324 77.032V78.184H151.852V85.192H149.324V86.344H152.956V77.032H149.324ZM148.716 77.032V87.608H149.82V77.032H148.716ZM155.324 78.024V79.16H162.62V78.024H155.324ZM154.972 81.336V82.456H160.716V81.336H154.972ZM155.996 75.56C155.436 77.624 154.444 79.624 153.212 80.904C153.5 81.08 153.98 81.48 154.204 81.688C155.436 80.28 156.524 78.12 157.196 75.832L155.996 75.56ZM160.54 81.336C154.236 86.536 153.964 87.56 153.964 88.408C153.964 89.432 154.732 90.04 156.444 90.04H160.86C162.3 90.04 162.796 89.592 162.956 86.856C162.604 86.792 162.172 86.632 161.852 86.456C161.788 88.568 161.612 88.856 160.924 88.856H156.396C155.676 88.856 155.212 88.68 155.212 88.248C155.212 87.72 155.628 86.888 161.644 81.976C161.724 81.896 161.788 81.816 161.836 81.736L161.02 81.288L160.732 81.336H160.54ZM171.196 79.128H176.492V80.44H171.196V79.128ZM171.196 76.968H176.492V78.264H171.196V76.968ZM170.044 76.056V81.352H177.692V76.056H170.044ZM169.052 82.456V83.464H178.46V82.456H169.052ZM168.684 84.84V85.896H178.748V84.84H168.684ZM175.148 83.336V88.936C175.148 89.144 175.084 89.208 174.828 89.224C174.588 89.24 173.788 89.24 172.876 89.208C173.036 89.528 173.228 89.976 173.276 90.296C174.476 90.296 175.244 90.296 175.724 90.104C176.204 89.928 176.348 89.608 176.348 88.968V83.336H175.148ZM170.076 86.712C170.796 87.416 171.66 88.408 172.044 89.048L172.956 88.376C172.54 87.752 171.66 86.808 170.924 86.136L170.076 86.712ZM167.804 79.128C166.844 80.792 165.292 82.44 163.836 83.496C164.044 83.768 164.38 84.408 164.476 84.648C166.06 83.4 167.772 81.464 168.86 79.56L167.804 79.128ZM167.5 75.608C166.812 76.744 165.372 78.072 164.092 78.904C164.3 79.144 164.604 79.608 164.732 79.88C166.156 78.936 167.692 77.432 168.652 76.056L167.5 75.608ZM166.364 81.96V90.28H167.532V80.856L167.484 80.824L166.364 81.96ZM186.828 75.56V78.136H188.092V75.56H186.828ZM180.86 77.256V80.712H182.076V78.392H192.956V80.712H194.22V77.256H180.86ZM186.188 79.112C185.1 81.464 183.372 84.728 182.204 86.648L183.436 86.984C184.572 85.048 186.252 81.816 187.436 79.384L186.188 79.112ZM190.428 82.424C189.388 86.872 186.204 88.552 180.78 89.224C181.004 89.496 181.372 90.024 181.5 90.312C187.02 89.432 190.444 87.576 191.756 82.616L190.428 82.424ZM180.396 81.704V82.84H194.604V81.704H180.396ZM183.132 86.088C186.572 87.08 190.812 88.888 192.94 90.312L193.836 89.32C191.596 87.896 187.308 86.168 183.948 85.24L183.132 86.088ZM200.364 80.04V88.072C200.364 89.64 200.86 90.072 202.556 90.072C202.924 90.072 205.308 90.072 205.692 90.072C207.436 90.072 207.804 89.176 207.98 86.152C207.628 86.072 207.132 85.848 206.844 85.608C206.716 88.376 206.572 88.968 205.628 88.968C205.084 88.968 203.068 88.968 202.668 88.968C201.788 88.968 201.596 88.824 201.596 88.072V80.04H200.364ZM200.492 76.552C202.428 77.24 204.764 78.44 205.996 79.368L206.764 78.312C205.5 77.448 203.18 76.296 201.244 75.64L200.492 76.552ZM197.692 81.32C197.468 83.4 196.94 85.736 195.868 87.144L196.956 87.8C198.108 86.264 198.604 83.704 198.844 81.56L197.692 81.32ZM207.02 81.336C208.38 83.144 209.58 85.64 209.932 87.32L211.132 86.744C210.732 85.048 209.532 82.632 208.092 80.808L207.02 81.336ZM222.028 75.688V88.392H223.148V75.688H222.028ZM218.604 79.112V80.04H226.988V79.112H218.604ZM218.956 85.64V86.568H226.684V85.64H218.956ZM219.436 83.448V84.376H226.236V83.448H219.436ZM215.804 76.888V77.896H218.124V76.888H215.804ZM216.412 81.384V82.312H218.46V81.384H216.412ZM217.868 76.888V77.032C217.34 78.344 216.236 80.968 215.356 82.824L216.364 83.064C217.228 81.192 218.316 78.712 218.972 77.048L218.204 76.84L218.012 76.888H217.868ZM218.14 81.384V81.576C217.82 85.384 216.716 88.088 214.988 89.352C215.228 89.576 215.532 89.976 215.676 90.232C217.66 88.68 218.796 85.912 219.18 81.48L218.54 81.352L218.348 81.384H218.14ZM216.476 83.608L215.548 83.896C216.604 88.856 218.716 89.992 222.54 89.992H226.62C226.684 89.672 226.86 89.16 227.036 88.888C226.348 88.904 223.1 88.904 222.588 88.904C219.324 88.904 217.34 87.944 216.476 83.608ZM219.692 76.968V77.896H224.988V81.288H219.692V82.232H226.028V76.968H219.692ZM214.972 75.656C214.284 78.008 213.132 80.312 211.82 81.832C212.012 82.136 212.316 82.792 212.428 83.064C213.9 81.288 215.228 78.6 216.06 75.96L214.972 75.656ZM213.836 79.704V90.248H214.908V78.664L214.892 78.648L213.836 79.704ZM230.924 81.432V82.344H242.86V81.432H230.924ZM232.06 79.368V80.248H240.14V83.592H231.932V84.472H241.276V79.368H232.06ZM235.804 78.232V88.904C235.804 89.176 235.724 89.256 235.436 89.256C235.164 89.272 234.188 89.288 233.196 89.256C233.372 89.56 233.532 90.024 233.596 90.312C234.908 90.312 235.772 90.296 236.284 90.12C236.78 89.96 236.972 89.656 236.972 88.904V78.232H235.804ZM231.324 85.336C232.156 85.832 233.18 86.568 233.676 87.064L234.412 86.328C233.868 85.848 232.844 85.144 232.012 84.68L231.324 85.336ZM241.084 84.76C240.332 85.4 239.036 86.28 238.092 86.792L238.78 87.4C239.756 86.936 241.004 86.184 241.964 85.464L241.084 84.76ZM237.228 84.152L236.3 84.376C237.244 87.16 239.116 89.208 241.804 90.12C241.964 89.816 242.284 89.384 242.54 89.16C239.932 88.408 238.076 86.568 237.228 84.152ZM230.476 88.68L231.052 89.656C232.204 89.192 233.644 88.6 235.02 88.008L234.812 87.128C233.212 87.72 231.564 88.328 230.476 88.68ZM235.34 75.576V77.608H236.572V75.576H235.34ZM229.964 77.048V78.104H242.668V77.048H229.964ZM229.388 77.048V81.768C229.388 84.12 229.276 87.384 227.996 89.704C228.268 89.816 228.764 90.136 228.972 90.344C230.316 87.912 230.524 84.28 230.524 81.768V77.048H229.388ZM246.604 85.112C245.26 85.112 244.156 86.2 244.156 87.544C244.156 88.888 245.26 89.976 246.604 89.976C247.948 89.976 249.036 88.888 249.036 87.544C249.036 86.2 247.948 85.112 246.604 85.112ZM246.604 89.16C245.708 89.16 244.972 88.44 244.972 87.544C244.972 86.648 245.708 85.928 246.604 85.928C247.5 85.928 248.22 86.648 248.22 87.544C248.22 88.44 247.5 89.16 246.604 89.16ZM105.324 106.088C106.348 107.272 107.388 108.92 107.804 110.024L108.956 109.4C108.492 108.312 107.468 106.728 106.396 105.56L105.324 106.088ZM100.06 115.304L100.492 116.552C102.268 115.784 104.7 114.712 106.924 113.688L106.652 112.52C104.252 113.576 101.692 114.664 100.06 115.304ZM109.66 113.192C111.196 114.76 113.116 116.92 114.012 118.248L115.036 117.304C114.092 115.992 112.108 113.912 110.588 112.408L109.66 113.192ZM111.884 104.392C111.164 111.352 109.468 115.272 103.932 117.288C104.236 117.544 104.716 118.072 104.892 118.328C110.492 115.992 112.364 111.912 113.18 104.52L111.884 104.392ZM102.012 104.44L102.284 115.016L103.516 114.968L103.244 104.392L102.012 104.44ZM122.924 113.016V117.4H124.092V113.016H122.924ZM120.508 109.144H126.556V110.664H120.508V109.144ZM119.388 108.232V111.592H127.756V108.232H119.388ZM117.916 112.52V118.328H119.068V113.448H128.14V118.28H129.34V112.52H117.916ZM118.588 114.728V115.608H128.572V114.728H118.588ZM118.588 116.936V117.864H128.572V116.936H118.588ZM122.844 103.56V106.568H124.06V103.56H122.844ZM116.812 106.024V109.336H117.964V107.08H129.132V109.336H130.332V106.024H116.812ZM118.14 104.2C118.652 104.824 119.228 105.704 119.484 106.264L120.604 105.752C120.316 105.192 119.74 104.376 119.196 103.768L118.14 104.2ZM127.74 103.704C127.42 104.344 126.796 105.256 126.316 105.848L127.308 106.216C127.804 105.688 128.428 104.888 128.972 104.12L127.74 103.704ZM132.428 113.928V114.968H146.588V113.928H132.428ZM135.116 111.048V112.024H142.812V111.048H135.116ZM138.892 112.952V116.936C138.892 117.16 138.828 117.24 138.54 117.24C138.22 117.272 137.196 117.272 136.028 117.224C136.204 117.544 136.396 117.976 136.476 118.296C137.868 118.296 138.796 118.296 139.356 118.12C139.916 117.96 140.076 117.656 140.076 116.968V112.952H138.892ZM142.412 111.048V111.272C141.74 111.88 140.38 112.648 139.18 113.08C139.356 113.24 139.66 113.56 139.804 113.768C141.164 113.256 142.684 112.44 143.708 111.592L142.956 110.984L142.716 111.048H142.412ZM132.444 106.92V107.944H146.572V106.92H132.444ZM138.86 104.776V110.616H140.044V104.776H138.86ZM138.252 107.256C136.892 108.872 134.268 110.408 131.98 111.112C132.22 111.352 132.572 111.768 132.748 112.04C135.036 111.208 137.708 109.544 139.196 107.688L138.252 107.256ZM140.748 107.288L139.804 107.72C141.26 109.496 143.852 111.112 146.108 111.912C146.3 111.624 146.636 111.176 146.892 110.952C144.636 110.28 142.076 108.84 140.748 107.288ZM143.932 103.64C141.596 104.184 137.132 104.536 133.468 104.648C133.58 104.904 133.724 105.352 133.756 105.624C137.516 105.512 142.076 105.176 144.924 104.504L143.932 103.64ZM155.436 104.616C156.988 106.424 159.82 108.328 162.22 109.4C162.428 109.064 162.716 108.632 162.988 108.344C160.492 107.4 157.708 105.56 155.964 103.544H154.764C153.468 105.336 150.78 107.352 148.06 108.52C148.316 108.792 148.62 109.224 148.764 109.496C151.42 108.264 154.06 106.312 155.436 104.616ZM151.644 110.296V111.224H159.308V110.296H151.644ZM154.828 106.376V108.552H156.06V106.376H154.828ZM149.116 117.016L149.276 118.152C151.116 117.976 153.756 117.72 156.268 117.464L156.252 116.376C153.612 116.632 150.892 116.872 149.116 117.016ZM155.564 113.16L154.54 113.48C155.884 116.12 158.492 117.672 162.012 118.296C162.172 117.976 162.492 117.496 162.748 117.24C159.34 116.76 156.748 115.416 155.564 113.16ZM160.972 112.904C159.932 113.704 158.172 114.776 156.876 115.4L157.644 116.056C158.956 115.432 160.604 114.504 161.868 113.608L160.972 112.904ZM151.644 107.976V108.952H158.876V112.648H151.644V113.624H160.076V107.976H151.644ZM150.924 107.976V117.288L152.108 117.16V107.976H150.924ZM171.116 107.016V108.168H178.828V107.016H171.116ZM175.916 103.592V116.664C175.916 116.952 175.82 117.032 175.516 117.048C175.228 117.048 174.188 117.064 173.148 117.032C173.308 117.384 173.5 117.928 173.58 118.264C174.94 118.264 175.884 118.248 176.428 118.04C176.956 117.848 177.164 117.48 177.164 116.648V103.592H175.916ZM175.788 107.544C174.668 110.248 172.364 113.272 170.188 114.76C170.492 115 170.86 115.416 171.052 115.736C173.26 114.056 175.564 110.936 176.748 108.12L175.788 107.544ZM164.46 107V108.152H170.524V107H164.46ZM167.132 103.56V118.264H168.332V103.56H167.132ZM167.068 107.704C166.508 110.056 165.196 112.776 163.9 114.216C164.124 114.504 164.444 115 164.572 115.352C165.948 113.736 167.26 110.616 167.916 108.008L167.068 107.704ZM168.22 108.488L167.596 109.096C168.172 109.768 169.66 111.768 170.172 112.616L170.94 111.576C170.54 111.064 168.732 108.952 168.22 108.488ZM182.86 112.088V113.144H193.756V112.088H182.86ZM180.796 106.312V107.416H191.26V106.312H180.796ZM185.308 109.192V110.264H192.636V109.192H185.308ZM193.244 112.088V112.28C192.988 115.464 192.684 116.728 192.316 117.096C192.172 117.224 192.012 117.256 191.708 117.256C191.404 117.256 190.636 117.256 189.836 117.16C190.028 117.48 190.156 117.944 190.172 118.28C191.004 118.312 191.804 118.328 192.204 118.296C192.684 118.264 192.988 118.152 193.292 117.848C193.804 117.32 194.108 115.992 194.396 112.616C194.428 112.44 194.444 112.088 194.444 112.088H193.244ZM189.692 114.008C190.172 114.68 190.668 115.608 190.876 116.184L191.756 115.816C191.548 115.24 191.052 114.344 190.54 113.688L189.692 114.008ZM182.78 104.04C183.404 104.712 184.076 105.656 184.348 106.28L185.468 105.768C185.148 105.16 184.444 104.248 183.82 103.608L182.78 104.04ZM184.956 114.408C185.228 115.448 185.404 116.76 185.372 117.624L186.428 117.48C186.428 116.616 186.252 115.288 185.932 114.28L184.956 114.408ZM187.308 114.264C187.708 115.144 188.092 116.312 188.204 117.08L189.196 116.808C189.068 116.056 188.668 114.92 188.252 114.04L187.308 114.264ZM182.908 114.04C182.588 115.272 181.98 116.696 181.084 117.544L182.012 118.2C182.988 117.224 183.548 115.704 183.916 114.376L182.908 114.04ZM187.628 103.56C186.412 107.704 183.948 111.8 179.98 114.056C180.188 114.312 180.492 114.792 180.636 115.08C184.876 112.568 187.388 108.344 188.844 103.864L187.628 103.56ZM190.988 106.312C190.812 107.336 190.54 108.616 190.316 109.464L191.372 109.608C191.612 108.744 191.9 107.416 192.124 106.312H190.988ZM192.188 109.192C192.028 110.216 191.756 111.512 191.516 112.376L192.604 112.504C192.828 111.64 193.1 110.296 193.324 109.192H192.188ZM197.132 106.76V107.944H209.852V106.76H197.132ZM197.868 111.464V112.632H209.18V111.464H197.868ZM196.396 116.568V117.752H210.652V116.568H196.396ZM202.844 107.704V117.176H204.14V107.704H202.844ZM201.468 104.296C202.524 105.08 203.788 106.216 204.364 106.968L205.404 106.216C204.78 105.448 203.484 104.36 202.444 103.624L201.468 104.296ZM53.964 132.568V133.64H56.924V132.568H53.964ZM50.268 133.352V134.376H53.644V133.352H50.268ZM54.124 135.528V136.536H56.892V135.528H54.124ZM54.092 138.52V139.528H56.812V138.52H54.092ZM46.204 135.528V136.536H48.924V135.528H46.204ZM46.268 138.504V139.528H48.94V138.504H46.268ZM45.564 132.68L45.884 141.976H46.972L46.684 133.304C46.876 133.272 46.956 133.208 46.988 133.112L45.564 132.68ZM56.268 132.568C56.284 135.512 56.156 139.592 55.98 141.944H57.116C57.276 139.64 57.372 135.576 57.388 132.568H56.268ZM48.508 131.72C47.868 132.152 46.796 132.728 45.868 133.16C45.996 133.4 46.188 133.784 46.252 133.992C47.276 133.608 48.476 133.096 49.452 132.584L48.508 131.72ZM49.74 137.72V141.88H50.732V137.72H49.74ZM49.756 131.704V137.016H52.876V136.04H50.796V131.704H49.756ZM52.284 136.04V141.864H53.324V136.04H52.284ZM44.204 141.464V142.584H58.812V141.464H44.204ZM52.988 143.608C54.7 144.456 56.524 145.544 57.596 146.328L58.716 145.512C57.548 144.712 55.612 143.64 53.836 142.808L52.988 143.608ZM48.796 142.84C47.804 143.72 45.884 144.824 44.332 145.464C44.62 145.688 45.036 146.072 45.244 146.312C46.764 145.64 48.652 144.552 49.916 143.56L48.796 142.84ZM66.908 131.8V144.616C66.908 144.936 66.796 145.048 66.46 145.048C66.14 145.064 64.988 145.08 63.804 145.032C64.012 145.384 64.236 145.944 64.3 146.296C65.82 146.296 66.812 146.264 67.388 146.056C67.964 145.864 68.204 145.512 68.204 144.616V131.8H66.908ZM70.78 135.88C72.14 138.168 73.436 141.176 73.82 143.064L75.1 142.552C74.684 140.616 73.324 137.688 71.932 135.432L70.78 135.88ZM62.716 135.544C62.316 137.704 61.436 140.472 60.012 142.168C60.332 142.296 60.86 142.584 61.148 142.808C62.604 141.016 63.532 138.12 64.06 135.768L62.716 135.544ZM78.956 135.32H88.22V136.376H78.956V135.32ZM78.956 133.496H88.22V134.536H78.956V133.496ZM77.852 132.68V137.208H89.388V132.68H77.852ZM81.18 131.56V136.904H82.348V131.56H81.18ZM84.7 131.56V136.904H85.884V131.56H84.7ZM78.3 137.976V138.888H90.268V137.976H78.3ZM77.692 137.976V140.024C77.692 141.672 77.5 144.008 76.14 145.704C76.428 145.832 76.94 146.136 77.164 146.328C78.556 144.52 78.844 141.88 78.844 140.056V137.976H77.692ZM79.74 139.736V140.568H88.876V139.736H79.74ZM78.172 141.432V142.344H90.636V141.432H78.172ZM80.252 141.688V145.464L81.42 145.352V141.688H80.252ZM78.844 145.048L78.988 146.088C80.572 145.88 82.764 145.592 84.876 145.304L84.844 144.328C82.62 144.616 80.348 144.888 78.844 145.048ZM88.892 142.296C88.076 142.776 86.652 143.464 85.644 143.816L86.252 144.408C87.292 144.088 88.652 143.544 89.74 143.016L88.892 142.296ZM83.964 141.704L82.956 141.944C84.108 144.408 86.524 145.832 90.124 146.28C90.284 145.96 90.588 145.48 90.844 145.24C87.404 144.92 84.972 143.704 83.964 141.704ZM95.468 136.792V137.864H103.548V136.792H95.468ZM95.18 144.568V145.64H103.756V144.568H95.18ZM94.636 139.88V146.296H95.804V140.968H103.212V146.296H104.428V139.88H94.636ZM99.452 132.792C100.956 134.84 103.772 137.096 106.284 138.408C106.492 138.056 106.78 137.64 107.084 137.352C104.524 136.216 101.724 133.992 99.996 131.608H98.78C97.516 133.672 94.844 136.12 92.028 137.544C92.3 137.8 92.62 138.232 92.78 138.504C95.516 137.016 98.14 134.744 99.452 132.792ZM115.292 134.248L114.732 135.4H122.876V134.248H115.292ZM117.292 137.72V138.824H122.508V137.72H117.292ZM117.276 141.24V142.376H122.732V141.24H117.276ZM116.684 134.616V146.28H117.916V134.616H116.684ZM115.9 131.752C115.116 134.104 113.82 136.44 112.364 137.928C112.636 138.12 113.116 138.552 113.292 138.76C114.764 137.112 116.156 134.6 117.068 132.056L115.9 131.752ZM112.06 131.624C111.148 134.056 109.66 136.456 108.06 138.008C108.284 138.296 108.652 138.936 108.764 139.224C110.508 137.432 112.156 134.696 113.212 131.992L112.06 131.624ZM110.348 135.752V146.264H111.564V134.568L111.532 134.552L110.348 135.752ZM127.868 145.896L128.956 144.968C127.948 143.8 126.508 142.36 125.356 141.432L124.316 142.344C125.452 143.272 126.828 144.632 127.868 145.896ZM142.876 136.456V137.608H152.204V136.456H142.876ZM147.484 140.28V141.416H152.876V140.28H147.484ZM146.844 137.048V144.984L148.092 145.144V137.048H146.844ZM143.052 138.984C142.7 141.88 141.836 144.168 140.044 145.56C140.332 145.736 140.844 146.152 141.036 146.36C142.844 144.792 143.852 142.344 144.3 139.112L143.052 138.984ZM143.804 141.048L142.828 141.416C144.204 145.32 146.812 146.072 150.62 146.072H154.38C154.428 145.72 154.636 145.144 154.828 144.856C154.044 144.872 151.276 144.872 150.684 144.872C147.436 144.872 144.94 144.312 143.804 141.048ZM146.828 131.576V134.168H148.092V131.576H146.828ZM140.812 133.4V136.888H141.996V134.552H152.956V136.888H154.188V133.4H140.812ZM165.26 132.36V133.464H169.708V132.36H165.26ZM165.26 136.04V137.112H169.708V136.04H165.26ZM165.244 139.768V140.856H169.74V139.768H165.244ZM169.164 132.36V144.744C169.164 144.984 169.084 145.064 168.844 145.064C168.604 145.08 167.804 145.08 166.956 145.064C167.116 145.368 167.292 145.896 167.324 146.232C168.508 146.232 169.26 146.2 169.708 146.008C170.172 145.816 170.332 145.448 170.332 144.76V132.36H169.164ZM164.764 132.36V138.168C164.764 140.488 164.652 143.528 163.308 145.672C163.58 145.784 164.06 146.136 164.268 146.36C165.708 144.088 165.9 140.632 165.9 138.168V132.36H164.764ZM156.316 133.704V134.76H163.98V133.704H156.316ZM158.204 136.184V137.16H162.252V136.184H158.204ZM158.204 138.728V139.688H162.268V138.728H158.204ZM156.108 141.304V142.376H163.98V141.304H156.108ZM157.676 131.752V141.736H158.78V131.752H157.676ZM161.692 131.752V141.736H162.796V131.752H161.692ZM158.332 142.728C157.852 143.8 157.02 144.872 156.124 145.592C156.412 145.752 156.876 146.104 157.1 146.296C157.964 145.496 158.892 144.264 159.484 143.048L158.332 142.728ZM160.636 143.224C161.26 143.976 161.98 145.032 162.284 145.672L163.26 145.096C162.94 144.44 162.188 143.448 161.564 142.728L160.636 143.224ZM178.924 137.832V138.872H186.204V137.832H178.924ZM178.924 141.048V142.104H186.204V141.048H178.924ZM178.812 144.344V145.448H186.86V144.344H178.812ZM182.188 135.128V144.744H183.308V135.128H182.188ZM183.292 131.608C182.988 132.68 182.412 134.232 181.916 135.176L182.924 135.464C183.42 134.568 184.06 133.128 184.556 131.896L183.292 131.608ZM179.612 131.544C178.956 133.864 177.836 136.088 176.428 137.496C176.668 137.736 177.068 138.264 177.244 138.488C178.732 136.888 179.996 134.408 180.764 131.832L179.612 131.544ZM179.58 134.6H179.084L178.428 135.256V146.264H179.58V135.672H186.588V134.6H179.58ZM171.932 140.072L172.204 141.256C173.628 140.824 175.468 140.248 177.212 139.704L177.068 138.632C175.18 139.176 173.228 139.752 171.932 140.072ZM172.204 134.792V135.912H177.084V134.792H172.204ZM174.38 131.576V144.824C174.38 145.064 174.284 145.128 174.076 145.128C173.884 145.144 173.212 145.144 172.492 145.112C172.652 145.448 172.812 145.976 172.86 146.28C173.9 146.28 174.556 146.248 174.972 146.04C175.388 145.848 175.532 145.512 175.532 144.824V131.576H174.38ZM189.884 144.104V145.288H201.18V144.104H189.884ZM194.796 131.656V144.776H196.028V131.656H194.796ZM189.292 139.64V146.296H190.508V139.64H189.292ZM200.54 139.64V146.248H201.772V139.64H200.54ZM189.916 133.096V138.616H201.132V133.096H199.884V137.448H191.1V133.096H189.916ZM212.892 136.968V138.088H218.844V136.968H212.892ZM204.476 133.24V134.264H211.532V133.24H204.476ZM204.3 139.592V140.632H211.612V139.592H204.3ZM204.252 136.904V137.928H211.724V136.904H204.252ZM215.868 137.416V146.2H217.036V137.416H215.868ZM207.436 131.624V133.768H208.604V131.624H207.436ZM207.436 137.736V146.264H208.604V137.736H207.436ZM212.316 132.872V138.472C212.316 140.744 212.092 143.512 210.044 145.528C210.332 145.688 210.764 146.088 210.908 146.36C213.164 144.136 213.452 140.888 213.452 138.488V133.544C213.676 133.512 213.772 133.448 213.788 133.32L212.316 132.872ZM217.676 131.752C216.508 132.328 214.396 132.888 212.604 133.272C212.748 133.512 212.908 133.928 212.972 134.184C214.892 133.848 217.132 133.304 218.636 132.632L217.676 131.752ZM208.492 140.936L207.836 141.48C208.428 141.976 209.932 143.384 210.444 143.976L211.148 143.08C210.748 142.712 209.004 141.288 208.492 140.936ZM205.436 134.552C205.756 135.288 206.012 136.248 206.06 136.872L207.068 136.6C206.988 135.992 206.716 135.048 206.38 134.344L205.436 134.552ZM209.532 134.312C209.356 134.984 209.02 135.976 208.732 136.616L209.692 136.84C209.98 136.248 210.316 135.352 210.62 134.552L209.532 134.312ZM207.452 140.12C206.684 141.688 205.228 143.416 203.932 144.264C204.204 144.456 204.556 144.84 204.748 145.112C206.028 144.12 207.5 142.232 208.316 140.456L207.452 140.12ZM221.516 133.24V145.896H222.764V134.456H232.22V145.816H233.516V133.24H221.516ZM222.076 143.288V144.52H233.116V143.288H222.076ZM241.452 138.072V139.224H250.716V138.072H241.452ZM242.076 134.2V135.352H250.044V134.2H242.076ZM245.34 131.656V146.264H246.54V131.656H245.34ZM245.084 138.696C244.156 141.032 242.348 143.32 240.412 144.408C240.7 144.648 241.052 145.064 241.244 145.352C243.212 144.072 245.036 141.624 246.044 139L245.084 138.696ZM246.812 138.68L245.884 139C246.78 141.448 248.38 143.976 250.012 145.336C250.22 145.016 250.62 144.568 250.908 144.344C249.276 143.208 247.66 140.904 246.812 138.68ZM237.26 133.032V134.184H239.772V141.192H237.26V142.344H240.876V133.032H237.26ZM236.668 133.032V143.608H237.772V133.032H236.668ZM254.604 141.112C253.26 141.112 252.156 142.2 252.156 143.544C252.156 144.888 253.26 145.976 254.604 145.976C255.948 145.976 257.036 144.888 257.036 143.544C257.036 142.2 255.948 141.112 254.604 141.112ZM254.604 145.16C253.708 145.16 252.972 144.44 252.972 143.544C252.972 142.648 253.708 141.928 254.604 141.928C255.5 141.928 256.22 142.648 256.22 143.544C256.22 144.44 255.5 145.16 254.604 145.16ZM63.644 163.88V164.968H71.996V163.88H63.644ZM62.492 171.128V172.2H74.284V171.128H62.492ZM63.1 161.432V162.52H74.236V161.432H63.1ZM71.516 163.88V164.136C71.34 170.376 71.116 172.616 70.7 173.128C70.556 173.32 70.412 173.352 70.108 173.352C69.804 173.368 69.068 173.352 68.252 173.288C68.412 173.56 68.524 173.976 68.54 174.248C69.34 174.296 70.14 174.296 70.62 174.264C71.1 174.216 71.452 174.088 71.756 173.688C72.268 173.016 72.492 170.92 72.684 164.472C72.684 164.312 72.7 163.88 72.7 163.88H71.516ZM63.052 163.88C62.78 166.648 62.204 170.504 61.756 172.728L62.972 172.808C63.372 170.6 63.916 166.744 64.268 163.88H63.052ZM63.82 159.48C62.988 161.512 61.612 163.56 60.14 164.856C60.46 165.032 61.004 165.4 61.26 165.592C62.652 164.184 64.108 162.024 65.068 159.832L63.82 159.48ZM65.74 165.688C66.796 166.152 68.028 166.936 68.636 167.528L69.356 166.776C68.716 166.184 67.468 165.464 66.428 165L65.74 165.688ZM65.34 169.192C66.428 169.752 67.74 170.632 68.38 171.272L69.084 170.504C68.428 169.88 67.1 169.032 66.012 168.52L65.34 169.192ZM60.172 167.464V168.552H63.164V168.52H71.996V168.552H74.844V167.464H71.996V167.496H63.164V167.464H60.172ZM82.62 159.608C82.06 162.168 81.084 164.664 79.724 166.232C80.06 166.392 80.636 166.712 80.876 166.904C82.172 165.208 83.228 162.6 83.868 159.832L82.62 159.608ZM85.26 163.528H84.62V165.672C84.62 167.192 83.788 171.384 78.908 173.304C79.132 173.528 79.5 174.024 79.644 174.28C83.516 172.664 84.972 169.448 85.244 167.928C85.5 169.432 86.86 172.744 90.22 174.28C90.412 173.992 90.78 173.496 91.004 173.208C86.652 171.336 85.868 167.096 85.868 165.672V163.528H85.26ZM76.092 170.984L76.876 171.976C77.964 170.936 79.308 169.544 80.492 168.264L79.836 167.224C78.476 168.648 77.02 170.12 76.092 170.984ZM76.604 161.496C77.644 162.216 78.908 163.272 79.516 163.976L80.412 163C79.788 162.312 78.492 161.304 77.452 160.632L76.604 161.496ZM82.652 162.456L82.108 163.64H89.852V162.456H82.652ZM89.436 162.456V162.744C89.164 163.976 88.476 165.672 87.948 166.632C88.252 166.76 88.716 167 88.972 167.144C89.564 166.072 90.316 164.408 90.732 162.872L89.852 162.376L89.628 162.456H89.436ZM92.3 160.616V161.704H100.508V160.616H92.3ZM92.78 168.232V169.32H100.044V168.232H92.78ZM95.836 166.328V172.776L97.02 172.6V166.328H95.836ZM92.124 172.6L92.316 173.8C94.444 173.512 97.596 173.064 100.572 172.648L100.54 171.528C97.452 171.944 94.204 172.376 92.124 172.6ZM92.268 164.968L92.364 166.104C94.268 165.992 97.004 165.848 99.628 165.688L99.66 164.632C96.908 164.776 94.092 164.904 92.268 164.968ZM97.372 163.016C98.332 164.152 99.404 165.704 99.868 166.68L100.828 166.104C100.364 165.144 99.244 163.64 98.268 162.52L97.372 163.016ZM95.068 161.192C94.716 162.456 94.028 164.328 93.468 165.464L94.524 165.72C95.116 164.616 95.804 162.856 96.364 161.448L95.068 161.192ZM101.212 161.496V170.36H102.364V161.496H101.212ZM104.988 160.024V172.68C104.988 172.968 104.908 173.048 104.62 173.064C104.3 173.064 103.308 173.08 102.236 173.032C102.412 173.4 102.588 173.96 102.652 174.296C103.948 174.296 104.924 174.264 105.452 174.056C105.98 173.864 106.172 173.496 106.172 172.664V160.024H104.988ZM116.476 165.048V166.12H122.508V165.048H116.476ZM112.716 172.6V173.672H120.78V172.6H112.716ZM115.9 163.144V169H117.116V163.144H115.9ZM112.076 168.424V174.312H113.244V169.512H120.204V174.28H121.436V168.424H112.076ZM115.34 159.576V162.296H116.572V159.576H115.34ZM110.012 161.64V162.792H122.732V161.64H110.012ZM109.42 161.64V165.784C109.42 168.088 109.308 171.32 107.996 173.624C108.284 173.752 108.812 174.088 109.02 174.296C110.396 171.864 110.62 168.248 110.62 165.784V161.64H109.42ZM124.908 161.432V162.488H130.508V161.432H124.908ZM126.604 172.248V173.272H131.084V172.248H126.604ZM126.588 169.592V170.552H131.1V169.592H126.588ZM124.188 164.408V165.48H132.46V164.408H124.188ZM127.388 159.704V165.096H128.508V159.704H127.388ZM131.628 160.12C130.044 163.832 127.308 166.744 123.836 168.472C124.06 168.712 124.444 169.192 124.588 169.448C128.108 167.512 130.956 164.44 132.716 160.44L131.628 160.12ZM126.972 167.032H126.54L125.868 167.736V174.216H126.972V168.04H131.052V167.032H126.972ZM130.572 167.032V173.992H131.74V167.032H130.572ZM133.132 160.488V174.28H134.332V161.608H137.916V160.488H133.132ZM137.612 160.488V160.856C137.1 162.152 136.204 164.328 135.34 165.992C137.036 167.384 137.548 168.6 137.548 169.608C137.548 170.2 137.436 170.664 137.052 170.872C136.86 170.984 136.588 171.048 136.3 171.064C135.948 171.096 135.468 171.08 134.956 171.032C135.148 171.352 135.292 171.88 135.308 172.2C135.804 172.232 136.38 172.232 136.812 172.184C137.228 172.136 137.596 172.024 137.884 171.832C138.476 171.448 138.716 170.712 138.7 169.72C138.7 168.568 138.268 167.304 136.588 165.816C137.372 164.344 138.236 162.488 138.908 160.984L138.044 160.424L137.852 160.488H137.612ZM142.812 159.56C142.428 160.728 141.676 162.408 141.068 163.432L142.092 163.736C142.732 162.728 143.484 161.176 144.06 159.848L142.812 159.56ZM140.124 162.952L140.236 164.12C141.98 164.024 144.46 163.896 146.844 163.752L146.86 162.68C144.348 162.792 141.804 162.904 140.124 162.952ZM141.1 165.272V174.264H142.22V166.296H146.172V165.272H141.1ZM145.628 165.272V172.888C145.628 173.096 145.564 173.144 145.356 173.144C145.132 173.16 144.444 173.176 143.692 173.144C143.852 173.448 144.028 173.928 144.092 174.248C145.1 174.248 145.804 174.232 146.252 174.04C146.684 173.848 146.812 173.512 146.812 172.904V165.272H145.628ZM141.628 167.656V168.6H146.252V167.656H141.628ZM141.628 170.056V171.016H146.252V170.056H141.628ZM148.316 159.592V164.904C148.316 166.232 148.716 166.6 150.252 166.6C150.572 166.6 152.668 166.6 153.004 166.6C154.3 166.6 154.652 166.072 154.796 164.12C154.444 164.04 153.964 163.864 153.708 163.656C153.644 165.24 153.532 165.512 152.908 165.512C152.444 165.512 150.7 165.512 150.364 165.512C149.628 165.512 149.5 165.4 149.5 164.888V159.592H148.316ZM153.212 160.776C152.124 161.336 150.3 162.04 148.716 162.536C148.86 162.776 149.02 163.128 149.084 163.384C150.732 162.92 152.652 162.296 154.012 161.656L153.212 160.776ZM148.316 167.032V172.456C148.316 173.784 148.732 174.152 150.284 174.152C150.62 174.152 152.78 174.152 153.132 174.152C154.476 174.152 154.828 173.576 154.988 171.416C154.652 171.352 154.172 171.16 153.9 170.968C153.82 172.776 153.724 173.08 153.036 173.08C152.556 173.08 150.748 173.08 150.412 173.08C149.644 173.08 149.5 172.984 149.5 172.44V167.032H148.316ZM153.404 167.912C152.316 168.616 150.38 169.352 148.716 169.832C148.844 170.072 149.02 170.456 149.084 170.696C150.812 170.232 152.86 169.576 154.204 168.808L153.404 167.912ZM144.812 161.08C145.66 162.216 146.524 163.752 146.86 164.728L147.916 164.264C147.548 163.272 146.652 161.8 145.804 160.68L144.812 161.08ZM156.508 161.64V162.776H170.524V161.64H156.508ZM160.412 167.352V168.392H167.932V167.352H160.412ZM159.564 164.632V174.28H160.748V165.704H167.74V164.632H159.564ZM167.468 164.632V172.776C167.468 173.016 167.372 173.096 167.1 173.112C166.812 173.112 165.836 173.128 164.764 173.08C164.94 173.416 165.116 173.912 165.164 174.248C166.54 174.248 167.436 174.248 167.948 174.056C168.492 173.864 168.636 173.496 168.636 172.792V164.632H167.468ZM161.74 159.56C160.876 162.776 158.988 166.168 156.124 168.136C156.364 168.376 156.732 168.792 156.892 169.064C159.948 166.92 161.868 163.368 162.956 159.848L161.74 159.56ZM160.412 170.056V171.096H167.932V170.056H160.412ZM180.892 164.968V166.088H186.844V164.968H180.892ZM172.476 161.24V162.264H179.532V161.24H172.476ZM172.3 167.592V168.632H179.612V167.592H172.3ZM172.252 164.904V165.928H179.724V164.904H172.252ZM183.868 165.416V174.2H185.036V165.416H183.868ZM175.436 159.624V161.768H176.604V159.624H175.436ZM175.436 165.736V174.264H176.604V165.736H175.436ZM180.316 160.872V166.472C180.316 168.744 180.092 171.512 178.044 173.528C178.332 173.688 178.764 174.088 178.908 174.36C181.164 172.136 181.452 168.888 181.452 166.488V161.544C181.676 161.512 181.772 161.448 181.788 161.32L180.316 160.872ZM185.676 159.752C184.508 160.328 182.396 160.888 180.604 161.272C180.748 161.512 180.908 161.928 180.972 162.184C182.892 161.848 185.132 161.304 186.636 160.632L185.676 159.752ZM176.492 168.936L175.836 169.48C176.428 169.976 177.932 171.384 178.444 171.976L179.148 171.08C178.748 170.712 177.004 169.288 176.492 168.936ZM173.436 162.552C173.756 163.288 174.012 164.248 174.06 164.872L175.068 164.6C174.988 163.992 174.716 163.048 174.38 162.344L173.436 162.552ZM177.532 162.312C177.356 162.984 177.02 163.976 176.732 164.616L177.692 164.84C177.98 164.248 178.316 163.352 178.62 162.552L177.532 162.312ZM175.452 168.12C174.684 169.688 173.228 171.416 171.932 172.264C172.204 172.456 172.556 172.84 172.748 173.112C174.028 172.12 175.5 170.232 176.316 168.456L175.452 168.12ZM195.484 162.696V163.752H202.524V162.696H195.484ZM195.82 165.832V166.888H202.236V165.832H195.82ZM195.292 169.112V170.184H202.892V169.112H195.292ZM198.364 163.128V174.264H199.532V163.128H198.364ZM195.916 159.944C196.412 160.84 196.876 162.04 197.052 162.824L198.092 162.408C197.9 161.64 197.42 160.472 196.908 159.592L195.916 159.944ZM200.876 159.56C200.604 160.424 200.076 161.672 199.644 162.456L200.636 162.744C201.084 162.024 201.612 160.872 202.076 159.88L200.876 159.56ZM190.428 161.016V161.96H193.324V161.016H190.428ZM191.596 164.136V169.448H192.492V164.136H191.596ZM192.956 161.016V161.208C192.7 162.008 192.188 163.096 191.724 163.784C191.916 163.928 192.236 164.232 192.396 164.44C192.972 163.672 193.66 162.472 194.124 161.416L193.42 160.952L193.212 161.016H192.956ZM193.804 170.52C194.316 171.432 194.86 172.664 195.068 173.464L195.9 173.128C195.676 172.36 195.132 171.144 194.588 170.216L193.804 170.52ZM192.236 170.664C192.588 171.56 192.876 172.728 192.94 173.496L193.788 173.304C193.708 172.536 193.388 171.368 193.02 170.488L192.236 170.664ZM190.732 170.648C190.892 171.608 190.956 172.824 190.924 173.624L191.804 173.512C191.836 172.712 191.756 171.496 191.548 170.536L190.732 170.648ZM190.124 167.16H193.996V168.808H190.124V167.16ZM190.124 164.6H193.996V166.216H190.124V164.6ZM189.116 163.608V169.816H195.052V163.608H189.116ZM189.26 170.536C189.132 171.8 188.812 173.08 188.076 173.816L188.876 174.296C189.692 173.48 189.98 172.088 190.14 170.744L189.26 170.536ZM190.476 159.56C190.092 161.08 189.324 163.048 188.076 164.536C188.332 164.68 188.716 165.016 188.924 165.256C190.268 163.576 191.1 161.48 191.596 159.704L190.476 159.56ZM210.908 166.52V167.4H218.78V166.52H210.908ZM210.62 173.08V173.992H218.892V173.08H210.62ZM213.292 159.576V161.576H214.204V159.576H213.292ZM215.34 159.576V161.576H216.252V159.576H215.34ZM212.7 168.952H216.892V170.36H212.7V168.952ZM211.708 168.168V171.144H217.932V168.168H211.708ZM212.332 163.768H217.26V164.872H212.332V163.768ZM212.332 161.88H217.26V162.968H212.332V161.88ZM211.388 161.048V165.72H218.236V161.048H211.388ZM212.46 171.464C212.78 172.04 213.036 172.824 213.116 173.352L214.044 173.016C213.948 172.488 213.676 171.736 213.324 171.176L212.46 171.464ZM216.172 171.16C216.012 171.688 215.692 172.504 215.436 173.048L216.22 173.32C216.492 172.824 216.86 172.104 217.196 171.448L216.172 171.16ZM205.964 168.536V169.4H209.532V168.536H205.964ZM205.964 170.584V171.464H209.532V170.584H205.964ZM205.404 166.52V174.296H206.428V167.4H209.484V166.52H205.404ZM208.844 166.52V173.144C208.844 173.304 208.78 173.352 208.62 173.352C208.476 173.368 207.964 173.368 207.404 173.352C207.532 173.608 207.676 174.008 207.724 174.28C208.572 174.28 209.1 174.28 209.436 174.104C209.788 173.944 209.884 173.672 209.884 173.16V166.52H208.844ZM205.388 160.136V165H206.316V161.048H208.956V165H209.9V160.136H205.388ZM204.476 164.584V166.888H205.388V165.464H209.9V166.888H210.844V164.584H204.476ZM207.148 162.088V164.92H207.916V162.856H209.564V162.088H207.148ZM213.452 161.368V165.304H214.204V161.368H213.452ZM215.34 161.368V165.304H216.092V161.368H215.34ZM228.316 163.416V164.344H232.732V163.416H228.316ZM227.772 166.184H229.244V168.232H227.772V166.184ZM226.924 165.352V169.064H230.14V165.352H226.924ZM231.804 166.184H233.372V168.232H231.804V166.184ZM230.956 165.352V169.064H234.284V165.352H230.956ZM228.124 169.496C227.884 171.32 227.228 172.744 225.964 173.624C226.204 173.784 226.588 174.152 226.732 174.344C228.092 173.304 228.86 171.704 229.164 169.56L228.124 169.496ZM227.948 171.56C228.604 172.168 229.404 173.016 229.788 173.56L230.476 172.856C230.092 172.328 229.26 171.528 228.62 170.952L227.948 171.56ZM232.124 169.48C231.868 171.288 231.18 172.696 229.916 173.576C230.172 173.736 230.556 174.12 230.7 174.296C232.06 173.256 232.876 171.672 233.18 169.544L232.124 169.48ZM231.884 171.624C232.716 172.44 233.708 173.576 234.172 174.28L234.956 173.672C234.476 172.984 233.468 171.88 232.652 171.096L231.884 171.624ZM230.428 160.696C231.34 162.168 232.94 163.752 234.46 164.68C234.604 164.376 234.86 163.928 235.084 163.64C233.564 162.84 231.948 161.256 230.94 159.624H229.836C229.1 161.144 227.548 162.84 225.916 163.784C226.124 164.04 226.38 164.472 226.508 164.76C228.124 163.752 229.628 162.12 230.428 160.696ZM221.436 162.664V163.608H225.884V162.664H221.436ZM221.436 165.08V166.008H225.916V165.08H221.436ZM220.828 167.512V168.472H225.724V167.512H220.828ZM223.244 160.76V168.008H224.204V160.76H223.244ZM223.724 169.352C224.108 170.008 224.492 170.872 224.652 171.448L225.228 171.208C225.068 170.648 224.668 169.784 224.268 169.16L223.724 169.352ZM222.748 169.576C223.052 170.392 223.308 171.464 223.372 172.168L223.996 172.024C223.932 171.336 223.644 170.264 223.324 169.448L222.748 169.576ZM221.772 169.736C221.916 170.68 221.996 171.864 221.964 172.648L222.62 172.568C222.636 171.784 222.556 170.6 222.396 169.656L221.772 169.736ZM220.716 169.448C220.668 170.792 220.508 172.216 219.964 173.016L220.636 173.4C221.228 172.52 221.388 171 221.452 169.576L220.716 169.448ZM220.828 160.216V168.04H221.82V161.192H226.188V160.216H220.828ZM225.34 167.512V167.688C225.196 171.528 225.052 172.904 224.78 173.208C224.668 173.368 224.556 173.4 224.364 173.4C224.156 173.4 223.692 173.4 223.164 173.336C223.292 173.592 223.388 174.008 223.42 174.28C223.948 174.312 224.492 174.312 224.796 174.28C225.164 174.248 225.404 174.152 225.628 173.848C226.012 173.384 226.156 171.976 226.316 167.976C226.332 167.816 226.332 167.512 226.332 167.512H225.34ZM242.972 169.144H244.012L244.332 162.936L244.38 161.032H242.604L242.652 162.936L242.972 169.144ZM243.5 173.08C244.06 173.08 244.524 172.68 244.524 172.04C244.524 171.4 244.06 170.968 243.5 170.968C242.924 170.968 242.46 171.4 242.46 172.04C242.46 172.68 242.924 173.08 243.5 173.08Z" fill="white"/>
<g filter="url(#filter0_d_179_603)">
<path d="M81.0703 12.6016C81.0078 11.9714 80.7396 11.4818 80.2656 11.1328C79.7917 10.7839 79.1484 10.6094 78.3359 10.6094C77.7839 10.6094 77.3177 10.6875 76.9375 10.8438C76.5573 10.9948 76.2656 11.2057 76.0625 11.4766C75.8646 11.7474 75.7656 12.0547 75.7656 12.3985C75.7552 12.6849 75.8151 12.9349 75.9453 13.1485C76.0807 13.362 76.2656 13.5469 76.5 13.7031C76.7344 13.8542 77.0052 13.987 77.3125 14.1016C77.6198 14.211 77.9479 14.3047 78.2969 14.3828L79.7344 14.7266C80.4323 14.8828 81.0729 15.0912 81.6562 15.3516C82.2396 15.612 82.7448 15.9323 83.1719 16.3125C83.599 16.6927 83.9297 17.1406 84.1641 17.6563C84.4036 18.1719 84.526 18.763 84.5312 19.4297C84.526 20.4089 84.276 21.2578 83.7813 21.9766C83.2917 22.6901 82.5833 23.2448 81.6562 23.6406C80.7344 24.0313 79.6224 24.2266 78.3203 24.2266C77.0286 24.2266 75.9036 24.0287 74.9453 23.6328C73.9922 23.237 73.2474 22.6511 72.7109 21.875C72.1797 21.0938 71.901 20.1276 71.875 18.9766H75.1484C75.1849 19.513 75.3385 19.961 75.6094 20.3203C75.8854 20.6745 76.2526 20.9427 76.7109 21.125C77.1745 21.3021 77.6979 21.3906 78.2812 21.3906C78.8542 21.3906 79.3516 21.3073 79.7734 21.1406C80.2005 20.974 80.5313 20.7422 80.7656 20.4453C81 20.1485 81.1172 19.8073 81.1172 19.4219C81.1172 19.0625 81.0104 18.7604 80.7969 18.5156C80.5885 18.2708 80.2813 18.0625 79.875 17.8906C79.474 17.7188 78.9818 17.5625 78.3984 17.4219L76.6563 16.9844C75.3073 16.6563 74.2422 16.1432 73.4609 15.4453C72.6797 14.7474 72.2917 13.8073 72.2969 12.625C72.2917 11.6563 72.5495 10.8099 73.0703 10.086C73.5964 9.36199 74.3177 8.79689 75.2344 8.39064C76.151 7.98439 77.1927 7.78126 78.3594 7.78126C79.5469 7.78126 80.5833 7.98439 81.4688 8.39064C82.3594 8.79689 83.0521 9.36199 83.5469 10.086C84.0417 10.8099 84.2969 11.6485 84.3125 12.6016H81.0703ZM92.166 24.2344C90.9368 24.2344 89.8796 23.974 88.9941 23.4531C88.1139 22.9271 87.4368 22.1979 86.9629 21.2656C86.4941 20.3333 86.2598 19.2604 86.2598 18.0469C86.2598 16.8177 86.4967 15.7396 86.9707 14.8125C87.4499 13.8802 88.1296 13.1537 89.0098 12.6328C89.89 12.1068 90.9368 11.8438 92.1504 11.8438C93.1973 11.8438 94.1139 12.0339 94.9004 12.4141C95.6868 12.7943 96.3092 13.3281 96.7676 14.0156C97.2259 14.7031 97.4785 15.5104 97.5254 16.4375H94.3848C94.2962 15.8386 94.0618 15.3568 93.6816 14.9922C93.3066 14.6224 92.8145 14.4375 92.2051 14.4375C91.6895 14.4375 91.2389 14.5781 90.8535 14.8594C90.4733 15.1354 90.1764 15.5391 89.9629 16.0703C89.7493 16.6016 89.6426 17.2448 89.6426 18C89.6426 18.7656 89.7467 19.4167 89.9551 19.9531C90.1686 20.4896 90.4681 20.8985 90.8535 21.1797C91.2389 21.461 91.6895 21.6016 92.2051 21.6016C92.5853 21.6016 92.9264 21.5235 93.2285 21.3672C93.5358 21.211 93.7884 20.9844 93.9863 20.6875C94.1895 20.3854 94.3223 20.0235 94.3848 19.6016H97.5254C97.4733 20.5182 97.2233 21.3255 96.7754 22.0235C96.3327 22.7162 95.7207 23.2578 94.9395 23.6485C94.1582 24.0391 93.2337 24.2344 92.166 24.2344ZM105.078 24.2344C103.865 24.2344 102.815 23.9766 101.93 23.461C101.049 22.9401 100.37 22.2162 99.8906 21.2891C99.4115 20.3568 99.1719 19.2761 99.1719 18.0469C99.1719 16.8073 99.4115 15.724 99.8906 14.7969C100.37 13.8646 101.049 13.1406 101.93 12.625C102.815 12.1042 103.865 11.8438 105.078 11.8438C106.292 11.8438 107.339 12.1042 108.219 12.625C109.104 13.1406 109.786 13.8646 110.266 14.7969C110.745 15.724 110.984 16.8073 110.984 18.0469C110.984 19.2761 110.745 20.3568 110.266 21.2891C109.786 22.2162 109.104 22.9401 108.219 23.461C107.339 23.9766 106.292 24.2344 105.078 24.2344ZM105.094 21.6563C105.646 21.6563 106.107 21.5 106.477 21.1875C106.846 20.8698 107.125 20.4375 107.313 19.8906C107.505 19.3438 107.602 18.7214 107.602 18.0235C107.602 17.3255 107.505 16.7031 107.313 16.1563C107.125 15.6094 106.846 15.1771 106.477 14.8594C106.107 14.5417 105.646 14.3828 105.094 14.3828C104.536 14.3828 104.068 14.5417 103.688 14.8594C103.313 15.1771 103.029 15.6094 102.836 16.1563C102.648 16.7031 102.555 17.3255 102.555 18.0235C102.555 18.7214 102.648 19.3438 102.836 19.8906C103.029 20.4375 103.313 20.8698 103.688 21.1875C104.068 21.5 104.536 21.6563 105.094 21.6563ZM118.57 24.2344C117.357 24.2344 116.307 23.9766 115.422 23.461C114.542 22.9401 113.862 22.2162 113.383 21.2891C112.904 20.3568 112.664 19.2761 112.664 18.0469C112.664 16.8073 112.904 15.724 113.383 14.7969C113.862 13.8646 114.542 13.1406 115.422 12.625C116.307 12.1042 117.357 11.8438 118.57 11.8438C119.784 11.8438 120.831 12.1042 121.711 12.625C122.596 13.1406 123.279 13.8646 123.758 14.7969C124.237 15.724 124.477 16.8073 124.477 18.0469C124.477 19.2761 124.237 20.3568 123.758 21.2891C123.279 22.2162 122.596 22.9401 121.711 23.461C120.831 23.9766 119.784 24.2344 118.57 24.2344ZM118.586 21.6563C119.138 21.6563 119.599 21.5 119.969 21.1875C120.339 20.8698 120.617 20.4375 120.805 19.8906C120.997 19.3438 121.094 18.7214 121.094 18.0235C121.094 17.3255 120.997 16.7031 120.805 16.1563C120.617 15.6094 120.339 15.1771 119.969 14.8594C119.599 14.5417 119.138 14.3828 118.586 14.3828C118.029 14.3828 117.56 14.5417 117.18 14.8594C116.805 15.1771 116.521 15.6094 116.328 16.1563C116.141 16.7031 116.047 17.3255 116.047 18.0235C116.047 18.7214 116.141 19.3438 116.328 19.8906C116.521 20.4375 116.805 20.8698 117.18 21.1875C117.56 21.5 118.029 21.6563 118.586 21.6563ZM126.641 28.5V12H129.922V14.0156H130.07C130.216 13.6927 130.427 13.3646 130.703 13.0313C130.984 12.6927 131.349 12.4115 131.797 12.1875C132.25 11.9583 132.813 11.8438 133.484 11.8438C134.359 11.8438 135.167 12.0729 135.906 12.5313C136.646 12.9844 137.237 13.6693 137.68 14.586C138.122 15.4974 138.344 16.6406 138.344 18.0156C138.344 19.3542 138.128 20.4844 137.695 21.4063C137.268 22.3229 136.685 23.0182 135.945 23.4922C135.211 23.961 134.388 24.1953 133.477 24.1953C132.831 24.1953 132.281 24.0886 131.828 23.875C131.38 23.6615 131.013 23.3932 130.727 23.0703C130.44 22.7422 130.221 22.4115 130.07 22.0781H129.969V28.5H126.641ZM129.898 18C129.898 18.7136 129.997 19.336 130.195 19.8672C130.393 20.3985 130.68 20.8125 131.055 21.1094C131.43 21.4011 131.885 21.5469 132.422 21.5469C132.964 21.5469 133.422 21.3985 133.797 21.1016C134.172 20.7995 134.456 20.3828 134.648 19.8516C134.846 19.3151 134.945 18.6979 134.945 18C134.945 17.3073 134.849 16.6979 134.656 16.1719C134.464 15.6458 134.18 15.2344 133.805 14.9375C133.43 14.6406 132.969 14.4922 132.422 14.4922C131.88 14.4922 131.422 14.6354 131.047 14.9219C130.677 15.2083 130.393 15.6146 130.195 16.1406C129.997 16.6667 129.898 17.2865 129.898 18ZM140.563 24V12H143.891V24H140.563ZM142.234 10.4531C141.74 10.4531 141.315 10.2891 140.961 9.96095C140.612 9.62762 140.438 9.22918 140.438 8.76564C140.438 8.30731 140.612 7.91408 140.961 7.58595C141.315 7.25262 141.74 7.08595 142.234 7.08595C142.729 7.08595 143.151 7.25262 143.5 7.58595C143.854 7.91408 144.031 8.30731 144.031 8.76564C144.031 9.22918 143.854 9.62762 143.5 9.96095C143.151 10.2891 142.729 10.4531 142.234 10.4531ZM151.508 7.98401V10.448H171.132V7.98401H151.508ZM157.448 15.904V18.104H167.018V15.904H157.448ZM155.49 12.186V25.958H158.108V14.496H166.622V12.186H155.49ZM166.094 12.186V23.076C166.094 23.384 165.962 23.494 165.61 23.494C165.236 23.494 163.938 23.516 162.794 23.45C163.146 24.132 163.498 25.254 163.608 25.98C165.39 25.98 166.644 25.958 167.524 25.562C168.426 25.144 168.668 24.418 168.668 23.12V12.186H166.094ZM158.328 5.30001C157.228 9.59001 154.764 14.32 150.848 16.894C151.376 17.4 152.212 18.346 152.586 18.94C156.876 15.948 159.516 10.888 161.056 5.91601L158.328 5.30001ZM157.448 19.534V21.734H167.018V19.534H157.448ZM182.704 17.092V26.002H185.19V19.468H190.206V25.892H192.846V17.092H182.704ZM191.306 5.54201C188.974 6.29001 185.234 6.86201 181.89 7.14801C182.198 7.74201 182.55 8.73202 182.638 9.37001C186.114 9.12801 190.162 8.62201 193.154 7.74201L191.306 5.54201ZM186.29 7.61001V18.28H188.996V7.61001H186.29ZM181.538 11.702V14.188H193.748V11.702H181.538ZM184.376 22.548V24.924H191.46V22.548H184.376ZM174.036 12.23V14.21H180.68V12.23H174.036ZM174.168 6.00401V8.00601H180.68V6.00401H174.168ZM174.036 15.31V17.29H180.68V15.31H174.036ZM172.958 9.06201V11.13H181.384V9.06201H172.958ZM175.334 18.412V20.502H178.524V23.032H175.334V25.1H180.79V18.412H175.334ZM173.97 18.412V25.98H176.192V18.412H173.97ZM206.86 13.594H211.634V15.926H206.86V13.594ZM204.462 11.328V18.17H214.186V11.328H204.462ZM209.544 17.51V22.812C209.544 25.056 209.984 25.826 211.986 25.826C212.338 25.826 213.108 25.826 213.504 25.826C215.11 25.826 215.726 24.99 215.924 21.734C215.264 21.558 214.208 21.14 213.724 20.722C213.658 23.164 213.592 23.494 213.218 23.494C213.042 23.494 212.536 23.494 212.404 23.494C212.096 23.494 212.052 23.428 212.052 22.812V17.51H209.544ZM205.87 17.862C205.672 20.722 205.232 22.768 201.932 23.956C202.482 24.418 203.164 25.408 203.428 26.024C207.432 24.396 208.18 21.646 208.444 17.862H205.87ZM206.508 5.91601V8.31401H211.832V5.91601H206.508ZM204.946 7.87401C204.528 9.30401 203.582 11.108 202.438 12.208C203.032 12.538 203.956 13.176 204.484 13.638C205.716 12.362 206.794 10.338 207.52 8.53402L204.946 7.87401ZM209.83 5.91601V7.14801H210.292C211.04 9.32601 212.272 11.636 213.724 13.242C214.23 12.714 215.286 11.944 215.946 11.57C214.538 10.25 213.196 8.02802 212.536 5.91601H209.83ZM196.014 12.076V14.056H202.658V12.076H196.014ZM196.08 6.00401V8.00601H202.592V6.00401H196.08ZM196.014 15.068V17.07H202.658V15.068H196.014ZM194.958 8.97401V11.064H203.384V8.97401H194.958ZM197.158 18.126V20.216H200.436V22.724H197.158V24.814H202.68V18.126H197.158ZM195.97 18.126V25.694H198.192V18.126H195.97Z" fill="#4A3100"/>
</g>
<g clip-path="url(#clip0_179_603)">
<path d="M67.9739 21.9166C67.3592 20.2741 65.9281 19.1922 64.3157 18.9176L60.3392 8.29154C60.1116 7.68332 59.0214 6.24808 57.2822 6.89891C56.7873 7.08412 56.3578 7.43346 56.076 7.9066L51.9352 14.8472C49.8544 18.3313 46.6166 21.0336 42.8171 22.4554L29.4711 27.4498C27.0139 28.3694 25.7677 31.1061 26.6873 33.5633L29.1845 40.2363C30.104 42.6935 32.8407 43.9397 35.2979 43.0202L37.6404 42.1435C37.8164 42.9082 38.0388 43.6697 38.3213 44.4246C39.3558 47.189 40.977 49.5603 42.9838 51.4712C43.6226 52.0793 44.5759 52.2273 45.4017 51.9183L50.5649 49.9861C52.3756 49.3085 52.6866 46.8274 51.05 45.7979C49.3503 44.7286 47.9744 43.1166 47.2179 41.0952C46.9289 40.323 46.7637 39.5385 46.6921 38.7562L48.6439 38.0258C52.4434 36.6039 56.6598 36.5166 60.516 37.779L68.1961 40.2959C68.7083 40.4639 69.2624 40.4527 69.7675 40.2642C71.4997 39.6159 71.3993 37.8483 71.1594 37.2074L67.1829 26.5814C68.2193 25.3147 68.5885 23.5591 67.9739 21.9166ZM64.9795 34.244L61.9945 33.2658C57.1172 31.6677 51.7837 31.7791 46.9791 33.5771L44.4819 26.9041C49.2865 25.1061 53.3828 21.6887 56.0126 17.2812L57.6222 14.5836L64.9795 34.244Z" fill="#7C5302"/>
</g>
<g filter="url(#filter1_d_179_603)">
<g filter="url(#filter2_d_179_603)">
<ellipse rx="3.74633" ry="5.80312" transform="matrix(0.522069 -0.852928 0.877317 0.479955 32.1593 35.6489)" fill="#F4C748"/>
<ellipse rx="3.73354" ry="5.79712" transform="matrix(0.993678 0.201387 -0.231971 0.958197 37.4379 33.9865)" fill="#F4C748"/>
<ellipse rx="3.73387" ry="5.79763" transform="matrix(-0.600062 -0.777602 0.827943 -0.591676 32.6567 41.3687)" fill="#F4C748"/>
<ellipse rx="3.75554" ry="5.79171" transform="matrix(0.901086 -0.480863 0.483123 0.850679 38.7808 43.3112)" fill="#F4C748"/>
<ellipse rx="3.76454" ry="5.78487" transform="matrix(-0.0903386 -0.972458 1.017 -0.109223 42.4635 37.2375)" fill="#F4C748"/>
</g>
<ellipse rx="3.59541" ry="3.59605" transform="matrix(0.52208 -0.852922 0.877323 0.479944 36.5398 38.6491)" fill="white"/>
</g>
<g filter="url(#filter3_d_179_603)">
<ellipse cx="246.17" cy="40.4731" rx="5.41442" ry="8.38704" transform="rotate(-41.1227 246.17 40.4731)" fill="#5FDBE3"/>
<ellipse cx="253.995" cy="40.5999" rx="5.41442" ry="8.38704" transform="rotate(31.3208 253.995 40.5999)" fill="#5FDBE3"/>
<ellipse cx="244.164" cy="48.7471" rx="5.41442" ry="8.38704" transform="rotate(-107.783 244.164 48.7471)" fill="#5FDBE3"/>
<ellipse cx="251.435" cy="54.3368" rx="5.41442" ry="8.38704" transform="rotate(-10.0216 251.435 54.3368)" fill="#5FDBE3"/>
<ellipse cx="259.189" cy="47.5166" rx="5.41442" ry="8.38705" transform="rotate(-76.9242 259.189 47.5166)" fill="#5FDBE3"/>
</g>
<circle cx="250.619" cy="46.736" r="5.20209" transform="rotate(-41.1227 250.619 46.736)" fill="white"/>
<g filter="url(#filter4_d_179_603)">
<ellipse cx="267.315" cy="49.8279" rx="4.74097" ry="7.34386" transform="rotate(-41.1227 267.315 49.8279)" fill="#F4C748"/>
<ellipse cx="274.167" cy="49.9389" rx="4.74097" ry="7.34386" transform="rotate(31.3208 274.167 49.9389)" fill="#F4C748"/>
<ellipse cx="265.559" cy="57.0728" rx="4.74097" ry="7.34386" transform="rotate(-107.783 265.559 57.0728)" fill="#F4C748"/>
<ellipse cx="271.926" cy="61.9673" rx="4.74097" ry="7.34386" transform="rotate(-10.0216 271.926 61.9673)" fill="#F4C748"/>
<ellipse cx="278.715" cy="55.9954" rx="4.74097" ry="7.34386" transform="rotate(-76.9242 278.715 55.9954)" fill="#F4C748"/>
</g>
<circle cx="271.211" cy="55.3119" r="4.55505" transform="rotate(-41.1227 271.211 55.3119)" fill="white"/>
<defs>
<filter id="filter0_d_179_603" x="70.875" y="5.30002" width="146.071" height="25.2" filterUnits="userSpaceOnUse" color-interpolation-filters="sRGB">
<feFlood flood-opacity="0" result="BackgroundImageFix"/>
<feColorMatrix in="SourceAlpha" type="matrix" values="0 0 0 0 0 0 0 0 0 0 0 0 0 0 0 0 0 0 127 0" result="hardAlpha"/>
<feOffset dy="1"/>
<feGaussianBlur stdDeviation="0.5"/>
<feComposite in2="hardAlpha" operator="out"/>
<feColorMatrix type="matrix" values="0 0 0 0 0 0 0 0 0 0 0 0 0 0 0 0 0 0 0.25 0"/>
<feBlend mode="normal" in2="BackgroundImageFix" result="effect1_dropShadow_179_603"/>
<feBlend mode="normal" in="SourceGraphic" in2="effect1_dropShadow_179_603" result="shape"/>
</filter>
<filter id="filter1_d_179_603" x="25.7041" y="28.3804" width="23.6528" height="22.1797" filterUnits="userSpaceOnUse" color-interpolation-filters="sRGB">
<feFlood flood-opacity="0" result="BackgroundImageFix"/>
<feColorMatrix in="SourceAlpha" type="matrix" values="0 0 0 0 0 0 0 0 0 0 0 0 0 0 0 0 0 0 127 0" result="hardAlpha"/>
<feOffset dy="1"/>
<feGaussianBlur stdDeviation="0.5"/>
<feComposite in2="hardAlpha" operator="out"/>
<feColorMatrix type="matrix" values="0 0 0 0 0 0 0 0 0 0 0 0 0 0 0 0 0 0 0.25 0"/>
<feBlend mode="normal" in2="BackgroundImageFix" result="effect1_dropShadow_179_603"/>
<feBlend mode="normal" in="SourceGraphic" in2="effect1_dropShadow_179_603" result="shape"/>
</filter>
<filter id="filter2_d_179_603" x="25.7041" y="27.3804" width="25.6528" height="24.1797" filterUnits="userSpaceOnUse" color-interpolation-filters="sRGB">
<feFlood flood-opacity="0" result="BackgroundImageFix"/>
<feColorMatrix in="SourceAlpha" type="matrix" values="0 0 0 0 0 0 0 0 0 0 0 0 0 0 0 0 0 0 127 0" result="hardAlpha"/>
<feOffset dx="1" dy="1"/>
<feGaussianBlur stdDeviation="1"/>
<feComposite in2="hardAlpha" operator="out"/>
<feColorMatrix type="matrix" values="0 0 0 0 0 0 0 0 0 0 0 0 0 0 0 0 0 0 0.13 0"/>
<feBlend mode="normal" in2="BackgroundImageFix" result="effect1_dropShadow_179_603"/>
<feBlend mode="normal" in="SourceGraphic" in2="effect1_dropShadow_179_603" result="shape"/>
</filter>
<filter id="filter3_d_179_603" x="235.007" y="31.9" width="35.4448" height="33.7502" filterUnits="userSpaceOnUse" color-interpolation-filters="sRGB">
<feFlood flood-opacity="0" result="BackgroundImageFix"/>
<feColorMatrix in="SourceAlpha" type="matrix" values="0 0 0 0 0 0 0 0 0 0 0 0 0 0 0 0 0 0 127 0" result="hardAlpha"/>
<feOffset dx="1" dy="1"/>
<feGaussianBlur stdDeviation="1"/>
<feComposite in2="hardAlpha" operator="out"/>
<feColorMatrix type="matrix" values="0 0 0 0 0 0 0 0 0 0 0 0 0 0 0 0 0 0 0.13 0"/>
<feBlend mode="normal" in2="BackgroundImageFix" result="effect1_dropShadow_179_603"/>
<feBlend mode="normal" in="SourceGraphic" in2="effect1_dropShadow_179_603" result="shape"/>
</filter>
<filter id="filter4_d_179_603" x="257.417" y="42.1967" width="31.5332" height="30.05" filterUnits="userSpaceOnUse" color-interpolation-filters="sRGB">
<feFlood flood-opacity="0" result="BackgroundImageFix"/>
<feColorMatrix in="SourceAlpha" type="matrix" values="0 0 0 0 0 0 0 0 0 0 0 0 0 0 0 0 0 0 127 0" result="hardAlpha"/>
<feOffset dx="1" dy="1"/>
<feGaussianBlur stdDeviation="1"/>
<feComposite in2="hardAlpha" operator="out"/>
<feColorMatrix type="matrix" values="0 0 0 0 0 0 0 0 0 0 0 0 0 0 0 0 0 0 0.13 0"/>
<feBlend mode="normal" in2="BackgroundImageFix" result="effect1_dropShadow_179_603"/>
<feBlend mode="normal" in="SourceGraphic" in2="effect1_dropShadow_179_603" result="shape"/>
</filter>
<clipPath id="clip0_179_603">
<rect width="42.7497" height="42.7497" fill="white" transform="translate(19.9873 15.9732) rotate(-20.517)"/>
</clipPath>
</defs>
</svg>
