<svg width="958" height="378" viewBox="0 0 958 378" fill="none" xmlns="http://www.w3.org/2000/svg">
<path d="M666.698 110.678C607.297 107.027 541.284 105.88 471.751 105.88C211.762 105.88 1 121.912 1 224.926C1 327.941 211.762 371.951 471.751 371.951C731.739 371.951 942.502 327.941 942.502 224.926C942.502 160.366 859.722 129.97 733.924 116.273C700.82 79.3852 628.864 64.7354 593.152 61.9919C653.582 82.125 667.785 99.9063 666.698 110.678Z" fill="#EC778F" stroke="#FFC6D1" stroke-opacity="0.38"/>
<g filter="url(#filter0_d_191_474)">
<path d="M352.892 52.1823C352.784 51.0937 352.321 50.2481 351.502 49.6453C350.684 49.0426 349.573 48.7412 348.169 48.7412C347.216 48.7412 346.41 48.8762 345.754 49.1461C345.097 49.4069 344.593 49.7713 344.242 50.2391C343.901 50.7069 343.73 51.2377 343.73 51.8314C343.712 52.3262 343.815 52.758 344.04 53.1269C344.274 53.4957 344.593 53.8151 344.998 54.085C345.403 54.3459 345.871 54.5753 346.401 54.7732C346.932 54.9621 347.499 55.124 348.102 55.259L350.585 55.8527C351.79 56.1226 352.897 56.4825 353.904 56.9323C354.912 57.3821 355.785 57.9354 356.522 58.5921C357.26 59.2488 357.831 60.0225 358.236 60.9131C358.65 61.8037 358.861 62.8248 358.87 63.9763C358.861 65.6676 358.429 67.134 357.575 68.3755C356.729 69.6079 355.506 70.566 353.904 71.2497C352.312 71.9245 350.391 72.2618 348.142 72.2618C345.911 72.2618 343.968 71.92 342.313 71.2363C340.666 70.5525 339.38 69.5405 338.453 68.2C337.536 66.8506 337.054 65.1818 337.009 63.1936H342.664C342.727 64.1202 342.992 64.8939 343.46 65.5147C343.936 66.1264 344.571 66.5897 345.362 66.9046C346.163 67.2104 347.067 67.3634 348.075 67.3634C349.064 67.3634 349.923 67.2194 350.652 66.9316C351.39 66.6437 351.961 66.2434 352.366 65.7306C352.771 65.2178 352.973 64.6285 352.973 63.9628C352.973 63.3421 352.789 62.8203 352.42 62.3975C352.06 61.9746 351.529 61.6148 350.828 61.3179C350.135 61.0211 349.285 60.7512 348.277 60.5083L345.268 59.7526C342.938 59.1858 341.098 58.2997 339.749 57.0942C338.399 55.8887 337.729 54.2649 337.738 52.2228C337.729 50.5495 338.174 49.0876 339.074 47.8371C339.983 46.5866 341.229 45.6105 342.812 44.9088C344.395 44.2071 346.195 43.8563 348.21 43.8563C350.261 43.8563 352.051 44.2071 353.58 44.9088C355.119 45.6105 356.315 46.5866 357.17 47.8371C358.025 49.0876 358.465 50.536 358.492 52.1823H352.892ZM372.058 72.2753C369.934 72.2753 368.108 71.8255 366.579 70.9259C365.058 70.0173 363.889 68.7578 363.07 67.1475C362.261 65.5371 361.856 63.6839 361.856 61.5878C361.856 59.4647 362.265 57.6025 363.084 56.0012C363.911 54.3908 365.085 53.1359 366.606 52.2362C368.126 51.3276 369.934 50.8733 372.031 50.8733C373.839 50.8733 375.422 51.2017 376.781 51.8584C378.139 52.5151 379.214 53.4372 380.006 54.6247C380.797 55.8122 381.234 57.2067 381.315 58.808H375.89C375.737 57.7734 375.332 56.9413 374.675 56.3115C374.028 55.6728 373.178 55.3534 372.125 55.3534C371.234 55.3534 370.456 55.5963 369.79 56.0821C369.134 56.5589 368.621 57.2561 368.252 58.1738C367.883 59.0914 367.699 60.2024 367.699 61.5068C367.699 62.8293 367.879 63.9538 368.239 64.8804C368.607 65.807 369.125 66.5132 369.79 66.999C370.456 67.4848 371.234 67.7277 372.125 67.7277C372.782 67.7277 373.371 67.5928 373.893 67.3229C374.424 67.053 374.86 66.6617 375.202 66.1489C375.553 65.6271 375.782 65.0019 375.89 64.2732H381.315C381.225 65.8565 380.793 67.2509 380.019 68.4564C379.254 69.6529 378.197 70.5885 376.848 71.2632C375.499 71.938 373.902 72.2753 372.058 72.2753ZM394.36 72.2753C392.264 72.2753 390.451 71.83 388.922 70.9394C387.402 70.0398 386.228 68.7893 385.4 67.188C384.572 65.5776 384.159 63.7109 384.159 61.5878C384.159 59.4467 384.572 57.5755 385.4 55.9742C386.228 54.3639 387.402 53.1134 388.922 52.2228C390.451 51.3231 392.264 50.8733 394.36 50.8733C396.456 50.8733 398.265 51.3231 399.785 52.2228C401.314 53.1134 402.493 54.3639 403.32 55.9742C404.148 57.5755 404.562 59.4467 404.562 61.5878C404.562 63.7109 404.148 65.5776 403.32 67.188C402.493 68.7893 401.314 70.0398 399.785 70.9394C398.265 71.83 396.456 72.2753 394.36 72.2753ZM394.387 67.8222C395.341 67.8222 396.137 67.5523 396.776 67.0125C397.414 66.4638 397.896 65.7171 398.22 64.7725C398.552 63.8279 398.719 62.7528 398.719 61.5473C398.719 60.3418 398.552 59.2668 398.22 58.3222C397.896 57.3776 397.414 56.6309 396.776 56.0821C396.137 55.5334 395.341 55.259 394.387 55.259C393.425 55.259 392.615 55.5334 391.958 56.0821C391.311 56.6309 390.82 57.3776 390.487 58.3222C390.164 59.2668 390.002 60.3418 390.002 61.5473C390.002 62.7528 390.164 63.8279 390.487 64.7725C390.82 65.7171 391.311 66.4638 391.958 67.0125C392.615 67.5523 393.425 67.8222 394.387 67.8222ZM417.665 72.2753C415.569 72.2753 413.756 71.83 412.227 70.9394C410.706 70.0398 409.532 68.7893 408.705 67.188C407.877 65.5776 407.463 63.7109 407.463 61.5878C407.463 59.4467 407.877 57.5755 408.705 55.9742C409.532 54.3639 410.706 53.1134 412.227 52.2228C413.756 51.3231 415.569 50.8733 417.665 50.8733C419.761 50.8733 421.569 51.3231 423.09 52.2228C424.619 53.1134 425.798 54.3639 426.625 55.9742C427.453 57.5755 427.867 59.4467 427.867 61.5878C427.867 63.7109 427.453 65.5776 426.625 67.188C425.798 68.7893 424.619 70.0398 423.09 70.9394C421.569 71.83 419.761 72.2753 417.665 72.2753ZM417.692 67.8222C418.646 67.8222 419.442 67.5523 420.08 67.0125C420.719 66.4638 421.2 65.7171 421.524 64.7725C421.857 63.8279 422.024 62.7528 422.024 61.5473C422.024 60.3418 421.857 59.2668 421.524 58.3222C421.2 57.3776 420.719 56.6309 420.08 56.0821C419.442 55.5334 418.646 55.259 417.692 55.259C416.729 55.259 415.92 55.5334 415.263 56.0821C414.615 56.6309 414.125 57.3776 413.792 58.3222C413.468 59.2668 413.306 60.3418 413.306 61.5473C413.306 62.7528 413.468 63.8279 413.792 64.7725C414.125 65.7171 414.615 66.4638 415.263 67.0125C415.92 67.5523 416.729 67.8222 417.692 67.8222ZM431.605 79.6432V51.1432H437.272V54.6247H437.529C437.78 54.067 438.145 53.5002 438.622 52.9245C439.107 52.3397 439.737 51.8539 440.511 51.4671C441.294 51.0712 442.265 50.8733 443.426 50.8733C444.937 50.8733 446.331 51.2692 447.609 52.0608C448.886 52.8435 449.907 54.0265 450.672 55.6098C451.437 57.1842 451.819 59.1588 451.819 61.5338C451.819 63.8459 451.446 65.798 450.699 67.3904C449.961 68.9737 448.954 70.1747 447.676 70.9934C446.408 71.803 444.986 72.2078 443.412 72.2078C442.297 72.2078 441.347 72.0234 440.565 71.6546C439.791 71.2857 439.157 70.8224 438.662 70.2647C438.167 69.6979 437.789 69.1266 437.529 68.5509H437.353V79.6432H431.605ZM437.232 61.5068C437.232 62.7393 437.403 63.8144 437.744 64.732C438.086 65.6496 438.581 66.3648 439.229 66.8776C439.877 67.3814 440.664 67.6333 441.59 67.6333C442.526 67.6333 443.318 67.3769 443.965 66.8641C444.613 66.3423 445.103 65.6226 445.436 64.705C445.778 63.7784 445.949 62.7123 445.949 61.5068C445.949 60.3104 445.783 59.2578 445.45 58.3492C445.117 57.4406 444.627 56.7299 443.979 56.2171C443.331 55.7043 442.535 55.4479 441.59 55.4479C440.655 55.4479 439.863 55.6953 439.215 56.1901C438.577 56.6849 438.086 57.3866 437.744 58.2952C437.403 59.2038 437.232 60.2744 437.232 61.5068ZM455.651 71.8705V51.1432H461.4V71.8705H455.651ZM458.539 48.4713C457.685 48.4713 456.951 48.188 456.34 47.6212C455.737 47.0454 455.436 46.3572 455.436 45.5566C455.436 44.7649 455.737 44.0857 456.34 43.5189C456.951 42.9432 457.685 42.6553 458.539 42.6553C459.394 42.6553 460.123 42.9432 460.725 43.5189C461.337 44.0857 461.643 44.7649 461.643 45.5566C461.643 46.3572 461.337 47.0454 460.725 47.6212C460.123 48.188 459.394 48.4713 458.539 48.4713ZM474.558 44.2065V48.4625H508.454V44.2065H474.558ZM484.818 57.8865V61.6865H501.348V57.8865H484.818ZM481.436 51.4645V75.2525H485.958V55.4545H500.664V51.4645H481.436ZM499.752 51.4645V70.2745C499.752 70.8065 499.524 70.9965 498.916 70.9965C498.27 70.9965 496.028 71.0345 494.052 70.9205C494.66 72.0985 495.268 74.0365 495.458 75.2905C498.536 75.2905 500.702 75.2525 502.222 74.5685C503.78 73.8465 504.198 72.5925 504.198 70.3505V51.4645H499.752ZM486.338 39.5705C484.438 46.9805 480.182 55.1505 473.418 59.5965C474.33 60.4705 475.774 62.1045 476.42 63.1305C483.83 57.9625 488.39 49.2225 491.05 40.6345L486.338 39.5705ZM484.818 64.1565V67.9565H501.348V64.1565H484.818ZM528.442 59.9385V75.3285H532.736V64.0425H541.4V75.1385H545.96V59.9385H528.442ZM543.3 39.9885C539.272 41.2805 532.812 42.2685 527.036 42.7625C527.568 43.7885 528.176 45.4985 528.328 46.6005C534.332 46.1825 541.324 45.3085 546.492 43.7885L543.3 39.9885ZM534.636 43.5605V61.9905H539.31V43.5605H534.636ZM526.428 50.6285V54.9225H547.518V50.6285H526.428ZM531.33 69.3625V73.4665H543.566V69.3625H531.33ZM513.47 51.5405V54.9605H524.946V51.5405H513.47ZM513.698 40.7865V44.2445H524.946V40.7865H513.698ZM513.47 56.8605V60.2805H524.946V56.8605H513.47ZM511.608 46.0685V49.6405H526.162V46.0685H511.608ZM515.712 62.2185V65.8285H521.222V70.1985H515.712V73.7705H525.136V62.2185H515.712ZM513.356 62.2185V75.2905H517.194V62.2185H513.356ZM570.166 53.8965H578.412V57.9245H570.166V53.8965ZM566.024 49.9825V61.8005H582.82V49.9825H566.024ZM574.802 60.6605V69.8185C574.802 73.6945 575.562 75.0245 579.02 75.0245C579.628 75.0245 580.958 75.0245 581.642 75.0245C584.416 75.0245 585.48 73.5805 585.822 67.9565C584.682 67.6525 582.858 66.9305 582.022 66.2085C581.908 70.4265 581.794 70.9965 581.148 70.9965C580.844 70.9965 579.97 70.9965 579.742 70.9965C579.21 70.9965 579.134 70.8825 579.134 69.8185V60.6605H574.802ZM568.456 61.2685C568.114 66.2085 567.354 69.7425 561.654 71.7945C562.604 72.5925 563.782 74.3025 564.238 75.3665C571.154 72.5545 572.446 67.8045 572.902 61.2685H568.456ZM569.558 40.6345V44.7765H578.754V40.6345H569.558ZM566.86 44.0165C566.138 46.4865 564.504 49.6025 562.528 51.5025C563.554 52.0725 565.15 53.1745 566.062 53.9725C568.19 51.7685 570.052 48.2725 571.306 45.1565L566.86 44.0165ZM575.296 40.6345V42.7625H576.094C577.386 46.5245 579.514 50.5145 582.022 53.2885C582.896 52.3765 584.72 51.0465 585.86 50.4005C583.428 48.1205 581.11 44.2825 579.97 40.6345H575.296ZM551.432 51.2745V54.6945H562.908V51.2745H551.432ZM551.546 40.7865V44.2445H562.794V40.7865H551.546ZM551.432 56.4425V59.9005H562.908V56.4425H551.432ZM549.608 45.9165V49.5265H564.162V45.9165H549.608ZM553.408 61.7245V65.3345H559.07V69.6665H553.408V73.2765H562.946V61.7245H553.408ZM551.356 61.7245V74.7965H555.194V61.7245H551.356Z" fill="#4A3100"/>
</g>
<path d="M160.81 178.854V181.2H172.778V178.854H160.81ZM146.088 193.882V195.922H159.926V193.882H146.088ZM152.548 179.806V184.702H154.826V179.806H152.548ZM152.548 189.904V194.868H154.826V189.904H152.548ZM172.234 178.854V179.296C170.602 186.504 165.774 191.706 160.3 193.814C160.81 194.29 161.49 195.276 161.762 195.888C167.712 193.236 172.744 187.83 174.682 179.33L173.118 178.752L172.676 178.854H172.234ZM164.108 181.37L161.932 182.016C164.142 188.884 168.324 194.188 174.274 196.772C174.648 196.126 175.328 195.242 175.872 194.766C170.194 192.556 166.08 187.592 164.108 181.37ZM147.108 183.682V185.62H157.206V188.952H147.108V190.89H159.484V183.682H147.108ZM146.088 178.752V195.174H148.468V180.792H159.62V178.752H146.088ZM144.728 205.51V207.754H175.6V205.51H144.728ZM148.298 199.186V201.362H172.03V199.186H148.298ZM158.77 196.704V206.938H161.388V196.704H158.77ZM191.206 181.88V184.226H208.172V181.88H191.206ZM189.846 194.664V197.044H209.566V194.664H189.846ZM189.438 188.544V190.89H209.804V188.544H189.438ZM198.448 177.63V189.768H200.862V177.63H198.448ZM202.936 190.38V205.646C202.936 206.122 202.8 206.258 202.256 206.292C201.746 206.326 199.978 206.326 198.074 206.258C198.38 206.972 198.72 207.992 198.822 208.706C201.372 208.706 203.038 208.706 204.024 208.298C205.044 207.924 205.384 207.21 205.384 205.68V190.38H202.936ZM192.362 199.118C193.858 200.954 195.49 203.504 196.102 205.17L198.244 203.844C197.53 202.212 195.83 199.764 194.334 197.962L192.362 199.118ZM178.082 195.548L178.762 198.03C181.652 197.078 185.46 195.854 189.03 194.664L188.69 192.318C184.78 193.576 180.768 194.8 178.082 195.548ZM178.558 184.328V186.708H188.928V184.328H178.558ZM182.944 177.494V205.68C182.944 206.156 182.774 206.292 182.366 206.292C181.958 206.326 180.666 206.326 179.17 206.258C179.51 206.972 179.816 208.026 179.918 208.638C182.06 208.672 183.386 208.57 184.168 208.196C185.018 207.788 185.358 207.074 185.358 205.68V177.494H182.944ZM222.044 181.234V183.614H243.872V181.234H222.044ZM225.41 189.088H240.268V194.188H225.41V189.088ZM223.064 186.912V196.364H242.75V186.912H223.064ZM225.172 197.044L223.064 197.758C226.668 203.98 233.638 207.516 242.648 208.808C242.988 208.094 243.634 207.074 244.178 206.53C235.338 205.544 228.368 202.382 225.172 197.044ZM231.496 177.596V192.624C231.496 198.37 230.918 204.184 220.82 206.734C221.33 207.278 222.044 208.298 222.35 208.876C232.89 205.748 234.012 199.22 234.012 192.658V177.596H231.496ZM220.582 177.392C218.61 182.56 215.278 187.626 211.844 190.856C212.32 191.468 213.034 192.794 213.272 193.372C217.046 189.598 220.684 183.886 222.996 178.14L220.582 177.392ZM217.012 186.3V208.91H219.46V183.92L219.426 183.886L217.012 186.3ZM251.794 179.874V182.322H273.792V179.874H251.794ZM251.794 187.796V190.21H273.758V187.796H251.794ZM251.624 195.922V198.336H273.826V195.922H251.624ZM250.366 179.874V192.182C250.366 196.976 249.992 203.028 246.252 207.244C246.796 207.584 247.816 208.434 248.224 208.944C252.27 204.422 252.882 197.384 252.882 192.216V179.874H250.366ZM272.772 179.874V205.272C272.772 205.918 272.534 206.122 271.888 206.156C271.242 206.156 268.93 206.19 266.516 206.088C266.89 206.768 267.298 207.89 267.4 208.57C270.63 208.604 272.602 208.57 273.758 208.162C274.88 207.72 275.288 206.938 275.288 205.272V179.874H272.772ZM261.042 180.792V208.434H263.626V180.792H261.042ZM287.664 184.464H304.732V186.878H287.664V184.464ZM287.664 180.384H304.732V182.73H287.664V180.384ZM285.182 178.548V188.68H307.248V178.548H285.182ZM281.136 190.584V192.692H311.09V190.584H281.136ZM296.232 194.834V196.908H308.336V194.834H296.232ZM285.556 195.038V196.942H293.954V195.038H285.556ZM285.556 199.322V201.226H293.954V199.322H285.556ZM299.802 196.738L297.728 197.35C299.972 202.926 304.358 206.972 310.342 208.74C310.682 208.128 311.362 207.21 311.906 206.734C306.126 205.306 301.774 201.6 299.802 196.738ZM307.554 194.834V195.242C305.684 200.954 300.448 204.932 295.008 206.564C295.484 207.04 296.13 207.958 296.402 208.57C302.318 206.53 307.792 202.28 310.036 195.378L308.472 194.732L308.03 194.834H307.554ZM280.83 204.524L281.068 206.802C284.57 206.394 289.296 205.816 293.886 205.272V203.164C289.092 203.708 284.162 204.252 280.83 204.524ZM292.594 191.264V208.74H295.042V191.264H292.594ZM284.06 191.298V205.136H286.44V191.298H284.06ZM328.362 179.228V181.608H343.288V179.228H328.362ZM327.206 191.162V193.61H345.906V191.162H327.206ZM335.23 186.64V205.51C335.23 206.02 335.06 206.19 334.482 206.224C333.87 206.258 331.966 206.258 329.824 206.19C330.164 206.87 330.606 207.992 330.742 208.672C333.462 208.706 335.23 208.638 336.352 208.23C337.406 207.822 337.78 207.074 337.78 205.544V186.64H335.23ZM342.37 179.228V179.806C341.01 182.016 338.188 185.212 335.74 187.048C336.182 187.388 336.896 188.068 337.27 188.544C339.99 186.504 343.152 183.206 345.192 180.316L343.526 179.092L342.982 179.228H342.37ZM314.626 184.498V186.878H325.812V184.498H314.626ZM319.76 177.494C318.604 183.954 316.564 193.066 315.068 198.268L317.21 199.39C318.74 193.746 320.882 184.566 322.174 177.766L319.76 177.494ZM316.326 197.18C320.134 199.39 324.52 202.858 326.56 205.408L328.09 203.334C326.05 200.818 321.562 197.554 317.754 195.412L316.326 197.18ZM324.962 184.498V185.008C324.112 196.568 320.576 203.776 314.898 206.768C315.442 207.278 316.156 208.196 316.496 208.808C322.752 205.068 326.458 197.86 327.376 184.702L325.846 184.396L325.37 184.498H324.962ZM351.618 182.934V185.212H359.574V202.858H351.618V205.17H361.954V182.934H351.618ZM350.088 182.934V207.89H352.468V182.934H350.088ZM351.448 192.386V194.664H360.832V192.386H351.448ZM355.29 177.392C355.018 179.16 354.372 181.744 353.794 183.376L355.834 183.886C356.514 182.356 357.364 180.01 358.044 177.902L355.29 177.392ZM366.782 182.832V185.212H377.22V182.832H366.782ZM376.336 182.832V183.376C375.86 198.37 375.316 204.014 374.194 205.238C373.82 205.68 373.412 205.782 372.732 205.782C371.95 205.782 369.91 205.748 367.7 205.578C368.176 206.258 368.482 207.312 368.55 208.06C370.454 208.162 372.46 208.23 373.616 208.094C374.806 207.992 375.588 207.686 376.336 206.7C377.696 205.034 378.172 199.764 378.716 184.158C378.716 183.784 378.716 182.832 378.716 182.832H376.336ZM367.496 177.324C366.408 182.05 364.538 186.742 362.226 189.734C362.838 190.074 363.892 190.788 364.334 191.196C366.68 187.966 368.686 182.968 369.944 177.902L367.496 177.324ZM365.932 191.672C367.802 194.154 370.08 197.52 371.1 199.594L373.276 198.234C372.188 196.228 369.842 192.93 367.904 190.516L365.932 191.672ZM386.502 209.658C390.072 208.434 392.384 205.646 392.384 201.974C392.384 199.594 391.364 198.03 389.46 198.03C388.1 198.03 386.876 198.88 386.876 200.478C386.876 202.11 388.032 202.926 389.426 202.926C390.072 202.926 390.752 202.756 391.228 202.144L389.392 199.56L390.038 202.45C390.038 205 388.508 206.734 385.72 207.89L386.502 209.658ZM427.88 179.84V181.812H447.43V179.84H427.88ZM428.526 190.788V192.522H446.988V190.788H428.526ZM429.104 194.29V195.99H446.376V194.29H429.104ZM427.472 197.894V199.798H447.634V197.894H427.472ZM436.21 177.46V180.826H438.794V177.46H436.21ZM432.674 188.918V198.744H434.986V188.918H432.674ZM440.12 188.918V198.744H442.432V188.918H440.12ZM435.972 198.37C434.102 200.274 430.328 201.736 426.928 202.654C427.336 203.028 427.982 203.912 428.22 204.354C431.722 203.198 435.768 201.362 437.91 198.982L435.972 198.37ZM439.338 198.71L437.4 199.152C438.93 203.81 442.092 207.278 446.682 208.808C446.988 208.23 447.634 207.414 448.144 206.972C443.792 205.782 440.698 202.654 439.338 198.71ZM445.73 200.342C444.472 201.226 442.262 202.518 440.732 203.232L441.956 204.49C443.52 203.81 445.594 202.79 447.124 201.668L445.73 200.342ZM431.144 184.77H434.748V187.388H431.144V184.77ZM429.206 183.172V188.952H436.788V183.172H429.206ZM440.562 184.77H444.268V187.388H440.562V184.77ZM438.59 183.172V188.952H446.308V183.172H438.59ZM417.85 187.762V189.802H426.588V187.762H417.85ZM418.054 178.684V180.724H426.486V178.684H418.054ZM417.85 192.318V194.358H426.588V192.318H417.85ZM416.456 183.138V185.246H427.438V183.138H416.456ZM419.04 196.908V199.016H424.412V204.694H419.04V206.802H426.554V196.908H419.04ZM417.782 196.908V208.4H419.89V196.908H417.782ZM428.934 206.428L429.58 208.502C432.572 207.958 436.414 207.278 440.154 206.564L440.018 204.66C435.938 205.34 431.79 206.02 428.934 206.428ZM432.096 201.702V206.802H434.306V200.852L433.32 200.478L432.096 201.702ZM451.238 179.364V181.71H465.892V179.364H451.238ZM468.306 189.054V191.502H481.974V189.054H468.306ZM475.684 190.652V208.774H478.2V190.652H475.684ZM467.32 180.826V189.904C467.32 195.106 466.844 201.94 462.118 206.972C462.73 207.278 463.648 208.128 464.022 208.672C469.122 203.198 469.836 195.412 469.836 189.904V182.118C470.312 182.05 470.482 181.914 470.516 181.676L467.32 180.826ZM452.496 185.246V194.426C452.496 198.336 452.258 203.572 449.878 207.244C450.422 207.55 451.476 208.332 451.884 208.808C454.502 204.796 454.91 198.778 454.91 194.426V185.246H452.496ZM479.05 177.868C476.5 179.33 471.91 180.792 467.864 181.744C468.204 182.322 468.612 183.24 468.748 183.818C472.998 182.832 477.928 181.438 481.294 179.806L479.05 177.868ZM453.89 185.246V187.592H462.56V193.542H453.89V195.854H465.042V185.246H453.89ZM485.306 181.88V184.294H515.09V181.88H485.306ZM493.602 194.018V196.228H509.582V194.018H493.602ZM491.8 188.238V208.74H494.316V190.516H509.174V188.238H491.8ZM508.596 188.238V205.544C508.596 206.054 508.392 206.224 507.814 206.258C507.202 206.258 505.128 206.292 502.85 206.19C503.224 206.904 503.598 207.958 503.7 208.672C506.624 208.672 508.528 208.672 509.616 208.264C510.772 207.856 511.078 207.074 511.078 205.578V188.238H508.596ZM496.424 177.46C494.588 184.294 490.576 191.502 484.49 195.684C485 196.194 485.782 197.078 486.122 197.656C492.616 193.1 496.696 185.552 499.008 178.072L496.424 177.46ZM493.602 199.764V201.974H509.582V199.764H493.602ZM532.396 178.514C532.158 183.036 532.158 199.39 518.286 206.462C519.068 207.04 519.918 207.822 520.36 208.468C534.436 200.818 534.946 183.852 535.218 178.514H532.396ZM535.116 179.194L532.668 179.432C532.906 182.56 533.858 201.566 548.274 208.468C548.682 207.754 549.464 206.904 550.212 206.326C536.204 199.9 535.218 181.846 535.116 179.194ZM554.156 181.438V183.682H566.056V181.438H554.156ZM557.76 204.422V206.598H567.28V204.422H557.76ZM557.726 198.778V200.818H567.314V198.778H557.726ZM552.626 187.762V190.04H570.204V187.762H552.626ZM559.426 177.766V189.224H561.806V177.766H559.426ZM568.436 178.65C565.07 186.538 559.256 192.726 551.878 196.398C552.354 196.908 553.17 197.928 553.476 198.472C560.956 194.358 567.008 187.83 570.748 179.33L568.436 178.65ZM558.542 193.338H557.624L556.196 194.834V208.604H558.542V195.48H567.212V193.338H558.542ZM566.192 193.338V208.128H568.674V193.338H566.192ZM571.632 179.432V208.74H574.182V181.812H581.798V179.432H571.632ZM581.152 179.432V180.214C580.064 182.968 578.16 187.592 576.324 191.128C579.928 194.086 581.016 196.67 581.016 198.812C581.016 200.07 580.778 201.056 579.962 201.498C579.554 201.736 578.976 201.872 578.364 201.906C577.616 201.974 576.596 201.94 575.508 201.838C575.916 202.518 576.222 203.64 576.256 204.32C577.31 204.388 578.534 204.388 579.452 204.286C580.336 204.184 581.118 203.946 581.73 203.538C582.988 202.722 583.498 201.158 583.464 199.05C583.464 196.602 582.546 193.916 578.976 190.754C580.642 187.626 582.478 183.682 583.906 180.486L582.07 179.296L581.662 179.432H581.152ZM592.202 177.46C591.386 179.942 589.788 183.512 588.496 185.688L590.672 186.334C592.032 184.192 593.63 180.894 594.854 178.072L592.202 177.46ZM586.49 184.668L586.728 187.15C590.434 186.946 595.704 186.674 600.77 186.368L600.804 184.09C595.466 184.328 590.06 184.566 586.49 184.668ZM588.564 189.598V208.706H590.944V191.774H599.342V189.598H588.564ZM598.186 189.598V205.782C598.186 206.224 598.05 206.326 597.608 206.326C597.132 206.36 595.67 206.394 594.072 206.326C594.412 206.972 594.786 207.992 594.922 208.672C597.064 208.672 598.56 208.638 599.512 208.23C600.43 207.822 600.702 207.108 600.702 205.816V189.598H598.186ZM589.686 194.664V196.67H599.512V194.664H589.686ZM589.686 199.764V201.804H599.512V199.764H589.686ZM603.898 177.528V188.816C603.898 191.638 604.748 192.42 608.012 192.42C608.692 192.42 613.146 192.42 613.86 192.42C616.614 192.42 617.362 191.298 617.668 187.15C616.92 186.98 615.9 186.606 615.356 186.164C615.22 189.53 614.982 190.108 613.656 190.108C612.67 190.108 608.964 190.108 608.25 190.108C606.686 190.108 606.414 189.87 606.414 188.782V177.528H603.898ZM614.302 180.044C611.99 181.234 608.114 182.73 604.748 183.784C605.054 184.294 605.394 185.042 605.53 185.586C609.032 184.6 613.112 183.274 616.002 181.914L614.302 180.044ZM603.898 193.338V204.864C603.898 207.686 604.782 208.468 608.08 208.468C608.794 208.468 613.384 208.468 614.132 208.468C616.988 208.468 617.736 207.244 618.076 202.654C617.362 202.518 616.342 202.11 615.764 201.702C615.594 205.544 615.39 206.19 613.928 206.19C612.908 206.19 609.066 206.19 608.352 206.19C606.72 206.19 606.414 205.986 606.414 204.83V193.338H603.898ZM614.71 195.208C612.398 196.704 608.284 198.268 604.748 199.288C605.02 199.798 605.394 200.614 605.53 201.124C609.202 200.138 613.554 198.744 616.41 197.112L614.71 195.208ZM596.452 180.69C598.254 183.104 600.09 186.368 600.804 188.442L603.048 187.456C602.266 185.348 600.362 182.22 598.56 179.84L596.452 180.69ZM623.04 180.588V183.036H628.412V197.928H623.04V200.376H630.758V180.588H623.04ZM621.748 180.588V203.062H624.094V180.588H621.748ZM635.79 182.696V185.11H651.294V182.696H635.79ZM635.042 189.734V192.114H647.248V189.734H635.042ZM637.218 177.46C636.028 181.846 633.92 186.096 631.302 188.816C631.914 189.19 632.934 190.04 633.41 190.482C636.028 187.49 638.34 182.9 639.768 178.038L637.218 177.46ZM646.874 189.734C633.478 200.784 632.9 202.96 632.9 204.762C632.9 206.938 634.532 208.23 638.17 208.23H647.554C650.614 208.23 651.668 207.278 652.008 201.464C651.26 201.328 650.342 200.988 649.662 200.614C649.526 205.102 649.152 205.714 647.69 205.714H638.068C636.538 205.714 635.552 205.34 635.552 204.422C635.552 203.3 636.436 201.532 649.22 191.094C649.39 190.924 649.526 190.754 649.628 190.584L647.894 189.632L647.282 189.734H646.874ZM669.518 185.042H680.772V187.83H669.518V185.042ZM669.518 180.452H680.772V183.206H669.518V180.452ZM667.07 178.514V189.768H683.322V178.514H667.07ZM664.962 192.114V194.256H684.954V192.114H664.962ZM664.18 197.18V199.424H685.566V197.18H664.18ZM677.916 193.984V205.884C677.916 206.326 677.78 206.462 677.236 206.496C676.726 206.53 675.026 206.53 673.088 206.462C673.428 207.142 673.836 208.094 673.938 208.774C676.488 208.774 678.12 208.774 679.14 208.366C680.16 207.992 680.466 207.312 680.466 205.952V193.984H677.916ZM667.138 201.158C668.668 202.654 670.504 204.762 671.32 206.122L673.258 204.694C672.374 203.368 670.504 201.362 668.94 199.934L667.138 201.158ZM662.31 185.042C660.27 188.578 656.972 192.08 653.878 194.324C654.32 194.902 655.034 196.262 655.238 196.772C658.604 194.12 662.242 190.006 664.554 185.96L662.31 185.042ZM661.664 177.562C660.202 179.976 657.142 182.798 654.422 184.566C654.864 185.076 655.51 186.062 655.782 186.64C658.808 184.634 662.072 181.438 664.112 178.514L661.664 177.562ZM659.25 191.06V208.74H661.732V188.714L661.63 188.646L659.25 191.06ZM702.736 177.46V182.934H705.422V177.46H702.736ZM690.054 181.064V188.408H692.638V183.478H715.758V188.408H718.444V181.064H690.054ZM701.376 185.008C699.064 190.006 695.392 196.942 692.91 201.022L695.528 201.736C697.942 197.622 701.512 190.754 704.028 185.586L701.376 185.008ZM710.386 192.046C708.176 201.498 701.41 205.068 689.884 206.496C690.36 207.074 691.142 208.196 691.414 208.808C703.144 206.938 710.42 202.994 713.208 192.454L710.386 192.046ZM689.068 190.516V192.93H719.26V190.516H689.068ZM694.882 199.832C702.192 201.94 711.202 205.782 715.724 208.808L717.628 206.7C712.868 203.674 703.756 200.002 696.616 198.03L694.882 199.832ZM731.5 186.98V204.048C731.5 207.38 732.554 208.298 736.158 208.298C736.94 208.298 742.006 208.298 742.822 208.298C746.528 208.298 747.31 206.394 747.684 199.968C746.936 199.798 745.882 199.322 745.27 198.812C744.998 204.694 744.692 205.952 742.686 205.952C741.53 205.952 737.246 205.952 736.396 205.952C734.526 205.952 734.118 205.646 734.118 204.048V186.98H731.5ZM731.772 179.568C735.886 181.03 740.85 183.58 743.468 185.552L745.1 183.308C742.414 181.472 737.484 179.024 733.37 177.63L731.772 179.568ZM725.822 189.7C725.346 194.12 724.224 199.084 721.946 202.076L724.258 203.47C726.706 200.206 727.76 194.766 728.27 190.21L725.822 189.7ZM745.644 189.734C748.534 193.576 751.084 198.88 751.832 202.45L754.382 201.226C753.532 197.622 750.982 192.488 747.922 188.612L745.644 189.734ZM777.536 177.732V204.728H779.916V177.732H777.536ZM770.26 185.008V186.98H788.076V185.008H770.26ZM771.008 198.88V200.852H787.43V198.88H771.008ZM772.028 194.222V196.194H786.478V194.222H772.028ZM764.31 180.282V182.424H769.24V180.282H764.31ZM765.602 189.836V191.808H769.954V189.836H765.602ZM768.696 180.282V180.588C767.574 183.376 765.228 188.952 763.358 192.896L765.5 193.406C767.336 189.428 769.648 184.158 771.042 180.622L769.41 180.18L769.002 180.282H768.696ZM769.274 189.836V190.244C768.594 198.336 766.248 204.082 762.576 206.768C763.086 207.244 763.732 208.094 764.038 208.638C768.254 205.34 770.668 199.458 771.484 190.04L770.124 189.768L769.716 189.836H769.274ZM765.738 194.562L763.766 195.174C766.01 205.714 770.498 208.128 778.624 208.128H787.294C787.43 207.448 787.804 206.36 788.178 205.782C786.716 205.816 779.814 205.816 778.726 205.816C771.79 205.816 767.574 203.776 765.738 194.562ZM772.572 180.452V182.424H783.826V189.632H772.572V191.638H786.036V180.452H772.572ZM762.542 177.664C761.08 182.662 758.632 187.558 755.844 190.788C756.252 191.434 756.898 192.828 757.136 193.406C760.264 189.632 763.086 183.92 764.854 178.31L762.542 177.664ZM760.128 186.266V208.672H762.406V184.056L762.372 184.022L760.128 186.266ZM796.44 189.938V191.876H821.804V189.938H796.44ZM798.854 185.552V187.422H816.024V194.528H798.582V196.398H818.438V185.552H798.854ZM806.81 183.138V205.816C806.81 206.394 806.64 206.564 806.028 206.564C805.45 206.598 803.376 206.632 801.268 206.564C801.642 207.21 801.982 208.196 802.118 208.808C804.906 208.808 806.742 208.774 807.83 208.4C808.884 208.06 809.292 207.414 809.292 205.816V183.138H806.81ZM797.29 198.234C799.058 199.288 801.234 200.852 802.288 201.906L803.852 200.342C802.696 199.322 800.52 197.826 798.752 196.84L797.29 198.234ZM818.03 197.01C816.432 198.37 813.678 200.24 811.672 201.328L813.134 202.62C815.208 201.634 817.86 200.036 819.9 198.506L818.03 197.01ZM809.836 195.718L807.864 196.194C809.87 202.11 813.848 206.462 819.56 208.4C819.9 207.754 820.58 206.836 821.124 206.36C815.582 204.762 811.638 200.852 809.836 195.718ZM795.488 205.34L796.712 207.414C799.16 206.428 802.22 205.17 805.144 203.912L804.702 202.042C801.302 203.3 797.8 204.592 795.488 205.34ZM805.824 177.494V181.812H808.442V177.494H805.824ZM794.4 180.622V182.866H821.396V180.622H794.4ZM793.176 180.622V190.652C793.176 195.65 792.938 202.586 790.218 207.516C790.796 207.754 791.85 208.434 792.292 208.876C795.148 203.708 795.59 195.99 795.59 190.652V180.622H793.176ZM829.76 197.758C826.904 197.758 824.558 200.07 824.558 202.926C824.558 205.782 826.904 208.094 829.76 208.094C832.616 208.094 834.928 205.782 834.928 202.926C834.928 200.07 832.616 197.758 829.76 197.758ZM829.76 206.36C827.856 206.36 826.292 204.83 826.292 202.926C826.292 201.022 827.856 199.492 829.76 199.492C831.664 199.492 833.194 201.022 833.194 202.926C833.194 204.83 831.664 206.36 829.76 206.36ZM138.54 222.832C140.716 225.348 142.926 228.85 143.81 231.196L146.258 229.87C145.272 227.558 143.096 224.192 140.818 221.71L138.54 222.832ZM127.354 242.416L128.272 245.068C132.046 243.436 137.214 241.158 141.94 238.982L141.362 236.5C136.262 238.744 130.822 241.056 127.354 242.416ZM147.754 237.928C151.018 241.26 155.098 245.85 157.002 248.672L159.178 246.666C157.172 243.878 152.956 239.458 149.726 236.262L147.754 237.928ZM152.48 219.228C150.95 234.018 147.346 242.348 135.582 246.632C136.228 247.176 137.248 248.298 137.622 248.842C149.522 243.878 153.5 235.208 155.234 219.5L152.48 219.228ZM131.502 219.33L132.08 241.804L134.698 241.702L134.12 219.228L131.502 219.33ZM175.94 237.554V246.87H178.422V237.554H175.94ZM170.806 229.326H183.658V232.556H170.806V229.326ZM168.426 227.388V234.528H186.208V227.388H168.426ZM165.298 236.5V248.842H167.746V238.472H187.024V248.74H189.574V236.5H165.298ZM166.726 241.192V243.062H187.942V241.192H166.726ZM166.726 245.884V247.856H187.942V245.884H166.726ZM175.77 217.46V223.852H178.354V217.46H175.77ZM162.952 222.696V229.734H165.4V224.94H189.132V229.734H191.682V222.696H162.952ZM165.774 218.82C166.862 220.146 168.086 222.016 168.63 223.206L171.01 222.118C170.398 220.928 169.174 219.194 168.018 217.902L165.774 218.82ZM186.174 217.766C185.494 219.126 184.168 221.064 183.148 222.322L185.256 223.104C186.31 221.982 187.636 220.282 188.792 218.65L186.174 217.766ZM196.136 239.492V241.702H226.226V239.492H196.136ZM201.848 233.372V235.446H218.202V233.372H201.848ZM209.872 237.418V245.884C209.872 246.36 209.736 246.53 209.124 246.53C208.444 246.598 206.268 246.598 203.786 246.496C204.16 247.176 204.568 248.094 204.738 248.774C207.696 248.774 209.668 248.774 210.858 248.4C212.048 248.06 212.388 247.414 212.388 245.952V237.418H209.872ZM217.352 233.372V233.848C215.924 235.14 213.034 236.772 210.484 237.69C210.858 238.03 211.504 238.71 211.81 239.152C214.7 238.064 217.93 236.33 220.106 234.528L218.508 233.236L217.998 233.372H217.352ZM196.17 224.6V226.776H226.192V224.6H196.17ZM209.804 220.044V232.454H212.32V220.044H209.804ZM208.512 225.314C205.622 228.748 200.046 232.012 195.184 233.508C195.694 234.018 196.442 234.902 196.816 235.48C201.678 233.712 207.356 230.176 210.518 226.232L208.512 225.314ZM213.816 225.382L211.81 226.3C214.904 230.074 220.412 233.508 225.206 235.208C225.614 234.596 226.328 233.644 226.872 233.168C222.078 231.74 216.638 228.68 213.816 225.382ZM220.582 217.63C215.618 218.786 206.132 219.534 198.346 219.772C198.584 220.316 198.89 221.268 198.958 221.846C206.948 221.608 216.638 220.894 222.69 219.466L220.582 217.63ZM245.028 219.704C248.326 223.546 254.344 227.592 259.444 229.87C259.886 229.156 260.498 228.238 261.076 227.626C255.772 225.62 249.856 221.71 246.15 217.426H243.6C240.846 221.234 235.134 225.518 229.354 228C229.898 228.578 230.544 229.496 230.85 230.074C236.494 227.456 242.104 223.308 245.028 219.704ZM236.97 231.774V233.746H253.256V231.774H236.97ZM243.736 223.444V228.068H246.354V223.444H243.736ZM231.598 246.054L231.938 248.468C235.848 248.094 241.458 247.55 246.796 247.006L246.762 244.694C241.152 245.238 235.372 245.748 231.598 246.054ZM245.3 237.86L243.124 238.54C245.98 244.15 251.522 247.448 259.002 248.774C259.342 248.094 260.022 247.074 260.566 246.53C253.324 245.51 247.816 242.654 245.3 237.86ZM256.792 237.316C254.582 239.016 250.842 241.294 248.088 242.62L249.72 244.014C252.508 242.688 256.01 240.716 258.696 238.812L256.792 237.316ZM236.97 226.844V228.918H252.338V236.772H236.97V238.846H254.888V226.844H236.97ZM235.44 226.844V246.632L237.956 246.36V226.844H235.44ZM278.348 224.804V227.252H294.736V224.804H278.348ZM288.548 217.528V245.306C288.548 245.918 288.344 246.088 287.698 246.122C287.086 246.122 284.876 246.156 282.666 246.088C283.006 246.836 283.414 247.992 283.584 248.706C286.474 248.706 288.48 248.672 289.636 248.23C290.758 247.822 291.2 247.04 291.2 245.272V217.528H288.548ZM288.276 225.926C285.896 231.672 281 238.098 276.376 241.26C277.022 241.77 277.804 242.654 278.212 243.334C282.904 239.764 287.8 233.134 290.316 227.15L288.276 225.926ZM264.204 224.77V227.218H277.09V224.77H264.204ZM269.882 217.46V248.706H272.432V217.46H269.882ZM269.746 226.266C268.556 231.264 265.768 237.044 263.014 240.104C263.49 240.716 264.17 241.77 264.442 242.518C267.366 239.084 270.154 232.454 271.548 226.912L269.746 226.266ZM272.194 227.932L270.868 229.224C272.092 230.652 275.254 234.902 276.342 236.704L277.974 234.494C277.124 233.406 273.282 228.918 272.194 227.932ZM303.304 235.582V237.826H326.458V235.582H303.304ZM298.918 223.308V225.654H321.154V223.308H298.918ZM308.506 229.428V231.706H324.078V229.428H308.506ZM325.37 235.582V235.99C324.826 242.756 324.18 245.442 323.398 246.224C323.092 246.496 322.752 246.564 322.106 246.564C321.46 246.564 319.828 246.564 318.128 246.36C318.536 247.04 318.808 248.026 318.842 248.74C320.61 248.808 322.31 248.842 323.16 248.774C324.18 248.706 324.826 248.468 325.472 247.822C326.56 246.7 327.206 243.878 327.818 236.704C327.886 236.33 327.92 235.582 327.92 235.582H325.37ZM317.822 239.662C318.842 241.09 319.896 243.062 320.338 244.286L322.208 243.504C321.766 242.28 320.712 240.376 319.624 238.982L317.822 239.662ZM303.134 218.48C304.46 219.908 305.888 221.914 306.466 223.24L308.846 222.152C308.166 220.86 306.67 218.922 305.344 217.562L303.134 218.48ZM307.758 240.512C308.336 242.722 308.71 245.51 308.642 247.346L310.886 247.04C310.886 245.204 310.512 242.382 309.832 240.24L307.758 240.512ZM312.756 240.206C313.606 242.076 314.422 244.558 314.66 246.19L316.768 245.612C316.496 244.014 315.646 241.6 314.762 239.73L312.756 240.206ZM303.406 239.73C302.726 242.348 301.434 245.374 299.53 247.176L301.502 248.57C303.576 246.496 304.766 243.266 305.548 240.444L303.406 239.73ZM313.436 217.46C310.852 226.266 305.616 234.97 297.184 239.764C297.626 240.308 298.272 241.328 298.578 241.94C307.588 236.602 312.926 227.626 316.02 218.106L313.436 217.46ZM320.576 223.308C320.202 225.484 319.624 228.204 319.148 230.006L321.392 230.312C321.902 228.476 322.514 225.654 322.99 223.308H320.576ZM323.126 229.428C322.786 231.604 322.208 234.358 321.698 236.194L324.01 236.466C324.486 234.63 325.064 231.774 325.54 229.428H323.126ZM333.632 224.26V226.776H360.662V224.26H333.632ZM335.196 234.256V236.738H359.234V234.256H335.196ZM332.068 245.102V247.618H362.362V245.102H332.068ZM345.77 226.266V246.394H348.524V226.266H345.77ZM342.846 219.024C345.09 220.69 347.776 223.104 349 224.702L351.21 223.104C349.884 221.472 347.13 219.16 344.92 217.596L342.846 219.024ZM369.502 249.658C373.072 248.434 375.384 245.646 375.384 241.974C375.384 239.594 374.364 238.03 372.46 238.03C371.1 238.03 369.876 238.88 369.876 240.478C369.876 242.11 371.032 242.926 372.426 242.926C373.072 242.926 373.752 242.756 374.228 242.144L372.392 239.56L373.038 242.45C373.038 245 371.508 246.734 368.72 247.89L369.502 249.658ZM420.4 219.602V221.88H426.69V219.602H420.4ZM412.546 221.268V223.444H419.72V221.268H412.546ZM420.74 225.892V228.034H426.622V225.892H420.74ZM420.672 232.25V234.392H426.452V232.25H420.672ZM403.91 225.892V228.034H409.69V225.892H403.91ZM404.046 232.216V234.392H409.724V232.216H404.046ZM402.55 219.84L403.23 239.594H405.542L404.93 221.166C405.338 221.098 405.508 220.962 405.576 220.758L402.55 219.84ZM425.296 219.602C425.33 225.858 425.058 234.528 424.684 239.526H427.098C427.438 234.63 427.642 225.994 427.676 219.602H425.296ZM408.806 217.8C407.446 218.718 405.168 219.942 403.196 220.86C403.468 221.37 403.876 222.186 404.012 222.628C406.188 221.812 408.738 220.724 410.812 219.636L408.806 217.8ZM411.424 230.55V239.39H413.532V230.55H411.424ZM411.458 217.766V229.054H418.088V226.98H413.668V217.766H411.458ZM416.83 226.98V239.356H419.04V226.98H416.83ZM399.66 238.506V240.886H430.702V238.506H399.66ZM418.326 243.062C421.964 244.864 425.84 247.176 428.118 248.842L430.498 247.108C428.016 245.408 423.902 243.13 420.128 241.362L418.326 243.062ZM409.418 241.43C407.31 243.3 403.23 245.646 399.932 247.006C400.544 247.482 401.428 248.298 401.87 248.808C405.1 247.38 409.112 245.068 411.798 242.96L409.418 241.43ZM447.906 217.97V245.204C447.906 245.884 447.668 246.122 446.954 246.122C446.274 246.156 443.826 246.19 441.31 246.088C441.752 246.836 442.228 248.026 442.364 248.774C445.594 248.774 447.702 248.706 448.926 248.264C450.15 247.856 450.66 247.108 450.66 245.204V217.97H447.906ZM456.134 226.64C459.024 231.502 461.778 237.894 462.594 241.906L465.314 240.818C464.43 236.704 461.54 230.482 458.582 225.688L456.134 226.64ZM438.998 225.926C438.148 230.516 436.278 236.398 433.252 240.002C433.932 240.274 435.054 240.886 435.666 241.362C438.76 237.554 440.732 231.4 441.854 226.402L438.998 225.926ZM473.508 225.45H493.194V227.694H473.508V225.45ZM473.508 221.574H493.194V223.784H473.508V221.574ZM471.162 219.84V229.462H495.676V219.84H471.162ZM478.234 217.46V228.816H480.716V217.46H478.234ZM485.714 217.46V228.816H488.23V217.46H485.714ZM472.114 231.094V233.032H497.546V231.094H472.114ZM470.822 231.094V235.446C470.822 238.948 470.414 243.912 467.524 247.516C468.136 247.788 469.224 248.434 469.7 248.842C472.658 245 473.27 239.39 473.27 235.514V231.094H470.822ZM475.174 234.834V236.602H494.588V234.834H475.174ZM471.842 238.438V240.376H498.328V238.438H471.842ZM476.262 238.982V247.006L478.744 246.768V238.982H476.262ZM473.27 246.122L473.576 248.332C476.942 247.89 481.6 247.278 486.088 246.666L486.02 244.592C481.294 245.204 476.466 245.782 473.27 246.122ZM494.622 240.274C492.888 241.294 489.862 242.756 487.72 243.504L489.012 244.762C491.222 244.082 494.112 242.926 496.424 241.804L494.622 240.274ZM484.15 239.016L482.008 239.526C484.456 244.762 489.59 247.788 497.24 248.74C497.58 248.06 498.226 247.04 498.77 246.53C491.46 245.85 486.292 243.266 484.15 239.016ZM508.596 228.578V230.856H525.766V228.578H508.596ZM507.984 245.102V247.38H526.208V245.102H507.984ZM506.828 235.14V248.774H509.31V237.452H525.052V248.774H527.636V235.14H506.828ZM517.062 220.078C520.258 224.43 526.242 229.224 531.58 232.012C532.022 231.264 532.634 230.38 533.28 229.768C527.84 227.354 521.89 222.628 518.218 217.562H515.634C512.948 221.948 507.27 227.15 501.286 230.176C501.864 230.72 502.544 231.638 502.884 232.216C508.698 229.054 514.274 224.226 517.062 220.078ZM550.722 223.172L549.532 225.62H566.838V223.172H550.722ZM554.972 230.55V232.896H566.056V230.55H554.972ZM554.938 238.03V240.444H566.532V238.03H554.938ZM553.68 223.954V248.74H556.298V223.954H553.68ZM552.014 217.868C550.348 222.866 547.594 227.83 544.5 230.992C545.078 231.4 546.098 232.318 546.472 232.76C549.6 229.258 552.558 223.92 554.496 218.514L552.014 217.868ZM543.854 217.596C541.916 222.764 538.754 227.864 535.354 231.162C535.83 231.774 536.612 233.134 536.85 233.746C540.556 229.938 544.058 224.124 546.302 218.378L543.854 217.596ZM540.216 226.368V248.706H542.8V223.852L542.732 223.818L540.216 226.368ZM577.446 247.924L579.758 245.952C577.616 243.47 574.556 240.41 572.108 238.438L569.898 240.376C572.312 242.348 575.236 245.238 577.446 247.924ZM609.338 227.864V230.312H629.16V227.864H609.338ZM619.13 235.99V238.404H630.588V235.99H619.13ZM617.77 229.122V245.986L620.422 246.326V229.122H617.77ZM609.712 233.236C608.964 239.39 607.128 244.252 603.32 247.21C603.932 247.584 605.02 248.468 605.428 248.91C609.27 245.578 611.412 240.376 612.364 233.508L609.712 233.236ZM611.31 237.622L609.236 238.404C612.16 246.7 617.702 248.298 625.794 248.298H633.784C633.886 247.55 634.328 246.326 634.736 245.714C633.07 245.748 627.188 245.748 625.93 245.748C619.028 245.748 613.724 244.558 611.31 237.622ZM617.736 217.494V223.002H620.422V217.494H617.736ZM604.952 221.37V228.782H607.468V223.818H630.758V228.782H633.376V221.37H604.952ZM656.904 219.16V221.506H666.356V219.16H656.904ZM656.904 226.98V229.258H666.356V226.98H656.904ZM656.87 234.902V237.214H666.424V234.902H656.87ZM665.2 219.16V245.476C665.2 245.986 665.03 246.156 664.52 246.156C664.01 246.19 662.31 246.19 660.508 246.156C660.848 246.802 661.222 247.924 661.29 248.638C663.806 248.638 665.404 248.57 666.356 248.162C667.342 247.754 667.682 246.972 667.682 245.51V219.16H665.2ZM655.85 219.16V231.502C655.85 236.432 655.612 242.892 652.756 247.448C653.334 247.686 654.354 248.434 654.796 248.91C657.856 244.082 658.264 236.738 658.264 231.502V219.16H655.85ZM637.898 222.016V224.26H654.184V222.016H637.898ZM641.91 227.286V229.36H650.512V227.286H641.91ZM641.91 232.692V234.732H650.546V232.692H641.91ZM637.456 238.166V240.444H654.184V238.166H637.456ZM640.788 217.868V239.084H643.134V217.868H640.788ZM649.322 217.868V239.084H651.668V217.868H649.322ZM642.182 241.192C641.162 243.47 639.394 245.748 637.49 247.278C638.102 247.618 639.088 248.366 639.564 248.774C641.4 247.074 643.372 244.456 644.63 241.872L642.182 241.192ZM647.078 242.246C648.404 243.844 649.934 246.088 650.58 247.448L652.654 246.224C651.974 244.83 650.376 242.722 649.05 241.192L647.078 242.246ZM685.94 230.788V232.998H701.41V230.788H685.94ZM685.94 237.622V239.866H701.41V237.622H685.94ZM685.702 244.626V246.972H702.804V244.626H685.702ZM692.876 225.042V245.476H695.256V225.042H692.876ZM695.222 217.562C694.576 219.84 693.352 223.138 692.298 225.144L694.44 225.756C695.494 223.852 696.854 220.792 697.908 218.174L695.222 217.562ZM687.402 217.426C686.008 222.356 683.628 227.082 680.636 230.074C681.146 230.584 681.996 231.706 682.37 232.182C685.532 228.782 688.218 223.512 689.85 218.038L687.402 217.426ZM687.334 223.92H686.28L684.886 225.314V248.706H687.334V226.198H702.226V223.92H687.334ZM671.082 235.548L671.66 238.064C674.686 237.146 678.596 235.922 682.302 234.766L681.996 232.488C677.984 233.644 673.836 234.868 671.082 235.548ZM671.66 224.328V226.708H682.03V224.328H671.66ZM676.284 217.494V245.646C676.284 246.156 676.08 246.292 675.638 246.292C675.23 246.326 673.802 246.326 672.272 246.258C672.612 246.972 672.952 248.094 673.054 248.74C675.264 248.74 676.658 248.672 677.542 248.23C678.426 247.822 678.732 247.108 678.732 245.646V217.494H676.284ZM709.23 244.116V246.632H733.234V244.116H709.23ZM719.668 217.664V245.544H722.286V217.664H719.668ZM707.972 234.63V248.774H710.556V234.63H707.972ZM731.874 234.63V248.672H734.492V234.63H731.874ZM709.298 220.724V232.454H733.132V220.724H730.48V229.972H711.814V220.724H709.298ZM758.122 228.952V231.332H770.77V228.952H758.122ZM740.238 221.03V223.206H755.232V221.03H740.238ZM739.864 234.528V236.738H755.402V234.528H739.864ZM739.762 228.816V230.992H755.64V228.816H739.762ZM764.446 229.904V248.57H766.928V229.904H764.446ZM746.528 217.596V222.152H749.01V217.596H746.528ZM746.528 230.584V248.706H749.01V230.584H746.528ZM756.898 220.248V232.148C756.898 236.976 756.422 242.858 752.07 247.142C752.682 247.482 753.6 248.332 753.906 248.91C758.7 244.184 759.312 237.282 759.312 232.182V221.676C759.788 221.608 759.992 221.472 760.026 221.2L756.898 220.248ZM768.288 217.868C765.806 219.092 761.318 220.282 757.51 221.098C757.816 221.608 758.156 222.492 758.292 223.036C762.372 222.322 767.132 221.166 770.328 219.738L768.288 217.868ZM748.772 237.384L747.378 238.54C748.636 239.594 751.832 242.586 752.92 243.844L754.416 241.94C753.566 241.158 749.86 238.132 748.772 237.384ZM742.278 223.818C742.958 225.382 743.502 227.422 743.604 228.748L745.746 228.17C745.576 226.878 744.998 224.872 744.284 223.376L742.278 223.818ZM750.982 223.308C750.608 224.736 749.894 226.844 749.282 228.204L751.322 228.68C751.934 227.422 752.648 225.518 753.294 223.818L750.982 223.308ZM746.562 235.65C744.93 238.982 741.836 242.654 739.082 244.456C739.66 244.864 740.408 245.68 740.816 246.258C743.536 244.15 746.664 240.138 748.398 236.364L746.562 235.65ZM776.448 221.03V247.924H779.1V223.614H799.194V247.754H801.948V221.03H776.448ZM777.638 242.382V245H801.098V242.382H777.638ZM818.812 231.298V233.746H838.498V231.298H818.812ZM820.138 223.07V225.518H837.07V223.07H820.138ZM827.074 217.664V248.706H829.624V217.664H827.074ZM826.53 232.624C824.558 237.588 820.716 242.45 816.602 244.762C817.214 245.272 817.962 246.156 818.37 246.768C822.552 244.048 826.428 238.846 828.57 233.27L826.53 232.624ZM830.202 232.59L828.23 233.27C830.134 238.472 833.534 243.844 837.002 246.734C837.444 246.054 838.294 245.102 838.906 244.626C835.438 242.212 832.004 237.316 830.202 232.59ZM809.904 220.588V223.036H815.242V237.928H809.904V240.376H817.588V220.588H809.904ZM808.646 220.588V243.062H810.992V220.588H808.646ZM846.76 237.758C843.904 237.758 841.558 240.07 841.558 242.926C841.558 245.782 843.904 248.094 846.76 248.094C849.616 248.094 851.928 245.782 851.928 242.926C851.928 240.07 849.616 237.758 846.76 237.758ZM846.76 246.36C844.856 246.36 843.292 244.83 843.292 242.926C843.292 241.022 844.856 239.492 846.76 239.492C848.664 239.492 850.194 241.022 850.194 242.926C850.194 244.83 848.664 246.36 846.76 246.36ZM274.88 259.84V261.812H294.43V259.84H274.88ZM275.526 270.788V272.522H293.988V270.788H275.526ZM276.104 274.29V275.99H293.376V274.29H276.104ZM274.472 277.894V279.798H294.634V277.894H274.472ZM283.21 257.46V260.826H285.794V257.46H283.21ZM279.674 268.918V278.744H281.986V268.918H279.674ZM287.12 268.918V278.744H289.432V268.918H287.12ZM282.972 278.37C281.102 280.274 277.328 281.736 273.928 282.654C274.336 283.028 274.982 283.912 275.22 284.354C278.722 283.198 282.768 281.362 284.91 278.982L282.972 278.37ZM286.338 278.71L284.4 279.152C285.93 283.81 289.092 287.278 293.682 288.808C293.988 288.23 294.634 287.414 295.144 286.972C290.792 285.782 287.698 282.654 286.338 278.71ZM292.73 280.342C291.472 281.226 289.262 282.518 287.732 283.232L288.956 284.49C290.52 283.81 292.594 282.79 294.124 281.668L292.73 280.342ZM278.144 264.77H281.748V267.388H278.144V264.77ZM276.206 263.172V268.952H283.788V263.172H276.206ZM287.562 264.77H291.268V267.388H287.562V264.77ZM285.59 263.172V268.952H293.308V263.172H285.59ZM264.85 267.762V269.802H273.588V267.762H264.85ZM265.054 258.684V260.724H273.486V258.684H265.054ZM264.85 272.318V274.358H273.588V272.318H264.85ZM263.456 263.138V265.246H274.438V263.138H263.456ZM266.04 276.908V279.016H271.412V284.694H266.04V286.802H273.554V276.908H266.04ZM264.782 276.908V288.4H266.89V276.908H264.782ZM275.934 286.428L276.58 288.502C279.572 287.958 283.414 287.278 287.154 286.564L287.018 284.66C282.938 285.34 278.79 286.02 275.934 286.428ZM279.096 281.702V286.802H281.306V280.852L280.32 280.478L279.096 281.702ZM312.076 257.494C310.92 260.758 308.914 263.852 306.602 265.858C307.18 266.232 308.132 267.048 308.506 267.49C310.886 265.178 313.096 261.71 314.422 258.072L312.076 257.494ZM311.94 266.062C311.022 268.442 309.492 270.822 307.724 272.454C308.302 272.76 309.322 273.406 309.798 273.78C311.498 272.012 313.266 269.36 314.32 266.674L311.94 266.062ZM311.736 260.826L310.852 263.07H326.492V260.826H311.736ZM316.734 262.356V274.188C316.734 274.562 316.632 274.664 316.19 274.698C315.748 274.732 314.32 274.732 312.722 274.664C313.096 275.31 313.436 276.262 313.572 276.942C315.714 276.942 317.108 276.908 317.992 276.534C318.944 276.16 319.182 275.48 319.182 274.188V262.356H316.734ZM321.052 266.81C322.65 269.02 324.316 272.114 324.996 274.12L327.206 273.066C326.492 271.094 324.826 268.102 323.16 265.892L321.052 266.81ZM325.778 260.826V261.2C325.132 263.104 324.214 265.45 323.432 266.878L325.642 267.32C326.458 265.824 327.512 263.342 328.362 261.2L326.594 260.758L326.186 260.826H325.778ZM306.33 278.608V284.762C306.33 287.448 307.248 288.162 310.784 288.162C311.532 288.162 316.598 288.162 317.38 288.162C320.304 288.162 321.086 287.142 321.392 283.028C320.678 282.858 319.658 282.484 319.114 282.042C318.944 285.408 318.706 285.85 317.21 285.85C316.088 285.85 311.838 285.85 310.988 285.85C309.186 285.85 308.846 285.68 308.846 284.762V278.608H306.33ZM309.254 277.588C311.464 278.676 313.98 280.512 315.136 281.872L316.972 280.206C315.748 278.846 313.13 277.112 310.954 276.058L309.254 277.588ZM320.44 279.662C322.99 281.838 325.506 285.034 326.492 287.278L328.77 285.986C327.716 283.674 325.064 280.614 322.548 278.472L320.44 279.662ZM302.182 279.016C301.468 281.872 300.006 284.592 297.49 286.19L299.598 287.652C302.284 285.85 303.61 282.824 304.46 279.764L302.182 279.016ZM305.446 257.46C303.508 261.2 300.312 264.94 297.116 267.354C297.626 267.796 298.476 268.816 298.782 269.326C302.08 266.64 305.514 262.458 307.724 258.242L305.446 257.46ZM302.318 263.852V276.908H304.766V261.472L304.732 261.438L302.318 263.852ZM338.97 266.64V268.952H356.718V266.64H338.97ZM336.522 282.042V284.32H361.58V282.042H336.522ZM337.814 261.438V263.75H361.478V261.438H337.814ZM355.698 266.64V267.184C355.324 280.444 354.848 285.204 353.964 286.292C353.658 286.7 353.352 286.768 352.706 286.768C352.06 286.802 350.496 286.768 348.762 286.632C349.102 287.21 349.34 288.094 349.374 288.672C351.074 288.774 352.774 288.774 353.794 288.706C354.814 288.604 355.562 288.332 356.208 287.482C357.296 286.054 357.772 281.6 358.18 267.898C358.18 267.558 358.214 266.64 358.214 266.64H355.698ZM337.712 266.64C337.134 272.522 335.91 280.716 334.958 285.442L337.542 285.612C338.392 280.92 339.548 272.726 340.296 266.64H337.712ZM339.344 257.29C337.576 261.608 334.652 265.96 331.524 268.714C332.204 269.088 333.36 269.87 333.904 270.278C336.862 267.286 339.956 262.696 341.996 258.038L339.344 257.29ZM343.424 270.482C345.668 271.468 348.286 273.134 349.578 274.392L351.108 272.794C349.748 271.536 347.096 270.006 344.886 269.02L343.424 270.482ZM342.574 277.928C344.886 279.118 347.674 280.988 349.034 282.348L350.53 280.716C349.136 279.39 346.314 277.588 344.002 276.5L342.574 277.928ZM331.592 274.256V276.568H337.95V276.5H356.718V276.568H362.77V274.256H356.718V274.324H337.95V274.256H331.592ZM379.294 257.562C378.104 263.002 376.03 268.306 373.14 271.638C373.854 271.978 375.078 272.658 375.588 273.066C378.342 269.462 380.586 263.92 381.946 258.038L379.294 257.562ZM384.904 265.892H383.544V270.448C383.544 273.678 381.776 282.586 371.406 286.666C371.882 287.142 372.664 288.196 372.97 288.74C381.198 285.306 384.292 278.472 384.87 275.242C385.414 278.438 388.304 285.476 395.444 288.74C395.852 288.128 396.634 287.074 397.11 286.462C387.862 282.484 386.196 273.474 386.196 270.448V265.892H384.904ZM365.422 281.736L367.088 283.844C369.4 281.634 372.256 278.676 374.772 275.956L373.378 273.746C370.488 276.772 367.394 279.9 365.422 281.736ZM366.51 261.574C368.72 263.104 371.406 265.348 372.698 266.844L374.602 264.77C373.276 263.308 370.522 261.166 368.312 259.738L366.51 261.574ZM379.362 263.614L378.206 266.13H394.662V263.614H379.362ZM393.778 263.614V264.226C393.2 266.844 391.738 270.448 390.616 272.488C391.262 272.76 392.248 273.27 392.792 273.576C394.05 271.298 395.648 267.762 396.532 264.498L394.662 263.444L394.186 263.614H393.778ZM399.864 259.704V262.016H417.306V259.704H399.864ZM400.884 275.888V278.2H416.32V275.888H400.884ZM407.378 271.842V285.544L409.894 285.17V271.842H407.378ZM399.49 285.17L399.898 287.72C404.42 287.108 411.118 286.156 417.442 285.272L417.374 282.892C410.812 283.776 403.91 284.694 399.49 285.17ZM399.796 268.952L400 271.366C404.046 271.128 409.86 270.822 415.436 270.482L415.504 268.238C409.656 268.544 403.672 268.816 399.796 268.952ZM410.642 264.804C412.682 267.218 414.96 270.516 415.946 272.59L417.986 271.366C417 269.326 414.62 266.13 412.546 263.75L410.642 264.804ZM405.746 260.928C404.998 263.614 403.536 267.592 402.346 270.006L404.59 270.55C405.848 268.204 407.31 264.464 408.5 261.472L405.746 260.928ZM418.802 261.574V280.41H421.25V261.574H418.802ZM426.826 258.446V285.34C426.826 285.952 426.656 286.122 426.044 286.156C425.364 286.156 423.256 286.19 420.978 286.088C421.352 286.87 421.726 288.06 421.862 288.774C424.616 288.774 426.69 288.706 427.812 288.264C428.934 287.856 429.342 287.074 429.342 285.306V258.446H426.826ZM451.238 269.122V271.4H464.056V269.122H451.238ZM443.248 285.17V287.448H460.384V285.17H443.248ZM450.014 265.076V277.52H452.598V265.076H450.014ZM441.888 276.296V288.808H444.37V278.608H459.16V288.74H461.778V276.296H441.888ZM448.824 257.494V263.274H451.442V257.494H448.824ZM437.502 261.88V264.328H464.532V261.88H437.502ZM436.244 261.88V270.686C436.244 275.582 436.006 282.45 433.218 287.346C433.83 287.618 434.952 288.332 435.394 288.774C438.318 283.606 438.794 275.922 438.794 270.686V261.88H436.244ZM469.156 261.438V263.682H481.056V261.438H469.156ZM472.76 284.422V286.598H482.28V284.422H472.76ZM472.726 278.778V280.818H482.314V278.778H472.726ZM467.626 267.762V270.04H485.204V267.762H467.626ZM474.426 257.766V269.224H476.806V257.766H474.426ZM483.436 258.65C480.07 266.538 474.256 272.726 466.878 276.398C467.354 276.908 468.17 277.928 468.476 278.472C475.956 274.358 482.008 267.83 485.748 259.33L483.436 258.65ZM473.542 273.338H472.624L471.196 274.834V288.604H473.542V275.48H482.212V273.338H473.542ZM481.192 273.338V288.128H483.674V273.338H481.192ZM486.632 259.432V288.74H489.182V261.812H496.798V259.432H486.632ZM496.152 259.432V260.214C495.064 262.968 493.16 267.592 491.324 271.128C494.928 274.086 496.016 276.67 496.016 278.812C496.016 280.07 495.778 281.056 494.962 281.498C494.554 281.736 493.976 281.872 493.364 281.906C492.616 281.974 491.596 281.94 490.508 281.838C490.916 282.518 491.222 283.64 491.256 284.32C492.31 284.388 493.534 284.388 494.452 284.286C495.336 284.184 496.118 283.946 496.73 283.538C497.988 282.722 498.498 281.158 498.464 279.05C498.464 276.602 497.546 273.916 493.976 270.754C495.642 267.626 497.478 263.682 498.906 260.486L497.07 259.296L496.662 259.432H496.152ZM507.202 257.46C506.386 259.942 504.788 263.512 503.496 265.688L505.672 266.334C507.032 264.192 508.63 260.894 509.854 258.072L507.202 257.46ZM501.49 264.668L501.728 267.15C505.434 266.946 510.704 266.674 515.77 266.368L515.804 264.09C510.466 264.328 505.06 264.566 501.49 264.668ZM503.564 269.598V288.706H505.944V271.774H514.342V269.598H503.564ZM513.186 269.598V285.782C513.186 286.224 513.05 286.326 512.608 286.326C512.132 286.36 510.67 286.394 509.072 286.326C509.412 286.972 509.786 287.992 509.922 288.672C512.064 288.672 513.56 288.638 514.512 288.23C515.43 287.822 515.702 287.108 515.702 285.816V269.598H513.186ZM504.686 274.664V276.67H514.512V274.664H504.686ZM504.686 279.764V281.804H514.512V279.764H504.686ZM518.898 257.528V268.816C518.898 271.638 519.748 272.42 523.012 272.42C523.692 272.42 528.146 272.42 528.86 272.42C531.614 272.42 532.362 271.298 532.668 267.15C531.92 266.98 530.9 266.606 530.356 266.164C530.22 269.53 529.982 270.108 528.656 270.108C527.67 270.108 523.964 270.108 523.25 270.108C521.686 270.108 521.414 269.87 521.414 268.782V257.528H518.898ZM529.302 260.044C526.99 261.234 523.114 262.73 519.748 263.784C520.054 264.294 520.394 265.042 520.53 265.586C524.032 264.6 528.112 263.274 531.002 261.914L529.302 260.044ZM518.898 273.338V284.864C518.898 287.686 519.782 288.468 523.08 288.468C523.794 288.468 528.384 288.468 529.132 288.468C531.988 288.468 532.736 287.244 533.076 282.654C532.362 282.518 531.342 282.11 530.764 281.702C530.594 285.544 530.39 286.19 528.928 286.19C527.908 286.19 524.066 286.19 523.352 286.19C521.72 286.19 521.414 285.986 521.414 284.83V273.338H518.898ZM529.71 275.208C527.398 276.704 523.284 278.268 519.748 279.288C520.02 279.798 520.394 280.614 520.53 281.124C524.202 280.138 528.554 278.744 531.41 277.112L529.71 275.208ZM511.452 260.69C513.254 263.104 515.09 266.368 515.804 268.442L518.048 267.456C517.266 265.348 515.362 262.22 513.56 259.84L511.452 260.69ZM536.306 261.88V264.294H566.09V261.88H536.306ZM544.602 274.018V276.228H560.582V274.018H544.602ZM542.8 268.238V288.74H545.316V270.516H560.174V268.238H542.8ZM559.596 268.238V285.544C559.596 286.054 559.392 286.224 558.814 286.258C558.202 286.258 556.128 286.292 553.85 286.19C554.224 286.904 554.598 287.958 554.7 288.672C557.624 288.672 559.528 288.672 560.616 288.264C561.772 287.856 562.078 287.074 562.078 285.578V268.238H559.596ZM547.424 257.46C545.588 264.294 541.576 271.502 535.49 275.684C536 276.194 536.782 277.078 537.122 277.656C543.616 273.1 547.696 265.552 550.008 258.072L547.424 257.46ZM544.602 279.764V281.974H560.582V279.764H544.602ZM588.122 268.952V271.332H600.77V268.952H588.122ZM570.238 261.03V263.206H585.232V261.03H570.238ZM569.864 274.528V276.738H585.402V274.528H569.864ZM569.762 268.816V270.992H585.64V268.816H569.762ZM594.446 269.904V288.57H596.928V269.904H594.446ZM576.528 257.596V262.152H579.01V257.596H576.528ZM576.528 270.584V288.706H579.01V270.584H576.528ZM586.898 260.248V272.148C586.898 276.976 586.422 282.858 582.07 287.142C582.682 287.482 583.6 288.332 583.906 288.91C588.7 284.184 589.312 277.282 589.312 272.182V261.676C589.788 261.608 589.992 261.472 590.026 261.2L586.898 260.248ZM598.288 257.868C595.806 259.092 591.318 260.282 587.51 261.098C587.816 261.608 588.156 262.492 588.292 263.036C592.372 262.322 597.132 261.166 600.328 259.738L598.288 257.868ZM578.772 277.384L577.378 278.54C578.636 279.594 581.832 282.586 582.92 283.844L584.416 281.94C583.566 281.158 579.86 278.132 578.772 277.384ZM572.278 263.818C572.958 265.382 573.502 267.422 573.604 268.748L575.746 268.17C575.576 266.878 574.998 264.872 574.284 263.376L572.278 263.818ZM580.982 263.308C580.608 264.736 579.894 266.844 579.282 268.204L581.322 268.68C581.934 267.422 582.648 265.518 583.294 263.818L580.982 263.308ZM576.562 275.65C574.93 278.982 571.836 282.654 569.082 284.456C569.66 284.864 570.408 285.68 570.816 286.258C573.536 284.15 576.664 280.138 578.398 276.364L576.562 275.65ZM619.13 264.124V266.368H634.09V264.124H619.13ZM619.844 270.788V273.032H633.478V270.788H619.844ZM618.722 277.758V280.036H634.872V277.758H618.722ZM625.25 265.042V288.706H627.732V265.042H625.25ZM620.048 258.276C621.102 260.18 622.088 262.73 622.462 264.396L624.672 263.512C624.264 261.88 623.244 259.398 622.156 257.528L620.048 258.276ZM630.588 257.46C630.01 259.296 628.888 261.948 627.97 263.614L630.078 264.226C631.03 262.696 632.152 260.248 633.138 258.14L630.588 257.46ZM608.386 260.554V262.56H614.54V260.554H608.386ZM610.868 267.184V278.472H612.772V267.184H610.868ZM613.758 260.554V260.962C613.214 262.662 612.126 264.974 611.14 266.436C611.548 266.742 612.228 267.388 612.568 267.83C613.792 266.198 615.254 263.648 616.24 261.404L614.744 260.418L614.302 260.554H613.758ZM615.56 280.75C616.648 282.688 617.804 285.306 618.246 287.006L620.014 286.292C619.538 284.66 618.382 282.076 617.226 280.104L615.56 280.75ZM612.228 281.056C612.976 282.96 613.588 285.442 613.724 287.074L615.526 286.666C615.356 285.034 614.676 282.552 613.894 280.682L612.228 281.056ZM609.032 281.022C609.372 283.062 609.508 285.646 609.44 287.346L611.31 287.108C611.378 285.408 611.208 282.824 610.766 280.784L609.032 281.022ZM607.74 273.61H615.968V277.112H607.74V273.61ZM607.74 268.17H615.968V271.604H607.74V268.17ZM605.598 266.062V279.254H618.212V266.062H605.598ZM605.904 280.784C605.632 283.47 604.952 286.19 603.388 287.754L605.088 288.774C606.822 287.04 607.434 284.082 607.774 281.226L605.904 280.784ZM608.488 257.46C607.672 260.69 606.04 264.872 603.388 268.034C603.932 268.34 604.748 269.054 605.19 269.564C608.046 265.994 609.814 261.54 610.868 257.766L608.488 257.46ZM651.906 272.25V274.12H668.634V272.25H651.906ZM651.294 286.19V288.128H668.872V286.19H651.294ZM656.972 257.494V261.744H658.91V257.494H656.972ZM661.324 257.494V261.744H663.262V257.494H661.324ZM655.714 277.418H664.622V280.41H655.714V277.418ZM653.606 275.752V282.076H666.832V275.752H653.606ZM654.932 266.402H665.404V268.748H654.932V266.402ZM654.932 262.39H665.404V264.702H654.932V262.39ZM652.926 260.622V270.55H667.478V260.622H652.926ZM655.204 282.756C655.884 283.98 656.428 285.646 656.598 286.768L658.57 286.054C658.366 284.932 657.788 283.334 657.04 282.144L655.204 282.756ZM663.092 282.11C662.752 283.232 662.072 284.966 661.528 286.122L663.194 286.7C663.772 285.646 664.554 284.116 665.268 282.722L663.092 282.11ZM641.4 276.534V278.37H648.982V276.534H641.4ZM641.4 280.886V282.756H648.982V280.886H641.4ZM640.21 272.25V288.774H642.386V274.12H648.88V272.25H640.21ZM647.52 272.25V286.326C647.52 286.666 647.384 286.768 647.044 286.768C646.738 286.802 645.65 286.802 644.46 286.768C644.732 287.312 645.038 288.162 645.14 288.74C646.942 288.74 648.064 288.74 648.778 288.366C649.526 288.026 649.73 287.448 649.73 286.36V272.25H647.52ZM640.176 258.684V269.02H642.148V260.622H647.758V269.02H649.764V258.684H640.176ZM638.238 268.136V273.032H640.176V270.006H649.764V273.032H651.77V268.136H638.238ZM643.916 262.832V268.85H645.548V264.464H649.05V262.832H643.916ZM657.312 261.302V269.666H658.91V261.302H657.312ZM661.324 261.302V269.666H662.922V261.302H661.324ZM688.898 265.654V267.626H698.282V265.654H688.898ZM687.742 271.536H690.87V275.888H687.742V271.536ZM685.94 269.768V277.656H692.774V269.768H685.94ZM696.31 271.536H699.642V275.888H696.31V271.536ZM694.508 269.768V277.656H701.58V269.768H694.508ZM688.49 278.574C687.98 282.45 686.586 285.476 683.9 287.346C684.41 287.686 685.226 288.468 685.532 288.876C688.422 286.666 690.054 283.266 690.7 278.71L688.49 278.574ZM688.116 282.96C689.51 284.252 691.21 286.054 692.026 287.21L693.488 285.714C692.672 284.592 690.904 282.892 689.544 281.668L688.116 282.96ZM696.99 278.54C696.446 282.382 694.984 285.374 692.298 287.244C692.842 287.584 693.658 288.4 693.964 288.774C696.854 286.564 698.588 283.198 699.234 278.676L696.99 278.54ZM696.48 283.096C698.248 284.83 700.356 287.244 701.342 288.74L703.008 287.448C701.988 285.986 699.846 283.64 698.112 281.974L696.48 283.096ZM693.386 259.874C695.324 263.002 698.724 266.368 701.954 268.34C702.26 267.694 702.804 266.742 703.28 266.13C700.05 264.43 696.616 261.064 694.474 257.596H692.128C690.564 260.826 687.266 264.43 683.798 266.436C684.24 266.98 684.784 267.898 685.056 268.51C688.49 266.368 691.686 262.9 693.386 259.874ZM674.278 264.056V266.062H683.73V264.056H674.278ZM674.278 269.19V271.162H683.798V269.19H674.278ZM672.986 274.358V276.398H683.39V274.358H672.986ZM678.12 260.01V275.412H680.16V260.01H678.12ZM679.14 278.268C679.956 279.662 680.772 281.498 681.112 282.722L682.336 282.212C681.996 281.022 681.146 279.186 680.296 277.86L679.14 278.268ZM677.066 278.744C677.712 280.478 678.256 282.756 678.392 284.252L679.718 283.946C679.582 282.484 678.97 280.206 678.29 278.472L677.066 278.744ZM674.992 279.084C675.298 281.09 675.468 283.606 675.4 285.272L676.794 285.102C676.828 283.436 676.658 280.92 676.318 278.914L674.992 279.084ZM672.748 278.472C672.646 281.328 672.306 284.354 671.15 286.054L672.578 286.87C673.836 285 674.176 281.77 674.312 278.744L672.748 278.472ZM672.986 258.854V275.48H675.094V260.928H684.376V258.854H672.986ZM682.574 274.358V274.732C682.268 282.892 681.962 285.816 681.384 286.462C681.146 286.802 680.908 286.87 680.5 286.87C680.058 286.87 679.072 286.87 677.95 286.734C678.222 287.278 678.426 288.162 678.494 288.74C679.616 288.808 680.772 288.808 681.418 288.74C682.2 288.672 682.71 288.468 683.186 287.822C684.002 286.836 684.308 283.844 684.648 275.344C684.682 275.004 684.682 274.358 684.682 274.358H682.574ZM720.042 277.826H722.252L722.932 264.634L723.034 260.588H719.26L719.362 264.634L720.042 277.826ZM721.164 286.19C722.354 286.19 723.34 285.34 723.34 283.98C723.34 282.62 722.354 281.702 721.164 281.702C719.94 281.702 718.954 282.62 718.954 283.98C718.954 285.34 719.94 286.19 721.164 286.19Z" fill="white"/>
<g filter="url(#filter1_d_191_474)">
<ellipse cx="781.034" cy="106.206" rx="11.3947" ry="17.6506" transform="rotate(-50.5675 781.034 106.206)" fill="#5FDBE3"/>
<ellipse cx="797.323" cy="103.767" rx="11.3947" ry="17.6506" transform="rotate(21.8759 797.323 103.767)" fill="#5FDBE3"/>
<ellipse cx="779.728" cy="124.075" rx="11.3947" ry="17.6506" transform="rotate(-117.228 779.728 124.075)" fill="#5FDBE3"/>
<ellipse cx="796.753" cy="133.168" rx="11.3947" ry="17.6506" transform="rotate(-19.4665 796.753 133.168)" fill="#5FDBE3"/>
<ellipse cx="810.495" cy="116.332" rx="11.3947" ry="17.6506" transform="rotate(-86.3691 810.495 116.332)" fill="#5FDBE3"/>
</g>
<circle cx="792.433" cy="117.671" r="10.9478" transform="rotate(-50.5675 792.433 117.671)" fill="white"/>
<g filter="url(#filter2_d_191_474)">
<ellipse cx="70.4286" cy="281.831" rx="9.97741" ry="15.4552" transform="rotate(-29.3097 70.4286 281.831)" fill="#F4C748"/>
<ellipse cx="84.4946" cy="285.011" rx="9.97741" ry="15.4552" transform="rotate(43.1338 84.4946 285.011)" fill="#F4C748"/>
<ellipse cx="63.6891" cy="295.998" rx="9.97741" ry="15.4552" transform="rotate(-95.9703 63.6891 295.998)" fill="#F4C748"/>
<ellipse cx="74.6959" cy="308.823" rx="9.97741" ry="15.4552" transform="rotate(1.79138 74.6959 308.823)" fill="#F4C748"/>
<ellipse cx="91.2545" cy="299.447" rx="9.97741" ry="15.4552" transform="rotate(-65.1112 91.2545 299.447)" fill="#F4C748"/>
</g>
<circle cx="76.0908" cy="294.806" r="9.58614" transform="rotate(-29.3097 76.0908 294.806)" fill="white"/>
<g filter="url(#filter3_d_191_474)">
<ellipse cx="828.161" cy="118.324" rx="9.97741" ry="15.4552" transform="rotate(-50.5675 828.161 118.324)" fill="#F4C748"/>
<ellipse cx="842.424" cy="116.188" rx="9.97741" ry="15.4552" transform="rotate(21.8759 842.424 116.188)" fill="#F4C748"/>
<ellipse cx="827.017" cy="133.971" rx="9.97741" ry="15.4552" transform="rotate(-117.228 827.017 133.971)" fill="#F4C748"/>
<ellipse cx="841.925" cy="141.933" rx="9.97741" ry="15.4552" transform="rotate(-19.4665 841.925 141.933)" fill="#F4C748"/>
<ellipse cx="853.957" cy="127.191" rx="9.97741" ry="15.4552" transform="rotate(-86.3691 853.957 127.191)" fill="#F4C748"/>
</g>
<circle cx="838.143" cy="128.363" r="9.58614" transform="rotate(-50.5675 838.143 128.363)" fill="white"/>
<g filter="url(#filter4_d_191_474)">
<ellipse cx="114.082" cy="316.72" rx="11.3947" ry="17.6506" transform="rotate(-29.3097 114.082 316.72)" fill="#E8A160"/>
<ellipse cx="130.147" cy="320.352" rx="11.3947" ry="17.6506" transform="rotate(43.1338 130.147 320.352)" fill="#E8A160"/>
<ellipse cx="106.386" cy="332.899" rx="11.3947" ry="17.6506" transform="rotate(-95.9703 106.386 332.899)" fill="#E8A160"/>
<ellipse cx="118.956" cy="347.547" rx="11.3947" ry="17.6506" transform="rotate(1.79138 118.956 347.547)" fill="#E8A160"/>
<ellipse cx="137.866" cy="336.838" rx="11.3947" ry="17.6506" transform="rotate(-65.1112 137.866 336.838)" fill="#E8A160"/>
</g>
<circle cx="120.549" cy="331.538" r="10.9478" transform="rotate(-29.3097 120.549 331.538)" fill="white"/>
<path fill-rule="evenodd" clip-rule="evenodd" d="M1 224.21C1 146.165 121.973 118.046 293.674 109C270.174 111.857 247.68 115.125 226.377 118.89C93.4188 133.549 5.3571 164.838 1.15715 229.048C1.0526 227.45 1 225.838 1 224.21Z" fill="#AF213E"/>
<path d="M293.674 109L293.734 109.496L293.647 108.501L293.674 109ZM226.377 118.89L226.432 119.387L226.448 119.385L226.464 119.382L226.377 118.89ZM1.15715 229.048L0.658217 229.081L1.65608 229.081L1.15715 229.048ZM293.647 108.501C207.789 113.024 134.561 122.318 82.7853 140.258C31.0309 158.191 0.5 184.849 0.5 224.21H1.5C1.5 185.527 31.4555 159.102 83.1127 141.203C134.748 123.311 207.857 114.022 293.7 109.499L293.647 108.501ZM226.464 119.382C247.757 115.619 270.241 112.353 293.734 109.496L293.613 108.504C270.106 111.362 247.604 114.631 226.29 118.398L226.464 119.382ZM226.323 118.393C159.829 125.724 104.51 137.218 65.2771 154.932C26.0456 172.645 2.7759 196.64 0.658216 229.016L1.65608 229.081C3.73835 197.247 26.5995 173.492 65.6886 155.843C104.776 138.195 159.968 126.715 226.432 119.387L226.323 118.393ZM0.5 224.21C0.5 225.848 0.552944 227.472 0.658217 229.081L1.65608 229.016C1.55225 227.429 1.5 225.827 1.5 224.21H0.5Z" fill="#FFC6D1" fill-opacity="0.38"/>
<path d="M480 372.042C735.504 370.955 941.037 326.766 941.037 225.038C941.037 202.414 930.871 183.985 912.251 169C926.723 183.294 934.535 200.384 934.535 220.79C934.535 324.563 732.502 370.157 480 372.042Z" fill="#AF213E"/>
<g clip-path="url(#clip0_191_474)">
<path d="M319.339 57.1179C318.456 52.6386 315.238 49.2537 311.213 47.8654L305.499 18.8873C305.172 17.2287 302.98 13.0804 298.237 14.0155C296.887 14.2816 295.636 14.997 294.712 16.093L281.136 32.1668C274.316 40.2347 264.855 45.8044 254.494 47.8474L218.098 55.0236C211.397 56.3448 207.037 62.8465 208.358 69.5474L211.946 87.7452C213.268 94.4462 219.769 98.8062 226.47 97.485L232.858 96.2254C232.987 98.264 233.235 100.314 233.641 102.373C235.128 109.912 238.288 116.689 242.633 122.447C244.016 124.28 246.402 125.064 248.654 124.62L262.734 121.843C267.673 120.87 269.522 114.629 265.754 111.291C261.841 107.825 258.99 103.102 257.903 97.5891C257.488 95.4831 257.396 93.3981 257.543 91.3584L262.866 90.3089C273.227 88.2659 284.094 89.8274 293.465 94.7031L312.126 104.421C313.37 105.069 314.798 105.275 316.175 105.005C320.899 104.073 321.39 99.4905 321.045 97.7428L315.332 68.7647C318.53 65.9501 320.222 61.5972 319.339 57.1179ZM306.427 87.5135L299.174 83.7368C287.323 77.5661 273.576 75.5936 260.474 78.177L256.886 59.9792C269.988 57.3958 281.957 50.3529 290.579 40.1456L295.855 33.8984L306.427 87.5135Z" fill="#7C5302"/>
</g>
<g filter="url(#filter5_d_191_474)">
<g filter="url(#filter6_d_191_474)">
<ellipse rx="9.75269" ry="15.107" transform="matrix(0.653876 -0.756629 0.787545 0.616291 210.833 78.0964)" fill="#F4C748"/>
<ellipse rx="9.71938" ry="15.0914" transform="matrix(0.947676 0.360364 -0.384769 0.907692 225.095 76.062)" fill="#F4C748"/>
<ellipse rx="9.72026" ry="15.0928" transform="matrix(-0.46556 -0.864866 0.913172 -0.449096 209.688 92.9989)" fill="#F4C748"/>
<ellipse rx="9.77666" ry="15.0773" transform="matrix(0.967313 -0.327859 0.33829 0.917945 224.595 100.582)" fill="#F4C748"/>
<ellipse rx="9.80009" ry="15.0596" transform="matrix(0.0690737 -0.9742 1.02122 0.0576875 236.628 86.5413)" fill="#F4C748"/>
</g>
<ellipse rx="9.35981" ry="9.36147" transform="matrix(0.653886 -0.756622 0.787553 0.616281 220.813 87.658)" fill="white"/>
</g>
<defs>
<filter id="filter0_d_191_474" x="336.009" y="39.5705" width="250.851" height="42.0727" filterUnits="userSpaceOnUse" color-interpolation-filters="sRGB">
<feFlood flood-opacity="0" result="BackgroundImageFix"/>
<feColorMatrix in="SourceAlpha" type="matrix" values="0 0 0 0 0 0 0 0 0 0 0 0 0 0 0 0 0 0 127 0" result="hardAlpha"/>
<feOffset dy="1"/>
<feGaussianBlur stdDeviation="0.5"/>
<feComposite in2="hardAlpha" operator="out"/>
<feColorMatrix type="matrix" values="0 0 0 0 0 0 0 0 0 0 0 0 0 0 0 0 0 0 0.25 0"/>
<feBlend mode="normal" in2="BackgroundImageFix" result="effect1_dropShadow_191_474"/>
<feBlend mode="normal" in="SourceGraphic" in2="effect1_dropShadow_191_474" result="shape"/>
</filter>
<filter id="filter1_d_191_474" x="762.185" y="85.8417" width="68.9395" height="67.3998" filterUnits="userSpaceOnUse" color-interpolation-filters="sRGB">
<feFlood flood-opacity="0" result="BackgroundImageFix"/>
<feColorMatrix in="SourceAlpha" type="matrix" values="0 0 0 0 0 0 0 0 0 0 0 0 0 0 0 0 0 0 127 0" result="hardAlpha"/>
<feOffset dx="1" dy="1"/>
<feGaussianBlur stdDeviation="1"/>
<feComposite in2="hardAlpha" operator="out"/>
<feColorMatrix type="matrix" values="0 0 0 0 0 0 0 0 0 0 0 0 0 0 0 0 0 0 0.13 0"/>
<feBlend mode="normal" in2="BackgroundImageFix" result="effect1_dropShadow_191_474"/>
<feBlend mode="normal" in="SourceGraphic" in2="effect1_dropShadow_191_474" result="shape"/>
</filter>
<filter id="filter2_d_191_474" x="47.2822" y="266.492" width="61.6113" height="60.7818" filterUnits="userSpaceOnUse" color-interpolation-filters="sRGB">
<feFlood flood-opacity="0" result="BackgroundImageFix"/>
<feColorMatrix in="SourceAlpha" type="matrix" values="0 0 0 0 0 0 0 0 0 0 0 0 0 0 0 0 0 0 127 0" result="hardAlpha"/>
<feOffset dx="1" dy="1"/>
<feGaussianBlur stdDeviation="1"/>
<feComposite in2="hardAlpha" operator="out"/>
<feColorMatrix type="matrix" values="0 0 0 0 0 0 0 0 0 0 0 0 0 0 0 0 0 0 0.13 0"/>
<feBlend mode="normal" in2="BackgroundImageFix" result="effect1_dropShadow_191_474"/>
<feBlend mode="normal" in="SourceGraphic" in2="effect1_dropShadow_191_474" result="shape"/>
</filter>
<filter id="filter3_d_191_474" x="811.532" y="100.368" width="60.8618" height="59.5142" filterUnits="userSpaceOnUse" color-interpolation-filters="sRGB">
<feFlood flood-opacity="0" result="BackgroundImageFix"/>
<feColorMatrix in="SourceAlpha" type="matrix" values="0 0 0 0 0 0 0 0 0 0 0 0 0 0 0 0 0 0 127 0" result="hardAlpha"/>
<feOffset dx="1" dy="1"/>
<feGaussianBlur stdDeviation="1"/>
<feComposite in2="hardAlpha" operator="out"/>
<feColorMatrix type="matrix" values="0 0 0 0 0 0 0 0 0 0 0 0 0 0 0 0 0 0 0.13 0"/>
<feBlend mode="normal" in2="BackgroundImageFix" result="effect1_dropShadow_191_474"/>
<feBlend mode="normal" in="SourceGraphic" in2="effect1_dropShadow_191_474" result="shape"/>
</filter>
<filter id="filter4_d_191_474" x="87.7905" y="299.345" width="69.7944" height="68.8476" filterUnits="userSpaceOnUse" color-interpolation-filters="sRGB">
<feFlood flood-opacity="0" result="BackgroundImageFix"/>
<feColorMatrix in="SourceAlpha" type="matrix" values="0 0 0 0 0 0 0 0 0 0 0 0 0 0 0 0 0 0 127 0" result="hardAlpha"/>
<feOffset dx="1" dy="1"/>
<feGaussianBlur stdDeviation="1"/>
<feComposite in2="hardAlpha" operator="out"/>
<feColorMatrix type="matrix" values="0 0 0 0 0 0 0 0 0 0 0 0 0 0 0 0 0 0 0.13 0"/>
<feBlend mode="normal" in2="BackgroundImageFix" result="effect1_dropShadow_191_474"/>
<feBlend mode="normal" in="SourceGraphic" in2="effect1_dropShadow_191_474" result="shape"/>
</filter>
<filter id="filter5_d_191_474" x="194.177" y="61.9196" width="58.8447" height="54.8724" filterUnits="userSpaceOnUse" color-interpolation-filters="sRGB">
<feFlood flood-opacity="0" result="BackgroundImageFix"/>
<feColorMatrix in="SourceAlpha" type="matrix" values="0 0 0 0 0 0 0 0 0 0 0 0 0 0 0 0 0 0 127 0" result="hardAlpha"/>
<feOffset dy="1"/>
<feGaussianBlur stdDeviation="0.5"/>
<feComposite in2="hardAlpha" operator="out"/>
<feColorMatrix type="matrix" values="0 0 0 0 0 0 0 0 0 0 0 0 0 0 0 0 0 0 0.25 0"/>
<feBlend mode="normal" in2="BackgroundImageFix" result="effect1_dropShadow_191_474"/>
<feBlend mode="normal" in="SourceGraphic" in2="effect1_dropShadow_191_474" result="shape"/>
</filter>
<filter id="filter6_d_191_474" x="194.177" y="60.9196" width="60.8447" height="56.8724" filterUnits="userSpaceOnUse" color-interpolation-filters="sRGB">
<feFlood flood-opacity="0" result="BackgroundImageFix"/>
<feColorMatrix in="SourceAlpha" type="matrix" values="0 0 0 0 0 0 0 0 0 0 0 0 0 0 0 0 0 0 127 0" result="hardAlpha"/>
<feOffset dx="1" dy="1"/>
<feGaussianBlur stdDeviation="1"/>
<feComposite in2="hardAlpha" operator="out"/>
<feColorMatrix type="matrix" values="0 0 0 0 0 0 0 0 0 0 0 0 0 0 0 0 0 0 0.13 0"/>
<feBlend mode="normal" in2="BackgroundImageFix" result="effect1_dropShadow_191_474"/>
<feBlend mode="normal" in="SourceGraphic" in2="effect1_dropShadow_191_474" result="shape"/>
</filter>
<clipPath id="clip0_191_474">
<rect width="111.289" height="111.289" fill="white" transform="translate(198.599 21.5284) rotate(-11.154)"/>
</clipPath>
</defs>
</svg>
