<svg width="864" height="342" viewBox="0 0 864 342" fill="none" xmlns="http://www.w3.org/2000/svg">
<ellipse rx="16.4369" ry="17.9257" transform="matrix(0.976895 -0.21372 0.646248 0.763127 33.3574 22.1214)" fill="#F4C748"/>
<ellipse rx="17.2664" ry="22.4449" transform="matrix(0.973828 0.227284 -0.670367 0.742029 831.278 21.5792)" fill="#EC778F"/>
<ellipse rx="14.5789" ry="25.7566" transform="matrix(0.794402 -0.607392 0.947382 0.320104 828.017 323.045)" fill="#EC778F"/>
<ellipse rx="20.5632" ry="10.85" transform="matrix(0.938845 -0.344341 0.817551 0.575857 28.176 327.885)" fill="#EC778F"/>
<path d="M14.2436 9.31662C95.9775 -39.8874 85.223 372.053 14.2436 333.148C-56.7359 294.242 984.296 289.665 850.94 333.148C717.585 376.63 797.168 -63.9172 850.94 9.31662C904.713 82.5504 -67.4904 81.4061 14.2436 9.31662Z" stroke="black"/>
</svg>
