<?xml version="1.0" encoding="utf-8"?>
<!-- Generator: Adobe Illustrator 16.0.0, SVG Export Plug-In . SVG Version: 6.00 Build 0)  -->
<!DOCTYPE svg PUBLIC "-//W3C//DTD SVG 1.1//EN" "http://www.w3.org/Graphics/SVG/1.1/DTD/svg11.dtd">
<svg version="1.1" id="圖層_1" xmlns="http://www.w3.org/2000/svg" xmlns:xlink="http://www.w3.org/1999/xlink" x="0px" y="0px"
	 width="1920px" height="40.645px" viewBox="0 0 1920 40.645" enable-background="new 0 0 1920 40.645" xml:space="preserve">
<g>
	<path opacity="0.4" fill="#F2A6B8" d="M-38,1154v150.035c0,0,309.32,11.582,659.12-35.333
		c328.741-44.089,345.01,56.06,682.841,28.91C1686,1266.909,1505,1276,1883,1304.035V1154H-38z"/>
	<path opacity="0.3" fill="#EC778F" d="M-38,1154v150.035c0,0,310.667-1.677,629.22-31.504
		c282.252-26.428,374.597,71.707,800.78,13.956c125-16.938,324.001,18.813,491,17.548V1154H-38z"/>
</g>
<g>
	<path opacity="0.3" fill="#EC778F" d="M555.928,30.533c11.522-0.62,23.212-1.31,35.072-2.075
		c200.749-12.949,350.179-11.163,475.409-6.272c-2.798-0.226-5.588-0.451-8.409-0.682C901.986-14.188,634.46,21.652,555.928,30.533z
		"/>
	<path opacity="0.3" fill="#EC778F" d="M1742.967,0c-1.39,0.685-2.828,1.387-4.323,2.103c8.344-0.283,15.466-0.145,21.814,0.263
		c-2.437-0.797-4.85-1.589-7.237-2.366H1742.967z"/>
	<path opacity="0.3" fill="#EC778F" d="M464.595,34.133C284.248,33.101,0,0,0,0S161.694,41.605,464.595,34.133z"/>
	<path opacity="0.4" fill="#F2A6B8" d="M1066.409,22.186c513.761,41.566,623.654,3.185,672.234-20.083
		c-16.921,0.574-38.874,2.885-69.644,8.23C1440.357,50.051,1293.011,31.035,1066.409,22.186z"/>
	<path opacity="0.4" fill="#F2A6B8" d="M555.92,31c0.002,0,0.005,0,0.007,0c-31.74,1-62.188,2.88-91.333,3.6
		C500.029,34.802,531.452,33,555.92,31z"/>
	<path opacity="0.4" fill="#F2A6B8" d="M1760.458,2.366C1801.837,15.907,1850.659,31.215,1920,6V0
		C1810.881,19.793,1802.935,5.09,1760.458,2.366z"/>
	<path opacity="0.3" fill="#EC778F" d="M1920,0h-166.779c2.388,0.776,4.801,1.568,7.237,2.366C1802.935,5.09,1810.881,19.793,1920,0
		z"/>
	<path opacity="0.4" fill="#F2A6B8" d="M1920,0h-166.779c2.388,0.776,4.801,1.568,7.237,2.366C1802.935,5.09,1810.881,19.793,1920,0
		z"/>
	<path opacity="0.3" fill="#EC778F" d="M0,0c0,0,284.248,33.101,464.595,34.133c29.145-0.719,59.593-1.892,91.333-3.6
		c78.532-8.881,346.059-44.721,502.072-9.03c2.821,0.231,5.611,0.456,8.409,0.682c226.602,8.85,373.948,27.865,602.591-11.852
		c30.77-5.345,52.723-7.656,69.644-8.23c1.495-0.716,2.934-1.418,4.323-2.103H0z"/>
	<path opacity="0.4" fill="#F2A6B8" d="M0,0c0,0,284.248,33.101,464.595,34.133c29.145-0.719,59.593-1.892,91.333-3.6
		c78.532-8.881,346.059-44.721,502.072-9.03c2.821,0.231,5.611,0.456,8.409,0.682c226.602,8.85,373.948,27.865,602.591-11.852
		c30.77-5.345,52.723-7.656,69.644-8.23c1.495-0.716,2.934-1.418,4.323-2.103H0z"/>
</g>
</svg>
