<svg width="237" height="184" viewBox="0 0 237 184" fill="none" xmlns="http://www.w3.org/2000/svg">
<path d="M82.584 63.168C82.488 63.96 82.248 65.016 82.032 65.856L84.576 66.312C84.888 65.616 85.344 64.632 85.8 63.552L82.584 63.168ZM80.088 61.296H87.648V62.448H80.088V61.296ZM77.424 59.52V64.2H90.504V59.52H77.424ZM75.744 65.28V71.16H78.456V67.272H89.952V71.16H92.808V65.28H75.744ZM77.424 68.592V70.608H91.152V68.592H77.424ZM73.68 56.4V61.08H76.44V58.584H91.464V61.08H94.368V56.4H73.68ZM81.696 49.656C81.36 50.376 80.736 51.456 80.208 52.176L81.864 52.848C82.464 52.248 83.232 51.336 84 50.4L81.696 49.656ZM77.424 53.808C78.696 54.576 80.424 55.68 81.288 56.376L83.016 54.624C82.104 53.952 80.328 52.92 79.08 52.248L77.424 53.808ZM77.712 48.624C77.544 52.08 77.04 53.808 72.912 54.792C73.416 55.248 74.064 56.184 74.28 56.808C79.152 55.464 79.992 52.992 80.208 48.624H77.712ZM75 49.584C74.664 50.592 73.992 51.696 73.104 52.32L74.856 53.376C75.864 52.632 76.44 51.408 76.824 50.232L75 49.584ZM92.352 49.608C92.016 50.376 91.344 51.48 90.792 52.248L92.544 52.944C93.168 52.32 93.984 51.36 94.824 50.424L92.352 49.608ZM87.816 53.904C89.472 54.792 91.8 56.088 92.928 56.904L94.632 54.936C93.408 54.144 91.032 52.944 89.424 52.176L87.816 53.904ZM88.008 48.624C87.864 52.056 87.408 53.664 83.208 54.576C83.736 55.08 84.384 56.064 84.576 56.688C89.592 55.44 90.408 52.992 90.6 48.624H88.008ZM85.248 49.608C84.912 50.592 84.24 51.672 83.352 52.296L85.128 53.4C86.112 52.608 86.688 51.456 87.096 50.28L85.248 49.608ZM97.344 63.312V65.664H118.752V63.312H97.344ZM97.392 52.536V54.912H118.656V52.536H97.392ZM98.376 56.832V59.088H117.744V56.832H98.376ZM99.576 60.144V62.232H116.616V60.144H99.576ZM106.536 57.984V71.16H109.392V57.984H106.536ZM104.448 48.6V53.664H107.136V48.6H104.448ZM108.888 48.6V53.496H111.624V48.6H108.888ZM106.008 64.368C104.04 66.192 100.224 67.776 96.6 68.472C97.224 69.072 98.064 70.176 98.448 70.872C102.144 69.912 105.984 67.872 108.264 65.376L106.008 64.368ZM109.968 64.296L107.736 65.184C109.992 67.896 113.664 69.936 117.456 70.896C117.888 70.104 118.752 68.904 119.4 68.304C115.656 67.68 111.912 66.192 109.968 64.296ZM114.408 48.792C114.072 49.848 113.448 51.312 112.896 52.296L115.224 53.016C115.848 52.128 116.664 50.832 117.432 49.512L114.408 48.792ZM111.24 53.952C111 54.84 110.496 56.064 110.064 56.928L112.512 57.624C113.016 56.856 113.64 55.8 114.288 54.648L111.24 53.952ZM99.12 49.56C99.768 50.664 100.536 52.128 100.8 53.064L103.416 52.128C103.08 51.192 102.288 49.752 101.592 48.72L99.12 49.56ZM102.168 54.936C102.528 55.632 102.936 56.64 103.08 57.264L106.008 56.76C105.816 56.112 105.36 55.176 104.952 54.504L102.168 54.936ZM130.272 51.168V53.664H142.536V51.168H130.272ZM129.456 55.776V58.32H143.256V55.776H129.456ZM129.504 60.36V62.88H143.088V60.36H129.504ZM134.904 48.6V57.408H137.736V48.6H134.904ZM137.952 58.176V68.064C137.952 68.4 137.832 68.472 137.448 68.472C137.088 68.496 135.768 68.496 134.592 68.448C134.976 69.192 135.408 70.344 135.504 71.136C137.304 71.136 138.6 71.088 139.56 70.656C140.496 70.248 140.76 69.504 140.76 68.112V58.176H137.952ZM130.464 64.488C131.568 65.712 132.768 67.416 133.224 68.544L135.696 67.104C135.168 65.928 133.896 64.344 132.768 63.168L130.464 64.488ZM122.856 50.088V52.656H126.36V63.936H122.856V66.504H129.048V50.088H122.856ZM123 56.904V59.424H127.656V56.904H123ZM121.512 50.088V68.64H124.176V50.088H121.512ZM152.688 63.264V65.328H159.264V63.264H152.688ZM152.52 59.712V61.824H157.92V66.816H152.52V68.928H160.608V59.712H152.52ZM151.344 59.712V70.152H153.936V59.712H151.344ZM147.312 52.872V54.816H153.336V52.872H147.312ZM158.448 52.872V54.816H164.52V52.872H158.448ZM163.344 49.536V67.728C163.344 68.136 163.2 68.28 162.768 68.28C162.336 68.28 160.872 68.304 159.624 68.232C160.008 69 160.44 70.344 160.56 71.16C162.624 71.16 164.016 71.112 164.976 70.632C165.936 70.152 166.248 69.312 166.248 67.752V49.536H163.344ZM147.552 49.536V51.624H152.448V56.184H147.552V58.248H155.136V49.536H147.552ZM164.88 49.536H156.768V58.32H164.88V56.256H159.504V51.624H164.88V49.536ZM145.896 49.536V71.16H148.752V49.536H145.896Z" fill="#4A3100"/>
<path d="M70.258 97.21H65.99V98.75H68.696V104.998H70.258V97.21ZM70.258 104.338H68.85C67.838 105.306 66.672 106.296 65.726 107.022L66.584 108.584C67.64 107.594 68.63 106.648 69.576 105.702C70.962 107.44 72.964 108.232 75.89 108.342C78.398 108.43 83.194 108.386 85.702 108.276C85.768 107.814 86.032 107.066 86.23 106.714C83.524 106.89 78.354 106.956 75.868 106.846C73.25 106.736 71.292 105.988 70.258 104.338ZM66.1 89.862C67.376 90.962 68.806 92.546 69.378 93.646L70.764 92.722C70.148 91.6 68.674 90.082 67.376 89.048L66.1 89.862ZM73.624 89.378V90.764H83.942V89.378H73.624ZM75.274 92.766V93.976H82.16V92.766H75.274ZM75.076 95.758V96.968H82.358V95.758H75.076ZM77.892 91.204V96.44H79.3V91.204H77.892ZM72.744 89.378V95.098C72.744 97.914 72.568 101.786 70.852 104.558C71.204 104.712 71.864 105.13 72.15 105.416C73.976 102.468 74.262 98.156 74.262 95.098V89.378H72.744ZM83.216 89.378V103.832C83.216 104.14 83.106 104.228 82.798 104.25C82.512 104.25 81.5 104.25 80.4 104.228C80.598 104.624 80.818 105.24 80.862 105.658C82.446 105.658 83.392 105.636 83.964 105.394C84.536 105.13 84.734 104.712 84.734 103.854V89.378H83.216ZM76.308 98.2V99.388H80.268V101.852H76.308V103.04H81.588V98.2H76.308ZM75.67 98.2V104.162H76.99V98.2H75.67ZM90.102 91.688V93.448H105.898V91.688H90.102ZM88.232 104.734V106.582H107.768V104.734H88.232ZM110.1 89.972V91.468H121.386V89.972H110.1ZM110.76 100.444V101.94H120.748V100.444H110.76ZM114.962 97.826V106.692L116.59 106.45V97.826H114.962ZM109.858 106.45L110.122 108.1C113.048 107.704 117.382 107.088 121.474 106.516L121.43 104.976C117.184 105.548 112.718 106.142 109.858 106.45ZM110.056 95.956L110.188 97.518C112.806 97.364 116.568 97.166 120.176 96.946L120.22 95.494C116.436 95.692 112.564 95.868 110.056 95.956ZM117.074 93.272C118.394 94.834 119.868 96.968 120.506 98.31L121.826 97.518C121.188 96.198 119.648 94.13 118.306 92.59L117.074 93.272ZM113.906 90.764C113.422 92.502 112.476 95.076 111.706 96.638L113.158 96.99C113.972 95.472 114.918 93.052 115.688 91.116L113.906 90.764ZM122.354 91.182V103.37H123.938V91.182H122.354ZM127.546 89.158V106.56C127.546 106.956 127.436 107.066 127.04 107.088C126.6 107.088 125.236 107.11 123.762 107.044C124.004 107.55 124.246 108.32 124.334 108.782C126.116 108.782 127.458 108.738 128.184 108.452C128.91 108.188 129.174 107.682 129.174 106.538V89.158H127.546ZM136.258 97.21H131.99V98.75H134.696V104.998H136.258V97.21ZM136.258 104.338H134.85C133.838 105.306 132.672 106.296 131.726 107.022L132.584 108.584C133.64 107.594 134.63 106.648 135.576 105.702C136.962 107.44 138.964 108.232 141.89 108.342C144.398 108.43 149.194 108.386 151.702 108.276C151.768 107.814 152.032 107.066 152.23 106.714C149.524 106.89 144.354 106.956 141.868 106.846C139.25 106.736 137.292 105.988 136.258 104.338ZM132.1 89.862C133.376 90.962 134.806 92.546 135.378 93.646L136.764 92.722C136.148 91.6 134.674 90.082 133.376 89.048L132.1 89.862ZM139.624 89.378V90.764H149.942V89.378H139.624ZM141.274 92.766V93.976H148.16V92.766H141.274ZM141.076 95.758V96.968H148.358V95.758H141.076ZM143.892 91.204V96.44H145.3V91.204H143.892ZM138.744 89.378V95.098C138.744 97.914 138.568 101.786 136.852 104.558C137.204 104.712 137.864 105.13 138.15 105.416C139.976 102.468 140.262 98.156 140.262 95.098V89.378H138.744ZM149.216 89.378V103.832C149.216 104.14 149.106 104.228 148.798 104.25C148.512 104.25 147.5 104.25 146.4 104.228C146.598 104.624 146.818 105.24 146.862 105.658C148.446 105.658 149.392 105.636 149.964 105.394C150.536 105.13 150.734 104.712 150.734 103.854V89.378H149.216ZM142.308 98.2V99.388H146.268V101.852H142.308V103.04H147.588V98.2H142.308ZM141.67 98.2V104.162H142.99V98.2H141.67ZM156.872 90.016V108.518H158.566V91.688H169.544V108.43H171.282V90.016H156.872ZM157.994 97.65V99.278H170.27V97.65H157.994ZM157.972 105.438V107.088H170.314V105.438H157.972Z" fill="#4A3100"/>
<path d="M62.457 128V144H60.5195V130.031H60.4258L56.5195 132.625V130.656L60.5195 128H62.457ZM72.6836 128V144H70.7461V130.031H70.6523L66.7461 132.625V130.656L70.7461 128H72.6836ZM78.6602 141.953C78.2747 141.953 77.944 141.815 77.668 141.539C77.3919 141.263 77.2539 140.932 77.2539 140.547C77.2539 140.161 77.3919 139.831 77.668 139.555C77.944 139.279 78.2747 139.141 78.6602 139.141C79.0456 139.141 79.3763 139.279 79.6523 139.555C79.9284 139.831 80.0664 140.161 80.0664 140.547C80.0664 140.802 80.0013 141.036 79.8711 141.25C79.7461 141.464 79.5768 141.635 79.3633 141.766C79.1549 141.891 78.9206 141.953 78.6602 141.953ZM78.6602 133.859C78.2747 133.859 77.944 133.721 77.668 133.445C77.3919 133.169 77.2539 132.839 77.2539 132.453C77.2539 132.068 77.3919 131.737 77.668 131.461C77.944 131.185 78.2747 131.047 78.6602 131.047C79.0456 131.047 79.3763 131.185 79.6523 131.461C79.9284 131.737 80.0664 132.068 80.0664 132.453C80.0664 132.708 80.0013 132.943 79.8711 133.156C79.7461 133.37 79.5768 133.542 79.3633 133.672C79.1549 133.797 78.9206 133.859 78.6602 133.859ZM88.5625 144.219C87.3854 144.219 86.3828 143.898 85.5547 143.258C84.7266 142.612 84.0938 141.677 83.6563 140.453C83.2188 139.224 83 137.74 83 136C83 134.271 83.2188 132.794 83.6563 131.57C84.099 130.341 84.7344 129.404 85.5625 128.758C86.3958 128.107 87.3958 127.781 88.5625 127.781C89.7292 127.781 90.7266 128.107 91.5547 128.758C92.388 129.404 93.0234 130.341 93.4609 131.57C93.9036 132.794 94.125 134.271 94.125 136C94.125 137.74 93.9063 139.224 93.4688 140.453C93.0312 141.677 92.3984 142.612 91.5703 143.258C90.7422 143.898 89.7396 144.219 88.5625 144.219ZM88.5625 142.5C89.7292 142.5 90.6354 141.937 91.2813 140.812C91.9271 139.687 92.25 138.083 92.25 136C92.25 134.615 92.1016 133.435 91.8047 132.461C91.513 131.487 91.0911 130.745 90.5391 130.234C89.9922 129.724 89.3333 129.469 88.5625 129.469C87.4063 129.469 86.5026 130.039 85.8516 131.18C85.2005 132.315 84.875 133.922 84.875 136C84.875 137.385 85.0208 138.562 85.3125 139.531C85.6042 140.5 86.0234 141.237 86.5703 141.742C87.1224 142.247 87.7865 142.5 88.5625 142.5ZM102.312 144.219C101.135 144.219 100.133 143.898 99.3047 143.258C98.4766 142.612 97.8438 141.677 97.4063 140.453C96.9688 139.224 96.75 137.74 96.75 136C96.75 134.271 96.9688 132.794 97.4063 131.57C97.849 130.341 98.4844 129.404 99.3125 128.758C100.146 128.107 101.146 127.781 102.312 127.781C103.479 127.781 104.477 128.107 105.305 128.758C106.138 129.404 106.773 130.341 107.211 131.57C107.654 132.794 107.875 134.271 107.875 136C107.875 137.74 107.656 139.224 107.219 140.453C106.781 141.677 106.148 142.612 105.32 143.258C104.492 143.898 103.49 144.219 102.312 144.219ZM102.312 142.5C103.479 142.5 104.385 141.937 105.031 140.812C105.677 139.687 106 138.083 106 136C106 134.615 105.852 133.435 105.555 132.461C105.263 131.487 104.841 130.745 104.289 130.234C103.742 129.724 103.083 129.469 102.312 129.469C101.156 129.469 100.253 130.039 99.6016 131.18C98.9505 132.315 98.625 133.922 98.625 136C98.625 137.385 98.7708 138.562 99.0625 139.531C99.3542 140.5 99.7734 141.237 100.32 141.742C100.872 142.247 101.536 142.5 102.312 142.5ZM111 137.594C110.984 136.729 111.125 136.034 111.422 135.508C111.719 134.982 112.104 134.599 112.578 134.359C113.057 134.12 113.563 134 114.094 134C114.625 134 115.109 134.117 115.547 134.352C115.99 134.581 116.495 134.943 117.063 135.437C117.448 135.771 117.755 136.005 117.984 136.141C118.219 136.276 118.474 136.344 118.75 136.344C119.198 136.344 119.552 136.182 119.813 135.859C120.073 135.531 120.198 135.057 120.188 134.437H121.875C121.891 135.302 121.75 135.997 121.453 136.523C121.161 137.049 120.776 137.432 120.297 137.672C119.818 137.911 119.313 138.031 118.781 138.031C118.25 138.031 117.766 137.917 117.328 137.688C116.891 137.453 116.385 137.089 115.813 136.594C115.432 136.26 115.125 136.026 114.891 135.891C114.656 135.755 114.401 135.688 114.125 135.688C113.703 135.688 113.354 135.836 113.078 136.133C112.807 136.424 112.677 136.911 112.687 137.594H111ZM124.594 144V142.594L129.875 136.812C130.495 136.135 131.005 135.547 131.406 135.047C131.807 134.542 132.104 134.068 132.297 133.625C132.495 133.177 132.594 132.708 132.594 132.219C132.594 131.656 132.458 131.169 132.188 130.758C131.922 130.346 131.557 130.029 131.094 129.805C130.63 129.581 130.109 129.469 129.531 129.469C128.917 129.469 128.38 129.596 127.922 129.852C127.469 130.102 127.117 130.453 126.867 130.906C126.622 131.359 126.5 131.891 126.5 132.5H124.656C124.656 131.562 124.872 130.74 125.305 130.031C125.737 129.323 126.326 128.771 127.07 128.375C127.82 127.979 128.661 127.781 129.594 127.781C130.531 127.781 131.362 127.979 132.086 128.375C132.81 128.771 133.378 129.305 133.789 129.977C134.201 130.648 134.406 131.396 134.406 132.219C134.406 132.807 134.299 133.383 134.086 133.945C133.878 134.503 133.513 135.125 132.992 135.812C132.477 136.495 131.76 137.328 130.844 138.312L127.25 142.156V142.281H134.688V144H124.594ZM143.133 144.219C141.956 144.219 140.953 143.898 140.125 143.258C139.297 142.612 138.664 141.677 138.227 140.453C137.789 139.224 137.57 137.74 137.57 136C137.57 134.271 137.789 132.794 138.227 131.57C138.669 130.341 139.305 129.404 140.133 128.758C140.966 128.107 141.966 127.781 143.133 127.781C144.299 127.781 145.297 128.107 146.125 128.758C146.958 129.404 147.594 130.341 148.031 131.57C148.474 132.794 148.695 134.271 148.695 136C148.695 137.74 148.477 139.224 148.039 140.453C147.602 141.677 146.969 142.612 146.141 143.258C145.313 143.898 144.31 144.219 143.133 144.219ZM143.133 142.5C144.299 142.5 145.206 141.937 145.852 140.812C146.497 139.687 146.82 138.083 146.82 136C146.82 134.615 146.672 133.435 146.375 132.461C146.083 131.487 145.661 130.745 145.109 130.234C144.563 129.724 143.904 129.469 143.133 129.469C141.977 129.469 141.073 130.039 140.422 131.18C139.771 132.315 139.445 133.922 139.445 136C139.445 137.385 139.591 138.562 139.883 139.531C140.174 140.5 140.594 141.237 141.141 141.742C141.693 142.247 142.357 142.5 143.133 142.5ZM153.039 141.953C152.654 141.953 152.323 141.815 152.047 141.539C151.771 141.263 151.633 140.932 151.633 140.547C151.633 140.161 151.771 139.831 152.047 139.555C152.323 139.279 152.654 139.141 153.039 139.141C153.424 139.141 153.755 139.279 154.031 139.555C154.307 139.831 154.445 140.161 154.445 140.547C154.445 140.802 154.38 141.036 154.25 141.25C154.125 141.464 153.956 141.635 153.742 141.766C153.534 141.891 153.299 141.953 153.039 141.953ZM153.039 133.859C152.654 133.859 152.323 133.721 152.047 133.445C151.771 133.169 151.633 132.839 151.633 132.453C151.633 132.068 151.771 131.737 152.047 131.461C152.323 131.185 152.654 131.047 153.039 131.047C153.424 131.047 153.755 131.185 154.031 131.461C154.307 131.737 154.445 132.068 154.445 132.453C154.445 132.708 154.38 132.943 154.25 133.156C154.125 133.37 153.956 133.542 153.742 133.672C153.534 133.797 153.299 133.859 153.039 133.859ZM163.129 144.219C162.098 144.219 161.178 144.042 160.371 143.687C159.569 143.333 158.931 142.841 158.457 142.211C157.988 141.576 157.733 140.839 157.691 140H159.66C159.702 140.516 159.879 140.961 160.191 141.336C160.504 141.706 160.913 141.992 161.418 142.195C161.923 142.398 162.483 142.5 163.098 142.5C163.785 142.5 164.395 142.38 164.926 142.141C165.457 141.901 165.874 141.568 166.176 141.141C166.478 140.714 166.629 140.219 166.629 139.656C166.629 139.068 166.483 138.549 166.191 138.102C165.9 137.648 165.473 137.294 164.91 137.039C164.348 136.784 163.66 136.656 162.848 136.656H161.566V134.937H162.848C163.483 134.937 164.04 134.823 164.52 134.594C165.004 134.365 165.382 134.042 165.652 133.625C165.928 133.208 166.066 132.719 166.066 132.156C166.066 131.615 165.947 131.143 165.707 130.742C165.467 130.341 165.129 130.029 164.691 129.805C164.259 129.581 163.749 129.469 163.16 129.469C162.608 129.469 162.087 129.57 161.598 129.773C161.113 129.971 160.717 130.26 160.41 130.641C160.103 131.016 159.936 131.469 159.91 132H158.035C158.066 131.161 158.319 130.427 158.793 129.797C159.267 129.161 159.887 128.667 160.652 128.312C161.423 127.958 162.27 127.781 163.191 127.781C164.181 127.781 165.03 127.982 165.738 128.383C166.447 128.779 166.991 129.302 167.371 129.953C167.751 130.604 167.941 131.307 167.941 132.063C167.941 132.964 167.704 133.732 167.23 134.367C166.762 135.003 166.124 135.443 165.316 135.688V135.812C166.327 135.979 167.116 136.409 167.684 137.102C168.251 137.789 168.535 138.641 168.535 139.656C168.535 140.526 168.298 141.307 167.824 142C167.355 142.687 166.715 143.229 165.902 143.625C165.09 144.021 164.165 144.219 163.129 144.219ZM176.949 144.219C175.772 144.219 174.77 143.898 173.941 143.258C173.113 142.612 172.48 141.677 172.043 140.453C171.605 139.224 171.387 137.74 171.387 136C171.387 134.271 171.605 132.794 172.043 131.57C172.486 130.341 173.121 129.404 173.949 128.758C174.783 128.107 175.783 127.781 176.949 127.781C178.116 127.781 179.113 128.107 179.941 128.758C180.775 129.404 181.41 130.341 181.848 131.57C182.29 132.794 182.512 134.271 182.512 136C182.512 137.74 182.293 139.224 181.855 140.453C181.418 141.677 180.785 142.612 179.957 143.258C179.129 143.898 178.126 144.219 176.949 144.219ZM176.949 142.5C178.116 142.5 179.022 141.937 179.668 140.812C180.314 139.687 180.637 138.083 180.637 136C180.637 134.615 180.488 133.435 180.191 132.461C179.9 131.487 179.478 130.745 178.926 130.234C178.379 129.724 177.72 129.469 176.949 129.469C175.793 129.469 174.889 130.039 174.238 131.18C173.587 132.315 173.262 133.922 173.262 136C173.262 137.385 173.408 138.562 173.699 139.531C173.991 140.5 174.41 141.237 174.957 141.742C175.509 142.247 176.173 142.5 176.949 142.5Z" fill="#4A3100"/>
<ellipse cx="9.55179" cy="12.3013" rx="4.77289" ry="8" transform="rotate(-23.2884 9.55179 12.3013)" fill="#F4C748"/>
<ellipse cx="227.406" cy="12.01" rx="5.05168" ry="9.8445" transform="rotate(24.664 227.406 12.01)" fill="#EC778F"/>
<ellipse cx="226.516" cy="173.947" rx="5.71181" ry="8" transform="rotate(-56.3854 226.516 173.947)" fill="#EC778F"/>
<ellipse cx="8.13716" cy="176.547" rx="6.5" ry="4.1388" transform="rotate(-35.8143 8.13716 176.547)" fill="#EC778F"/>
<path d="M4.33312 5.42298C26.6487 -21.0077 23.7124 200.273 4.33312 179.374C-15.0462 158.475 269.184 156.017 232.774 179.374C196.365 202.731 218.093 -33.9157 232.774 5.42298C247.456 44.7617 -17.9825 44.147 4.33312 5.42298Z" stroke="black"/>
</svg>
