<svg width="311" height="204" viewBox="0 0 311 204" fill="none" xmlns="http://www.w3.org/2000/svg">
<path d="M227.226 34.6103C210.009 31.9354 173.636 27.5418 153.474 27.4832C78.0877 27.264 16.9414 38.6129 16.726 112.678C16.5107 186.743 78.0878 202.781 153.474 203C228.861 203.219 289.51 187.537 289.725 113.472C289.86 67.0544 276.674 47.976 240.226 38.022C230.756 20.7889 225.074 21.0202 214.725 19.0176C223.214 22.7566 227.238 30.4318 227.226 34.6103Z" fill="#EC778F" stroke="#FFC6D1" stroke-opacity="0.38"/>
<path d="M94.748 48.616C95.692 49.448 96.78 50.6 97.26 51.368L98.252 50.664C97.724 49.928 96.604 48.792 95.66 47.992L94.748 48.616ZM84.38 52.296V53.448H98.636V52.296H84.38ZM84.14 57L84.492 58.2C86.508 57.752 89.34 57.096 91.964 56.488L91.868 55.4C89.052 56.008 86.044 56.648 84.14 57ZM87.82 49.192V60.728C87.82 61.016 87.724 61.096 87.436 61.096C87.148 61.112 86.204 61.128 85.18 61.08C85.356 61.432 85.564 61.976 85.628 62.296C86.956 62.312 87.804 62.264 88.316 62.072C88.828 61.88 89.02 61.528 89.02 60.744V49.192H87.82ZM90.86 47.752C89.324 48.328 86.732 48.872 84.476 49.224C84.636 49.496 84.78 49.944 84.844 50.216C87.132 49.896 89.852 49.4 91.708 48.76L90.86 47.752ZM92.46 47.704C92.524 55.32 93.948 62.344 97.084 62.344C98.284 62.344 98.716 61.56 98.94 58.904C98.604 58.776 98.172 58.504 97.916 58.232C97.82 60.296 97.628 61.128 97.196 61.128C95.244 61.128 93.676 55.048 93.708 47.704H92.46ZM96.796 54.184C95.372 56.888 92.732 59.352 89.884 60.728C90.188 61 90.524 61.384 90.716 61.688C93.66 60.136 96.3 57.56 97.868 54.632L96.796 54.184ZM105.244 50.904V51.816H108.476V50.904H105.244ZM110.316 50.904V51.816H113.58V50.904H110.316ZM113.196 48.488V60.712C113.196 61.016 113.084 61.112 112.78 61.128C112.46 61.144 111.34 61.144 110.204 61.112C110.364 61.432 110.556 61.96 110.62 62.28C112.14 62.28 113.084 62.264 113.612 62.056C114.156 61.864 114.348 61.496 114.348 60.712V48.488H113.196ZM104.572 48.488V62.248H105.692V48.488H104.572ZM105.308 48.488V49.448H107.932V53.368H105.308V54.328H108.876V48.488H105.308ZM113.772 48.488H109.836V54.328H113.772V53.368H110.828V49.448H113.772V48.488ZM103.212 47.656C102.444 50.12 101.18 52.584 99.772 54.184C99.98 54.488 100.3 55.128 100.412 55.416C101.996 53.544 103.42 50.728 104.332 47.96L103.212 47.656ZM101.932 51.576V62.28H103.068V50.504L103.036 50.472L101.932 51.576ZM123.804 48.216V49.32H129.436V48.216H123.804ZM116.876 55.288V56.248H123.388V55.288H116.876ZM119.916 48.664V50.968H120.988V48.664H119.916ZM119.916 53.416V55.752H120.988V53.416H119.916ZM129.18 48.216V48.424C128.412 51.816 126.14 54.264 123.564 55.256C123.804 55.48 124.124 55.944 124.252 56.232C127.052 54.984 129.42 52.44 130.332 48.44L129.596 48.168L129.388 48.216H129.18ZM125.356 49.4L124.332 49.704C125.372 52.936 127.34 55.432 130.14 56.648C130.316 56.344 130.636 55.928 130.892 55.704C128.22 54.664 126.284 52.328 125.356 49.4ZM117.356 50.488V51.4H122.108V52.968H117.356V53.88H123.18V50.488H117.356ZM116.876 48.168V55.896H117.996V49.128H123.244V48.168H116.876ZM116.236 60.76V61.816H130.764V60.76H116.236ZM117.916 57.784V58.808H129.084V57.784H117.916ZM122.844 56.616V61.432H124.076V56.616H122.844ZM138.108 49.64V50.744H146.092V49.64H138.108ZM137.468 55.656V56.776H146.748V55.656H137.468ZM137.276 52.776V53.88H146.86V52.776H137.276ZM141.516 47.64V53.352H142.652V47.64H141.516ZM143.628 53.64V60.824C143.628 61.048 143.564 61.112 143.308 61.128C143.068 61.144 142.236 61.144 141.34 61.112C141.484 61.448 141.644 61.928 141.692 62.264C142.892 62.264 143.676 62.264 144.14 62.072C144.62 61.896 144.78 61.56 144.78 60.84V53.64H143.628ZM138.652 57.752C139.356 58.616 140.124 59.816 140.412 60.6L141.42 59.976C141.084 59.208 140.284 58.056 139.58 57.208L138.652 57.752ZM131.932 56.072L132.252 57.24C133.612 56.792 135.404 56.216 137.084 55.656L136.924 54.552C135.084 55.144 133.196 55.72 131.932 56.072ZM132.156 50.792V51.912H137.036V50.792H132.156ZM134.22 47.576V60.84C134.22 61.064 134.14 61.128 133.948 61.128C133.756 61.144 133.148 61.144 132.444 61.112C132.604 61.448 132.748 61.944 132.796 62.232C133.804 62.248 134.428 62.2 134.796 62.024C135.196 61.832 135.356 61.496 135.356 60.84V47.576H134.22ZM152.62 49.336V50.456H162.892V49.336H152.62ZM154.204 53.032H161.196V55.432H154.204V53.032ZM153.1 52.008V56.456H162.364V52.008H153.1ZM154.092 56.776L153.1 57.112C154.796 60.04 158.076 61.704 162.316 62.312C162.476 61.976 162.78 61.496 163.036 61.24C158.876 60.776 155.596 59.288 154.092 56.776ZM157.068 47.624V54.696C157.068 57.4 156.796 60.136 152.044 61.336C152.284 61.592 152.62 62.072 152.764 62.344C157.724 60.872 158.252 57.8 158.252 54.712V47.624H157.068ZM151.932 47.528C151.004 49.96 149.436 52.344 147.82 53.864C148.044 54.152 148.38 54.776 148.492 55.048C150.268 53.272 151.98 50.584 153.068 47.88L151.932 47.528ZM150.252 51.72V62.36H151.404V50.6L151.388 50.584L150.252 51.72ZM166.62 48.696V49.848H176.972V48.696H166.62ZM166.62 52.424V53.56H176.956V52.424H166.62ZM166.54 56.248V57.384H176.988V56.248H166.54ZM165.948 48.696V54.488C165.948 56.744 165.772 59.592 164.012 61.576C164.268 61.736 164.748 62.136 164.94 62.376C166.844 60.248 167.132 56.936 167.132 54.504V48.696H165.948ZM176.492 48.696V60.648C176.492 60.952 176.38 61.048 176.076 61.064C175.772 61.064 174.684 61.08 173.548 61.032C173.724 61.352 173.916 61.88 173.964 62.2C175.484 62.216 176.412 62.2 176.956 62.008C177.484 61.8 177.676 61.432 177.676 60.648V48.696H176.492ZM170.972 49.128V62.136H172.188V49.128H170.972ZM183.5 50.856H191.532V51.992H183.5V50.856ZM183.5 48.936H191.532V50.04H183.5V48.936ZM182.332 48.072V52.84H192.716V48.072H182.332ZM180.428 53.736V54.728H194.524V53.736H180.428ZM187.532 55.736V56.712H193.228V55.736H187.532ZM182.508 55.832V56.728H186.46V55.832H182.508ZM182.508 57.848V58.744H186.46V57.848H182.508ZM189.212 56.632L188.236 56.92C189.292 59.544 191.356 61.448 194.172 62.28C194.332 61.992 194.652 61.56 194.908 61.336C192.188 60.664 190.14 58.92 189.212 56.632ZM192.86 55.736V55.928C191.98 58.616 189.516 60.488 186.956 61.256C187.18 61.48 187.484 61.912 187.612 62.2C190.396 61.24 192.972 59.24 194.028 55.992L193.292 55.688L193.084 55.736H192.86ZM180.284 60.296L180.396 61.368C182.044 61.176 184.268 60.904 186.428 60.648V59.656C184.172 59.912 181.852 60.168 180.284 60.296ZM185.82 54.056V62.28H186.972V54.056H185.82ZM181.804 54.072V60.584H182.924V54.072H181.804ZM202.652 48.392V49.512H209.676V48.392H202.652ZM202.108 54.008V55.16H210.908V54.008H202.108ZM205.884 51.88V60.76C205.884 61 205.804 61.08 205.532 61.096C205.244 61.112 204.348 61.112 203.34 61.08C203.5 61.4 203.708 61.928 203.772 62.248C205.052 62.264 205.884 62.232 206.412 62.04C206.908 61.848 207.084 61.496 207.084 60.776V51.88H205.884ZM209.244 48.392V48.664C208.604 49.704 207.276 51.208 206.124 52.072C206.332 52.232 206.668 52.552 206.844 52.776C208.124 51.816 209.612 50.264 210.572 48.904L209.788 48.328L209.532 48.392H209.244ZM196.188 50.872V51.992H201.452V50.872H196.188ZM198.604 47.576C198.06 50.616 197.1 54.904 196.396 57.352L197.404 57.88C198.124 55.224 199.132 50.904 199.74 47.704L198.604 47.576ZM196.988 56.84C198.78 57.88 200.844 59.512 201.804 60.712L202.524 59.736C201.564 58.552 199.452 57.016 197.66 56.008L196.988 56.84ZM201.052 50.872V51.112C200.652 56.552 198.988 59.944 196.316 61.352C196.572 61.592 196.908 62.024 197.068 62.312C200.012 60.552 201.756 57.16 202.188 50.968L201.468 50.824L201.244 50.872H201.052ZM213.596 50.136V51.208H217.34V59.512H213.596V60.6H218.46V50.136H213.596ZM212.876 50.136V61.88H213.996V50.136H212.876ZM213.516 54.584V55.656H217.932V54.584H213.516ZM215.324 47.528C215.196 48.36 214.892 49.576 214.62 50.344L215.58 50.584C215.9 49.864 216.3 48.76 216.62 47.768L215.324 47.528ZM220.732 50.088V51.208H225.644V50.088H220.732ZM225.228 50.088V50.344C225.004 57.4 224.748 60.056 224.22 60.632C224.044 60.84 223.852 60.888 223.532 60.888C223.164 60.888 222.204 60.872 221.164 60.792C221.388 61.112 221.532 61.608 221.564 61.96C222.46 62.008 223.404 62.04 223.948 61.976C224.508 61.928 224.876 61.784 225.228 61.32C225.868 60.536 226.092 58.056 226.348 50.712C226.348 50.536 226.348 50.088 226.348 50.088H225.228ZM221.068 47.496C220.556 49.72 219.676 51.928 218.588 53.336C218.876 53.496 219.372 53.832 219.58 54.024C220.684 52.504 221.628 50.152 222.22 47.768L221.068 47.496ZM220.332 54.248C221.212 55.416 222.284 57 222.764 57.976L223.788 57.336C223.276 56.392 222.172 54.84 221.26 53.704L220.332 54.248ZM57.484 76.68V77.608H66.684V76.68H57.484ZM57.788 81.832V82.648H66.476V81.832H57.788ZM58.06 83.48V84.28H66.188V83.48H58.06ZM57.292 85.176V86.072H66.78V85.176H57.292ZM61.404 75.56V77.144H62.62V75.56H61.404ZM59.74 80.952V85.576H60.828V80.952H59.74ZM63.244 80.952V85.576H64.332V80.952H63.244ZM61.292 85.4C60.412 86.296 58.636 86.984 57.036 87.416C57.228 87.592 57.532 88.008 57.644 88.216C59.292 87.672 61.196 86.808 62.204 85.688L61.292 85.4ZM62.876 85.56L61.964 85.768C62.684 87.96 64.172 89.592 66.332 90.312C66.476 90.04 66.78 89.656 67.02 89.448C64.972 88.888 63.516 87.416 62.876 85.56ZM65.884 86.328C65.292 86.744 64.252 87.352 63.532 87.688L64.108 88.28C64.844 87.96 65.82 87.48 66.54 86.952L65.884 86.328ZM59.02 79H60.716V80.232H59.02V79ZM58.108 78.248V80.968H61.676V78.248H58.108ZM63.452 79H65.196V80.232H63.452V79ZM62.524 78.248V80.968H66.156V78.248H62.524ZM52.764 80.408V81.368H56.876V80.408H52.764ZM52.86 76.136V77.096H56.828V76.136H52.86ZM52.764 82.552V83.512H56.876V82.552H52.764ZM52.108 78.232V79.224H57.276V78.232H52.108ZM53.324 84.712V85.704H55.852V88.376H53.324V89.368H56.86V84.712H53.324ZM52.732 84.712V90.12H53.724V84.712H52.732ZM57.98 89.192L58.284 90.168C59.692 89.912 61.5 89.592 63.26 89.256L63.196 88.36C61.276 88.68 59.324 89 57.98 89.192ZM59.468 86.968V89.368H60.508V86.568L60.044 86.392L59.468 86.968ZM68.476 76.456V77.56H75.372V76.456H68.476ZM76.508 81.016V82.168H82.94V81.016H76.508ZM79.98 81.768V90.296H81.164V81.768H79.98ZM76.044 77.144V81.416C76.044 83.864 75.82 87.08 73.596 89.448C73.884 89.592 74.316 89.992 74.492 90.248C76.892 87.672 77.228 84.008 77.228 81.416V77.752C77.452 77.72 77.532 77.656 77.548 77.544L76.044 77.144ZM69.068 79.224V83.544C69.068 85.384 68.956 87.848 67.836 89.576C68.092 89.72 68.588 90.088 68.78 90.312C70.012 88.424 70.204 85.592 70.204 83.544V79.224H69.068ZM81.564 75.752C80.364 76.44 78.204 77.128 76.3 77.576C76.46 77.848 76.652 78.28 76.716 78.552C78.716 78.088 81.036 77.432 82.62 76.664L81.564 75.752ZM69.724 79.224V80.328H73.804V83.128H69.724V84.216H74.972V79.224H69.724ZM84.508 77.64V78.776H98.524V77.64H84.508ZM88.412 83.352V84.392H95.932V83.352H88.412ZM87.564 80.632V90.28H88.748V81.704H95.74V80.632H87.564ZM95.468 80.632V88.776C95.468 89.016 95.372 89.096 95.1 89.112C94.812 89.112 93.836 89.128 92.764 89.08C92.94 89.416 93.116 89.912 93.164 90.248C94.54 90.248 95.436 90.248 95.948 90.056C96.492 89.864 96.636 89.496 96.636 88.792V80.632H95.468ZM89.74 75.56C88.876 78.776 86.988 82.168 84.124 84.136C84.364 84.376 84.732 84.792 84.892 85.064C87.948 82.92 89.868 79.368 90.956 75.848L89.74 75.56ZM88.412 86.056V87.096H95.932V86.056H88.412ZM106.668 76.056C106.556 78.184 106.556 85.88 100.028 89.208C100.396 89.48 100.796 89.848 101.004 90.152C107.628 86.552 107.868 78.568 107.996 76.056H106.668ZM107.948 76.376L106.796 76.488C106.908 77.96 107.356 86.904 114.14 90.152C114.332 89.816 114.7 89.416 115.052 89.144C108.46 86.12 107.996 77.624 107.948 76.376ZM116.908 77.432V78.488H122.508V77.432H116.908ZM118.604 88.248V89.272H123.084V88.248H118.604ZM118.588 85.592V86.552H123.1V85.592H118.588ZM116.188 80.408V81.48H124.46V80.408H116.188ZM119.388 75.704V81.096H120.508V75.704H119.388ZM123.628 76.12C122.044 79.832 119.308 82.744 115.836 84.472C116.06 84.712 116.444 85.192 116.588 85.448C120.108 83.512 122.956 80.44 124.716 76.44L123.628 76.12ZM118.972 83.032H118.54L117.868 83.736V90.216H118.972V84.04H123.052V83.032H118.972ZM122.572 83.032V89.992H123.74V83.032H122.572ZM125.132 76.488V90.28H126.332V77.608H129.916V76.488H125.132ZM129.612 76.488V76.856C129.1 78.152 128.204 80.328 127.34 81.992C129.036 83.384 129.548 84.6 129.548 85.608C129.548 86.2 129.436 86.664 129.052 86.872C128.86 86.984 128.588 87.048 128.3 87.064C127.948 87.096 127.468 87.08 126.956 87.032C127.148 87.352 127.292 87.88 127.308 88.2C127.804 88.232 128.38 88.232 128.812 88.184C129.228 88.136 129.596 88.024 129.884 87.832C130.476 87.448 130.716 86.712 130.7 85.72C130.7 84.568 130.268 83.304 128.588 81.816C129.372 80.344 130.236 78.488 130.908 76.984L130.044 76.424L129.852 76.488H129.612ZM134.812 75.56C134.428 76.728 133.676 78.408 133.068 79.432L134.092 79.736C134.732 78.728 135.484 77.176 136.06 75.848L134.812 75.56ZM132.124 78.952L132.236 80.12C133.98 80.024 136.46 79.896 138.844 79.752L138.86 78.68C136.348 78.792 133.804 78.904 132.124 78.952ZM133.1 81.272V90.264H134.22V82.296H138.172V81.272H133.1ZM137.628 81.272V88.888C137.628 89.096 137.564 89.144 137.356 89.144C137.132 89.16 136.444 89.176 135.692 89.144C135.852 89.448 136.028 89.928 136.092 90.248C137.1 90.248 137.804 90.232 138.252 90.04C138.684 89.848 138.812 89.512 138.812 88.904V81.272H137.628ZM133.628 83.656V84.6H138.252V83.656H133.628ZM133.628 86.056V87.016H138.252V86.056H133.628ZM140.316 75.592V80.904C140.316 82.232 140.716 82.6 142.252 82.6C142.572 82.6 144.668 82.6 145.004 82.6C146.3 82.6 146.652 82.072 146.796 80.12C146.444 80.04 145.964 79.864 145.708 79.656C145.644 81.24 145.532 81.512 144.908 81.512C144.444 81.512 142.7 81.512 142.364 81.512C141.628 81.512 141.5 81.4 141.5 80.888V75.592H140.316ZM145.212 76.776C144.124 77.336 142.3 78.04 140.716 78.536C140.86 78.776 141.02 79.128 141.084 79.384C142.732 78.92 144.652 78.296 146.012 77.656L145.212 76.776ZM140.316 83.032V88.456C140.316 89.784 140.732 90.152 142.284 90.152C142.62 90.152 144.78 90.152 145.132 90.152C146.476 90.152 146.828 89.576 146.988 87.416C146.652 87.352 146.172 87.16 145.9 86.968C145.82 88.776 145.724 89.08 145.036 89.08C144.556 89.08 142.748 89.08 142.412 89.08C141.644 89.08 141.5 88.984 141.5 88.44V83.032H140.316ZM145.404 83.912C144.316 84.616 142.38 85.352 140.716 85.832C140.844 86.072 141.02 86.456 141.084 86.696C142.812 86.232 144.86 85.576 146.204 84.808L145.404 83.912ZM136.812 77.08C137.66 78.216 138.524 79.752 138.86 80.728L139.916 80.264C139.548 79.272 138.652 77.8 137.804 76.68L136.812 77.08ZM149.324 77.032V78.184H151.852V85.192H149.324V86.344H152.956V77.032H149.324ZM148.716 77.032V87.608H149.82V77.032H148.716ZM155.324 78.024V79.16H162.62V78.024H155.324ZM154.972 81.336V82.456H160.716V81.336H154.972ZM155.996 75.56C155.436 77.624 154.444 79.624 153.212 80.904C153.5 81.08 153.98 81.48 154.204 81.688C155.436 80.28 156.524 78.12 157.196 75.832L155.996 75.56ZM160.54 81.336C154.236 86.536 153.964 87.56 153.964 88.408C153.964 89.432 154.732 90.04 156.444 90.04H160.86C162.3 90.04 162.796 89.592 162.956 86.856C162.604 86.792 162.172 86.632 161.852 86.456C161.788 88.568 161.612 88.856 160.924 88.856H156.396C155.676 88.856 155.212 88.68 155.212 88.248C155.212 87.72 155.628 86.888 161.644 81.976C161.724 81.896 161.788 81.816 161.836 81.736L161.02 81.288L160.732 81.336H160.54ZM171.196 79.128H176.492V80.44H171.196V79.128ZM171.196 76.968H176.492V78.264H171.196V76.968ZM170.044 76.056V81.352H177.692V76.056H170.044ZM169.052 82.456V83.464H178.46V82.456H169.052ZM168.684 84.84V85.896H178.748V84.84H168.684ZM175.148 83.336V88.936C175.148 89.144 175.084 89.208 174.828 89.224C174.588 89.24 173.788 89.24 172.876 89.208C173.036 89.528 173.228 89.976 173.276 90.296C174.476 90.296 175.244 90.296 175.724 90.104C176.204 89.928 176.348 89.608 176.348 88.968V83.336H175.148ZM170.076 86.712C170.796 87.416 171.66 88.408 172.044 89.048L172.956 88.376C172.54 87.752 171.66 86.808 170.924 86.136L170.076 86.712ZM167.804 79.128C166.844 80.792 165.292 82.44 163.836 83.496C164.044 83.768 164.38 84.408 164.476 84.648C166.06 83.4 167.772 81.464 168.86 79.56L167.804 79.128ZM167.5 75.608C166.812 76.744 165.372 78.072 164.092 78.904C164.3 79.144 164.604 79.608 164.732 79.88C166.156 78.936 167.692 77.432 168.652 76.056L167.5 75.608ZM166.364 81.96V90.28H167.532V80.856L167.484 80.824L166.364 81.96ZM186.828 75.56V78.136H188.092V75.56H186.828ZM180.86 77.256V80.712H182.076V78.392H192.956V80.712H194.22V77.256H180.86ZM186.188 79.112C185.1 81.464 183.372 84.728 182.204 86.648L183.436 86.984C184.572 85.048 186.252 81.816 187.436 79.384L186.188 79.112ZM190.428 82.424C189.388 86.872 186.204 88.552 180.78 89.224C181.004 89.496 181.372 90.024 181.5 90.312C187.02 89.432 190.444 87.576 191.756 82.616L190.428 82.424ZM180.396 81.704V82.84H194.604V81.704H180.396ZM183.132 86.088C186.572 87.08 190.812 88.888 192.94 90.312L193.836 89.32C191.596 87.896 187.308 86.168 183.948 85.24L183.132 86.088ZM200.364 80.04V88.072C200.364 89.64 200.86 90.072 202.556 90.072C202.924 90.072 205.308 90.072 205.692 90.072C207.436 90.072 207.804 89.176 207.98 86.152C207.628 86.072 207.132 85.848 206.844 85.608C206.716 88.376 206.572 88.968 205.628 88.968C205.084 88.968 203.068 88.968 202.668 88.968C201.788 88.968 201.596 88.824 201.596 88.072V80.04H200.364ZM200.492 76.552C202.428 77.24 204.764 78.44 205.996 79.368L206.764 78.312C205.5 77.448 203.18 76.296 201.244 75.64L200.492 76.552ZM197.692 81.32C197.468 83.4 196.94 85.736 195.868 87.144L196.956 87.8C198.108 86.264 198.604 83.704 198.844 81.56L197.692 81.32ZM207.02 81.336C208.38 83.144 209.58 85.64 209.932 87.32L211.132 86.744C210.732 85.048 209.532 82.632 208.092 80.808L207.02 81.336ZM222.028 75.688V88.392H223.148V75.688H222.028ZM218.604 79.112V80.04H226.988V79.112H218.604ZM218.956 85.64V86.568H226.684V85.64H218.956ZM219.436 83.448V84.376H226.236V83.448H219.436ZM215.804 76.888V77.896H218.124V76.888H215.804ZM216.412 81.384V82.312H218.46V81.384H216.412ZM217.868 76.888V77.032C217.34 78.344 216.236 80.968 215.356 82.824L216.364 83.064C217.228 81.192 218.316 78.712 218.972 77.048L218.204 76.84L218.012 76.888H217.868ZM218.14 81.384V81.576C217.82 85.384 216.716 88.088 214.988 89.352C215.228 89.576 215.532 89.976 215.676 90.232C217.66 88.68 218.796 85.912 219.18 81.48L218.54 81.352L218.348 81.384H218.14ZM216.476 83.608L215.548 83.896C216.604 88.856 218.716 89.992 222.54 89.992H226.62C226.684 89.672 226.86 89.16 227.036 88.888C226.348 88.904 223.1 88.904 222.588 88.904C219.324 88.904 217.34 87.944 216.476 83.608ZM219.692 76.968V77.896H224.988V81.288H219.692V82.232H226.028V76.968H219.692ZM214.972 75.656C214.284 78.008 213.132 80.312 211.82 81.832C212.012 82.136 212.316 82.792 212.428 83.064C213.9 81.288 215.228 78.6 216.06 75.96L214.972 75.656ZM213.836 79.704V90.248H214.908V78.664L214.892 78.648L213.836 79.704ZM230.924 81.432V82.344H242.86V81.432H230.924ZM232.06 79.368V80.248H240.14V83.592H231.932V84.472H241.276V79.368H232.06ZM235.804 78.232V88.904C235.804 89.176 235.724 89.256 235.436 89.256C235.164 89.272 234.188 89.288 233.196 89.256C233.372 89.56 233.532 90.024 233.596 90.312C234.908 90.312 235.772 90.296 236.284 90.12C236.78 89.96 236.972 89.656 236.972 88.904V78.232H235.804ZM231.324 85.336C232.156 85.832 233.18 86.568 233.676 87.064L234.412 86.328C233.868 85.848 232.844 85.144 232.012 84.68L231.324 85.336ZM241.084 84.76C240.332 85.4 239.036 86.28 238.092 86.792L238.78 87.4C239.756 86.936 241.004 86.184 241.964 85.464L241.084 84.76ZM237.228 84.152L236.3 84.376C237.244 87.16 239.116 89.208 241.804 90.12C241.964 89.816 242.284 89.384 242.54 89.16C239.932 88.408 238.076 86.568 237.228 84.152ZM230.476 88.68L231.052 89.656C232.204 89.192 233.644 88.6 235.02 88.008L234.812 87.128C233.212 87.72 231.564 88.328 230.476 88.68ZM235.34 75.576V77.608H236.572V75.576H235.34ZM229.964 77.048V78.104H242.668V77.048H229.964ZM229.388 77.048V81.768C229.388 84.12 229.276 87.384 227.996 89.704C228.268 89.816 228.764 90.136 228.972 90.344C230.316 87.912 230.524 84.28 230.524 81.768V77.048H229.388ZM246.604 85.112C245.26 85.112 244.156 86.2 244.156 87.544C244.156 88.888 245.26 89.976 246.604 89.976C247.948 89.976 249.036 88.888 249.036 87.544C249.036 86.2 247.948 85.112 246.604 85.112ZM246.604 89.16C245.708 89.16 244.972 88.44 244.972 87.544C244.972 86.648 245.708 85.928 246.604 85.928C247.5 85.928 248.22 86.648 248.22 87.544C248.22 88.44 247.5 89.16 246.604 89.16ZM89.324 106.088C90.348 107.272 91.388 108.92 91.804 110.024L92.956 109.4C92.492 108.312 91.468 106.728 90.396 105.56L89.324 106.088ZM84.06 115.304L84.492 116.552C86.268 115.784 88.7 114.712 90.924 113.688L90.652 112.52C88.252 113.576 85.692 114.664 84.06 115.304ZM93.66 113.192C95.196 114.76 97.116 116.92 98.012 118.248L99.036 117.304C98.092 115.992 96.108 113.912 94.588 112.408L93.66 113.192ZM95.884 104.392C95.164 111.352 93.468 115.272 87.932 117.288C88.236 117.544 88.716 118.072 88.892 118.328C94.492 115.992 96.364 111.912 97.18 104.52L95.884 104.392ZM86.012 104.44L86.284 115.016L87.516 114.968L87.244 104.392L86.012 104.44ZM106.924 113.016V117.4H108.092V113.016H106.924ZM104.508 109.144H110.556V110.664H104.508V109.144ZM103.388 108.232V111.592H111.756V108.232H103.388ZM101.916 112.52V118.328H103.068V113.448H112.14V118.28H113.34V112.52H101.916ZM102.588 114.728V115.608H112.572V114.728H102.588ZM102.588 116.936V117.864H112.572V116.936H102.588ZM106.844 103.56V106.568H108.06V103.56H106.844ZM100.812 106.024V109.336H101.964V107.08H113.132V109.336H114.332V106.024H100.812ZM102.14 104.2C102.652 104.824 103.228 105.704 103.484 106.264L104.604 105.752C104.316 105.192 103.74 104.376 103.196 103.768L102.14 104.2ZM111.74 103.704C111.42 104.344 110.796 105.256 110.316 105.848L111.308 106.216C111.804 105.688 112.428 104.888 112.972 104.12L111.74 103.704ZM116.428 113.928V114.968H130.588V113.928H116.428ZM119.116 111.048V112.024H126.812V111.048H119.116ZM122.892 112.952V116.936C122.892 117.16 122.828 117.24 122.54 117.24C122.22 117.272 121.196 117.272 120.028 117.224C120.204 117.544 120.396 117.976 120.476 118.296C121.868 118.296 122.796 118.296 123.356 118.12C123.916 117.96 124.076 117.656 124.076 116.968V112.952H122.892ZM126.412 111.048V111.272C125.74 111.88 124.38 112.648 123.18 113.08C123.356 113.24 123.66 113.56 123.804 113.768C125.164 113.256 126.684 112.44 127.708 111.592L126.956 110.984L126.716 111.048H126.412ZM116.444 106.92V107.944H130.572V106.92H116.444ZM122.86 104.776V110.616H124.044V104.776H122.86ZM122.252 107.256C120.892 108.872 118.268 110.408 115.98 111.112C116.22 111.352 116.572 111.768 116.748 112.04C119.036 111.208 121.708 109.544 123.196 107.688L122.252 107.256ZM124.748 107.288L123.804 107.72C125.26 109.496 127.852 111.112 130.108 111.912C130.3 111.624 130.636 111.176 130.892 110.952C128.636 110.28 126.076 108.84 124.748 107.288ZM127.932 103.64C125.596 104.184 121.132 104.536 117.468 104.648C117.58 104.904 117.724 105.352 117.756 105.624C121.516 105.512 126.076 105.176 128.924 104.504L127.932 103.64ZM140.892 108.968V110.088H146.844V108.968H140.892ZM132.476 105.24V106.264H139.532V105.24H132.476ZM132.3 111.592V112.632H139.612V111.592H132.3ZM132.252 108.904V109.928H139.724V108.904H132.252ZM143.868 109.416V118.2H145.036V109.416H143.868ZM135.436 103.624V105.768H136.604V103.624H135.436ZM135.436 109.736V118.264H136.604V109.736H135.436ZM140.316 104.872V110.472C140.316 112.744 140.092 115.512 138.044 117.528C138.332 117.688 138.764 118.088 138.908 118.36C141.164 116.136 141.452 112.888 141.452 110.488V105.544C141.676 105.512 141.772 105.448 141.788 105.32L140.316 104.872ZM145.676 103.752C144.508 104.328 142.396 104.888 140.604 105.272C140.748 105.512 140.908 105.928 140.972 106.184C142.892 105.848 145.132 105.304 146.636 104.632L145.676 103.752ZM136.492 112.936L135.836 113.48C136.428 113.976 137.932 115.384 138.444 115.976L139.148 115.08C138.748 114.712 137.004 113.288 136.492 112.936ZM133.436 106.552C133.756 107.288 134.012 108.248 134.06 108.872L135.068 108.6C134.988 107.992 134.716 107.048 134.38 106.344L133.436 106.552ZM137.532 106.312C137.356 106.984 137.02 107.976 136.732 108.616L137.692 108.84C137.98 108.248 138.316 107.352 138.62 106.552L137.532 106.312ZM135.452 112.12C134.684 113.688 133.228 115.416 131.932 116.264C132.204 116.456 132.556 116.84 132.748 117.112C134.028 116.12 135.5 114.232 136.316 112.456L135.452 112.12ZM155.484 106.696V107.752H162.524V106.696H155.484ZM155.82 109.832V110.888H162.236V109.832H155.82ZM155.292 113.112V114.184H162.892V113.112H155.292ZM158.364 107.128V118.264H159.532V107.128H158.364ZM155.916 103.944C156.412 104.84 156.876 106.04 157.052 106.824L158.092 106.408C157.9 105.64 157.42 104.472 156.908 103.592L155.916 103.944ZM160.876 103.56C160.604 104.424 160.076 105.672 159.644 106.456L160.636 106.744C161.084 106.024 161.612 104.872 162.076 103.88L160.876 103.56ZM150.428 105.016V105.96H153.324V105.016H150.428ZM151.596 108.136V113.448H152.492V108.136H151.596ZM152.956 105.016V105.208C152.7 106.008 152.188 107.096 151.724 107.784C151.916 107.928 152.236 108.232 152.396 108.44C152.972 107.672 153.66 106.472 154.124 105.416L153.42 104.952L153.212 105.016H152.956ZM153.804 114.52C154.316 115.432 154.86 116.664 155.068 117.464L155.9 117.128C155.676 116.36 155.132 115.144 154.588 114.216L153.804 114.52ZM152.236 114.664C152.588 115.56 152.876 116.728 152.94 117.496L153.788 117.304C153.708 116.536 153.388 115.368 153.02 114.488L152.236 114.664ZM150.732 114.648C150.892 115.608 150.956 116.824 150.924 117.624L151.804 117.512C151.836 116.712 151.756 115.496 151.548 114.536L150.732 114.648ZM150.124 111.16H153.996V112.808H150.124V111.16ZM150.124 108.6H153.996V110.216H150.124V108.6ZM149.116 107.608V113.816H155.052V107.608H149.116ZM149.26 114.536C149.132 115.8 148.812 117.08 148.076 117.816L148.876 118.296C149.692 117.48 149.98 116.088 150.14 114.744L149.26 114.536ZM150.476 103.56C150.092 105.08 149.324 107.048 148.076 108.536C148.332 108.68 148.716 109.016 148.924 109.256C150.268 107.576 151.1 105.48 151.596 103.704L150.476 103.56ZM171.436 104.616C172.988 106.424 175.82 108.328 178.22 109.4C178.428 109.064 178.716 108.632 178.988 108.344C176.492 107.4 173.708 105.56 171.964 103.544H170.764C169.468 105.336 166.78 107.352 164.06 108.52C164.316 108.792 164.62 109.224 164.764 109.496C167.42 108.264 170.06 106.312 171.436 104.616ZM167.644 110.296V111.224H175.308V110.296H167.644ZM170.828 106.376V108.552H172.06V106.376H170.828ZM165.116 117.016L165.276 118.152C167.116 117.976 169.756 117.72 172.268 117.464L172.252 116.376C169.612 116.632 166.892 116.872 165.116 117.016ZM171.564 113.16L170.54 113.48C171.884 116.12 174.492 117.672 178.012 118.296C178.172 117.976 178.492 117.496 178.748 117.24C175.34 116.76 172.748 115.416 171.564 113.16ZM176.972 112.904C175.932 113.704 174.172 114.776 172.876 115.4L173.644 116.056C174.956 115.432 176.604 114.504 177.868 113.608L176.972 112.904ZM167.644 107.976V108.952H174.876V112.648H167.644V113.624H176.076V107.976H167.644ZM166.924 107.976V117.288L168.108 117.16V107.976H166.924ZM187.116 107.016V108.168H194.828V107.016H187.116ZM191.916 103.592V116.664C191.916 116.952 191.82 117.032 191.516 117.048C191.228 117.048 190.188 117.064 189.148 117.032C189.308 117.384 189.5 117.928 189.58 118.264C190.94 118.264 191.884 118.248 192.428 118.04C192.956 117.848 193.164 117.48 193.164 116.648V103.592H191.916ZM191.788 107.544C190.668 110.248 188.364 113.272 186.188 114.76C186.492 115 186.86 115.416 187.052 115.736C189.26 114.056 191.564 110.936 192.748 108.12L191.788 107.544ZM180.46 107V108.152H186.524V107H180.46ZM183.132 103.56V118.264H184.332V103.56H183.132ZM183.068 107.704C182.508 110.056 181.196 112.776 179.9 114.216C180.124 114.504 180.444 115 180.572 115.352C181.948 113.736 183.26 110.616 183.916 108.008L183.068 107.704ZM184.22 108.488L183.596 109.096C184.172 109.768 185.66 111.768 186.172 112.616L186.94 111.576C186.54 111.064 184.732 108.952 184.22 108.488ZM198.86 112.088V113.144H209.756V112.088H198.86ZM196.796 106.312V107.416H207.26V106.312H196.796ZM201.308 109.192V110.264H208.636V109.192H201.308ZM209.244 112.088V112.28C208.988 115.464 208.684 116.728 208.316 117.096C208.172 117.224 208.012 117.256 207.708 117.256C207.404 117.256 206.636 117.256 205.836 117.16C206.028 117.48 206.156 117.944 206.172 118.28C207.004 118.312 207.804 118.328 208.204 118.296C208.684 118.264 208.988 118.152 209.292 117.848C209.804 117.32 210.108 115.992 210.396 112.616C210.428 112.44 210.444 112.088 210.444 112.088H209.244ZM205.692 114.008C206.172 114.68 206.668 115.608 206.876 116.184L207.756 115.816C207.548 115.24 207.052 114.344 206.54 113.688L205.692 114.008ZM198.78 104.04C199.404 104.712 200.076 105.656 200.348 106.28L201.468 105.768C201.148 105.16 200.444 104.248 199.82 103.608L198.78 104.04ZM200.956 114.408C201.228 115.448 201.404 116.76 201.372 117.624L202.428 117.48C202.428 116.616 202.252 115.288 201.932 114.28L200.956 114.408ZM203.308 114.264C203.708 115.144 204.092 116.312 204.204 117.08L205.196 116.808C205.068 116.056 204.668 114.92 204.252 114.04L203.308 114.264ZM198.908 114.04C198.588 115.272 197.98 116.696 197.084 117.544L198.012 118.2C198.988 117.224 199.548 115.704 199.916 114.376L198.908 114.04ZM203.628 103.56C202.412 107.704 199.948 111.8 195.98 114.056C196.188 114.312 196.492 114.792 196.636 115.08C200.876 112.568 203.388 108.344 204.844 103.864L203.628 103.56ZM206.988 106.312C206.812 107.336 206.54 108.616 206.316 109.464L207.372 109.608C207.612 108.744 207.9 107.416 208.124 106.312H206.988ZM208.188 109.192C208.028 110.216 207.756 111.512 207.516 112.376L208.604 112.504C208.828 111.64 209.1 110.296 209.324 109.192H208.188ZM213.132 106.76V107.944H225.852V106.76H213.132ZM213.868 111.464V112.632H225.18V111.464H213.868ZM212.396 116.568V117.752H226.652V116.568H212.396ZM218.844 107.704V117.176H220.14V107.704H218.844ZM217.468 104.296C218.524 105.08 219.788 106.216 220.364 106.968L221.404 106.216C220.78 105.448 219.484 104.36 218.444 103.624L217.468 104.296ZM53.964 132.568V133.64H56.924V132.568H53.964ZM50.268 133.352V134.376H53.644V133.352H50.268ZM54.124 135.528V136.536H56.892V135.528H54.124ZM54.092 138.52V139.528H56.812V138.52H54.092ZM46.204 135.528V136.536H48.924V135.528H46.204ZM46.268 138.504V139.528H48.94V138.504H46.268ZM45.564 132.68L45.884 141.976H46.972L46.684 133.304C46.876 133.272 46.956 133.208 46.988 133.112L45.564 132.68ZM56.268 132.568C56.284 135.512 56.156 139.592 55.98 141.944H57.116C57.276 139.64 57.372 135.576 57.388 132.568H56.268ZM48.508 131.72C47.868 132.152 46.796 132.728 45.868 133.16C45.996 133.4 46.188 133.784 46.252 133.992C47.276 133.608 48.476 133.096 49.452 132.584L48.508 131.72ZM49.74 137.72V141.88H50.732V137.72H49.74ZM49.756 131.704V137.016H52.876V136.04H50.796V131.704H49.756ZM52.284 136.04V141.864H53.324V136.04H52.284ZM44.204 141.464V142.584H58.812V141.464H44.204ZM52.988 143.608C54.7 144.456 56.524 145.544 57.596 146.328L58.716 145.512C57.548 144.712 55.612 143.64 53.836 142.808L52.988 143.608ZM48.796 142.84C47.804 143.72 45.884 144.824 44.332 145.464C44.62 145.688 45.036 146.072 45.244 146.312C46.764 145.64 48.652 144.552 49.916 143.56L48.796 142.84ZM66.908 131.8V144.616C66.908 144.936 66.796 145.048 66.46 145.048C66.14 145.064 64.988 145.08 63.804 145.032C64.012 145.384 64.236 145.944 64.3 146.296C65.82 146.296 66.812 146.264 67.388 146.056C67.964 145.864 68.204 145.512 68.204 144.616V131.8H66.908ZM70.78 135.88C72.14 138.168 73.436 141.176 73.82 143.064L75.1 142.552C74.684 140.616 73.324 137.688 71.932 135.432L70.78 135.88ZM62.716 135.544C62.316 137.704 61.436 140.472 60.012 142.168C60.332 142.296 60.86 142.584 61.148 142.808C62.604 141.016 63.532 138.12 64.06 135.768L62.716 135.544ZM78.956 135.32H88.22V136.376H78.956V135.32ZM78.956 133.496H88.22V134.536H78.956V133.496ZM77.852 132.68V137.208H89.388V132.68H77.852ZM81.18 131.56V136.904H82.348V131.56H81.18ZM84.7 131.56V136.904H85.884V131.56H84.7ZM78.3 137.976V138.888H90.268V137.976H78.3ZM77.692 137.976V140.024C77.692 141.672 77.5 144.008 76.14 145.704C76.428 145.832 76.94 146.136 77.164 146.328C78.556 144.52 78.844 141.88 78.844 140.056V137.976H77.692ZM79.74 139.736V140.568H88.876V139.736H79.74ZM78.172 141.432V142.344H90.636V141.432H78.172ZM80.252 141.688V145.464L81.42 145.352V141.688H80.252ZM78.844 145.048L78.988 146.088C80.572 145.88 82.764 145.592 84.876 145.304L84.844 144.328C82.62 144.616 80.348 144.888 78.844 145.048ZM88.892 142.296C88.076 142.776 86.652 143.464 85.644 143.816L86.252 144.408C87.292 144.088 88.652 143.544 89.74 143.016L88.892 142.296ZM83.964 141.704L82.956 141.944C84.108 144.408 86.524 145.832 90.124 146.28C90.284 145.96 90.588 145.48 90.844 145.24C87.404 144.92 84.972 143.704 83.964 141.704ZM95.468 136.792V137.864H103.548V136.792H95.468ZM95.18 144.568V145.64H103.756V144.568H95.18ZM94.636 139.88V146.296H95.804V140.968H103.212V146.296H104.428V139.88H94.636ZM99.452 132.792C100.956 134.84 103.772 137.096 106.284 138.408C106.492 138.056 106.78 137.64 107.084 137.352C104.524 136.216 101.724 133.992 99.996 131.608H98.78C97.516 133.672 94.844 136.12 92.028 137.544C92.3 137.8 92.62 138.232 92.78 138.504C95.516 137.016 98.14 134.744 99.452 132.792ZM115.292 134.248L114.732 135.4H122.876V134.248H115.292ZM117.292 137.72V138.824H122.508V137.72H117.292ZM117.276 141.24V142.376H122.732V141.24H117.276ZM116.684 134.616V146.28H117.916V134.616H116.684ZM115.9 131.752C115.116 134.104 113.82 136.44 112.364 137.928C112.636 138.12 113.116 138.552 113.292 138.76C114.764 137.112 116.156 134.6 117.068 132.056L115.9 131.752ZM112.06 131.624C111.148 134.056 109.66 136.456 108.06 138.008C108.284 138.296 108.652 138.936 108.764 139.224C110.508 137.432 112.156 134.696 113.212 131.992L112.06 131.624ZM110.348 135.752V146.264H111.564V134.568L111.532 134.552L110.348 135.752ZM127.868 145.896L128.956 144.968C127.948 143.8 126.508 142.36 125.356 141.432L124.316 142.344C125.452 143.272 126.828 144.632 127.868 145.896ZM142.876 136.456V137.608H152.204V136.456H142.876ZM147.484 140.28V141.416H152.876V140.28H147.484ZM146.844 137.048V144.984L148.092 145.144V137.048H146.844ZM143.052 138.984C142.7 141.88 141.836 144.168 140.044 145.56C140.332 145.736 140.844 146.152 141.036 146.36C142.844 144.792 143.852 142.344 144.3 139.112L143.052 138.984ZM143.804 141.048L142.828 141.416C144.204 145.32 146.812 146.072 150.62 146.072H154.38C154.428 145.72 154.636 145.144 154.828 144.856C154.044 144.872 151.276 144.872 150.684 144.872C147.436 144.872 144.94 144.312 143.804 141.048ZM146.828 131.576V134.168H148.092V131.576H146.828ZM140.812 133.4V136.888H141.996V134.552H152.956V136.888H154.188V133.4H140.812ZM165.26 132.36V133.464H169.708V132.36H165.26ZM165.26 136.04V137.112H169.708V136.04H165.26ZM165.244 139.768V140.856H169.74V139.768H165.244ZM169.164 132.36V144.744C169.164 144.984 169.084 145.064 168.844 145.064C168.604 145.08 167.804 145.08 166.956 145.064C167.116 145.368 167.292 145.896 167.324 146.232C168.508 146.232 169.26 146.2 169.708 146.008C170.172 145.816 170.332 145.448 170.332 144.76V132.36H169.164ZM164.764 132.36V138.168C164.764 140.488 164.652 143.528 163.308 145.672C163.58 145.784 164.06 146.136 164.268 146.36C165.708 144.088 165.9 140.632 165.9 138.168V132.36H164.764ZM156.316 133.704V134.76H163.98V133.704H156.316ZM158.204 136.184V137.16H162.252V136.184H158.204ZM158.204 138.728V139.688H162.268V138.728H158.204ZM156.108 141.304V142.376H163.98V141.304H156.108ZM157.676 131.752V141.736H158.78V131.752H157.676ZM161.692 131.752V141.736H162.796V131.752H161.692ZM158.332 142.728C157.852 143.8 157.02 144.872 156.124 145.592C156.412 145.752 156.876 146.104 157.1 146.296C157.964 145.496 158.892 144.264 159.484 143.048L158.332 142.728ZM160.636 143.224C161.26 143.976 161.98 145.032 162.284 145.672L163.26 145.096C162.94 144.44 162.188 143.448 161.564 142.728L160.636 143.224ZM178.924 137.832V138.872H186.204V137.832H178.924ZM178.924 141.048V142.104H186.204V141.048H178.924ZM178.812 144.344V145.448H186.86V144.344H178.812ZM182.188 135.128V144.744H183.308V135.128H182.188ZM183.292 131.608C182.988 132.68 182.412 134.232 181.916 135.176L182.924 135.464C183.42 134.568 184.06 133.128 184.556 131.896L183.292 131.608ZM179.612 131.544C178.956 133.864 177.836 136.088 176.428 137.496C176.668 137.736 177.068 138.264 177.244 138.488C178.732 136.888 179.996 134.408 180.764 131.832L179.612 131.544ZM179.58 134.6H179.084L178.428 135.256V146.264H179.58V135.672H186.588V134.6H179.58ZM171.932 140.072L172.204 141.256C173.628 140.824 175.468 140.248 177.212 139.704L177.068 138.632C175.18 139.176 173.228 139.752 171.932 140.072ZM172.204 134.792V135.912H177.084V134.792H172.204ZM174.38 131.576V144.824C174.38 145.064 174.284 145.128 174.076 145.128C173.884 145.144 173.212 145.144 172.492 145.112C172.652 145.448 172.812 145.976 172.86 146.28C173.9 146.28 174.556 146.248 174.972 146.04C175.388 145.848 175.532 145.512 175.532 144.824V131.576H174.38ZM189.884 144.104V145.288H201.18V144.104H189.884ZM194.796 131.656V144.776H196.028V131.656H194.796ZM189.292 139.64V146.296H190.508V139.64H189.292ZM200.54 139.64V146.248H201.772V139.64H200.54ZM189.916 133.096V138.616H201.132V133.096H199.884V137.448H191.1V133.096H189.916ZM212.892 136.968V138.088H218.844V136.968H212.892ZM204.476 133.24V134.264H211.532V133.24H204.476ZM204.3 139.592V140.632H211.612V139.592H204.3ZM204.252 136.904V137.928H211.724V136.904H204.252ZM215.868 137.416V146.2H217.036V137.416H215.868ZM207.436 131.624V133.768H208.604V131.624H207.436ZM207.436 137.736V146.264H208.604V137.736H207.436ZM212.316 132.872V138.472C212.316 140.744 212.092 143.512 210.044 145.528C210.332 145.688 210.764 146.088 210.908 146.36C213.164 144.136 213.452 140.888 213.452 138.488V133.544C213.676 133.512 213.772 133.448 213.788 133.32L212.316 132.872ZM217.676 131.752C216.508 132.328 214.396 132.888 212.604 133.272C212.748 133.512 212.908 133.928 212.972 134.184C214.892 133.848 217.132 133.304 218.636 132.632L217.676 131.752ZM208.492 140.936L207.836 141.48C208.428 141.976 209.932 143.384 210.444 143.976L211.148 143.08C210.748 142.712 209.004 141.288 208.492 140.936ZM205.436 134.552C205.756 135.288 206.012 136.248 206.06 136.872L207.068 136.6C206.988 135.992 206.716 135.048 206.38 134.344L205.436 134.552ZM209.532 134.312C209.356 134.984 209.02 135.976 208.732 136.616L209.692 136.84C209.98 136.248 210.316 135.352 210.62 134.552L209.532 134.312ZM207.452 140.12C206.684 141.688 205.228 143.416 203.932 144.264C204.204 144.456 204.556 144.84 204.748 145.112C206.028 144.12 207.5 142.232 208.316 140.456L207.452 140.12ZM221.516 133.24V145.896H222.764V134.456H232.22V145.816H233.516V133.24H221.516ZM222.076 143.288V144.52H233.116V143.288H222.076ZM241.452 138.072V139.224H250.716V138.072H241.452ZM242.076 134.2V135.352H250.044V134.2H242.076ZM245.34 131.656V146.264H246.54V131.656H245.34ZM245.084 138.696C244.156 141.032 242.348 143.32 240.412 144.408C240.7 144.648 241.052 145.064 241.244 145.352C243.212 144.072 245.036 141.624 246.044 139L245.084 138.696ZM246.812 138.68L245.884 139C246.78 141.448 248.38 143.976 250.012 145.336C250.22 145.016 250.62 144.568 250.908 144.344C249.276 143.208 247.66 140.904 246.812 138.68ZM237.26 133.032V134.184H239.772V141.192H237.26V142.344H240.876V133.032H237.26ZM236.668 133.032V143.608H237.772V133.032H236.668ZM254.604 141.112C253.26 141.112 252.156 142.2 252.156 143.544C252.156 144.888 253.26 145.976 254.604 145.976C255.948 145.976 257.036 144.888 257.036 143.544C257.036 142.2 255.948 141.112 254.604 141.112ZM254.604 145.16C253.708 145.16 252.972 144.44 252.972 143.544C252.972 142.648 253.708 141.928 254.604 141.928C255.5 141.928 256.22 142.648 256.22 143.544C256.22 144.44 255.5 145.16 254.604 145.16ZM49.484 160.68V161.608H58.684V160.68H49.484ZM49.788 165.832V166.648H58.476V165.832H49.788ZM50.06 167.48V168.28H58.188V167.48H50.06ZM49.292 169.176V170.072H58.78V169.176H49.292ZM53.404 159.56V161.144H54.62V159.56H53.404ZM51.74 164.952V169.576H52.828V164.952H51.74ZM55.244 164.952V169.576H56.332V164.952H55.244ZM53.292 169.4C52.412 170.296 50.636 170.984 49.036 171.416C49.228 171.592 49.532 172.008 49.644 172.216C51.292 171.672 53.196 170.808 54.204 169.688L53.292 169.4ZM54.876 169.56L53.964 169.768C54.684 171.96 56.172 173.592 58.332 174.312C58.476 174.04 58.78 173.656 59.02 173.448C56.972 172.888 55.516 171.416 54.876 169.56ZM57.884 170.328C57.292 170.744 56.252 171.352 55.532 171.688L56.108 172.28C56.844 171.96 57.82 171.48 58.54 170.952L57.884 170.328ZM51.02 163H52.716V164.232H51.02V163ZM50.108 162.248V164.968H53.676V162.248H50.108ZM55.452 163H57.196V164.232H55.452V163ZM54.524 162.248V164.968H58.156V162.248H54.524ZM44.764 164.408V165.368H48.876V164.408H44.764ZM44.86 160.136V161.096H48.828V160.136H44.86ZM44.764 166.552V167.512H48.876V166.552H44.764ZM44.108 162.232V163.224H49.276V162.232H44.108ZM45.324 168.712V169.704H47.852V172.376H45.324V173.368H48.86V168.712H45.324ZM44.732 168.712V174.12H45.724V168.712H44.732ZM49.98 173.192L50.284 174.168C51.692 173.912 53.5 173.592 55.26 173.256L55.196 172.36C53.276 172.68 51.324 173 49.98 173.192ZM51.468 170.968V173.368H52.508V170.568L52.044 170.392L51.468 170.968ZM66.988 159.576C66.444 161.112 65.5 162.568 64.412 163.512C64.684 163.688 65.132 164.072 65.308 164.28C66.428 163.192 67.468 161.56 68.092 159.848L66.988 159.576ZM66.924 163.608C66.492 164.728 65.772 165.848 64.94 166.616C65.212 166.76 65.692 167.064 65.916 167.24C66.716 166.408 67.548 165.16 68.044 163.896L66.924 163.608ZM66.828 161.144L66.412 162.2H73.772V161.144H66.828ZM69.18 161.864V167.432C69.18 167.608 69.132 167.656 68.924 167.672C68.716 167.688 68.044 167.688 67.292 167.656C67.468 167.96 67.628 168.408 67.692 168.728C68.7 168.728 69.356 168.712 69.772 168.536C70.22 168.36 70.332 168.04 70.332 167.432V161.864H69.18ZM71.212 163.96C71.964 165 72.748 166.456 73.068 167.4L74.108 166.904C73.772 165.976 72.988 164.568 72.204 163.528L71.212 163.96ZM73.436 161.144V161.32C73.132 162.216 72.7 163.32 72.332 163.992L73.372 164.2C73.756 163.496 74.252 162.328 74.652 161.32L73.82 161.112L73.628 161.144H73.436ZM64.284 169.512V172.408C64.284 173.672 64.716 174.008 66.38 174.008C66.732 174.008 69.116 174.008 69.484 174.008C70.86 174.008 71.228 173.528 71.372 171.592C71.036 171.512 70.556 171.336 70.3 171.128C70.22 172.712 70.108 172.92 69.404 172.92C68.876 172.92 66.876 172.92 66.476 172.92C65.628 172.92 65.468 172.84 65.468 172.408V169.512H64.284ZM65.66 169.032C66.7 169.544 67.884 170.408 68.428 171.048L69.292 170.264C68.716 169.624 67.484 168.808 66.46 168.312L65.66 169.032ZM70.924 170.008C72.124 171.032 73.308 172.536 73.772 173.592L74.844 172.984C74.348 171.896 73.1 170.456 71.916 169.448L70.924 170.008ZM62.332 169.704C61.996 171.048 61.308 172.328 60.124 173.08L61.116 173.768C62.38 172.92 63.004 171.496 63.404 170.056L62.332 169.704ZM63.868 159.56C62.956 161.32 61.452 163.08 59.948 164.216C60.188 164.424 60.588 164.904 60.732 165.144C62.284 163.88 63.9 161.912 64.94 159.928L63.868 159.56ZM62.396 162.568V168.712H63.548V161.448L63.532 161.432L62.396 162.568ZM79.644 163.88V164.968H87.996V163.88H79.644ZM78.492 171.128V172.2H90.284V171.128H78.492ZM79.1 161.432V162.52H90.236V161.432H79.1ZM87.516 163.88V164.136C87.34 170.376 87.116 172.616 86.7 173.128C86.556 173.32 86.412 173.352 86.108 173.352C85.804 173.368 85.068 173.352 84.252 173.288C84.412 173.56 84.524 173.976 84.54 174.248C85.34 174.296 86.14 174.296 86.62 174.264C87.1 174.216 87.452 174.088 87.756 173.688C88.268 173.016 88.492 170.92 88.684 164.472C88.684 164.312 88.7 163.88 88.7 163.88H87.516ZM79.052 163.88C78.78 166.648 78.204 170.504 77.756 172.728L78.972 172.808C79.372 170.6 79.916 166.744 80.268 163.88H79.052ZM79.82 159.48C78.988 161.512 77.612 163.56 76.14 164.856C76.46 165.032 77.004 165.4 77.26 165.592C78.652 164.184 80.108 162.024 81.068 159.832L79.82 159.48ZM81.74 165.688C82.796 166.152 84.028 166.936 84.636 167.528L85.356 166.776C84.716 166.184 83.468 165.464 82.428 165L81.74 165.688ZM81.34 169.192C82.428 169.752 83.74 170.632 84.38 171.272L85.084 170.504C84.428 169.88 83.1 169.032 82.012 168.52L81.34 169.192ZM76.172 167.464V168.552H79.164V168.52H87.996V168.552H90.844V167.464H87.996V167.496H79.164V167.464H76.172ZM98.62 159.608C98.06 162.168 97.084 164.664 95.724 166.232C96.06 166.392 96.636 166.712 96.876 166.904C98.172 165.208 99.228 162.6 99.868 159.832L98.62 159.608ZM101.26 163.528H100.62V165.672C100.62 167.192 99.788 171.384 94.908 173.304C95.132 173.528 95.5 174.024 95.644 174.28C99.516 172.664 100.972 169.448 101.244 167.928C101.5 169.432 102.86 172.744 106.22 174.28C106.412 173.992 106.78 173.496 107.004 173.208C102.652 171.336 101.868 167.096 101.868 165.672V163.528H101.26ZM92.092 170.984L92.876 171.976C93.964 170.936 95.308 169.544 96.492 168.264L95.836 167.224C94.476 168.648 93.02 170.12 92.092 170.984ZM92.604 161.496C93.644 162.216 94.908 163.272 95.516 163.976L96.412 163C95.788 162.312 94.492 161.304 93.452 160.632L92.604 161.496ZM98.652 162.456L98.108 163.64H105.852V162.456H98.652ZM105.436 162.456V162.744C105.164 163.976 104.476 165.672 103.948 166.632C104.252 166.76 104.716 167 104.972 167.144C105.564 166.072 106.316 164.408 106.732 162.872L105.852 162.376L105.628 162.456H105.436ZM108.3 160.616V161.704H116.508V160.616H108.3ZM108.78 168.232V169.32H116.044V168.232H108.78ZM111.836 166.328V172.776L113.02 172.6V166.328H111.836ZM108.124 172.6L108.316 173.8C110.444 173.512 113.596 173.064 116.572 172.648L116.54 171.528C113.452 171.944 110.204 172.376 108.124 172.6ZM108.268 164.968L108.364 166.104C110.268 165.992 113.004 165.848 115.628 165.688L115.66 164.632C112.908 164.776 110.092 164.904 108.268 164.968ZM113.372 163.016C114.332 164.152 115.404 165.704 115.868 166.68L116.828 166.104C116.364 165.144 115.244 163.64 114.268 162.52L113.372 163.016ZM111.068 161.192C110.716 162.456 110.028 164.328 109.468 165.464L110.524 165.72C111.116 164.616 111.804 162.856 112.364 161.448L111.068 161.192ZM117.212 161.496V170.36H118.364V161.496H117.212ZM120.988 160.024V172.68C120.988 172.968 120.908 173.048 120.62 173.064C120.3 173.064 119.308 173.08 118.236 173.032C118.412 173.4 118.588 173.96 118.652 174.296C119.948 174.296 120.924 174.264 121.452 174.056C121.98 173.864 122.172 173.496 122.172 172.664V160.024H120.988ZM132.476 165.048V166.12H138.508V165.048H132.476ZM128.716 172.6V173.672H136.78V172.6H128.716ZM131.9 163.144V169H133.116V163.144H131.9ZM128.076 168.424V174.312H129.244V169.512H136.204V174.28H137.436V168.424H128.076ZM131.34 159.576V162.296H132.572V159.576H131.34ZM126.012 161.64V162.792H138.732V161.64H126.012ZM125.42 161.64V165.784C125.42 168.088 125.308 171.32 123.996 173.624C124.284 173.752 124.812 174.088 125.02 174.296C126.396 171.864 126.62 168.248 126.62 165.784V161.64H125.42ZM140.908 161.432V162.488H146.508V161.432H140.908ZM142.604 172.248V173.272H147.084V172.248H142.604ZM142.588 169.592V170.552H147.1V169.592H142.588ZM140.188 164.408V165.48H148.46V164.408H140.188ZM143.388 159.704V165.096H144.508V159.704H143.388ZM147.628 160.12C146.044 163.832 143.308 166.744 139.836 168.472C140.06 168.712 140.444 169.192 140.588 169.448C144.108 167.512 146.956 164.44 148.716 160.44L147.628 160.12ZM142.972 167.032H142.54L141.868 167.736V174.216H142.972V168.04H147.052V167.032H142.972ZM146.572 167.032V173.992H147.74V167.032H146.572ZM149.132 160.488V174.28H150.332V161.608H153.916V160.488H149.132ZM153.612 160.488V160.856C153.1 162.152 152.204 164.328 151.34 165.992C153.036 167.384 153.548 168.6 153.548 169.608C153.548 170.2 153.436 170.664 153.052 170.872C152.86 170.984 152.588 171.048 152.3 171.064C151.948 171.096 151.468 171.08 150.956 171.032C151.148 171.352 151.292 171.88 151.308 172.2C151.804 172.232 152.38 172.232 152.812 172.184C153.228 172.136 153.596 172.024 153.884 171.832C154.476 171.448 154.716 170.712 154.7 169.72C154.7 168.568 154.268 167.304 152.588 165.816C153.372 164.344 154.236 162.488 154.908 160.984L154.044 160.424L153.852 160.488H153.612ZM158.812 159.56C158.428 160.728 157.676 162.408 157.068 163.432L158.092 163.736C158.732 162.728 159.484 161.176 160.06 159.848L158.812 159.56ZM156.124 162.952L156.236 164.12C157.98 164.024 160.46 163.896 162.844 163.752L162.86 162.68C160.348 162.792 157.804 162.904 156.124 162.952ZM157.1 165.272V174.264H158.22V166.296H162.172V165.272H157.1ZM161.628 165.272V172.888C161.628 173.096 161.564 173.144 161.356 173.144C161.132 173.16 160.444 173.176 159.692 173.144C159.852 173.448 160.028 173.928 160.092 174.248C161.1 174.248 161.804 174.232 162.252 174.04C162.684 173.848 162.812 173.512 162.812 172.904V165.272H161.628ZM157.628 167.656V168.6H162.252V167.656H157.628ZM157.628 170.056V171.016H162.252V170.056H157.628ZM164.316 159.592V164.904C164.316 166.232 164.716 166.6 166.252 166.6C166.572 166.6 168.668 166.6 169.004 166.6C170.3 166.6 170.652 166.072 170.796 164.12C170.444 164.04 169.964 163.864 169.708 163.656C169.644 165.24 169.532 165.512 168.908 165.512C168.444 165.512 166.7 165.512 166.364 165.512C165.628 165.512 165.5 165.4 165.5 164.888V159.592H164.316ZM169.212 160.776C168.124 161.336 166.3 162.04 164.716 162.536C164.86 162.776 165.02 163.128 165.084 163.384C166.732 162.92 168.652 162.296 170.012 161.656L169.212 160.776ZM164.316 167.032V172.456C164.316 173.784 164.732 174.152 166.284 174.152C166.62 174.152 168.78 174.152 169.132 174.152C170.476 174.152 170.828 173.576 170.988 171.416C170.652 171.352 170.172 171.16 169.9 170.968C169.82 172.776 169.724 173.08 169.036 173.08C168.556 173.08 166.748 173.08 166.412 173.08C165.644 173.08 165.5 172.984 165.5 172.44V167.032H164.316ZM169.404 167.912C168.316 168.616 166.38 169.352 164.716 169.832C164.844 170.072 165.02 170.456 165.084 170.696C166.812 170.232 168.86 169.576 170.204 168.808L169.404 167.912ZM160.812 161.08C161.66 162.216 162.524 163.752 162.86 164.728L163.916 164.264C163.548 163.272 162.652 161.8 161.804 160.68L160.812 161.08ZM172.508 161.64V162.776H186.524V161.64H172.508ZM176.412 167.352V168.392H183.932V167.352H176.412ZM175.564 164.632V174.28H176.748V165.704H183.74V164.632H175.564ZM183.468 164.632V172.776C183.468 173.016 183.372 173.096 183.1 173.112C182.812 173.112 181.836 173.128 180.764 173.08C180.94 173.416 181.116 173.912 181.164 174.248C182.54 174.248 183.436 174.248 183.948 174.056C184.492 173.864 184.636 173.496 184.636 172.792V164.632H183.468ZM177.74 159.56C176.876 162.776 174.988 166.168 172.124 168.136C172.364 168.376 172.732 168.792 172.892 169.064C175.948 166.92 177.868 163.368 178.956 159.848L177.74 159.56ZM176.412 170.056V171.096H183.932V170.056H176.412ZM188.604 160.696V161.912H202.38V160.696H188.604ZM196.444 165.352C198.348 166.648 200.748 168.52 201.868 169.752L202.844 168.84C201.66 167.608 199.212 165.8 197.34 164.584L196.444 165.352ZM196.14 161.112C194.652 164.12 191.676 167.192 188.204 168.936C188.444 169.192 188.828 169.672 189.02 169.976C192.636 168.072 195.628 164.904 197.452 161.592L196.14 161.112ZM194.828 164.312V174.264H196.124V163.032L194.828 164.312ZM207.452 163.208V164.264H215.596V163.208H207.452ZM208.268 165.944V172.2H209.388V165.944H208.268ZM208.876 165.944V166.952H213.612V169.992H208.876V171.032H214.732V165.944H208.876ZM204.892 160.392V174.312H206.06V161.544H217.676V160.392H204.892ZM216.94 160.392V172.76C216.94 173.032 216.844 173.128 216.556 173.144C216.284 173.16 215.34 173.16 214.332 173.128C214.524 173.448 214.716 173.976 214.764 174.296C216.156 174.312 216.956 174.28 217.436 174.072C217.932 173.88 218.124 173.512 218.124 172.76V160.392H216.94ZM226.908 166.52V167.4H234.78V166.52H226.908ZM226.62 173.08V173.992H234.892V173.08H226.62ZM229.292 159.576V161.576H230.204V159.576H229.292ZM231.34 159.576V161.576H232.252V159.576H231.34ZM228.7 168.952H232.892V170.36H228.7V168.952ZM227.708 168.168V171.144H233.932V168.168H227.708ZM228.332 163.768H233.26V164.872H228.332V163.768ZM228.332 161.88H233.26V162.968H228.332V161.88ZM227.388 161.048V165.72H234.236V161.048H227.388ZM228.46 171.464C228.78 172.04 229.036 172.824 229.116 173.352L230.044 173.016C229.948 172.488 229.676 171.736 229.324 171.176L228.46 171.464ZM232.172 171.16C232.012 171.688 231.692 172.504 231.436 173.048L232.22 173.32C232.492 172.824 232.86 172.104 233.196 171.448L232.172 171.16ZM221.964 168.536V169.4H225.532V168.536H221.964ZM221.964 170.584V171.464H225.532V170.584H221.964ZM221.404 166.52V174.296H222.428V167.4H225.484V166.52H221.404ZM224.844 166.52V173.144C224.844 173.304 224.78 173.352 224.62 173.352C224.476 173.368 223.964 173.368 223.404 173.352C223.532 173.608 223.676 174.008 223.724 174.28C224.572 174.28 225.1 174.28 225.436 174.104C225.788 173.944 225.884 173.672 225.884 173.16V166.52H224.844ZM221.388 160.136V165H222.316V161.048H224.956V165H225.9V160.136H221.388ZM220.476 164.584V166.888H221.388V165.464H225.9V166.888H226.844V164.584H220.476ZM223.148 162.088V164.92H223.916V162.856H225.564V162.088H223.148ZM229.452 161.368V165.304H230.204V161.368H229.452ZM231.34 161.368V165.304H232.092V161.368H231.34ZM244.316 163.416V164.344H248.732V163.416H244.316ZM243.772 166.184H245.244V168.232H243.772V166.184ZM242.924 165.352V169.064H246.14V165.352H242.924ZM247.804 166.184H249.372V168.232H247.804V166.184ZM246.956 165.352V169.064H250.284V165.352H246.956ZM244.124 169.496C243.884 171.32 243.228 172.744 241.964 173.624C242.204 173.784 242.588 174.152 242.732 174.344C244.092 173.304 244.86 171.704 245.164 169.56L244.124 169.496ZM243.948 171.56C244.604 172.168 245.404 173.016 245.788 173.56L246.476 172.856C246.092 172.328 245.26 171.528 244.62 170.952L243.948 171.56ZM248.124 169.48C247.868 171.288 247.18 172.696 245.916 173.576C246.172 173.736 246.556 174.12 246.7 174.296C248.06 173.256 248.876 171.672 249.18 169.544L248.124 169.48ZM247.884 171.624C248.716 172.44 249.708 173.576 250.172 174.28L250.956 173.672C250.476 172.984 249.468 171.88 248.652 171.096L247.884 171.624ZM246.428 160.696C247.34 162.168 248.94 163.752 250.46 164.68C250.604 164.376 250.86 163.928 251.084 163.64C249.564 162.84 247.948 161.256 246.94 159.624H245.836C245.1 161.144 243.548 162.84 241.916 163.784C242.124 164.04 242.38 164.472 242.508 164.76C244.124 163.752 245.628 162.12 246.428 160.696ZM237.436 162.664V163.608H241.884V162.664H237.436ZM237.436 165.08V166.008H241.916V165.08H237.436ZM236.828 167.512V168.472H241.724V167.512H236.828ZM239.244 160.76V168.008H240.204V160.76H239.244ZM239.724 169.352C240.108 170.008 240.492 170.872 240.652 171.448L241.228 171.208C241.068 170.648 240.668 169.784 240.268 169.16L239.724 169.352ZM238.748 169.576C239.052 170.392 239.308 171.464 239.372 172.168L239.996 172.024C239.932 171.336 239.644 170.264 239.324 169.448L238.748 169.576ZM237.772 169.736C237.916 170.68 237.996 171.864 237.964 172.648L238.62 172.568C238.636 171.784 238.556 170.6 238.396 169.656L237.772 169.736ZM236.716 169.448C236.668 170.792 236.508 172.216 235.964 173.016L236.636 173.4C237.228 172.52 237.388 171 237.452 169.576L236.716 169.448ZM236.828 160.216V168.04H237.82V161.192H242.188V160.216H236.828ZM241.34 167.512V167.688C241.196 171.528 241.052 172.904 240.78 173.208C240.668 173.368 240.556 173.4 240.364 173.4C240.156 173.4 239.692 173.4 239.164 173.336C239.292 173.592 239.388 174.008 239.42 174.28C239.948 174.312 240.492 174.312 240.796 174.28C241.164 174.248 241.404 174.152 241.628 173.848C242.012 173.384 242.156 171.976 242.316 167.976C242.332 167.816 242.332 167.512 242.332 167.512H241.34ZM258.972 169.144H260.012L260.332 162.936L260.38 161.032H258.604L258.652 162.936L258.972 169.144ZM259.5 173.08C260.06 173.08 260.524 172.68 260.524 172.04C260.524 171.4 260.06 170.968 259.5 170.968C258.924 170.968 258.46 171.4 258.46 172.04C258.46 172.68 258.924 173.08 259.5 173.08Z" fill="white"/>
<g filter="url(#filter0_d_179_603)">
<path d="M81.0703 12.6016C81.0078 11.9714 80.7396 11.4818 80.2656 11.1328C79.7917 10.7839 79.1484 10.6094 78.3359 10.6094C77.7839 10.6094 77.3177 10.6875 76.9375 10.8438C76.5573 10.9948 76.2656 11.2057 76.0625 11.4766C75.8646 11.7474 75.7656 12.0547 75.7656 12.3985C75.7552 12.6849 75.8151 12.9349 75.9453 13.1485C76.0807 13.362 76.2656 13.5469 76.5 13.7031C76.7344 13.8542 77.0052 13.987 77.3125 14.1016C77.6198 14.211 77.9479 14.3047 78.2969 14.3828L79.7344 14.7266C80.4323 14.8828 81.0729 15.0912 81.6562 15.3516C82.2396 15.612 82.7448 15.9323 83.1719 16.3125C83.599 16.6927 83.9297 17.1406 84.1641 17.6563C84.4036 18.1719 84.526 18.763 84.5312 19.4297C84.526 20.4089 84.276 21.2578 83.7813 21.9766C83.2917 22.6901 82.5833 23.2448 81.6562 23.6406C80.7344 24.0313 79.6224 24.2266 78.3203 24.2266C77.0286 24.2266 75.9036 24.0287 74.9453 23.6328C73.9922 23.237 73.2474 22.6511 72.7109 21.875C72.1797 21.0938 71.901 20.1276 71.875 18.9766H75.1484C75.1849 19.513 75.3385 19.961 75.6094 20.3203C75.8854 20.6745 76.2526 20.9427 76.7109 21.125C77.1745 21.3021 77.6979 21.3906 78.2812 21.3906C78.8542 21.3906 79.3516 21.3073 79.7734 21.1406C80.2005 20.974 80.5313 20.7422 80.7656 20.4453C81 20.1485 81.1172 19.8073 81.1172 19.4219C81.1172 19.0625 81.0104 18.7604 80.7969 18.5156C80.5885 18.2708 80.2813 18.0625 79.875 17.8906C79.474 17.7188 78.9818 17.5625 78.3984 17.4219L76.6563 16.9844C75.3073 16.6563 74.2422 16.1432 73.4609 15.4453C72.6797 14.7474 72.2917 13.8073 72.2969 12.625C72.2917 11.6563 72.5495 10.8099 73.0703 10.086C73.5964 9.36199 74.3177 8.79689 75.2344 8.39064C76.151 7.98439 77.1927 7.78126 78.3594 7.78126C79.5469 7.78126 80.5833 7.98439 81.4688 8.39064C82.3594 8.79689 83.0521 9.36199 83.5469 10.086C84.0417 10.8099 84.2969 11.6485 84.3125 12.6016H81.0703ZM92.166 24.2344C90.9368 24.2344 89.8796 23.974 88.9941 23.4531C88.1139 22.9271 87.4368 22.1979 86.9629 21.2656C86.4941 20.3333 86.2598 19.2604 86.2598 18.0469C86.2598 16.8177 86.4967 15.7396 86.9707 14.8125C87.4499 13.8802 88.1296 13.1537 89.0098 12.6328C89.89 12.1068 90.9368 11.8438 92.1504 11.8438C93.1973 11.8438 94.1139 12.0339 94.9004 12.4141C95.6868 12.7943 96.3092 13.3281 96.7676 14.0156C97.2259 14.7031 97.4785 15.5104 97.5254 16.4375H94.3848C94.2962 15.8386 94.0618 15.3568 93.6816 14.9922C93.3066 14.6224 92.8145 14.4375 92.2051 14.4375C91.6895 14.4375 91.2389 14.5781 90.8535 14.8594C90.4733 15.1354 90.1764 15.5391 89.9629 16.0703C89.7493 16.6016 89.6426 17.2448 89.6426 18C89.6426 18.7656 89.7467 19.4167 89.9551 19.9531C90.1686 20.4896 90.4681 20.8985 90.8535 21.1797C91.2389 21.461 91.6895 21.6016 92.2051 21.6016C92.5853 21.6016 92.9264 21.5235 93.2285 21.3672C93.5358 21.211 93.7884 20.9844 93.9863 20.6875C94.1895 20.3854 94.3223 20.0235 94.3848 19.6016H97.5254C97.4733 20.5182 97.2233 21.3255 96.7754 22.0235C96.3327 22.7162 95.7207 23.2578 94.9395 23.6485C94.1582 24.0391 93.2337 24.2344 92.166 24.2344ZM105.078 24.2344C103.865 24.2344 102.815 23.9766 101.93 23.461C101.049 22.9401 100.37 22.2162 99.8906 21.2891C99.4115 20.3568 99.1719 19.2761 99.1719 18.0469C99.1719 16.8073 99.4115 15.724 99.8906 14.7969C100.37 13.8646 101.049 13.1406 101.93 12.625C102.815 12.1042 103.865 11.8438 105.078 11.8438C106.292 11.8438 107.339 12.1042 108.219 12.625C109.104 13.1406 109.786 13.8646 110.266 14.7969C110.745 15.724 110.984 16.8073 110.984 18.0469C110.984 19.2761 110.745 20.3568 110.266 21.2891C109.786 22.2162 109.104 22.9401 108.219 23.461C107.339 23.9766 106.292 24.2344 105.078 24.2344ZM105.094 21.6563C105.646 21.6563 106.107 21.5 106.477 21.1875C106.846 20.8698 107.125 20.4375 107.313 19.8906C107.505 19.3438 107.602 18.7214 107.602 18.0235C107.602 17.3255 107.505 16.7031 107.313 16.1563C107.125 15.6094 106.846 15.1771 106.477 14.8594C106.107 14.5417 105.646 14.3828 105.094 14.3828C104.536 14.3828 104.068 14.5417 103.688 14.8594C103.313 15.1771 103.029 15.6094 102.836 16.1563C102.648 16.7031 102.555 17.3255 102.555 18.0235C102.555 18.7214 102.648 19.3438 102.836 19.8906C103.029 20.4375 103.313 20.8698 103.688 21.1875C104.068 21.5 104.536 21.6563 105.094 21.6563ZM118.57 24.2344C117.357 24.2344 116.307 23.9766 115.422 23.461C114.542 22.9401 113.862 22.2162 113.383 21.2891C112.904 20.3568 112.664 19.2761 112.664 18.0469C112.664 16.8073 112.904 15.724 113.383 14.7969C113.862 13.8646 114.542 13.1406 115.422 12.625C116.307 12.1042 117.357 11.8438 118.57 11.8438C119.784 11.8438 120.831 12.1042 121.711 12.625C122.596 13.1406 123.279 13.8646 123.758 14.7969C124.237 15.724 124.477 16.8073 124.477 18.0469C124.477 19.2761 124.237 20.3568 123.758 21.2891C123.279 22.2162 122.596 22.9401 121.711 23.461C120.831 23.9766 119.784 24.2344 118.57 24.2344ZM118.586 21.6563C119.138 21.6563 119.599 21.5 119.969 21.1875C120.339 20.8698 120.617 20.4375 120.805 19.8906C120.997 19.3438 121.094 18.7214 121.094 18.0235C121.094 17.3255 120.997 16.7031 120.805 16.1563C120.617 15.6094 120.339 15.1771 119.969 14.8594C119.599 14.5417 119.138 14.3828 118.586 14.3828C118.029 14.3828 117.56 14.5417 117.18 14.8594C116.805 15.1771 116.521 15.6094 116.328 16.1563C116.141 16.7031 116.047 17.3255 116.047 18.0235C116.047 18.7214 116.141 19.3438 116.328 19.8906C116.521 20.4375 116.805 20.8698 117.18 21.1875C117.56 21.5 118.029 21.6563 118.586 21.6563ZM126.641 28.5V12H129.922V14.0156H130.07C130.216 13.6927 130.427 13.3646 130.703 13.0313C130.984 12.6927 131.349 12.4115 131.797 12.1875C132.25 11.9583 132.813 11.8438 133.484 11.8438C134.359 11.8438 135.167 12.0729 135.906 12.5313C136.646 12.9844 137.237 13.6693 137.68 14.586C138.122 15.4974 138.344 16.6406 138.344 18.0156C138.344 19.3542 138.128 20.4844 137.695 21.4063C137.268 22.3229 136.685 23.0182 135.945 23.4922C135.211 23.961 134.388 24.1953 133.477 24.1953C132.831 24.1953 132.281 24.0886 131.828 23.875C131.38 23.6615 131.013 23.3932 130.727 23.0703C130.44 22.7422 130.221 22.4115 130.07 22.0781H129.969V28.5H126.641ZM129.898 18C129.898 18.7136 129.997 19.336 130.195 19.8672C130.393 20.3985 130.68 20.8125 131.055 21.1094C131.43 21.4011 131.885 21.5469 132.422 21.5469C132.964 21.5469 133.422 21.3985 133.797 21.1016C134.172 20.7995 134.456 20.3828 134.648 19.8516C134.846 19.3151 134.945 18.6979 134.945 18C134.945 17.3073 134.849 16.6979 134.656 16.1719C134.464 15.6458 134.18 15.2344 133.805 14.9375C133.43 14.6406 132.969 14.4922 132.422 14.4922C131.88 14.4922 131.422 14.6354 131.047 14.9219C130.677 15.2083 130.393 15.6146 130.195 16.1406C129.997 16.6667 129.898 17.2865 129.898 18ZM140.563 24V12H143.891V24H140.563ZM142.234 10.4531C141.74 10.4531 141.315 10.2891 140.961 9.96095C140.612 9.62762 140.438 9.22918 140.438 8.76564C140.438 8.30731 140.612 7.91408 140.961 7.58595C141.315 7.25262 141.74 7.08595 142.234 7.08595C142.729 7.08595 143.151 7.25262 143.5 7.58595C143.854 7.91408 144.031 8.30731 144.031 8.76564C144.031 9.22918 143.854 9.62762 143.5 9.96095C143.151 10.2891 142.729 10.4531 142.234 10.4531ZM151.508 7.98401V10.448H171.132V7.98401H151.508ZM157.448 15.904V18.104H167.018V15.904H157.448ZM155.49 12.186V25.958H158.108V14.496H166.622V12.186H155.49ZM166.094 12.186V23.076C166.094 23.384 165.962 23.494 165.61 23.494C165.236 23.494 163.938 23.516 162.794 23.45C163.146 24.132 163.498 25.254 163.608 25.98C165.39 25.98 166.644 25.958 167.524 25.562C168.426 25.144 168.668 24.418 168.668 23.12V12.186H166.094ZM158.328 5.30001C157.228 9.59001 154.764 14.32 150.848 16.894C151.376 17.4 152.212 18.346 152.586 18.94C156.876 15.948 159.516 10.888 161.056 5.91601L158.328 5.30001ZM157.448 19.534V21.734H167.018V19.534H157.448ZM182.704 17.092V26.002H185.19V19.468H190.206V25.892H192.846V17.092H182.704ZM191.306 5.54201C188.974 6.29001 185.234 6.86201 181.89 7.14801C182.198 7.74201 182.55 8.73202 182.638 9.37001C186.114 9.12801 190.162 8.62201 193.154 7.74201L191.306 5.54201ZM186.29 7.61001V18.28H188.996V7.61001H186.29ZM181.538 11.702V14.188H193.748V11.702H181.538ZM184.376 22.548V24.924H191.46V22.548H184.376ZM174.036 12.23V14.21H180.68V12.23H174.036ZM174.168 6.00401V8.00601H180.68V6.00401H174.168ZM174.036 15.31V17.29H180.68V15.31H174.036ZM172.958 9.06201V11.13H181.384V9.06201H172.958ZM175.334 18.412V20.502H178.524V23.032H175.334V25.1H180.79V18.412H175.334ZM173.97 18.412V25.98H176.192V18.412H173.97ZM206.86 13.594H211.634V15.926H206.86V13.594ZM204.462 11.328V18.17H214.186V11.328H204.462ZM209.544 17.51V22.812C209.544 25.056 209.984 25.826 211.986 25.826C212.338 25.826 213.108 25.826 213.504 25.826C215.11 25.826 215.726 24.99 215.924 21.734C215.264 21.558 214.208 21.14 213.724 20.722C213.658 23.164 213.592 23.494 213.218 23.494C213.042 23.494 212.536 23.494 212.404 23.494C212.096 23.494 212.052 23.428 212.052 22.812V17.51H209.544ZM205.87 17.862C205.672 20.722 205.232 22.768 201.932 23.956C202.482 24.418 203.164 25.408 203.428 26.024C207.432 24.396 208.18 21.646 208.444 17.862H205.87ZM206.508 5.91601V8.31401H211.832V5.91601H206.508ZM204.946 7.87401C204.528 9.30401 203.582 11.108 202.438 12.208C203.032 12.538 203.956 13.176 204.484 13.638C205.716 12.362 206.794 10.338 207.52 8.53402L204.946 7.87401ZM209.83 5.91601V7.14801H210.292C211.04 9.32601 212.272 11.636 213.724 13.242C214.23 12.714 215.286 11.944 215.946 11.57C214.538 10.25 213.196 8.02802 212.536 5.91601H209.83ZM196.014 12.076V14.056H202.658V12.076H196.014ZM196.08 6.00401V8.00601H202.592V6.00401H196.08ZM196.014 15.068V17.07H202.658V15.068H196.014ZM194.958 8.97401V11.064H203.384V8.97401H194.958ZM197.158 18.126V20.216H200.436V22.724H197.158V24.814H202.68V18.126H197.158ZM195.97 18.126V25.694H198.192V18.126H195.97Z" fill="#4A3100"/>
</g>
<g clip-path="url(#clip0_179_603)">
<path d="M67.9739 21.9166C67.3592 20.2741 65.9281 19.1922 64.3157 18.9176L60.3392 8.29154C60.1116 7.68332 59.0214 6.24808 57.2822 6.89891C56.7873 7.08412 56.3578 7.43346 56.076 7.9066L51.9352 14.8472C49.8544 18.3313 46.6166 21.0336 42.8171 22.4554L29.4711 27.4498C27.0139 28.3694 25.7677 31.1061 26.6873 33.5633L29.1845 40.2363C30.104 42.6935 32.8407 43.9397 35.2979 43.0202L37.6404 42.1435C37.8164 42.9082 38.0388 43.6697 38.3213 44.4246C39.3558 47.189 40.977 49.5603 42.9838 51.4712C43.6226 52.0793 44.5759 52.2273 45.4017 51.9183L50.5649 49.9861C52.3756 49.3085 52.6866 46.8274 51.05 45.7979C49.3503 44.7286 47.9744 43.1166 47.2179 41.0952C46.9289 40.323 46.7637 39.5385 46.6921 38.7562L48.6439 38.0258C52.4434 36.6039 56.6598 36.5166 60.516 37.779L68.1961 40.2959C68.7083 40.4639 69.2624 40.4527 69.7675 40.2642C71.4997 39.6159 71.3993 37.8483 71.1594 37.2074L67.1829 26.5814C68.2193 25.3147 68.5885 23.5591 67.9739 21.9166ZM64.9795 34.244L61.9945 33.2658C57.1172 31.6677 51.7837 31.7791 46.9791 33.5771L44.4819 26.9041C49.2865 25.1061 53.3828 21.6887 56.0126 17.2812L57.6222 14.5836L64.9795 34.244Z" fill="#7C5302"/>
</g>
<g filter="url(#filter1_d_179_603)">
<g filter="url(#filter2_d_179_603)">
<ellipse rx="3.74633" ry="5.80312" transform="matrix(0.522069 -0.852928 0.877317 0.479955 32.1593 35.6489)" fill="#F4C748"/>
<ellipse rx="3.73354" ry="5.79712" transform="matrix(0.993678 0.201387 -0.231971 0.958197 37.4379 33.9865)" fill="#F4C748"/>
<ellipse rx="3.73387" ry="5.79763" transform="matrix(-0.600062 -0.777602 0.827943 -0.591676 32.6567 41.3687)" fill="#F4C748"/>
<ellipse rx="3.75554" ry="5.79171" transform="matrix(0.901086 -0.480863 0.483123 0.850679 38.7808 43.3112)" fill="#F4C748"/>
<ellipse rx="3.76454" ry="5.78487" transform="matrix(-0.0903386 -0.972458 1.017 -0.109223 42.4635 37.2375)" fill="#F4C748"/>
</g>
<ellipse rx="3.59541" ry="3.59605" transform="matrix(0.52208 -0.852922 0.877323 0.479944 36.5398 38.6491)" fill="white"/>
</g>
<g filter="url(#filter3_d_179_603)">
<ellipse cx="246.17" cy="40.4731" rx="5.41442" ry="8.38704" transform="rotate(-41.1227 246.17 40.4731)" fill="#5FDBE3"/>
<ellipse cx="253.995" cy="40.5999" rx="5.41442" ry="8.38704" transform="rotate(31.3208 253.995 40.5999)" fill="#5FDBE3"/>
<ellipse cx="244.164" cy="48.7471" rx="5.41442" ry="8.38704" transform="rotate(-107.783 244.164 48.7471)" fill="#5FDBE3"/>
<ellipse cx="251.435" cy="54.3368" rx="5.41442" ry="8.38704" transform="rotate(-10.0216 251.435 54.3368)" fill="#5FDBE3"/>
<ellipse cx="259.189" cy="47.5166" rx="5.41442" ry="8.38705" transform="rotate(-76.9242 259.189 47.5166)" fill="#5FDBE3"/>
</g>
<circle cx="250.619" cy="46.736" r="5.20209" transform="rotate(-41.1227 250.619 46.736)" fill="white"/>
<g filter="url(#filter4_d_179_603)">
<ellipse cx="267.315" cy="49.8279" rx="4.74097" ry="7.34386" transform="rotate(-41.1227 267.315 49.8279)" fill="#F4C748"/>
<ellipse cx="274.167" cy="49.9389" rx="4.74097" ry="7.34386" transform="rotate(31.3208 274.167 49.9389)" fill="#F4C748"/>
<ellipse cx="265.559" cy="57.0728" rx="4.74097" ry="7.34386" transform="rotate(-107.783 265.559 57.0728)" fill="#F4C748"/>
<ellipse cx="271.926" cy="61.9673" rx="4.74097" ry="7.34386" transform="rotate(-10.0216 271.926 61.9673)" fill="#F4C748"/>
<ellipse cx="278.715" cy="55.9954" rx="4.74097" ry="7.34386" transform="rotate(-76.9242 278.715 55.9954)" fill="#F4C748"/>
</g>
<circle cx="271.211" cy="55.3119" r="4.55505" transform="rotate(-41.1227 271.211 55.3119)" fill="white"/>
<defs>
<filter id="filter0_d_179_603" x="70.875" y="5.30002" width="146.071" height="25.2" filterUnits="userSpaceOnUse" color-interpolation-filters="sRGB">
<feFlood flood-opacity="0" result="BackgroundImageFix"/>
<feColorMatrix in="SourceAlpha" type="matrix" values="0 0 0 0 0 0 0 0 0 0 0 0 0 0 0 0 0 0 127 0" result="hardAlpha"/>
<feOffset dy="1"/>
<feGaussianBlur stdDeviation="0.5"/>
<feComposite in2="hardAlpha" operator="out"/>
<feColorMatrix type="matrix" values="0 0 0 0 0 0 0 0 0 0 0 0 0 0 0 0 0 0 0.25 0"/>
<feBlend mode="normal" in2="BackgroundImageFix" result="effect1_dropShadow_179_603"/>
<feBlend mode="normal" in="SourceGraphic" in2="effect1_dropShadow_179_603" result="shape"/>
</filter>
<filter id="filter1_d_179_603" x="25.7041" y="28.3804" width="23.6528" height="22.1797" filterUnits="userSpaceOnUse" color-interpolation-filters="sRGB">
<feFlood flood-opacity="0" result="BackgroundImageFix"/>
<feColorMatrix in="SourceAlpha" type="matrix" values="0 0 0 0 0 0 0 0 0 0 0 0 0 0 0 0 0 0 127 0" result="hardAlpha"/>
<feOffset dy="1"/>
<feGaussianBlur stdDeviation="0.5"/>
<feComposite in2="hardAlpha" operator="out"/>
<feColorMatrix type="matrix" values="0 0 0 0 0 0 0 0 0 0 0 0 0 0 0 0 0 0 0.25 0"/>
<feBlend mode="normal" in2="BackgroundImageFix" result="effect1_dropShadow_179_603"/>
<feBlend mode="normal" in="SourceGraphic" in2="effect1_dropShadow_179_603" result="shape"/>
</filter>
<filter id="filter2_d_179_603" x="25.7041" y="27.3804" width="25.6528" height="24.1797" filterUnits="userSpaceOnUse" color-interpolation-filters="sRGB">
<feFlood flood-opacity="0" result="BackgroundImageFix"/>
<feColorMatrix in="SourceAlpha" type="matrix" values="0 0 0 0 0 0 0 0 0 0 0 0 0 0 0 0 0 0 127 0" result="hardAlpha"/>
<feOffset dx="1" dy="1"/>
<feGaussianBlur stdDeviation="1"/>
<feComposite in2="hardAlpha" operator="out"/>
<feColorMatrix type="matrix" values="0 0 0 0 0 0 0 0 0 0 0 0 0 0 0 0 0 0 0.13 0"/>
<feBlend mode="normal" in2="BackgroundImageFix" result="effect1_dropShadow_179_603"/>
<feBlend mode="normal" in="SourceGraphic" in2="effect1_dropShadow_179_603" result="shape"/>
</filter>
<filter id="filter3_d_179_603" x="235.007" y="31.9" width="35.4448" height="33.7502" filterUnits="userSpaceOnUse" color-interpolation-filters="sRGB">
<feFlood flood-opacity="0" result="BackgroundImageFix"/>
<feColorMatrix in="SourceAlpha" type="matrix" values="0 0 0 0 0 0 0 0 0 0 0 0 0 0 0 0 0 0 127 0" result="hardAlpha"/>
<feOffset dx="1" dy="1"/>
<feGaussianBlur stdDeviation="1"/>
<feComposite in2="hardAlpha" operator="out"/>
<feColorMatrix type="matrix" values="0 0 0 0 0 0 0 0 0 0 0 0 0 0 0 0 0 0 0.13 0"/>
<feBlend mode="normal" in2="BackgroundImageFix" result="effect1_dropShadow_179_603"/>
<feBlend mode="normal" in="SourceGraphic" in2="effect1_dropShadow_179_603" result="shape"/>
</filter>
<filter id="filter4_d_179_603" x="257.417" y="42.1967" width="31.5332" height="30.05" filterUnits="userSpaceOnUse" color-interpolation-filters="sRGB">
<feFlood flood-opacity="0" result="BackgroundImageFix"/>
<feColorMatrix in="SourceAlpha" type="matrix" values="0 0 0 0 0 0 0 0 0 0 0 0 0 0 0 0 0 0 127 0" result="hardAlpha"/>
<feOffset dx="1" dy="1"/>
<feGaussianBlur stdDeviation="1"/>
<feComposite in2="hardAlpha" operator="out"/>
<feColorMatrix type="matrix" values="0 0 0 0 0 0 0 0 0 0 0 0 0 0 0 0 0 0 0.13 0"/>
<feBlend mode="normal" in2="BackgroundImageFix" result="effect1_dropShadow_179_603"/>
<feBlend mode="normal" in="SourceGraphic" in2="effect1_dropShadow_179_603" result="shape"/>
</filter>
<clipPath id="clip0_179_603">
<rect width="42.7497" height="42.7497" fill="white" transform="translate(19.9873 15.9732) rotate(-20.517)"/>
</clipPath>
</defs>
</svg>
