<svg width="742" height="293" viewBox="0 0 742 293" fill="none" xmlns="http://www.w3.org/2000/svg">
<path d="M516.446 85.697C470.452 82.8703 419.339 81.9824 365.5 81.9824C164.192 81.9824 1 94.3957 1 174.159C1 253.923 164.192 288 365.5 288C566.808 288 730 253.923 730 174.159C730 124.171 665.904 100.635 568.499 90.0292C542.867 61.4675 487.152 50.1243 459.5 48.0001C506.291 63.589 517.288 77.357 516.446 85.697Z" fill="#EC778F" stroke="#FFC6D1" stroke-opacity="0.38"/>
<g filter="url(#filter0_d_179_530)">
<path d="M273.732 40.4567C273.647 39.5974 273.281 38.9297 272.635 38.4539C271.989 37.978 271.112 37.7401 270.004 37.7401C269.251 37.7401 268.615 37.8466 268.097 38.0597C267.578 38.2657 267.18 38.5533 266.903 38.9226C266.634 39.292 266.499 39.711 266.499 40.1797C266.484 40.5704 266.566 40.9113 266.744 41.2025C266.928 41.4937 267.18 41.7458 267.5 41.9589C267.82 42.1648 268.189 42.3459 268.608 42.5022C269.027 42.6513 269.474 42.7792 269.95 42.8857L271.911 43.3545C272.862 43.5675 273.736 43.8516 274.531 44.2067C275.327 44.5618 276.016 44.9986 276.598 45.5171C277.18 46.0356 277.631 46.6464 277.951 47.3495C278.278 48.0526 278.445 48.8587 278.452 49.7678C278.445 51.103 278.104 52.2607 277.429 53.2408C276.761 54.2138 275.795 54.9702 274.531 55.51C273.274 56.0427 271.758 56.309 269.982 56.309C268.221 56.309 266.687 56.0391 265.38 55.4993C264.08 54.9596 263.065 54.1606 262.333 53.1023C261.609 52.037 261.229 50.7195 261.193 49.1499H265.657C265.707 49.8814 265.916 50.4922 266.286 50.9823C266.662 51.4653 267.163 51.831 267.788 52.0796C268.42 52.3211 269.134 52.4418 269.929 52.4418C270.71 52.4418 271.388 52.3282 271.964 52.1009C272.546 51.8736 272.997 51.5576 273.317 51.1528C273.636 50.7479 273.796 50.2827 273.796 49.7572C273.796 49.2671 273.651 48.8552 273.359 48.5214C273.075 48.1876 272.656 47.9035 272.102 47.6691C271.555 47.4347 270.884 47.2216 270.089 47.0299L267.713 46.4333C265.874 45.9859 264.421 45.2863 263.356 44.3346C262.29 43.3829 261.761 42.1009 261.768 40.4887C261.761 39.1677 262.113 38.0136 262.823 37.0263C263.54 36.0391 264.524 35.2685 265.774 34.7145C267.024 34.1606 268.445 33.8836 270.036 33.8836C271.655 33.8836 273.068 34.1606 274.276 34.7145C275.49 35.2685 276.435 36.0391 277.109 37.0263C277.784 38.0136 278.132 39.157 278.153 40.4567H273.732ZM288.863 56.3197C287.187 56.3197 285.745 55.9645 284.537 55.2543C283.337 54.537 282.414 53.5427 281.768 52.2714C281.128 51.0001 280.809 49.537 280.809 47.8822C280.809 46.206 281.132 44.7359 281.778 43.4716C282.432 42.2003 283.358 41.2096 284.559 40.4993C285.759 39.782 287.187 39.4234 288.841 39.4234C290.269 39.4234 291.519 39.6826 292.591 40.2011C293.664 40.7195 294.513 41.4475 295.138 42.385C295.763 43.3225 296.107 44.4234 296.171 45.6876H291.888C291.768 44.8708 291.448 44.2138 290.93 43.7167C290.418 43.2124 289.747 42.9603 288.916 42.9603C288.213 42.9603 287.599 43.152 287.073 43.5356C286.555 43.912 286.15 44.4624 285.858 45.1868C285.567 45.9113 285.422 46.7884 285.422 47.8182C285.422 48.8623 285.564 49.7501 285.848 50.4816C286.139 51.2131 286.547 51.7707 287.073 52.1542C287.599 52.5377 288.213 52.7295 288.916 52.7295C289.434 52.7295 289.9 52.6229 290.312 52.4099C290.731 52.1968 291.075 51.8878 291.345 51.483C291.622 51.0711 291.803 50.5775 291.888 50.0022H296.171C296.1 51.2522 295.759 52.353 295.148 53.3047C294.545 54.2493 293.71 54.988 292.645 55.5207C291.579 56.0533 290.319 56.3197 288.863 56.3197ZM306.47 56.3197C304.815 56.3197 303.384 55.9681 302.177 55.265C300.977 54.5547 300.05 53.5675 299.396 52.3033C298.743 51.032 298.416 49.5583 298.416 47.8822C298.416 46.1918 298.743 44.7145 299.396 43.4503C300.05 42.179 300.977 41.1918 302.177 40.4887C303.384 39.7785 304.815 39.4234 306.47 39.4234C308.125 39.4234 309.553 39.7785 310.753 40.4887C311.96 41.1918 312.891 42.179 313.544 43.4503C314.197 44.7145 314.524 46.1918 314.524 47.8822C314.524 49.5583 314.197 51.032 313.544 52.3033C312.891 53.5675 311.96 54.5547 310.753 55.265C309.553 55.9681 308.125 56.3197 306.47 56.3197ZM306.491 52.804C307.244 52.804 307.873 52.591 308.377 52.1648C308.881 51.7316 309.261 51.1421 309.517 50.3964C309.78 49.6506 309.911 48.8019 309.911 47.8502C309.911 46.8985 309.78 46.0498 309.517 45.304C309.261 44.5583 308.881 43.9688 308.377 43.5356C307.873 43.1023 307.244 42.8857 306.491 42.8857C305.732 42.8857 305.092 43.1023 304.574 43.5356C304.063 43.9688 303.675 44.5583 303.413 45.304C303.157 46.0498 303.029 46.8985 303.029 47.8502C303.029 48.8019 303.157 49.6506 303.413 50.3964C303.675 51.1421 304.063 51.7316 304.574 52.1648C305.092 52.591 305.732 52.804 306.491 52.804ZM324.869 56.3197C323.214 56.3197 321.783 55.9681 320.575 55.265C319.375 54.5547 318.448 53.5675 317.795 52.3033C317.141 51.032 316.815 49.5583 316.815 47.8822C316.815 46.1918 317.141 44.7145 317.795 43.4503C318.448 42.179 319.375 41.1918 320.575 40.4887C321.783 39.7785 323.214 39.4234 324.869 39.4234C326.523 39.4234 327.951 39.7785 329.151 40.4887C330.359 41.1918 331.289 42.179 331.942 43.4503C332.596 44.7145 332.923 46.1918 332.923 47.8822C332.923 49.5583 332.596 51.032 331.942 52.3033C331.289 53.5675 330.359 54.5547 329.151 55.265C327.951 55.9681 326.523 56.3197 324.869 56.3197ZM324.89 52.804C325.643 52.804 326.271 52.591 326.776 52.1648C327.28 51.7316 327.66 51.1421 327.915 50.3964C328.178 49.6506 328.31 48.8019 328.31 47.8502C328.31 46.8985 328.178 46.0498 327.915 45.304C327.66 44.5583 327.28 43.9688 326.776 43.5356C326.271 43.1023 325.643 42.8857 324.89 42.8857C324.13 42.8857 323.491 43.1023 322.972 43.5356C322.461 43.9688 322.074 44.5583 321.811 45.304C321.555 46.0498 321.428 46.8985 321.428 47.8502C321.428 48.8019 321.555 49.6506 321.811 50.3964C322.074 51.1421 322.461 51.7316 322.972 52.1648C323.491 52.591 324.13 52.804 324.89 52.804ZM335.874 62.1364V39.6364H340.348V42.385H340.55C340.749 41.9447 341.037 41.4972 341.413 41.0427C341.797 40.581 342.294 40.1975 342.905 39.8921C343.523 39.5796 344.29 39.4234 345.206 39.4234C346.399 39.4234 347.5 39.7359 348.509 40.3609C349.517 40.9788 350.323 41.9127 350.927 43.1627C351.531 44.4056 351.832 45.9645 351.832 47.8395C351.832 49.6648 351.538 51.206 350.948 52.4631C350.366 53.7131 349.57 54.6613 348.562 55.3076C347.56 55.9468 346.438 56.2664 345.195 56.2664C344.315 56.2664 343.565 56.1208 342.947 55.8296C342.337 55.5384 341.836 55.1726 341.445 54.7323C341.055 54.2849 340.756 53.8339 340.55 53.3793H340.412V62.1364H335.874ZM340.316 47.8182C340.316 48.7913 340.451 49.64 340.721 50.3644C340.991 51.0888 341.381 51.6535 341.893 52.0583C342.404 52.456 343.026 52.6549 343.757 52.6549C344.496 52.6549 345.121 52.4525 345.632 52.0476C346.143 51.6357 346.531 51.0675 346.793 50.3431C347.063 49.6116 347.198 48.7699 347.198 47.8182C347.198 46.8736 347.067 46.0427 346.804 45.3253C346.541 44.608 346.154 44.0469 345.643 43.6421C345.131 43.2373 344.503 43.0349 343.757 43.0349C343.018 43.0349 342.393 43.2302 341.882 43.6208C341.378 44.0114 340.991 44.5654 340.721 45.2827C340.451 46.0001 340.316 46.8452 340.316 47.8182ZM354.858 56.0001V39.6364H359.396V56.0001H354.858ZM357.138 37.527C356.463 37.527 355.884 37.3033 355.401 36.8559C354.925 36.4013 354.688 35.858 354.688 35.2259C354.688 34.6009 354.925 34.0647 355.401 33.6172C355.884 33.1627 356.463 32.9354 357.138 32.9354C357.813 32.9354 358.388 33.1627 358.864 33.6172C359.347 34.0647 359.588 34.6009 359.588 35.2259C359.588 35.858 359.347 36.4013 358.864 36.8559C358.388 37.3033 357.813 37.527 357.138 37.527ZM369.784 34.1601V37.5201H396.544V34.1601H369.784ZM377.884 44.9601V47.9601H390.934V44.9601H377.884ZM375.214 39.8901V58.6701H378.784V43.0401H390.394V39.8901H375.214ZM389.674 39.8901V54.7401C389.674 55.1601 389.494 55.3101 389.014 55.3101C388.504 55.3101 386.734 55.3401 385.174 55.2501C385.654 56.1801 386.134 57.7101 386.284 58.7001C388.714 58.7001 390.424 58.6701 391.624 58.1301C392.854 57.5601 393.184 56.5701 393.184 54.8001V39.8901H389.674ZM379.084 30.5001C377.584 36.3501 374.224 42.8001 368.884 46.3101C369.604 47.0001 370.744 48.2901 371.254 49.1001C377.104 45.0201 380.704 38.1201 382.804 31.3401L379.084 30.5001ZM377.884 49.9101V52.9101H390.934V49.9101H377.884ZM412.324 46.5801V58.7301H415.714V49.8201H422.554V58.5801H426.154V46.5801H412.324ZM424.054 30.8301C420.874 31.8501 415.774 32.6301 411.214 33.0201C411.634 33.8301 412.114 35.1801 412.234 36.0501C416.974 35.7201 422.494 35.0301 426.574 33.8301L424.054 30.8301ZM417.214 33.6501V48.2001H420.904V33.6501H417.214ZM410.734 39.2301V42.6201H427.384V39.2301H410.734ZM414.604 54.0201V57.2601H424.264V54.0201H414.604ZM400.504 39.9501V42.6501H409.564V39.9501H400.504ZM400.684 31.4601V34.1901H409.564V31.4601H400.684ZM400.504 44.1501V46.8501H409.564V44.1501H400.504ZM399.034 35.6301V38.4501H410.524V35.6301H399.034ZM402.274 48.3801V51.2301H406.624V54.6801H402.274V57.5001H409.714V48.3801H402.274ZM400.414 48.3801V58.7001H403.444V48.3801H400.414ZM445.264 41.8101H451.774V44.9901H445.264V41.8101ZM441.994 38.7201V48.0501H455.254V38.7201H441.994ZM448.924 47.1501V54.3801C448.924 57.4401 449.524 58.4901 452.254 58.4901C452.734 58.4901 453.784 58.4901 454.324 58.4901C456.514 58.4901 457.354 57.3501 457.624 52.9101C456.724 52.6701 455.284 52.1001 454.624 51.5301C454.534 54.8601 454.444 55.3101 453.934 55.3101C453.694 55.3101 453.004 55.3101 452.824 55.3101C452.404 55.3101 452.344 55.2201 452.344 54.3801V47.1501H448.924ZM443.914 47.6301C443.644 51.5301 443.044 54.3201 438.544 55.9401C439.294 56.5701 440.224 57.9201 440.584 58.7601C446.044 56.5401 447.064 52.7901 447.424 47.6301H443.914ZM444.784 31.3401V34.6101H452.044V31.3401H444.784ZM442.654 34.0101C442.084 35.9601 440.794 38.4201 439.234 39.9201C440.044 40.3701 441.304 41.2401 442.024 41.8701C443.704 40.1301 445.174 37.3701 446.164 34.9101L442.654 34.0101ZM449.314 31.3401V33.0201H449.944C450.964 35.9901 452.644 39.1401 454.624 41.3301C455.314 40.6101 456.754 39.5601 457.654 39.0501C455.734 37.2501 453.904 34.2201 453.004 31.3401H449.314ZM430.474 39.7401V42.4401H439.534V39.7401H430.474ZM430.564 31.4601V34.1901H439.444V31.4601H430.564ZM430.474 43.8201V46.5501H439.534V43.8201H430.474ZM429.034 35.5101V38.3601H440.524V35.5101H429.034ZM432.034 47.9901V50.8401H436.504V54.2601H432.034V57.1101H439.564V47.9901H432.034ZM430.414 47.9901V58.3101H433.444V47.9901H430.414Z" fill="#4A3100"/>
</g>
<path d="M85.184 135.328C86.836 136.784 88.74 138.8 89.58 140.144L91.316 138.912C90.392 137.624 88.432 135.636 86.78 134.236L85.184 135.328ZM67.04 141.768V143.784H91.988V141.768H67.04ZM66.62 150L67.236 152.1C70.764 151.316 75.72 150.168 80.312 149.104L80.144 147.2C75.216 148.264 69.952 149.384 66.62 150ZM73.06 136.336V156.524C73.06 157.028 72.892 157.168 72.388 157.168C71.884 157.196 70.232 157.224 68.44 157.14C68.748 157.756 69.112 158.708 69.224 159.268C71.548 159.296 73.032 159.212 73.928 158.876C74.824 158.54 75.16 157.924 75.16 156.552V136.336H73.06ZM78.38 133.816C75.692 134.824 71.156 135.776 67.208 136.392C67.488 136.868 67.74 137.652 67.852 138.128C71.856 137.568 76.616 136.7 79.864 135.58L78.38 133.816ZM81.18 133.732C81.292 147.06 83.784 159.352 89.272 159.352C91.372 159.352 92.128 157.98 92.52 153.332C91.932 153.108 91.176 152.632 90.728 152.156C90.56 155.768 90.224 157.224 89.468 157.224C86.052 157.224 83.308 146.584 83.364 133.732H81.18ZM88.768 145.072C86.276 149.804 81.656 154.116 76.672 156.524C77.204 157 77.792 157.672 78.128 158.204C83.28 155.488 87.9 150.98 90.644 145.856L88.768 145.072ZM103.552 139.332V140.928H109.208V139.332H103.552ZM112.428 139.332V140.928H118.14V139.332H112.428ZM117.468 135.104V156.496C117.468 157.028 117.272 157.196 116.74 157.224C116.18 157.252 114.22 157.252 112.232 157.196C112.512 157.756 112.848 158.68 112.96 159.24C115.62 159.24 117.272 159.212 118.196 158.848C119.148 158.512 119.484 157.868 119.484 156.496V135.104H117.468ZM102.376 135.104V159.184H104.336V135.104H102.376ZM103.664 135.104V136.784H108.256V143.644H103.664V145.324H109.908V135.104H103.664ZM118.476 135.104H111.588V145.324H118.476V143.644H113.324V136.784H118.476V135.104ZM99.996 133.648C98.652 137.96 96.44 142.272 93.976 145.072C94.34 145.604 94.9 146.724 95.096 147.228C97.868 143.952 100.36 139.024 101.956 134.18L99.996 133.648ZM97.756 140.508V159.24H99.744V138.632L99.688 138.576L97.756 140.508ZM136.032 134.628V136.56H145.888V134.628H136.032ZM123.908 147.004V148.684H135.304V147.004H123.908ZM129.228 135.412V139.444H131.104V135.412H129.228ZM129.228 143.728V147.816H131.104V143.728H129.228ZM145.44 134.628V134.992C144.096 140.928 140.12 145.212 135.612 146.948C136.032 147.34 136.592 148.152 136.816 148.656C141.716 146.472 145.86 142.02 147.456 135.02L146.168 134.544L145.804 134.628H145.44ZM138.748 136.7L136.956 137.232C138.776 142.888 142.22 147.256 147.12 149.384C147.428 148.852 147.988 148.124 148.436 147.732C143.76 145.912 140.372 141.824 138.748 136.7ZM124.748 138.604V140.2H133.064V142.944H124.748V144.54H134.94V138.604H124.748ZM123.908 134.544V148.068H125.868V136.224H135.052V134.544H123.908ZM122.788 156.58V158.428H148.212V156.58H122.788ZM125.728 151.372V153.164H145.272V151.372H125.728ZM134.352 149.328V157.756H136.508V149.328H134.352ZM161.064 137.12V139.052H175.036V137.12H161.064ZM159.944 147.648V149.608H176.184V147.648H159.944ZM159.608 142.608V144.54H176.38V142.608H159.608ZM167.028 133.62V143.616H169.016V133.62H167.028ZM170.724 144.12V156.692C170.724 157.084 170.612 157.196 170.164 157.224C169.744 157.252 168.288 157.252 166.72 157.196C166.972 157.784 167.252 158.624 167.336 159.212C169.436 159.212 170.808 159.212 171.62 158.876C172.46 158.568 172.74 157.98 172.74 156.72V144.12H170.724ZM162.016 151.316C163.248 152.828 164.592 154.928 165.096 156.3L166.86 155.208C166.272 153.864 164.872 151.848 163.64 150.364L162.016 151.316ZM150.256 148.376L150.816 150.42C153.196 149.636 156.332 148.628 159.272 147.648L158.992 145.716C155.772 146.752 152.468 147.76 150.256 148.376ZM150.648 139.136V141.096H159.188V139.136H150.648ZM154.26 133.508V156.72C154.26 157.112 154.12 157.224 153.784 157.224C153.448 157.252 152.384 157.252 151.152 157.196C151.432 157.784 151.684 158.652 151.768 159.156C153.532 159.184 154.624 159.1 155.268 158.792C155.968 158.456 156.248 157.868 156.248 156.72V133.508H154.26ZM186.46 136.588V138.548H204.436V136.588H186.46ZM189.232 143.056H201.468V147.256H189.232V143.056ZM187.3 141.264V149.048H203.512V141.264H187.3ZM189.036 149.608L187.3 150.196C190.268 155.32 196.008 158.232 203.428 159.296C203.708 158.708 204.24 157.868 204.688 157.42C197.408 156.608 191.668 154.004 189.036 149.608ZM194.244 133.592V145.968C194.244 150.7 193.768 155.488 185.452 157.588C185.872 158.036 186.46 158.876 186.712 159.352C195.392 156.776 196.316 151.4 196.316 145.996V133.592H194.244ZM185.256 133.424C183.632 137.68 180.888 141.852 178.06 144.512C178.452 145.016 179.04 146.108 179.236 146.584C182.344 143.476 185.34 138.772 187.244 134.04L185.256 133.424ZM182.316 140.76V159.38H184.332V138.8L184.304 138.772L182.316 140.76ZM210.96 135.468V137.484H229.076V135.468H210.96ZM210.96 141.992V143.98H229.048V141.992H210.96ZM210.82 148.684V150.672H229.104V148.684H210.82ZM209.784 135.468V145.604C209.784 149.552 209.476 154.536 206.396 158.008C206.844 158.288 207.684 158.988 208.02 159.408C211.352 155.684 211.856 149.888 211.856 145.632V135.468H209.784ZM228.236 135.468V156.384C228.236 156.916 228.04 157.084 227.508 157.112C226.976 157.112 225.072 157.14 223.084 157.056C223.392 157.616 223.728 158.54 223.812 159.1C226.472 159.128 228.096 159.1 229.048 158.764C229.972 158.4 230.308 157.756 230.308 156.384V135.468H228.236ZM218.576 136.224V158.988H220.704V136.224H218.576ZM240.5 139.248H254.556V141.236H240.5V139.248ZM240.5 135.888H254.556V137.82H240.5V135.888ZM238.456 134.376V142.72H256.628V134.376H238.456ZM235.124 144.288V146.024H259.792V144.288H235.124ZM247.556 147.788V149.496H257.524V147.788H247.556ZM238.764 147.956V149.524H245.68V147.956H238.764ZM238.764 151.484V153.052H245.68V151.484H238.764ZM250.496 149.356L248.788 149.86C250.636 154.452 254.248 157.784 259.176 159.24C259.456 158.736 260.016 157.98 260.464 157.588C255.704 156.412 252.12 153.36 250.496 149.356ZM256.88 147.788V148.124C255.34 152.828 251.028 156.104 246.548 157.448C246.94 157.84 247.472 158.596 247.696 159.1C252.568 157.42 257.076 153.92 258.924 148.236L257.636 147.704L257.272 147.788H256.88ZM234.872 155.768L235.068 157.644C237.952 157.308 241.844 156.832 245.624 156.384V154.648C241.676 155.096 237.616 155.544 234.872 155.768ZM244.56 144.848V159.24H246.576V144.848H244.56ZM237.532 144.876V156.272H239.492V144.876H237.532ZM274.016 134.936V136.896H286.308V134.936H274.016ZM273.064 144.764V146.78H288.464V144.764H273.064ZM279.672 141.04V156.58C279.672 157 279.532 157.14 279.056 157.168C278.552 157.196 276.984 157.196 275.22 157.14C275.5 157.7 275.864 158.624 275.976 159.184C278.216 159.212 279.672 159.156 280.596 158.82C281.464 158.484 281.772 157.868 281.772 156.608V141.04H279.672ZM285.552 134.936V135.412C284.432 137.232 282.108 139.864 280.092 141.376C280.456 141.656 281.044 142.216 281.352 142.608C283.592 140.928 286.196 138.212 287.876 135.832L286.504 134.824L286.056 134.936H285.552ZM262.704 139.276V141.236H271.916V139.276H262.704ZM266.932 133.508C265.98 138.828 264.3 146.332 263.068 150.616L264.832 151.54C266.092 146.892 267.856 139.332 268.92 133.732L266.932 133.508ZM264.104 149.72C267.24 151.54 270.852 154.396 272.532 156.496L273.792 154.788C272.112 152.716 268.416 150.028 265.28 148.264L264.104 149.72ZM271.216 139.276V139.696C270.516 149.216 267.604 155.152 262.928 157.616C263.376 158.036 263.964 158.792 264.244 159.296C269.396 156.216 272.448 150.28 273.204 139.444L271.944 139.192L271.552 139.276H271.216ZM293.168 137.988V139.864H299.72V154.396H293.168V156.3H301.68V137.988H293.168ZM291.908 137.988V158.54H293.868V137.988H291.908ZM293.028 145.772V147.648H300.756V145.772H293.028ZM296.192 133.424C295.968 134.88 295.436 137.008 294.96 138.352L296.64 138.772C297.2 137.512 297.9 135.58 298.46 133.844L296.192 133.424ZM305.656 137.904V139.864H314.252V137.904H305.656ZM313.524 137.904V138.352C313.132 150.7 312.684 155.348 311.76 156.356C311.452 156.72 311.116 156.804 310.556 156.804C309.912 156.804 308.232 156.776 306.412 156.636C306.804 157.196 307.056 158.064 307.112 158.68C308.68 158.764 310.332 158.82 311.284 158.708C312.264 158.624 312.908 158.372 313.524 157.56C314.644 156.188 315.036 151.848 315.484 138.996C315.484 138.688 315.484 137.904 315.484 137.904H313.524ZM306.244 133.368C305.348 137.26 303.808 141.124 301.904 143.588C302.408 143.868 303.276 144.456 303.64 144.792C305.572 142.132 307.224 138.016 308.26 133.844L306.244 133.368ZM304.956 145.184C306.496 147.228 308.372 150 309.212 151.708L311.004 150.588C310.108 148.936 308.176 146.22 306.58 144.232L304.956 145.184ZM321.896 159.996C324.836 158.988 326.74 156.692 326.74 153.668C326.74 151.708 325.9 150.42 324.332 150.42C323.212 150.42 322.204 151.12 322.204 152.436C322.204 153.78 323.156 154.452 324.304 154.452C324.836 154.452 325.396 154.312 325.788 153.808L324.276 151.68L324.808 154.06C324.808 156.16 323.548 157.588 321.252 158.54L321.896 159.996ZM355.972 135.44V137.064H372.072V135.44H355.972ZM356.504 144.456V145.884H371.708V144.456H356.504ZM356.98 147.34V148.74H371.204V147.34H356.98ZM355.636 150.308V151.876H372.24V150.308H355.636ZM362.832 133.48V136.252H364.96V133.48H362.832ZM359.92 142.916V151.008H361.824V142.916H359.92ZM366.052 142.916V151.008H367.956V142.916H366.052ZM362.636 150.7C361.096 152.268 357.988 153.472 355.188 154.228C355.524 154.536 356.056 155.264 356.252 155.628C359.136 154.676 362.468 153.164 364.232 151.204L362.636 150.7ZM365.408 150.98L363.812 151.344C365.072 155.18 367.676 158.036 371.456 159.296C371.708 158.82 372.24 158.148 372.66 157.784C369.076 156.804 366.528 154.228 365.408 150.98ZM370.672 152.324C369.636 153.052 367.816 154.116 366.556 154.704L367.564 155.74C368.852 155.18 370.56 154.34 371.82 153.416L370.672 152.324ZM358.66 139.5H361.628V141.656H358.66V139.5ZM357.064 138.184V142.944H363.308V138.184H357.064ZM366.416 139.5H369.468V141.656H366.416V139.5ZM364.792 138.184V142.944H371.148V138.184H364.792ZM347.712 141.964V143.644H354.908V141.964H347.712ZM347.88 134.488V136.168H354.824V134.488H347.88ZM347.712 145.716V147.396H354.908V145.716H347.712ZM346.564 138.156V139.892H355.608V138.156H346.564ZM348.692 149.496V151.232H353.116V155.908H348.692V157.644H354.88V149.496H348.692ZM347.656 149.496V158.96H349.392V149.496H347.656ZM356.84 157.336L357.372 159.044C359.836 158.596 363 158.036 366.08 157.448L365.968 155.88C362.608 156.44 359.192 157 356.84 157.336ZM359.444 153.444V157.644H361.264V152.744L360.452 152.436L359.444 153.444ZM375.208 135.048V136.98H387.276V135.048H375.208ZM389.264 143.028V145.044H400.52V143.028H389.264ZM395.34 144.344V159.268H397.412V144.344H395.34ZM388.452 136.252V143.728C388.452 148.012 388.06 153.64 384.168 157.784C384.672 158.036 385.428 158.736 385.736 159.184C389.936 154.676 390.524 148.264 390.524 143.728V137.316C390.916 137.26 391.056 137.148 391.084 136.952L388.452 136.252ZM376.244 139.892V147.452C376.244 150.672 376.048 154.984 374.088 158.008C374.536 158.26 375.404 158.904 375.74 159.296C377.896 155.992 378.232 151.036 378.232 147.452V139.892H376.244ZM398.112 133.816C396.012 135.02 392.232 136.224 388.9 137.008C389.18 137.484 389.516 138.24 389.628 138.716C393.128 137.904 397.188 136.756 399.96 135.412L398.112 133.816ZM377.392 139.892V141.824H384.532V146.724H377.392V148.628H386.576V139.892H377.392ZM403.264 137.12V139.108H427.792V137.12H403.264ZM410.096 147.116V148.936H423.256V147.116H410.096ZM408.612 142.356V159.24H410.684V144.232H422.92V142.356H408.612ZM422.444 142.356V156.608C422.444 157.028 422.276 157.168 421.8 157.196C421.296 157.196 419.588 157.224 417.712 157.14C418.02 157.728 418.328 158.596 418.412 159.184C420.82 159.184 422.388 159.184 423.284 158.848C424.236 158.512 424.488 157.868 424.488 156.636V142.356H422.444ZM412.42 133.48C410.908 139.108 407.604 145.044 402.592 148.488C403.012 148.908 403.656 149.636 403.936 150.112C409.284 146.36 412.644 140.144 414.548 133.984L412.42 133.48ZM410.096 151.848V153.668H423.256V151.848H410.096ZM442.044 134.348C441.848 138.072 441.848 151.54 430.424 157.364C431.068 157.84 431.768 158.484 432.132 159.016C443.724 152.716 444.144 138.744 444.368 134.348H442.044ZM444.284 134.908L442.268 135.104C442.464 137.68 443.248 153.332 455.12 159.016C455.456 158.428 456.1 157.728 456.716 157.252C445.18 151.96 444.368 137.092 444.284 134.908ZM459.964 136.756V138.604H469.764V136.756H459.964ZM462.932 155.684V157.476H470.772V155.684H462.932ZM462.904 151.036V152.716H470.8V151.036H462.904ZM458.704 141.964V143.84H473.18V141.964H458.704ZM464.304 133.732V143.168H466.264V133.732H464.304ZM471.724 134.46C468.952 140.956 464.164 146.052 458.088 149.076C458.48 149.496 459.152 150.336 459.404 150.784C465.564 147.396 470.548 142.02 473.628 135.02L471.724 134.46ZM463.576 146.556H462.82L461.644 147.788V159.128H463.576V148.32H470.716V146.556H463.576ZM469.876 146.556V158.736H471.92V146.556H469.876ZM474.356 135.104V159.24H476.456V137.064H482.728V135.104H474.356ZM482.196 135.104V135.748C481.3 138.016 479.732 141.824 478.22 144.736C481.188 147.172 482.084 149.3 482.084 151.064C482.084 152.1 481.888 152.912 481.216 153.276C480.88 153.472 480.404 153.584 479.9 153.612C479.284 153.668 478.444 153.64 477.548 153.556C477.884 154.116 478.136 155.04 478.164 155.6C479.032 155.656 480.04 155.656 480.796 155.572C481.524 155.488 482.168 155.292 482.672 154.956C483.708 154.284 484.128 152.996 484.1 151.26C484.1 149.244 483.344 147.032 480.404 144.428C481.776 141.852 483.288 138.604 484.464 135.972L482.952 134.992L482.616 135.104H482.196ZM491.296 133.48C490.624 135.524 489.308 138.464 488.244 140.256L490.036 140.788C491.156 139.024 492.472 136.308 493.48 133.984L491.296 133.48ZM486.592 139.416L486.788 141.46C489.84 141.292 494.18 141.068 498.352 140.816L498.38 138.94C493.984 139.136 489.532 139.332 486.592 139.416ZM488.3 143.476V159.212H490.26V145.268H497.176V143.476H488.3ZM496.224 143.476V156.804C496.224 157.168 496.112 157.252 495.748 157.252C495.356 157.28 494.152 157.308 492.836 157.252C493.116 157.784 493.424 158.624 493.536 159.184C495.3 159.184 496.532 159.156 497.316 158.82C498.072 158.484 498.296 157.896 498.296 156.832V143.476H496.224ZM489.224 147.648V149.3H497.316V147.648H489.224ZM489.224 151.848V153.528H497.316V151.848H489.224ZM500.928 133.536V142.832C500.928 145.156 501.628 145.8 504.316 145.8C504.876 145.8 508.544 145.8 509.132 145.8C511.4 145.8 512.016 144.876 512.268 141.46C511.652 141.32 510.812 141.012 510.364 140.648C510.252 143.42 510.056 143.896 508.964 143.896C508.152 143.896 505.1 143.896 504.512 143.896C503.224 143.896 503 143.7 503 142.804V133.536H500.928ZM509.496 135.608C507.592 136.588 504.4 137.82 501.628 138.688C501.88 139.108 502.16 139.724 502.272 140.172C505.156 139.36 508.516 138.268 510.896 137.148L509.496 135.608ZM500.928 146.556V156.048C500.928 158.372 501.656 159.016 504.372 159.016C504.96 159.016 508.74 159.016 509.356 159.016C511.708 159.016 512.324 158.008 512.604 154.228C512.016 154.116 511.176 153.78 510.7 153.444C510.56 156.608 510.392 157.14 509.188 157.14C508.348 157.14 505.184 157.14 504.596 157.14C503.252 157.14 503 156.972 503 156.02V146.556H500.928ZM509.832 148.096C507.928 149.328 504.54 150.616 501.628 151.456C501.852 151.876 502.16 152.548 502.272 152.968C505.296 152.156 508.88 151.008 511.232 149.664L509.832 148.096ZM494.796 136.14C496.28 138.128 497.792 140.816 498.38 142.524L500.228 141.712C499.584 139.976 498.016 137.4 496.532 135.44L494.796 136.14ZM516.692 136.056V138.072H521.116V150.336H516.692V152.352H523.048V136.056H516.692ZM515.628 136.056V154.564H517.56V136.056H515.628ZM527.192 137.792V139.78H539.96V137.792H527.192ZM526.576 143.588V145.548H536.628V143.588H526.576ZM528.368 133.48C527.388 137.092 525.652 140.592 523.496 142.832C524 143.14 524.84 143.84 525.232 144.204C527.388 141.74 529.292 137.96 530.468 133.956L528.368 133.48ZM536.32 143.588C525.288 152.688 524.812 154.48 524.812 155.964C524.812 157.756 526.156 158.82 529.152 158.82H536.88C539.4 158.82 540.268 158.036 540.548 153.248C539.932 153.136 539.176 152.856 538.616 152.548C538.504 156.244 538.196 156.748 536.992 156.748H529.068C527.808 156.748 526.996 156.44 526.996 155.684C526.996 154.76 527.724 153.304 538.252 144.708C538.392 144.568 538.504 144.428 538.588 144.288L537.16 143.504L536.656 143.588H536.32ZM554.968 139.724H564.236V142.02H554.968V139.724ZM554.968 135.944H564.236V138.212H554.968V135.944ZM552.952 134.348V143.616H566.336V134.348H552.952ZM551.216 145.548V147.312H567.68V145.548H551.216ZM550.572 149.72V151.568H568.184V149.72H550.572ZM561.884 147.088V156.888C561.884 157.252 561.772 157.364 561.324 157.392C560.904 157.42 559.504 157.42 557.908 157.364C558.188 157.924 558.524 158.708 558.608 159.268C560.708 159.268 562.052 159.268 562.892 158.932C563.732 158.624 563.984 158.064 563.984 156.944V147.088H561.884ZM553.008 152.996C554.268 154.228 555.78 155.964 556.452 157.084L558.048 155.908C557.32 154.816 555.78 153.164 554.492 151.988L553.008 152.996ZM549.032 139.724C547.352 142.636 544.636 145.52 542.088 147.368C542.452 147.844 543.04 148.964 543.208 149.384C545.98 147.2 548.976 143.812 550.88 140.48L549.032 139.724ZM548.5 133.564C547.296 135.552 544.776 137.876 542.536 139.332C542.9 139.752 543.432 140.564 543.656 141.04C546.148 139.388 548.836 136.756 550.516 134.348L548.5 133.564ZM546.512 144.68V159.24H548.556V142.748L548.472 142.692L546.512 144.68ZM582.324 133.48V137.988H584.536V133.48H582.324ZM571.88 136.448V142.496H574.008V138.436H593.048V142.496H595.26V136.448H571.88ZM581.204 139.696C579.3 143.812 576.276 149.524 574.232 152.884L576.388 153.472C578.376 150.084 581.316 144.428 583.388 140.172L581.204 139.696ZM588.624 145.492C586.804 153.276 581.232 156.216 571.74 157.392C572.132 157.868 572.776 158.792 573 159.296C582.66 157.756 588.652 154.508 590.948 145.828L588.624 145.492ZM571.068 144.232V146.22H595.932V144.232H571.068ZM575.856 151.904C581.876 153.64 589.296 156.804 593.02 159.296L594.588 157.56C590.668 155.068 583.164 152.044 577.284 150.42L575.856 151.904ZM606.012 141.32V155.376C606.012 158.12 606.88 158.876 609.848 158.876C610.492 158.876 614.664 158.876 615.336 158.876C618.388 158.876 619.032 157.308 619.34 152.016C618.724 151.876 617.856 151.484 617.352 151.064C617.128 155.908 616.876 156.944 615.224 156.944C614.272 156.944 610.744 156.944 610.044 156.944C608.504 156.944 608.168 156.692 608.168 155.376V141.32H606.012ZM606.236 135.216C609.624 136.42 613.712 138.52 615.868 140.144L617.212 138.296C615 136.784 610.94 134.768 607.552 133.62L606.236 135.216ZM601.336 143.56C600.944 147.2 600.02 151.288 598.144 153.752L600.048 154.9C602.064 152.212 602.932 147.732 603.352 143.98L601.336 143.56ZM617.66 143.588C620.04 146.752 622.14 151.12 622.756 154.06L624.856 153.052C624.156 150.084 622.056 145.856 619.536 142.664L617.66 143.588ZM643.924 133.704V155.936H645.884V133.704H643.924ZM637.932 139.696V141.32H652.604V139.696H637.932ZM638.548 151.12V152.744H652.072V151.12H638.548ZM639.388 147.284V148.908H651.288V147.284H639.388ZM633.032 135.804V137.568H637.092V135.804H633.032ZM634.096 143.672V145.296H637.68V143.672H634.096ZM636.644 135.804V136.056C635.72 138.352 633.788 142.944 632.248 146.192L634.012 146.612C635.524 143.336 637.428 138.996 638.576 136.084L637.232 135.72L636.896 135.804H636.644ZM637.12 143.672V144.008C636.56 150.672 634.628 155.404 631.604 157.616C632.024 158.008 632.556 158.708 632.808 159.156C636.28 156.44 638.268 151.596 638.94 143.84L637.82 143.616L637.484 143.672H637.12ZM634.208 147.564L632.584 148.068C634.432 156.748 638.128 158.736 644.82 158.736H651.96C652.072 158.176 652.38 157.28 652.688 156.804C651.484 156.832 645.8 156.832 644.904 156.832C639.192 156.832 635.72 155.152 634.208 147.564ZM639.836 135.944V137.568H649.104V143.504H639.836V145.156H650.924V135.944H639.836ZM631.576 133.648C630.372 137.764 628.356 141.796 626.06 144.456C626.396 144.988 626.928 146.136 627.124 146.612C629.7 143.504 632.024 138.8 633.48 134.18L631.576 133.648ZM629.588 140.732V159.184H631.464V138.912L631.436 138.884L629.588 140.732ZM659.492 143.756V145.352H680.38V143.756H659.492ZM661.48 140.144V141.684H675.62V147.536H661.256V149.076H677.608V140.144H661.48ZM668.032 138.156V156.832C668.032 157.308 667.892 157.448 667.388 157.448C666.912 157.476 665.204 157.504 663.468 157.448C663.776 157.98 664.056 158.792 664.168 159.296C666.464 159.296 667.976 159.268 668.872 158.96C669.74 158.68 670.076 158.148 670.076 156.832V138.156H668.032ZM660.192 150.588C661.648 151.456 663.44 152.744 664.308 153.612L665.596 152.324C664.644 151.484 662.852 150.252 661.396 149.44L660.192 150.588ZM677.272 149.58C675.956 150.7 673.688 152.24 672.036 153.136L673.24 154.2C674.948 153.388 677.132 152.072 678.812 150.812L677.272 149.58ZM670.524 148.516L668.9 148.908C670.552 153.78 673.828 157.364 678.532 158.96C678.812 158.428 679.372 157.672 679.82 157.28C675.256 155.964 672.008 152.744 670.524 148.516ZM658.708 156.44L659.716 158.148C661.732 157.336 664.252 156.3 666.66 155.264L666.296 153.724C663.496 154.76 660.612 155.824 658.708 156.44ZM667.22 133.508V137.064H669.376V133.508H667.22ZM657.812 136.084V137.932H680.044V136.084H657.812ZM656.804 136.084V144.344C656.804 148.46 656.608 154.172 654.368 158.232C654.844 158.428 655.712 158.988 656.076 159.352C658.428 155.096 658.792 148.74 658.792 144.344V136.084H656.804ZM686.932 150.196C684.58 150.196 682.648 152.1 682.648 154.452C682.648 156.804 684.58 158.708 686.932 158.708C689.284 158.708 691.188 156.804 691.188 154.452C691.188 152.1 689.284 150.196 686.932 150.196ZM686.932 157.28C685.364 157.28 684.076 156.02 684.076 154.452C684.076 152.884 685.364 151.624 686.932 151.624C688.5 151.624 689.76 152.884 689.76 154.452C689.76 156.02 688.5 157.28 686.932 157.28ZM61.692 177.904C63.484 179.976 65.304 182.86 66.032 184.792L68.048 183.7C67.236 181.796 65.444 179.024 63.568 176.98L61.692 177.904ZM52.48 194.032L53.236 196.216C56.344 194.872 60.6 192.996 64.492 191.204L64.016 189.16C59.816 191.008 55.336 192.912 52.48 194.032ZM69.28 190.336C71.968 193.08 75.328 196.86 76.896 199.184L78.688 197.532C77.036 195.236 73.564 191.596 70.904 188.964L69.28 190.336ZM73.172 174.936C71.912 187.116 68.944 193.976 59.256 197.504C59.788 197.952 60.628 198.876 60.936 199.324C70.736 195.236 74.012 188.096 75.44 175.16L73.172 174.936ZM55.896 175.02L56.372 193.528L58.528 193.444L58.052 174.936L55.896 175.02ZM92.492 190.028V197.7H94.536V190.028H92.492ZM88.264 183.252H98.848V185.912H88.264V183.252ZM86.304 181.656V187.536H100.948V181.656H86.304ZM83.728 189.16V199.324H85.744V190.784H101.62V199.24H103.72V189.16H83.728ZM84.904 193.024V194.564H102.376V193.024H84.904ZM84.904 196.888V198.512H102.376V196.888H84.904ZM92.352 173.48V178.744H94.48V173.48H92.352ZM81.796 177.792V183.588H83.812V179.64H103.356V183.588H105.456V177.792H81.796ZM84.12 174.6C85.016 175.692 86.024 177.232 86.472 178.212L88.432 177.316C87.928 176.336 86.92 174.908 85.968 173.844L84.12 174.6ZM100.92 173.732C100.36 174.852 99.268 176.448 98.428 177.484L100.164 178.128C101.032 177.204 102.124 175.804 103.076 174.46L100.92 173.732ZM109.124 191.624V193.444H133.904V191.624H109.124ZM113.828 186.584V188.292H127.296V186.584H113.828ZM120.436 189.916V196.888C120.436 197.28 120.324 197.42 119.82 197.42C119.26 197.476 117.468 197.476 115.424 197.392C115.732 197.952 116.068 198.708 116.208 199.268C118.644 199.268 120.268 199.268 121.248 198.96C122.228 198.68 122.508 198.148 122.508 196.944V189.916H120.436ZM126.596 186.584V186.976C125.42 188.04 123.04 189.384 120.94 190.14C121.248 190.42 121.78 190.98 122.032 191.344C124.412 190.448 127.072 189.02 128.864 187.536L127.548 186.472L127.128 186.584H126.596ZM109.152 179.36V181.152H133.876V179.36H109.152ZM120.38 175.608V185.828H122.452V175.608H120.38ZM119.316 179.948C116.936 182.776 112.344 185.464 108.34 186.696C108.76 187.116 109.376 187.844 109.684 188.32C113.688 186.864 118.364 183.952 120.968 180.704L119.316 179.948ZM123.684 180.004L122.032 180.76C124.58 183.868 129.116 186.696 133.064 188.096C133.4 187.592 133.988 186.808 134.436 186.416C130.488 185.24 126.008 182.72 123.684 180.004ZM129.256 173.62C125.168 174.572 117.356 175.188 110.944 175.384C111.14 175.832 111.392 176.616 111.448 177.092C118.028 176.896 126.008 176.308 130.992 175.132L129.256 173.62ZM151.936 182.944V184.904H162.352V182.944H151.936ZM137.208 176.42V178.212H149.556V176.42H137.208ZM136.9 187.536V189.356H149.696V187.536H136.9ZM136.816 182.832V184.624H149.892V182.832H136.816ZM157.144 183.728V199.1H159.188V183.728H157.144ZM142.388 173.592V177.344H144.432V173.592H142.388ZM142.388 184.288V199.212H144.432V184.288H142.388ZM150.928 175.776V185.576C150.928 189.552 150.536 194.396 146.952 197.924C147.456 198.204 148.212 198.904 148.464 199.38C152.412 195.488 152.916 189.804 152.916 185.604V176.952C153.308 176.896 153.476 176.784 153.504 176.56L150.928 175.776ZM160.308 173.816C158.264 174.824 154.568 175.804 151.432 176.476C151.684 176.896 151.964 177.624 152.076 178.072C155.436 177.484 159.356 176.532 161.988 175.356L160.308 173.816ZM144.236 189.888L143.088 190.84C144.124 191.708 146.756 194.172 147.652 195.208L148.884 193.64C148.184 192.996 145.132 190.504 144.236 189.888ZM138.888 178.716C139.448 180.004 139.896 181.684 139.98 182.776L141.744 182.3C141.604 181.236 141.128 179.584 140.54 178.352L138.888 178.716ZM146.056 178.296C145.748 179.472 145.16 181.208 144.656 182.328L146.336 182.72C146.84 181.684 147.428 180.116 147.96 178.716L146.056 178.296ZM142.416 188.46C141.072 191.204 138.524 194.228 136.256 195.712C136.732 196.048 137.348 196.72 137.684 197.196C139.924 195.46 142.5 192.156 143.928 189.048L142.416 188.46ZM177.472 178.968V180.816H189.792V178.968H177.472ZM178.06 184.456V186.304H189.288V184.456H178.06ZM177.136 190.196V192.072H190.436V190.196H177.136ZM182.512 179.724V199.212H184.556V179.724H182.512ZM178.228 174.152C179.096 175.72 179.908 177.82 180.216 179.192L182.036 178.464C181.7 177.12 180.86 175.076 179.964 173.536L178.228 174.152ZM186.908 173.48C186.432 174.992 185.508 177.176 184.752 178.548L186.488 179.052C187.272 177.792 188.196 175.776 189.008 174.04L186.908 173.48ZM168.624 176.028V177.68H173.692V176.028H168.624ZM170.668 181.488V190.784H172.236V181.488H170.668ZM173.048 176.028V176.364C172.6 177.764 171.704 179.668 170.892 180.872C171.228 181.124 171.788 181.656 172.068 182.02C173.076 180.676 174.28 178.576 175.092 176.728L173.86 175.916L173.496 176.028H173.048ZM174.532 192.66C175.428 194.256 176.38 196.412 176.744 197.812L178.2 197.224C177.808 195.88 176.856 193.752 175.904 192.128L174.532 192.66ZM171.788 192.912C172.404 194.48 172.908 196.524 173.02 197.868L174.504 197.532C174.364 196.188 173.804 194.144 173.16 192.604L171.788 192.912ZM169.156 192.884C169.436 194.564 169.548 196.692 169.492 198.092L171.032 197.896C171.088 196.496 170.948 194.368 170.584 192.688L169.156 192.884ZM168.092 186.78H174.868V189.664H168.092V186.78ZM168.092 182.3H174.868V185.128H168.092V182.3ZM166.328 180.564V191.428H176.716V180.564H166.328ZM166.58 192.688C166.356 194.9 165.796 197.14 164.508 198.428L165.908 199.268C167.336 197.84 167.84 195.404 168.12 193.052L166.58 192.688ZM168.708 173.48C168.036 176.14 166.692 179.584 164.508 182.188C164.956 182.44 165.628 183.028 165.992 183.448C168.344 180.508 169.8 176.84 170.668 173.732L168.708 173.48ZM205.388 175.328C208.104 178.492 213.06 181.824 217.26 183.7C217.624 183.112 218.128 182.356 218.604 181.852C214.236 180.2 209.364 176.98 206.312 173.452H204.212C201.944 176.588 197.24 180.116 192.48 182.16C192.928 182.636 193.46 183.392 193.712 183.868C198.36 181.712 202.98 178.296 205.388 175.328ZM198.752 185.268V186.892H212.164V185.268H198.752ZM204.324 178.408V182.216H206.48V178.408H204.324ZM194.328 197.028L194.608 199.016C197.828 198.708 202.448 198.26 206.844 197.812L206.816 195.908C202.196 196.356 197.436 196.776 194.328 197.028ZM205.612 190.28L203.82 190.84C206.172 195.46 210.736 198.176 216.896 199.268C217.176 198.708 217.736 197.868 218.184 197.42C212.22 196.58 207.684 194.228 205.612 190.28ZM215.076 189.832C213.256 191.232 210.176 193.108 207.908 194.2L209.252 195.348C211.548 194.256 214.432 192.632 216.644 191.064L215.076 189.832ZM198.752 181.208V182.916H211.408V189.384H198.752V191.092H213.508V181.208H198.752ZM197.492 181.208V197.504L199.564 197.28V181.208H197.492ZM232.828 179.528V181.544H246.324V179.528H232.828ZM241.228 173.536V196.412C241.228 196.916 241.06 197.056 240.528 197.084C240.024 197.084 238.204 197.112 236.384 197.056C236.664 197.672 237 198.624 237.14 199.212C239.52 199.212 241.172 199.184 242.124 198.82C243.048 198.484 243.412 197.84 243.412 196.384V173.536H241.228ZM241.004 180.452C239.044 185.184 235.012 190.476 231.204 193.08C231.736 193.5 232.38 194.228 232.716 194.788C236.58 191.848 240.612 186.388 242.684 181.46L241.004 180.452ZM221.18 179.5V181.516H231.792V179.5H221.18ZM225.856 173.48V199.212H227.956V173.48H225.856ZM225.744 180.732C224.764 184.848 222.468 189.608 220.2 192.128C220.592 192.632 221.152 193.5 221.376 194.116C223.784 191.288 226.08 185.828 227.228 181.264L225.744 180.732ZM227.76 182.104L226.668 183.168C227.676 184.344 230.28 187.844 231.176 189.328L232.52 187.508C231.82 186.612 228.656 182.916 227.76 182.104ZM253.38 188.404V190.252H272.448V188.404H253.38ZM249.768 178.296V180.228H268.08V178.296H249.768ZM257.664 183.336V185.212H270.488V183.336H257.664ZM271.552 188.404V188.74C271.104 194.312 270.572 196.524 269.928 197.168C269.676 197.392 269.396 197.448 268.864 197.448C268.332 197.448 266.988 197.448 265.588 197.28C265.924 197.84 266.148 198.652 266.176 199.24C267.632 199.296 269.032 199.324 269.732 199.268C270.572 199.212 271.104 199.016 271.636 198.484C272.532 197.56 273.064 195.236 273.568 189.328C273.624 189.02 273.652 188.404 273.652 188.404H271.552ZM265.336 191.764C266.176 192.94 267.044 194.564 267.408 195.572L268.948 194.928C268.584 193.92 267.716 192.352 266.82 191.204L265.336 191.764ZM253.24 174.32C254.332 175.496 255.508 177.148 255.984 178.24L257.944 177.344C257.384 176.28 256.152 174.684 255.06 173.564L253.24 174.32ZM257.048 192.464C257.524 194.284 257.832 196.58 257.776 198.092L259.624 197.84C259.624 196.328 259.316 194.004 258.756 192.24L257.048 192.464ZM261.164 192.212C261.864 193.752 262.536 195.796 262.732 197.14L264.468 196.664C264.244 195.348 263.544 193.36 262.816 191.82L261.164 192.212ZM253.464 191.82C252.904 193.976 251.84 196.468 250.272 197.952L251.896 199.1C253.604 197.392 254.584 194.732 255.228 192.408L253.464 191.82ZM261.724 173.48C259.596 180.732 255.284 187.9 248.34 191.848C248.704 192.296 249.236 193.136 249.488 193.64C256.908 189.244 261.304 181.852 263.852 174.012L261.724 173.48ZM267.604 178.296C267.296 180.088 266.82 182.328 266.428 183.812L268.276 184.064C268.696 182.552 269.2 180.228 269.592 178.296H267.604ZM269.704 183.336C269.424 185.128 268.948 187.396 268.528 188.908L270.432 189.132C270.824 187.62 271.3 185.268 271.692 183.336H269.704ZM278.356 179.08V181.152H300.616V179.08H278.356ZM279.644 187.312V189.356H299.44V187.312H279.644ZM277.068 196.244V198.316H302.016V196.244H277.068ZM288.352 180.732V197.308H290.62V180.732H288.352ZM285.944 174.768C287.792 176.14 290.004 178.128 291.012 179.444L292.832 178.128C291.74 176.784 289.472 174.88 287.652 173.592L285.944 174.768ZM307.896 199.996C310.836 198.988 312.74 196.692 312.74 193.668C312.74 191.708 311.9 190.42 310.332 190.42C309.212 190.42 308.204 191.12 308.204 192.436C308.204 193.78 309.156 194.452 310.304 194.452C310.836 194.452 311.396 194.312 311.788 193.808L310.276 191.68L310.808 194.06C310.808 196.16 309.548 197.588 307.252 198.54L307.896 199.996ZM349.812 175.244V177.12H354.992V175.244H349.812ZM343.344 176.616V178.408H349.252V176.616H343.344ZM350.092 180.424V182.188H354.936V180.424H350.092ZM350.036 185.66V187.424H354.796V185.66H350.036ZM336.232 180.424V182.188H340.992V180.424H336.232ZM336.344 185.632V187.424H341.02V185.632H336.344ZM335.112 175.44L335.672 191.708H337.576L337.072 176.532C337.408 176.476 337.548 176.364 337.604 176.196L335.112 175.44ZM353.844 175.244C353.872 180.396 353.648 187.536 353.34 191.652H355.328C355.608 187.62 355.776 180.508 355.804 175.244H353.844ZM340.264 173.76C339.144 174.516 337.268 175.524 335.644 176.28C335.868 176.7 336.204 177.372 336.316 177.736C338.108 177.064 340.208 176.168 341.916 175.272L340.264 173.76ZM342.42 184.26V191.54H344.156V184.26H342.42ZM342.448 173.732V183.028H347.908V181.32H344.268V173.732H342.448ZM346.872 181.32V191.512H348.692V181.32H346.872ZM332.732 190.812V192.772H358.296V190.812H332.732ZM348.104 194.564C351.1 196.048 354.292 197.952 356.168 199.324L358.128 197.896C356.084 196.496 352.696 194.62 349.588 193.164L348.104 194.564ZM340.768 193.22C339.032 194.76 335.672 196.692 332.956 197.812C333.46 198.204 334.188 198.876 334.552 199.296C337.212 198.12 340.516 196.216 342.728 194.48L340.768 193.22ZM372.464 173.9V196.328C372.464 196.888 372.268 197.084 371.68 197.084C371.12 197.112 369.104 197.14 367.032 197.056C367.396 197.672 367.788 198.652 367.9 199.268C370.56 199.268 372.296 199.212 373.304 198.848C374.312 198.512 374.732 197.896 374.732 196.328V173.9H372.464ZM379.24 181.04C381.62 185.044 383.888 190.308 384.56 193.612L386.8 192.716C386.072 189.328 383.692 184.204 381.256 180.256L379.24 181.04ZM365.128 180.452C364.428 184.232 362.888 189.076 360.396 192.044C360.956 192.268 361.88 192.772 362.384 193.164C364.932 190.028 366.556 184.96 367.48 180.844L365.128 180.452ZM393.548 180.06H409.76V181.908H393.548V180.06ZM393.548 176.868H409.76V178.688H393.548V176.868ZM391.616 175.44V183.364H411.804V175.44H391.616ZM397.44 173.48V182.832H399.484V173.48H397.44ZM403.6 173.48V182.832H405.672V173.48H403.6ZM392.4 184.708V186.304H413.344V184.708H392.4ZM391.336 184.708V188.292C391.336 191.176 391 195.264 388.62 198.232C389.124 198.456 390.02 198.988 390.412 199.324C392.848 196.16 393.352 191.54 393.352 188.348V184.708H391.336ZM394.92 187.788V189.244H410.908V187.788H394.92ZM392.176 190.756V192.352H413.988V190.756H392.176ZM395.816 191.204V197.812L397.86 197.616V191.204H395.816ZM393.352 197.084L393.604 198.904C396.376 198.54 400.212 198.036 403.908 197.532L403.852 195.824C399.96 196.328 395.984 196.804 393.352 197.084ZM410.936 192.268C409.508 193.108 407.016 194.312 405.252 194.928L406.316 195.964C408.136 195.404 410.516 194.452 412.42 193.528L410.936 192.268ZM402.312 191.232L400.548 191.652C402.564 195.964 406.792 198.456 413.092 199.24C413.372 198.68 413.904 197.84 414.352 197.42C408.332 196.86 404.076 194.732 402.312 191.232ZM422.444 182.636V184.512H436.584V182.636H422.444ZM421.94 196.244V198.12H436.948V196.244H421.94ZM420.988 188.04V199.268H423.032V189.944H435.996V199.268H438.124V188.04H420.988ZM429.416 175.636C432.048 179.22 436.976 183.168 441.372 185.464C441.736 184.848 442.24 184.12 442.772 183.616C438.292 181.628 433.392 177.736 430.368 173.564H428.24C426.028 177.176 421.352 181.46 416.424 183.952C416.9 184.4 417.46 185.156 417.74 185.632C422.528 183.028 427.12 179.052 429.416 175.636ZM457.136 178.184L456.156 180.2H470.408V178.184H457.136ZM460.636 184.26V186.192H469.764V184.26H460.636ZM460.608 190.42V192.408H470.156V190.42H460.608ZM459.572 178.828V199.24H461.728V178.828H459.572ZM458.2 173.816C456.828 177.932 454.56 182.02 452.012 184.624C452.488 184.96 453.328 185.716 453.636 186.08C456.212 183.196 458.648 178.8 460.244 174.348L458.2 173.816ZM451.48 173.592C449.884 177.848 447.28 182.048 444.48 184.764C444.872 185.268 445.516 186.388 445.712 186.892C448.764 183.756 451.648 178.968 453.496 174.236L451.48 173.592ZM448.484 180.816V199.212H450.612V178.744L450.556 178.716L448.484 180.816ZM479.144 198.568L481.048 196.944C479.284 194.9 476.764 192.38 474.748 190.756L472.928 192.352C474.916 193.976 477.324 196.356 479.144 198.568ZM505.408 182.048V184.064H521.732V182.048H505.408ZM513.472 188.74V190.728H522.908V188.74H513.472ZM512.352 183.084V196.972L514.536 197.252V183.084H512.352ZM505.716 186.472C505.1 191.54 503.588 195.544 500.452 197.98C500.956 198.288 501.852 199.016 502.188 199.38C505.352 196.636 507.116 192.352 507.9 186.696L505.716 186.472ZM507.032 190.084L505.324 190.728C507.732 197.56 512.296 198.876 518.96 198.876H525.54C525.624 198.26 525.988 197.252 526.324 196.748C524.952 196.776 520.108 196.776 519.072 196.776C513.388 196.776 509.02 195.796 507.032 190.084ZM512.324 173.508V178.044H514.536V173.508H512.324ZM501.796 176.7V182.804H503.868V178.716H523.048V182.804H525.204V176.7H501.796ZM544.58 174.88V176.812H552.364V174.88H544.58ZM544.58 181.32V183.196H552.364V181.32H544.58ZM544.552 187.844V189.748H552.42V187.844H544.552ZM551.412 174.88V196.552C551.412 196.972 551.272 197.112 550.852 197.112C550.432 197.14 549.032 197.14 547.548 197.112C547.828 197.644 548.136 198.568 548.192 199.156C550.264 199.156 551.58 199.1 552.364 198.764C553.176 198.428 553.456 197.784 553.456 196.58V174.88H551.412ZM543.712 174.88V185.044C543.712 189.104 543.516 194.424 541.164 198.176C541.64 198.372 542.48 198.988 542.844 199.38C545.364 195.404 545.7 189.356 545.7 185.044V174.88H543.712ZM528.928 177.232V179.08H542.34V177.232H528.928ZM532.232 181.572V183.28H539.316V181.572H532.232ZM532.232 186.024V187.704H539.344V186.024H532.232ZM528.564 190.532V192.408H542.34V190.532H528.564ZM531.308 173.816V191.288H533.24V173.816H531.308ZM538.336 173.816V191.288H540.268V173.816H538.336ZM532.456 193.024C531.616 194.9 530.16 196.776 528.592 198.036C529.096 198.316 529.908 198.932 530.3 199.268C531.812 197.868 533.436 195.712 534.472 193.584L532.456 193.024ZM536.488 193.892C537.58 195.208 538.84 197.056 539.372 198.176L541.08 197.168C540.52 196.02 539.204 194.284 538.112 193.024L536.488 193.892ZM568.492 184.456V186.276H581.232V184.456H568.492ZM568.492 190.084V191.932H581.232V190.084H568.492ZM568.296 195.852V197.784H582.38V195.852H568.296ZM574.204 179.724V196.552H576.164V179.724H574.204ZM576.136 173.564C575.604 175.44 574.596 178.156 573.728 179.808L575.492 180.312C576.36 178.744 577.48 176.224 578.348 174.068L576.136 173.564ZM569.696 173.452C568.548 177.512 566.588 181.404 564.124 183.868C564.544 184.288 565.244 185.212 565.552 185.604C568.156 182.804 570.368 178.464 571.712 173.956L569.696 173.452ZM569.64 178.8H568.772L567.624 179.948V199.212H569.64V180.676H581.904V178.8H569.64ZM556.256 188.376L556.732 190.448C559.224 189.692 562.444 188.684 565.496 187.732L565.244 185.856C561.94 186.808 558.524 187.816 556.256 188.376ZM556.732 179.136V181.096H565.272V179.136H556.732ZM560.54 173.508V196.692C560.54 197.112 560.372 197.224 560.008 197.224C559.672 197.252 558.496 197.252 557.236 197.196C557.516 197.784 557.796 198.708 557.88 199.24C559.7 199.24 560.848 199.184 561.576 198.82C562.304 198.484 562.556 197.896 562.556 196.692V173.508H560.54ZM587.672 195.432V197.504H607.44V195.432H587.672ZM596.268 173.648V196.608H598.424V173.648H596.268ZM586.636 187.62V199.268H588.764V187.62H586.636ZM606.32 187.62V199.184H608.476V187.62H606.32ZM587.728 176.168V185.828H607.356V176.168H605.172V183.784H589.8V176.168H587.728ZM627.936 182.944V184.904H638.352V182.944H627.936ZM613.208 176.42V178.212H625.556V176.42H613.208ZM612.9 187.536V189.356H625.696V187.536H612.9ZM612.816 182.832V184.624H625.892V182.832H612.816ZM633.144 183.728V199.1H635.188V183.728H633.144ZM618.388 173.592V177.344H620.432V173.592H618.388ZM618.388 184.288V199.212H620.432V184.288H618.388ZM626.928 175.776V185.576C626.928 189.552 626.536 194.396 622.952 197.924C623.456 198.204 624.212 198.904 624.464 199.38C628.412 195.488 628.916 189.804 628.916 185.604V176.952C629.308 176.896 629.476 176.784 629.504 176.56L626.928 175.776ZM636.308 173.816C634.264 174.824 630.568 175.804 627.432 176.476C627.684 176.896 627.964 177.624 628.076 178.072C631.436 177.484 635.356 176.532 637.988 175.356L636.308 173.816ZM620.236 189.888L619.088 190.84C620.124 191.708 622.756 194.172 623.652 195.208L624.884 193.64C624.184 192.996 621.132 190.504 620.236 189.888ZM614.888 178.716C615.448 180.004 615.896 181.684 615.98 182.776L617.744 182.3C617.604 181.236 617.128 179.584 616.54 178.352L614.888 178.716ZM622.056 178.296C621.748 179.472 621.16 181.208 620.656 182.328L622.336 182.72C622.84 181.684 623.428 180.116 623.96 178.716L622.056 178.296ZM618.416 188.46C617.072 191.204 614.524 194.228 612.256 195.712C612.732 196.048 613.348 196.72 613.684 197.196C615.924 195.46 618.5 192.156 619.928 189.048L618.416 188.46ZM643.028 176.42V198.568H645.212V178.548H661.76V198.428H664.028V176.42H643.028ZM644.008 194.004V196.16H663.328V194.004H644.008ZM677.916 184.876V186.892H694.128V184.876H677.916ZM679.008 178.1V180.116H692.952V178.1H679.008ZM684.72 173.648V199.212H686.82V173.648H684.72ZM684.272 185.968C682.648 190.056 679.484 194.06 676.096 195.964C676.6 196.384 677.216 197.112 677.552 197.616C680.996 195.376 684.188 191.092 685.952 186.5L684.272 185.968ZM687.296 185.94L685.672 186.5C687.24 190.784 690.04 195.208 692.896 197.588C693.26 197.028 693.96 196.244 694.464 195.852C691.608 193.864 688.78 189.832 687.296 185.94ZM670.58 176.056V178.072H674.976V190.336H670.58V192.352H676.908V176.056H670.58ZM669.544 176.056V194.564H671.476V176.056H669.544ZM700.932 190.196C698.58 190.196 696.648 192.1 696.648 194.452C696.648 196.804 698.58 198.708 700.932 198.708C703.284 198.708 705.188 196.804 705.188 194.452C705.188 192.1 703.284 190.196 700.932 190.196ZM700.932 197.28C699.364 197.28 698.076 196.02 698.076 194.452C698.076 192.884 699.364 191.624 700.932 191.624C702.5 191.624 703.76 192.884 703.76 194.452C703.76 196.02 702.5 197.28 700.932 197.28ZM201.972 215.44V217.064H218.072V215.44H201.972ZM202.504 224.456V225.884H217.708V224.456H202.504ZM202.98 227.34V228.74H217.204V227.34H202.98ZM201.636 230.308V231.876H218.24V230.308H201.636ZM208.832 213.48V216.252H210.96V213.48H208.832ZM205.92 222.916V231.008H207.824V222.916H205.92ZM212.052 222.916V231.008H213.956V222.916H212.052ZM208.636 230.7C207.096 232.268 203.988 233.472 201.188 234.228C201.524 234.536 202.056 235.264 202.252 235.628C205.136 234.676 208.468 233.164 210.232 231.204L208.636 230.7ZM211.408 230.98L209.812 231.344C211.072 235.18 213.676 238.036 217.456 239.296C217.708 238.82 218.24 238.148 218.66 237.784C215.076 236.804 212.528 234.228 211.408 230.98ZM216.672 232.324C215.636 233.052 213.816 234.116 212.556 234.704L213.564 235.74C214.852 235.18 216.56 234.34 217.82 233.416L216.672 232.324ZM204.66 219.5H207.628V221.656H204.66V219.5ZM203.064 218.184V222.944H209.308V218.184H203.064ZM212.416 219.5H215.468V221.656H212.416V219.5ZM210.792 218.184V222.944H217.148V218.184H210.792ZM193.712 221.964V223.644H200.908V221.964H193.712ZM193.88 214.488V216.168H200.824V214.488H193.88ZM193.712 225.716V227.396H200.908V225.716H193.712ZM192.564 218.156V219.892H201.608V218.156H192.564ZM194.692 229.496V231.232H199.116V235.908H194.692V237.644H200.88V229.496H194.692ZM193.656 229.496V238.96H195.392V229.496H193.656ZM202.84 237.336L203.372 239.044C205.836 238.596 209 238.036 212.08 237.448L211.968 235.88C208.608 236.44 205.192 237 202.84 237.336ZM205.444 233.444V237.644H207.264V232.744L206.452 232.436L205.444 233.444ZM232.604 213.508C231.652 216.196 230 218.744 228.096 220.396C228.572 220.704 229.356 221.376 229.664 221.74C231.624 219.836 233.444 216.98 234.536 213.984L232.604 213.508ZM232.492 220.564C231.736 222.524 230.476 224.484 229.02 225.828C229.496 226.08 230.336 226.612 230.728 226.92C232.128 225.464 233.584 223.28 234.452 221.068L232.492 220.564ZM232.324 216.252L231.596 218.1H244.476V216.252H232.324ZM236.44 217.512V227.256C236.44 227.564 236.356 227.648 235.992 227.676C235.628 227.704 234.452 227.704 233.136 227.648C233.444 228.18 233.724 228.964 233.836 229.524C235.6 229.524 236.748 229.496 237.476 229.188C238.26 228.88 238.456 228.32 238.456 227.256V217.512H236.44ZM239.996 221.18C241.312 223 242.684 225.548 243.244 227.2L245.064 226.332C244.476 224.708 243.104 222.244 241.732 220.424L239.996 221.18ZM243.888 216.252V216.56C243.356 218.128 242.6 220.06 241.956 221.236L243.776 221.6C244.448 220.368 245.316 218.324 246.016 216.56L244.56 216.196L244.224 216.252H243.888ZM227.872 230.896V235.964C227.872 238.176 228.628 238.764 231.54 238.764C232.156 238.764 236.328 238.764 236.972 238.764C239.38 238.764 240.024 237.924 240.276 234.536C239.688 234.396 238.848 234.088 238.4 233.724C238.26 236.496 238.064 236.86 236.832 236.86C235.908 236.86 232.408 236.86 231.708 236.86C230.224 236.86 229.944 236.72 229.944 235.964V230.896H227.872ZM230.28 230.056C232.1 230.952 234.172 232.464 235.124 233.584L236.636 232.212C235.628 231.092 233.472 229.664 231.68 228.796L230.28 230.056ZM239.492 231.764C241.592 233.556 243.664 236.188 244.476 238.036L246.352 236.972C245.484 235.068 243.3 232.548 241.228 230.784L239.492 231.764ZM224.456 231.232C223.868 233.584 222.664 235.824 220.592 237.14L222.328 238.344C224.54 236.86 225.632 234.368 226.332 231.848L224.456 231.232ZM227.144 213.48C225.548 216.56 222.916 219.64 220.284 221.628C220.704 221.992 221.404 222.832 221.656 223.252C224.372 221.04 227.2 217.596 229.02 214.124L227.144 213.48ZM224.568 218.744V229.496H226.584V216.784L226.556 216.756L224.568 218.744ZM254.752 221.04V222.944H269.368V221.04H254.752ZM252.736 233.724V235.6H273.372V233.724H252.736ZM253.8 216.756V218.66H273.288V216.756H253.8ZM268.528 221.04V221.488C268.22 232.408 267.828 236.328 267.1 237.224C266.848 237.56 266.596 237.616 266.064 237.616C265.532 237.644 264.244 237.616 262.816 237.504C263.096 237.98 263.292 238.708 263.32 239.184C264.72 239.268 266.12 239.268 266.96 239.212C267.8 239.128 268.416 238.904 268.948 238.204C269.844 237.028 270.236 233.36 270.572 222.076C270.572 221.796 270.6 221.04 270.6 221.04H268.528ZM253.716 221.04C253.24 225.884 252.232 232.632 251.448 236.524L253.576 236.664C254.276 232.8 255.228 226.052 255.844 221.04H253.716ZM255.06 213.34C253.604 216.896 251.196 220.48 248.62 222.748C249.18 223.056 250.132 223.7 250.58 224.036C253.016 221.572 255.564 217.792 257.244 213.956L255.06 213.34ZM258.42 224.204C260.268 225.016 262.424 226.388 263.488 227.424L264.748 226.108C263.628 225.072 261.444 223.812 259.624 223L258.42 224.204ZM257.72 230.336C259.624 231.316 261.92 232.856 263.04 233.976L264.272 232.632C263.124 231.54 260.8 230.056 258.896 229.16L257.72 230.336ZM248.676 227.312V229.216H253.912V229.16H269.368V229.216H274.352V227.312H269.368V227.368H253.912V227.312H248.676ZM287.96 213.564C286.98 218.044 285.272 222.412 282.892 225.156C283.48 225.436 284.488 225.996 284.908 226.332C287.176 223.364 289.024 218.8 290.144 213.956L287.96 213.564ZM292.58 220.424H291.46V224.176C291.46 226.836 290.004 234.172 281.464 237.532C281.856 237.924 282.5 238.792 282.752 239.24C289.528 236.412 292.076 230.784 292.552 228.124C293 230.756 295.38 236.552 301.26 239.24C301.596 238.736 302.24 237.868 302.632 237.364C295.016 234.088 293.644 226.668 293.644 224.176V220.424H292.58ZM276.536 233.472L277.908 235.208C279.812 233.388 282.164 230.952 284.236 228.712L283.088 226.892C280.708 229.384 278.16 231.96 276.536 233.472ZM277.432 216.868C279.252 218.128 281.464 219.976 282.528 221.208L284.096 219.5C283.004 218.296 280.736 216.532 278.916 215.356L277.432 216.868ZM288.016 218.548L287.064 220.62H300.616V218.548H288.016ZM299.888 218.548V219.052C299.412 221.208 298.208 224.176 297.284 225.856C297.816 226.08 298.628 226.5 299.076 226.752C300.112 224.876 301.428 221.964 302.156 219.276L300.616 218.408L300.224 218.548H299.888ZM304.9 215.328V217.232H319.264V215.328H304.9ZM305.74 228.656V230.56H318.452V228.656H305.74ZM311.088 225.324V236.608L313.16 236.3V225.324H311.088ZM304.592 236.3L304.928 238.4C308.652 237.896 314.168 237.112 319.376 236.384L319.32 234.424C313.916 235.152 308.232 235.908 304.592 236.3ZM304.844 222.944L305.012 224.932C308.344 224.736 313.132 224.484 317.724 224.204L317.78 222.356C312.964 222.608 308.036 222.832 304.844 222.944ZM313.776 219.528C315.456 221.516 317.332 224.232 318.144 225.94L319.824 224.932C319.012 223.252 317.052 220.62 315.344 218.66L313.776 219.528ZM309.744 216.336C309.128 218.548 307.924 221.824 306.944 223.812L308.792 224.26C309.828 222.328 311.032 219.248 312.012 216.784L309.744 216.336ZM320.496 216.868V232.38H322.512V216.868H320.496ZM327.104 214.292V236.44C327.104 236.944 326.964 237.084 326.46 237.112C325.9 237.112 324.164 237.14 322.288 237.056C322.596 237.7 322.904 238.68 323.016 239.268C325.284 239.268 326.992 239.212 327.916 238.848C328.84 238.512 329.176 237.868 329.176 236.412V214.292H327.104ZM347.208 223.084V224.96H357.764V223.084H347.208ZM340.628 236.3V238.176H354.74V236.3H340.628ZM346.2 219.752V230H348.328V219.752H346.2ZM339.508 228.992V239.296H341.552V230.896H353.732V239.24H355.888V228.992H339.508ZM345.22 213.508V218.268H347.376V213.508H345.22ZM335.896 217.12V219.136H358.156V217.12H335.896ZM334.86 217.12V224.372C334.86 228.404 334.664 234.06 332.368 238.092C332.872 238.316 333.796 238.904 334.16 239.268C336.568 235.012 336.96 228.684 336.96 224.372V217.12H334.86ZM361.964 216.756V218.604H371.764V216.756H361.964ZM364.932 235.684V237.476H372.772V235.684H364.932ZM364.904 231.036V232.716H372.8V231.036H364.904ZM360.704 221.964V223.84H375.18V221.964H360.704ZM366.304 213.732V223.168H368.264V213.732H366.304ZM373.724 214.46C370.952 220.956 366.164 226.052 360.088 229.076C360.48 229.496 361.152 230.336 361.404 230.784C367.564 227.396 372.548 222.02 375.628 215.02L373.724 214.46ZM365.576 226.556H364.82L363.644 227.788V239.128H365.576V228.32H372.716V226.556H365.576ZM371.876 226.556V238.736H373.92V226.556H371.876ZM376.356 215.104V239.24H378.456V217.064H384.728V215.104H376.356ZM384.196 215.104V215.748C383.3 218.016 381.732 221.824 380.22 224.736C383.188 227.172 384.084 229.3 384.084 231.064C384.084 232.1 383.888 232.912 383.216 233.276C382.88 233.472 382.404 233.584 381.9 233.612C381.284 233.668 380.444 233.64 379.548 233.556C379.884 234.116 380.136 235.04 380.164 235.6C381.032 235.656 382.04 235.656 382.796 235.572C383.524 235.488 384.168 235.292 384.672 234.956C385.708 234.284 386.128 232.996 386.1 231.26C386.1 229.244 385.344 227.032 382.404 224.428C383.776 221.852 385.288 218.604 386.464 215.972L384.952 214.992L384.616 215.104H384.196ZM393.296 213.48C392.624 215.524 391.308 218.464 390.244 220.256L392.036 220.788C393.156 219.024 394.472 216.308 395.48 213.984L393.296 213.48ZM388.592 219.416L388.788 221.46C391.84 221.292 396.18 221.068 400.352 220.816L400.38 218.94C395.984 219.136 391.532 219.332 388.592 219.416ZM390.3 223.476V239.212H392.26V225.268H399.176V223.476H390.3ZM398.224 223.476V236.804C398.224 237.168 398.112 237.252 397.748 237.252C397.356 237.28 396.152 237.308 394.836 237.252C395.116 237.784 395.424 238.624 395.536 239.184C397.3 239.184 398.532 239.156 399.316 238.82C400.072 238.484 400.296 237.896 400.296 236.832V223.476H398.224ZM391.224 227.648V229.3H399.316V227.648H391.224ZM391.224 231.848V233.528H399.316V231.848H391.224ZM402.928 213.536V222.832C402.928 225.156 403.628 225.8 406.316 225.8C406.876 225.8 410.544 225.8 411.132 225.8C413.4 225.8 414.016 224.876 414.268 221.46C413.652 221.32 412.812 221.012 412.364 220.648C412.252 223.42 412.056 223.896 410.964 223.896C410.152 223.896 407.1 223.896 406.512 223.896C405.224 223.896 405 223.7 405 222.804V213.536H402.928ZM411.496 215.608C409.592 216.588 406.4 217.82 403.628 218.688C403.88 219.108 404.16 219.724 404.272 220.172C407.156 219.36 410.516 218.268 412.896 217.148L411.496 215.608ZM402.928 226.556V236.048C402.928 238.372 403.656 239.016 406.372 239.016C406.96 239.016 410.74 239.016 411.356 239.016C413.708 239.016 414.324 238.008 414.604 234.228C414.016 234.116 413.176 233.78 412.7 233.444C412.56 236.608 412.392 237.14 411.188 237.14C410.348 237.14 407.184 237.14 406.596 237.14C405.252 237.14 405 236.972 405 236.02V226.556H402.928ZM411.832 228.096C409.928 229.328 406.54 230.616 403.628 231.456C403.852 231.876 404.16 232.548 404.272 232.968C407.296 232.156 410.88 231.008 413.232 229.664L411.832 228.096ZM396.796 216.14C398.28 218.128 399.792 220.816 400.38 222.524L402.228 221.712C401.584 219.976 400.016 217.4 398.532 215.44L396.796 216.14ZM417.264 217.12V219.108H441.792V217.12H417.264ZM424.096 227.116V228.936H437.256V227.116H424.096ZM422.612 222.356V239.24H424.684V224.232H436.92V222.356H422.612ZM436.444 222.356V236.608C436.444 237.028 436.276 237.168 435.8 237.196C435.296 237.196 433.588 237.224 431.712 237.14C432.02 237.728 432.328 238.596 432.412 239.184C434.82 239.184 436.388 239.184 437.284 238.848C438.236 238.512 438.488 237.868 438.488 236.636V222.356H436.444ZM426.42 213.48C424.908 219.108 421.604 225.044 416.592 228.488C417.012 228.908 417.656 229.636 417.936 230.112C423.284 226.36 426.644 220.144 428.548 213.984L426.42 213.48ZM424.096 231.848V233.668H437.256V231.848H424.096ZM445.432 215.468V217.596H469.54V215.468H445.432ZM459.152 223.616C462.484 225.884 466.684 229.16 468.644 231.316L470.352 229.72C468.28 227.564 463.996 224.4 460.72 222.272L459.152 223.616ZM458.62 216.196C456.016 221.46 450.808 226.836 444.732 229.888C445.152 230.336 445.824 231.176 446.16 231.708C452.488 228.376 457.724 222.832 460.916 217.036L458.62 216.196ZM456.324 221.796V239.212H458.592V219.556L456.324 221.796ZM478.416 219.864V221.712H492.668V219.864H478.416ZM479.844 224.652V235.6H481.804V224.652H479.844ZM480.908 224.652V226.416H489.196V231.736H480.908V233.556H491.156V224.652H480.908ZM473.936 214.936V239.296H475.98V216.952H496.308V214.936H473.936ZM495.02 214.936V236.58C495.02 237.056 494.852 237.224 494.348 237.252C493.872 237.28 492.22 237.28 490.456 237.224C490.792 237.784 491.128 238.708 491.212 239.268C493.648 239.296 495.048 239.24 495.888 238.876C496.756 238.54 497.092 237.896 497.092 236.58V214.936H495.02ZM512.464 225.66V227.2H526.24V225.66H512.464ZM511.96 237.14V238.736H526.436V237.14H511.96ZM516.636 213.508V217.008H518.232V213.508H516.636ZM520.22 213.508V217.008H521.816V213.508H520.22ZM515.6 229.916H522.936V232.38H515.6V229.916ZM513.864 228.544V233.752H524.756V228.544H513.864ZM514.956 220.844H523.58V222.776H514.956V220.844ZM514.956 217.54H523.58V219.444H514.956V217.54ZM513.304 216.084V224.26H525.288V216.084H513.304ZM515.18 234.312C515.74 235.32 516.188 236.692 516.328 237.616L517.952 237.028C517.784 236.104 517.308 234.788 516.692 233.808L515.18 234.312ZM521.676 233.78C521.396 234.704 520.836 236.132 520.388 237.084L521.76 237.56C522.236 236.692 522.88 235.432 523.468 234.284L521.676 233.78ZM503.812 229.188V230.7H510.056V229.188H503.812ZM503.812 232.772V234.312H510.056V232.772H503.812ZM502.832 225.66V239.268H504.624V227.2H509.972V225.66H502.832ZM508.852 225.66V237.252C508.852 237.532 508.74 237.616 508.46 237.616C508.208 237.644 507.312 237.644 506.332 237.616C506.556 238.064 506.808 238.764 506.892 239.24C508.376 239.24 509.3 239.24 509.888 238.932C510.504 238.652 510.672 238.176 510.672 237.28V225.66H508.852ZM502.804 214.488V223H504.428V216.084H509.048V223H510.7V214.488H502.804ZM501.208 222.272V226.304H502.804V223.812H510.7V226.304H512.352V222.272H501.208ZM505.884 217.904V222.86H507.228V219.248H510.112V217.904H505.884ZM516.916 216.644V223.532H518.232V216.644H516.916ZM520.22 216.644V223.532H521.536V216.644H520.22ZM542.928 220.228V221.852H550.656V220.228H542.928ZM541.976 225.072H544.552V228.656H541.976V225.072ZM540.492 223.616V230.112H546.12V223.616H540.492ZM549.032 225.072H551.776V228.656H549.032V225.072ZM547.548 223.616V230.112H553.372V223.616H547.548ZM542.592 230.868C542.172 234.06 541.024 236.552 538.812 238.092C539.232 238.372 539.904 239.016 540.156 239.352C542.536 237.532 543.88 234.732 544.412 230.98L542.592 230.868ZM542.284 234.48C543.432 235.544 544.832 237.028 545.504 237.98L546.708 236.748C546.036 235.824 544.58 234.424 543.46 233.416L542.284 234.48ZM549.592 230.84C549.144 234.004 547.94 236.468 545.728 238.008C546.176 238.288 546.848 238.96 547.1 239.268C549.48 237.448 550.908 234.676 551.44 230.952L549.592 230.84ZM549.172 234.592C550.628 236.02 552.364 238.008 553.176 239.24L554.548 238.176C553.708 236.972 551.944 235.04 550.516 233.668L549.172 234.592ZM546.624 215.468C548.22 218.044 551.02 220.816 553.68 222.44C553.932 221.908 554.38 221.124 554.772 220.62C552.112 219.22 549.284 216.448 547.52 213.592H545.588C544.3 216.252 541.584 219.22 538.728 220.872C539.092 221.32 539.54 222.076 539.764 222.58C542.592 220.816 545.224 217.96 546.624 215.468ZM530.888 218.912V220.564H538.672V218.912H530.888ZM530.888 223.14V224.764H538.728V223.14H530.888ZM529.824 227.396V229.076H538.392V227.396H529.824ZM534.052 215.58V228.264H535.732V215.58H534.052ZM534.892 230.616C535.564 231.764 536.236 233.276 536.516 234.284L537.524 233.864C537.244 232.884 536.544 231.372 535.844 230.28L534.892 230.616ZM533.184 231.008C533.716 232.436 534.164 234.312 534.276 235.544L535.368 235.292C535.256 234.088 534.752 232.212 534.192 230.784L533.184 231.008ZM531.476 231.288C531.728 232.94 531.868 235.012 531.812 236.384L532.96 236.244C532.988 234.872 532.848 232.8 532.568 231.148L531.476 231.288ZM529.628 230.784C529.544 233.136 529.264 235.628 528.312 237.028L529.488 237.7C530.524 236.16 530.804 233.5 530.916 231.008L529.628 230.784ZM529.824 214.628V228.32H531.56V216.336H539.204V214.628H529.824ZM537.72 227.396V227.704C537.468 234.424 537.216 236.832 536.74 237.364C536.544 237.644 536.348 237.7 536.012 237.7C535.648 237.7 534.836 237.7 533.912 237.588C534.136 238.036 534.304 238.764 534.36 239.24C535.284 239.296 536.236 239.296 536.768 239.24C537.412 239.184 537.832 239.016 538.224 238.484C538.896 237.672 539.148 235.208 539.428 228.208C539.456 227.928 539.456 227.396 539.456 227.396H537.72ZM568.576 230.252H570.396L570.956 219.388L571.04 216.056H567.932L568.016 219.388L568.576 230.252ZM569.5 237.14C570.48 237.14 571.292 236.44 571.292 235.32C571.292 234.2 570.48 233.444 569.5 233.444C568.492 233.444 567.68 234.2 567.68 235.32C567.68 236.44 568.492 237.14 569.5 237.14Z" fill="white"/>
<g filter="url(#filter1_d_179_530)">
<ellipse cx="604.977" cy="82.2348" rx="8.82285" ry="13.6668" transform="rotate(-50.5675 604.977 82.2348)" fill="#5FDBE3"/>
<ellipse cx="617.589" cy="80.3461" rx="8.82285" ry="13.6668" transform="rotate(21.8759 617.589 80.3461)" fill="#5FDBE3"/>
<ellipse cx="603.965" cy="96.0708" rx="8.82285" ry="13.6668" transform="rotate(-117.228 603.965 96.0708)" fill="#5FDBE3"/>
<ellipse cx="617.148" cy="103.112" rx="8.82285" ry="13.6668" transform="rotate(-19.4665 617.148 103.112)" fill="#5FDBE3"/>
<ellipse cx="627.787" cy="90.0753" rx="8.82285" ry="13.6668" transform="rotate(-86.3691 627.787 90.0753)" fill="#5FDBE3"/>
</g>
<circle cx="613.803" cy="91.1122" r="8.47686" transform="rotate(-50.5675 613.803 91.1122)" fill="white"/>
<g filter="url(#filter2_d_179_530)">
<ellipse cx="54.7582" cy="218.22" rx="7.72546" ry="11.9669" transform="rotate(-29.3097 54.7582 218.22)" fill="#F4C748"/>
<ellipse cx="65.6498" cy="220.683" rx="7.72546" ry="11.9669" transform="rotate(43.1338 65.6498 220.683)" fill="#F4C748"/>
<ellipse cx="49.5403" cy="229.19" rx="7.72546" ry="11.9669" transform="rotate(-95.9703 49.5403 229.19)" fill="#F4C748"/>
<ellipse cx="58.0624" cy="239.12" rx="7.72546" ry="11.9669" transform="rotate(1.79138 58.0624 239.12)" fill="#F4C748"/>
<ellipse cx="70.8837" cy="231.86" rx="7.72546" ry="11.9669" transform="rotate(-65.1112 70.8837 231.86)" fill="#F4C748"/>
</g>
<circle cx="59.1425" cy="228.266" r="7.4225" transform="rotate(-29.3097 59.1425 228.266)" fill="white"/>
<g filter="url(#filter3_d_179_530)">
<ellipse cx="641.467" cy="91.6177" rx="7.72546" ry="11.9669" transform="rotate(-50.5675 641.467 91.6177)" fill="#F4C748"/>
<ellipse cx="652.51" cy="89.9638" rx="7.72546" ry="11.9669" transform="rotate(21.8759 652.51 89.9638)" fill="#F4C748"/>
<ellipse cx="640.581" cy="103.733" rx="7.72546" ry="11.9669" transform="rotate(-117.228 640.581 103.733)" fill="#F4C748"/>
<ellipse cx="652.124" cy="109.898" rx="7.72546" ry="11.9669" transform="rotate(-19.4665 652.124 109.898)" fill="#F4C748"/>
<ellipse cx="661.44" cy="98.483" rx="7.72546" ry="11.9669" transform="rotate(-86.3691 661.44 98.483)" fill="#F4C748"/>
</g>
<circle cx="649.195" cy="99.3909" r="7.4225" transform="rotate(-50.5675 649.195 99.3909)" fill="white"/>
<g filter="url(#filter4_d_179_530)">
<ellipse cx="88.559" cy="245.234" rx="8.82285" ry="13.6668" transform="rotate(-29.3097 88.559 245.234)" fill="#E8A160"/>
<ellipse cx="100.998" cy="248.047" rx="8.82285" ry="13.6668" transform="rotate(43.1338 100.998 248.047)" fill="#E8A160"/>
<ellipse cx="82.6003" cy="257.762" rx="8.82285" ry="13.6668" transform="rotate(-95.9703 82.6003 257.762)" fill="#E8A160"/>
<ellipse cx="92.3327" cy="269.104" rx="8.82285" ry="13.6668" transform="rotate(1.79138 92.3327 269.104)" fill="#E8A160"/>
<ellipse cx="106.975" cy="260.812" rx="8.82285" ry="13.6668" transform="rotate(-65.1112 106.975 260.812)" fill="#E8A160"/>
</g>
<circle cx="93.5663" cy="256.708" r="8.47686" transform="rotate(-29.3097 93.5663 256.708)" fill="white"/>
<g clip-path="url(#clip0_179_530)">
<path d="M247.488 44.2261C246.804 40.7578 244.313 38.1369 241.196 37.0619L236.772 14.6244C236.519 13.3401 234.821 10.1281 231.149 10.8522C230.104 11.0582 229.135 11.6121 228.42 12.4607L217.908 24.9066C212.627 31.1536 205.302 35.4662 197.279 37.048L169.098 42.6045C163.909 43.6275 160.533 48.6617 161.556 53.8502L164.335 67.9407C165.358 73.1292 170.392 76.5052 175.58 75.4822L180.527 74.5069C180.626 76.0853 180.819 77.6728 181.133 79.2668C182.284 85.104 184.731 90.3519 188.095 94.8103C189.166 96.2292 191.014 96.8362 192.757 96.4924L203.66 94.3428C207.483 93.5889 208.915 88.7565 205.998 86.1723C202.968 83.4883 200.76 79.831 199.919 75.5628C199.597 73.9321 199.526 72.3176 199.64 70.7383L203.761 69.9257C211.784 68.3438 220.199 69.5529 227.454 73.3281L241.903 80.8525C242.867 81.3545 243.972 81.5139 245.039 81.3046C248.696 80.5834 249.076 77.035 248.809 75.6817L244.385 53.2442C246.862 51.0649 248.172 47.6944 247.488 44.2261ZM237.49 67.7613L231.874 64.837C222.698 60.0591 212.054 58.5317 201.909 60.5321L199.131 46.4416C209.276 44.4413 218.544 38.988 225.219 31.0846L229.305 26.2473L237.49 67.7613Z" fill="#7C5302"/>
</g>
<g filter="url(#filter5_d_179_530)">
<g filter="url(#filter6_d_179_530)">
<ellipse rx="7.55146" ry="11.6973" transform="matrix(0.653876 -0.756629 0.787545 0.616291 163.472 60.4696)" fill="#F4C748"/>
<ellipse rx="7.52567" ry="11.6852" transform="matrix(0.947676 0.360364 -0.384769 0.907692 174.516 58.8945)" fill="#F4C748"/>
<ellipse rx="7.52635" ry="11.6863" transform="matrix(-0.46556 -0.864866 0.913172 -0.449096 162.586 72.0085)" fill="#F4C748"/>
<ellipse rx="7.57002" ry="11.6743" transform="matrix(0.967313 -0.327859 0.33829 0.917945 174.129 77.8804)" fill="#F4C748"/>
<ellipse rx="7.58816" ry="11.6605" transform="matrix(0.0690737 -0.9742 1.02122 0.0576875 183.445 67.0084)" fill="#F4C748"/>
</g>
<ellipse rx="7.24725" ry="7.24853" transform="matrix(0.653886 -0.756622 0.787553 0.616281 171.2 67.8731)" fill="white"/>
</g>
<defs>
<filter id="filter0_d_179_530" x="260.193" y="30.5001" width="198.461" height="33.6364" filterUnits="userSpaceOnUse" color-interpolation-filters="sRGB">
<feFlood flood-opacity="0" result="BackgroundImageFix"/>
<feColorMatrix in="SourceAlpha" type="matrix" values="0 0 0 0 0 0 0 0 0 0 0 0 0 0 0 0 0 0 127 0" result="hardAlpha"/>
<feOffset dy="1"/>
<feGaussianBlur stdDeviation="0.5"/>
<feComposite in2="hardAlpha" operator="out"/>
<feColorMatrix type="matrix" values="0 0 0 0 0 0 0 0 0 0 0 0 0 0 0 0 0 0 0.25 0"/>
<feBlend mode="normal" in2="BackgroundImageFix" result="effect1_dropShadow_179_530"/>
<feBlend mode="normal" in="SourceGraphic" in2="effect1_dropShadow_179_530" result="shape"/>
</filter>
<filter id="filter1_d_179_530" x="590.156" y="66.2411" width="54.282" height="53.0901" filterUnits="userSpaceOnUse" color-interpolation-filters="sRGB">
<feFlood flood-opacity="0" result="BackgroundImageFix"/>
<feColorMatrix in="SourceAlpha" type="matrix" values="0 0 0 0 0 0 0 0 0 0 0 0 0 0 0 0 0 0 127 0" result="hardAlpha"/>
<feOffset dx="1" dy="1"/>
<feGaussianBlur stdDeviation="1"/>
<feComposite in2="hardAlpha" operator="out"/>
<feColorMatrix type="matrix" values="0 0 0 0 0 0 0 0 0 0 0 0 0 0 0 0 0 0 0.13 0"/>
<feBlend mode="normal" in2="BackgroundImageFix" result="effect1_dropShadow_179_530"/>
<feBlend mode="normal" in="SourceGraphic" in2="effect1_dropShadow_179_530" result="shape"/>
</filter>
<filter id="filter2_d_179_530" x="36.6108" y="206.118" width="48.6079" height="47.9659" filterUnits="userSpaceOnUse" color-interpolation-filters="sRGB">
<feFlood flood-opacity="0" result="BackgroundImageFix"/>
<feColorMatrix in="SourceAlpha" type="matrix" values="0 0 0 0 0 0 0 0 0 0 0 0 0 0 0 0 0 0 127 0" result="hardAlpha"/>
<feOffset dx="1" dy="1"/>
<feGaussianBlur stdDeviation="1"/>
<feComposite in2="hardAlpha" operator="out"/>
<feColorMatrix type="matrix" values="0 0 0 0 0 0 0 0 0 0 0 0 0 0 0 0 0 0 0.13 0"/>
<feBlend mode="normal" in2="BackgroundImageFix" result="effect1_dropShadow_179_530"/>
<feBlend mode="normal" in="SourceGraphic" in2="effect1_dropShadow_179_530" result="shape"/>
</filter>
<filter id="filter3_d_179_530" x="628.365" y="77.4889" width="48.0278" height="46.9844" filterUnits="userSpaceOnUse" color-interpolation-filters="sRGB">
<feFlood flood-opacity="0" result="BackgroundImageFix"/>
<feColorMatrix in="SourceAlpha" type="matrix" values="0 0 0 0 0 0 0 0 0 0 0 0 0 0 0 0 0 0 127 0" result="hardAlpha"/>
<feOffset dx="1" dy="1"/>
<feGaussianBlur stdDeviation="1"/>
<feComposite in2="hardAlpha" operator="out"/>
<feColorMatrix type="matrix" values="0 0 0 0 0 0 0 0 0 0 0 0 0 0 0 0 0 0 0.13 0"/>
<feBlend mode="normal" in2="BackgroundImageFix" result="effect1_dropShadow_179_530"/>
<feBlend mode="normal" in="SourceGraphic" in2="effect1_dropShadow_179_530" result="shape"/>
</filter>
<filter id="filter4_d_179_530" x="67.9761" y="231.555" width="54.9438" height="54.2112" filterUnits="userSpaceOnUse" color-interpolation-filters="sRGB">
<feFlood flood-opacity="0" result="BackgroundImageFix"/>
<feColorMatrix in="SourceAlpha" type="matrix" values="0 0 0 0 0 0 0 0 0 0 0 0 0 0 0 0 0 0 127 0" result="hardAlpha"/>
<feOffset dx="1" dy="1"/>
<feGaussianBlur stdDeviation="1"/>
<feComposite in2="hardAlpha" operator="out"/>
<feColorMatrix type="matrix" values="0 0 0 0 0 0 0 0 0 0 0 0 0 0 0 0 0 0 0.13 0"/>
<feBlend mode="normal" in2="BackgroundImageFix" result="effect1_dropShadow_179_530"/>
<feBlend mode="normal" in="SourceGraphic" in2="effect1_dropShadow_179_530" result="shape"/>
</filter>
<filter id="filter5_d_179_530" x="150.351" y="47.944" width="46.0142" height="42.9388" filterUnits="userSpaceOnUse" color-interpolation-filters="sRGB">
<feFlood flood-opacity="0" result="BackgroundImageFix"/>
<feColorMatrix in="SourceAlpha" type="matrix" values="0 0 0 0 0 0 0 0 0 0 0 0 0 0 0 0 0 0 127 0" result="hardAlpha"/>
<feOffset dy="1"/>
<feGaussianBlur stdDeviation="0.5"/>
<feComposite in2="hardAlpha" operator="out"/>
<feColorMatrix type="matrix" values="0 0 0 0 0 0 0 0 0 0 0 0 0 0 0 0 0 0 0.25 0"/>
<feBlend mode="normal" in2="BackgroundImageFix" result="effect1_dropShadow_179_530"/>
<feBlend mode="normal" in="SourceGraphic" in2="effect1_dropShadow_179_530" result="shape"/>
</filter>
<filter id="filter6_d_179_530" x="150.351" y="46.944" width="48.0142" height="44.9388" filterUnits="userSpaceOnUse" color-interpolation-filters="sRGB">
<feFlood flood-opacity="0" result="BackgroundImageFix"/>
<feColorMatrix in="SourceAlpha" type="matrix" values="0 0 0 0 0 0 0 0 0 0 0 0 0 0 0 0 0 0 127 0" result="hardAlpha"/>
<feOffset dx="1" dy="1"/>
<feGaussianBlur stdDeviation="1"/>
<feComposite in2="hardAlpha" operator="out"/>
<feColorMatrix type="matrix" values="0 0 0 0 0 0 0 0 0 0 0 0 0 0 0 0 0 0 0.13 0"/>
<feBlend mode="normal" in2="BackgroundImageFix" result="effect1_dropShadow_179_530"/>
<feBlend mode="normal" in="SourceGraphic" in2="effect1_dropShadow_179_530" result="shape"/>
</filter>
<clipPath id="clip0_179_530">
<rect width="86.1703" height="86.1703" fill="white" transform="translate(154 16.6694) rotate(-11.154)"/>
</clipPath>
</defs>
</svg>
